<svg xmlns="http://www.w3.org/2000/svg" viewBox="0 0 51.56 33.87"><title>equipe</title><g id="Layer_2" data-name="Layer 2"><g id="Layer_1-2" data-name="Layer 1"><path d="M8,8.33A4.11,4.11,0,0,0,12.61,4.8,4.17,4.17,0,0,0,9.16.05,4.12,4.12,0,0,0,4.5,3.57,4.18,4.18,0,0,0,8,8.33"/><path d="M29.69,23.45c-.71-1.83-3.24-.81-3.24-.81l-6.22,2.52L18.62,21a3.59,3.59,0,0,1-2,1.71l-1.25.5L17,27.4c.57,1.49,1.41,1.88,2,1.94a4.08,4.08,0,0,0,1.95-.24l6.94-2.8c2.53-1,1.82-2.85,1.82-2.85"/><path d="M11.14,24.1l5-2c2.53-1,1.82-2.85,1.82-2.85l-3.4-8.77,2.76-.18,1.53,4.19A1.63,1.63,0,0,0,21,15.64c1.48-.57.85-2.3.85-2.3s-1.93-5.24-2-5.3a1.64,1.64,0,0,0-.61-.79,1.55,1.55,0,0,0-1-.26l-5.63.35a1.53,1.53,0,0,0-.41,0A4.84,4.84,0,0,1,8.27,9a2,2,0,0,0-.66.59L5.37,12.5l-2.43-3A1.62,1.62,0,0,0,.56,9.1c-1.22,1-.07,2.46-.07,2.46s3.79,4.67,3.93,4.78a1.61,1.61,0,0,0,2.37-.45l2.33-3,2.61,6.75L8.94,20.76c-1.46.59-1.84,1.45-1.9,2.07a4.3,4.3,0,0,0,.23,2L10,31.91c1,2.59,2.79,1.86,2.79,1.86,1.79-.72.79-3.31.79-3.31Z"/><path d="M29.73,8.33A4.11,4.11,0,0,0,34.38,4.8,4.16,4.16,0,0,0,30.93.05a4.11,4.11,0,0,0-4.65,3.52,4.18,4.18,0,0,0,3.45,4.76"/><path d="M51.47,23.45c-.71-1.83-3.24-.81-3.24-.81L42,25.16,40.39,21a3.53,3.53,0,0,1-2,1.71l-1.25.5,1.63,4.21c.57,1.49,1.41,1.88,2,1.94a4.11,4.11,0,0,0,2-.24l6.93-2.8c2.54-1,1.83-2.85,1.83-2.85"/><path d="M32.91,24.1l5-2c2.54-1,1.83-2.85,1.83-2.85l-3.4-8.77,2.75-.18,1.54,4.19a1.62,1.62,0,0,0,2.12,1.16c1.49-.57.85-2.3.85-2.3s-1.93-5.24-2-5.3A1.55,1.55,0,0,0,40,7l-5.63.35a1.47,1.47,0,0,0-.41,0A4.85,4.85,0,0,1,30.05,9a2,2,0,0,0-.66.59L27.15,12.5l-2.43-3a1.61,1.61,0,0,0-2.38-.4c-1.22,1-.07,2.46-.07,2.46s3.79,4.67,3.93,4.78a1.61,1.61,0,0,0,2.37-.45l2.33-3,2.61,6.75-2.79,1.12c-1.46.59-1.84,1.45-1.9,2.07a4.3,4.3,0,0,0,.23,2l2.74,7.09c1,2.59,2.79,1.86,2.79,1.86,1.79-.72.79-3.31.79-3.31Z"/></g></g></svg>