<svg xmlns="http://www.w3.org/2000/svg" viewBox="0 0 38.98 38.98"><title>fruto</title><g id="Layer_2" data-name="Layer 2"><g id="Layer_1-2" data-name="Layer 1"><path d="M15,24.13a6.85,6.85,0,1,0,9.36-2.5A6.85,6.85,0,0,0,15,24.13Zm2,1.15a4.57,4.57,0,1,1,1.67,6.24A4.58,4.58,0,0,1,17,25.28Z"/><path d="M.16,29.5A11.5,11.5,0,0,0,16.22,38a11.4,11.4,0,0,0,16-11.75,11.53,11.53,0,0,1,1.45-7.09,6.85,6.85,0,0,0-1.57-8.71A4.63,4.63,0,0,1,37.52,8.2,1.14,1.14,0,0,0,38.15,6a6.93,6.93,0,0,0-8,3.27,6.85,6.85,0,0,0-8.33,3,11.22,11.22,0,0,1-3.31,3.63,11.63,11.63,0,0,1-.18-2A6.94,6.94,0,0,0,12.64,7a5,5,0,0,1,3.7-4.78A1.14,1.14,0,0,0,15.79,0a7.16,7.16,0,0,0-3.92,2.59,7.55,7.55,0,0,0-.7,1.1,6.59,6.59,0,0,0-.63-1.08A6.26,6.26,0,0,0,5.42,0H3.5A1.13,1.13,0,0,0,2.42.78a6.44,6.44,0,0,0,.89,5.79A6.28,6.28,0,0,0,6.67,9l0,0a6.93,6.93,0,0,0-2,4.88,11.57,11.57,0,0,1-2.36,6.86A11.38,11.38,0,0,0,.16,29.5Zm23.64-16,0,0A4.57,4.57,0,0,1,31.73,18,13.77,13.77,0,0,0,30,26.48,9.14,9.14,0,0,1,14.75,34.3a9.13,9.13,0,0,1,2.59-15.14A13.5,13.5,0,0,0,23.8,13.45ZM5.17,5.23a4,4,0,0,1-.76-3h1A4,4,0,0,1,8.69,4a4.14,4.14,0,0,1,.76,2.95h-1A4,4,0,0,1,5.17,5.23ZM4.11,22.09a13.86,13.86,0,0,0,2.82-8.23,4.57,4.57,0,1,1,9.13,0,13.79,13.79,0,0,0,.38,3.2,11.43,11.43,0,0,0-3.22,19l.5.41a9.2,9.2,0,0,1-11.3-7.29A9.12,9.12,0,0,1,4.11,22.09Z"/></g></g></svg>