<svg xmlns="http://www.w3.org/2000/svg" viewBox="0 0 18.24 18.24"><title>oficial</title><g id="Layer_2" data-name="Layer 2"><g id="Layer_1-2" data-name="Layer 1"><path d="M11.23,1.63a1,1,0,0,1,0,1.94,1,1,0,0,1,0-1.94M.31,11.27a.8.8,0,0,1,.08-.16l.09-.19.09-.16.1-.17.09-.16.11-.17.1-.15a1,1,0,0,1,.11-.17l.1-.15.12-.16.1-.14.13-.16a.76.76,0,0,1,.11-.14L1.77,9a1.34,1.34,0,0,0,.11-.14L2,8.75l.12-.13.14-.14.12-.12.16-.15.11-.11.19-.17L3,7.85l.29-.23.11-.09.19-.14.13-.09.17-.12L4,7.08,4.16,7l.15-.09.17-.1.15-.08.17-.1L5,6.52l.18-.09.16-.08.18-.08.16-.07.18-.07L6,6.06,6.18,6l.16,0,.19-.07.17,0,.2-.06.17,0,.2,0,.17,0,.2,0,.17,0,.21,0,.17,0,.22,0,.16,0,.23,0H9l.26,0h1.23l.38,0,.19,0,.37,0,.17,0h.07l0,0L12,5.13,12,5c.11-.14.23-.27.35-.4l.07-.08.33-.33.07-.07c.13-.12.26-.24.4-.35l.09-.08c.12-.1.24-.2.37-.29l.06,0,.43-.31L14.32,3c.14-.09.28-.18.43-.26l0,0,.47-.26.06,0A9.06,9.06,0,0,0,12.54.67,9,9,0,0,0,9.12,0,9.09,9.09,0,0,0,.66,5.7a9.24,9.24,0,0,0-.39,5.64.43.43,0,0,1,0-.07"/><path d="M11.23,3a.4.4,0,1,0-.4-.4.4.4,0,0,0,.4.4" style="fill:#fff"/><path d="M10.35,7.85a8.81,8.81,0,0,1,.48-1h0l-.35,0-.18,0H9.74a9.07,9.07,0,0,0-8.46,5.7h0c-.06.15-.12.31-.17.47l-.05.15-.06.2a9.08,9.08,0,0,0,8.11,5h0a9.22,9.22,0,0,0,2.45-.33,10.52,10.52,0,0,1-2-5.48,10.29,10.29,0,0,1,.75-4.58"/><path d="M16.23,3.52l-.36.17-.06,0-.39.22-.1.06L15,4.2l-.07,0-.36.26-.08.06-.29.24-.07.06a3.11,3.11,0,0,0-.33.29l-.08.07-.26.27-.07.07-.29.33,0,0c.2.06.39.14.59.21A10.57,10.57,0,0,1,18.22,9.7a9.15,9.15,0,0,0-1.93-6.21l-.06,0"/><path d="M11.23,3.57a1,1,0,1,0-1-1,1,1,0,0,0,1,1" style="fill:#fff"/></g></g></svg>