<svg xmlns="http://www.w3.org/2000/svg" viewBox="0 0 40.9 40.9"><title>percurso</title><g id="Layer_2" data-name="Layer 2"><g id="Layer_1-2" data-name="Layer 1"><path d="M6,0A6,6,0,0,0,0,6c0,3,4.72,9.93,5.26,10.71A.85.85,0,0,0,6,17a.87.87,0,0,0,.71-.37C7.2,15.89,11.93,9,11.93,6A6,6,0,0,0,6,0M6,8.52A2.56,2.56,0,1,1,8.52,6,2.55,2.55,0,0,1,6,8.52" fill="#372a3d"/><path d="M29.82,40.9a18.18,18.18,0,0,1-3.54-.32.87.87,0,0,1-.67-1,.86.86,0,0,1,1-.66,16.36,16.36,0,0,0,3.2.28.86.86,0,0,1,0,1.71m-6.51-1.51a.86.86,0,0,1-.46-.14,7.68,7.68,0,0,1-2.58-2.73.85.85,0,0,1,.32-1.16.86.86,0,0,1,1.17.32,5.91,5.91,0,0,0,2,2.14.85.85,0,0,1-.46,1.57m-3.42-5.64a.86.86,0,0,1-.84-.68,29.54,29.54,0,0,1-.44-3.48.85.85,0,1,1,1.7-.14,26.9,26.9,0,0,0,.41,3.28.84.84,0,0,1-.66,1h-.17M19.21,27a.86.86,0,0,1-.85-.79,21.74,21.74,0,0,0-.46-3.26.86.86,0,1,1,1.67-.37A24.55,24.55,0,0,1,20.06,26a.85.85,0,0,1-.78.92h-.07m-1.72-6.52a.84.84,0,0,1-.71-.39,5.66,5.66,0,0,0-2.15-2,.86.86,0,0,1-.35-1.15.85.85,0,0,1,1.15-.35,7.39,7.39,0,0,1,2.78,2.54A.87.87,0,0,1,18,20.31a.92.92,0,0,1-.47.14M11.81,17.2h-.12A20.88,20.88,0,0,0,9.37,17a.85.85,0,0,1-.85-.85.84.84,0,0,1,.87-.85,17.05,17.05,0,0,1,2.55.17.85.85,0,0,1,.72,1,.86.86,0,0,1-.85.73" fill="#372a3d"/><path d="M33.23,17a7.68,7.68,0,0,0-7.67,7.67c0,3.88,6.23,14.56,6.93,15.77a.87.87,0,0,0,.74.42.84.84,0,0,0,.73-.42c.71-1.21,6.94-11.89,6.94-15.77A7.68,7.68,0,0,0,33.23,17m0,11.93a4.26,4.26,0,1,1,4.26-4.26A4.26,4.26,0,0,1,33.23,29" fill="#372a3d"/></g></g></svg>