<svg xmlns="http://www.w3.org/2000/svg" viewBox="0 0 32.86 25.16"><title>trecho</title><g id="Layer_2" data-name="Layer 2"><g id="Layer_1-2" data-name="Layer 1"><path d="M8.14,17.39a7.51,7.51,0,0,0-3.64.94.87.87,0,0,0-.34,1.16.85.85,0,0,0,1.16.33,5.59,5.59,0,0,1,2.82-.72A.84.84,0,0,0,9,18.25.86.86,0,0,0,8.14,17.39Z" fill="#372a3d"/><path d="M1.68,20.67a18,18,0,0,0-1.52,2,.85.85,0,1,0,1.41.95A19.57,19.57,0,0,1,3,21.8L3,21.7a.86.86,0,0,0-1.36-1Z" fill="#372a3d"/><path d="M20.92,22.7a26.85,26.85,0,0,1-3-1.44.86.86,0,0,0-1.16.35.85.85,0,0,0,.35,1.15,29.34,29.34,0,0,0,3.16,1.53.87.87,0,0,0,1-.33l.08-.15A.86.86,0,0,0,20.92,22.7Z" fill="#372a3d"/><path d="M26.84,22.92a5.92,5.92,0,0,1-2.89.53.84.84,0,0,0-.9.79.86.86,0,0,0,.79.91,7.75,7.75,0,0,0,3.7-.67.75.75,0,0,0,.36-.32.81.81,0,0,0,.06-.81A.85.85,0,0,0,26.84,22.92Z" fill="#372a3d"/><path d="M32.47,18.35a.86.86,0,0,0-1.18.25,16.5,16.5,0,0,1-2,2.53.84.84,0,0,0,0,1.2.85.85,0,0,0,1.21,0,17.85,17.85,0,0,0,2.2-2.79A.85.85,0,0,0,32.47,18.35Z" fill="#372a3d"/><rect x="11.48" y="2.67" width="2.67" height="21.67" fill="#372a3d"/><rect x="23.15" width="2.67" height="21.67" fill="#372a3d"/><polyline points="13.81 5.83 24.48 2.67 24.48 9.83 13.65 13.5" fill="#372a3d"/></g></g></svg>