<?xml version="1.0" encoding="utf-8"?>
<!-- Generator: Adobe Illustrator 23.0.1, SVG Export Plug-In . SVG Version: 6.00 Build 0)  -->
<svg version="1.1" id="Layer_1" xmlns="http://www.w3.org/2000/svg" xmlns:xlink="http://www.w3.org/1999/xlink" x="0px" y="0px"
	 viewBox="0 0 40.9 40.9" style="enable-background:new 0 0 40.9 40.9;" xml:space="preserve">
<style type="text/css">
	.st0{fill:#FFFFFF;}
</style>
<title>percurso</title>
<g>
	<g id="Layer_1-2">
		<path class="st0" d="M6,0C2.7,0,0,2.7,0,6c0,3,4.7,9.9,5.3,10.7C5.4,16.9,5.7,17,6,17c0.3,0,0.5-0.1,0.7-0.4
			C7.2,15.9,11.9,9,11.9,6C11.9,2.7,9.3,0,6,0 M6,8.5C4.6,8.5,3.4,7.4,3.4,6s1.1-2.6,2.5-2.6s2.6,1.1,2.6,2.5c0,0,0,0.1,0,0.1
			C8.5,7.4,7.4,8.5,6,8.5"/>
		<path class="st0" d="M29.8,40.9c-1.2,0-2.4-0.1-3.5-0.3c-0.5-0.1-0.8-0.5-0.7-1c0.1-0.5,0.5-0.7,1-0.7c1.1,0.2,2.1,0.3,3.2,0.3
			c0.5,0.1,0.8,0.5,0.8,0.9C30.5,40.5,30.2,40.9,29.8,40.9 M23.3,39.4c-0.2,0-0.3-0.1-0.5-0.1c-1.1-0.7-2-1.6-2.6-2.7
			c-0.2-0.4-0.1-0.9,0.3-1.2c0,0,0,0,0,0c0.4-0.2,0.9-0.1,1.2,0.3c0.5,0.9,1.2,1.6,2,2.1c0.4,0.2,0.5,0.8,0.3,1.2
			C23.9,39.3,23.6,39.4,23.3,39.4 M19.9,33.8c-0.4,0-0.8-0.3-0.8-0.7c-0.2-1.2-0.4-2.3-0.4-3.5c0-0.5,0.3-0.9,0.8-0.9
			s0.9,0.3,0.9,0.8c0.1,1.1,0.2,2.2,0.4,3.3c0.1,0.5-0.2,0.9-0.6,1c0,0,0,0,0,0L19.9,33.8 M19.2,27c-0.4,0-0.8-0.3-0.9-0.8
			c-0.1-1.1-0.2-2.2-0.5-3.3c-0.2-0.5,0.1-0.9,0.5-1.1s0.9,0.1,1.1,0.5c0,0.1,0,0.1,0,0.2c0.2,1.1,0.4,2.3,0.5,3.4
			C20.1,26.5,19.8,26.9,19.2,27C19.3,26.9,19.3,26.9,19.2,27L19.2,27 M17.5,20.4c-0.3,0-0.6-0.1-0.7-0.4c-0.5-0.8-1.3-1.5-2.1-2
			c-0.4-0.2-0.6-0.7-0.4-1.1c0.2-0.4,0.7-0.6,1.1-0.4c1.1,0.6,2.1,1.5,2.8,2.5c0.3,0.4,0.2,0.9-0.2,1.2c0,0,0,0-0.1,0
			C17.9,20.4,17.7,20.4,17.5,20.4 M11.8,17.2h-0.1c-0.8-0.1-1.5-0.2-2.3-0.2c-0.5,0-0.9-0.4-0.9-0.9l0,0c0-0.5,0.4-0.8,0.8-0.9
			c0,0,0,0,0,0c0.9,0,1.7,0,2.6,0.2c0.5,0.1,0.8,0.5,0.7,1c0,0,0,0,0,0C12.6,16.9,12.2,17.2,11.8,17.2"/>
		<path class="st0" d="M33.2,17c-4.2,0-7.7,3.4-7.7,7.7c0,3.9,6.2,14.6,6.9,15.8c0.2,0.3,0.4,0.4,0.7,0.4c0.3,0,0.6-0.2,0.7-0.4
			c0.7-1.2,6.9-11.9,6.9-15.8C40.9,20.4,37.5,17,33.2,17 M33.2,28.9c-2.4,0-4.3-1.9-4.3-4.3s1.9-4.3,4.3-4.3s4.3,1.9,4.3,4.3v0
			C37.5,27,35.7,29,33.2,28.9C33.3,29,33.3,29,33.2,28.9"/>
	</g>
</g>
</svg>
