<?xml version="1.0" encoding="UTF-8" standalone="no"?><!DOCTYPE svg PUBLIC "-//W3C//DTD SVG 1.1//EN" "http://www.w3.org/Graphics/SVG/1.1/DTD/svg11.dtd"><svg width="100%" height="100%" viewBox="0 0 18 19" version="1.1" xmlns="http://www.w3.org/2000/svg" xmlns:xlink="http://www.w3.org/1999/xlink" xml:space="preserve" style="fill-rule:evenodd;clip-rule:evenodd;stroke-linejoin:round;stroke-miterlimit:1.41421;"><rect id="fpe" x="0" y="0.2" width="18" height="18" style="fill:none;"/><path d="M3.357,8.592c-0.321,0 -0.589,-0.107 -0.803,-0.32c-0.215,-0.214 -0.322,-0.481 -0.322,-0.801c0,-0.32 0.107,-0.584 0.322,-0.792c0.214,-0.207 0.482,-0.311 0.803,-0.311c0.322,0 0.586,0.106 0.795,0.32c0.208,0.214 0.312,0.475 0.312,0.783c0,0.308 -0.107,0.572 -0.321,0.792c-0.214,0.219 -0.476,0.329 -0.786,0.329Zm13.143,-1.352c0,0.878 -0.208,1.696 -0.625,2.455c-0.393,0.724 -0.94,1.326 -1.643,1.806c-0.702,0.481 -1.482,0.775 -2.339,0.881l0,2.883l2.232,0l0,1.459l-11.893,0l0,-3.683l-0.732,0l0,-2.99c0,-0.202 0.071,-0.374 0.214,-0.516c0.143,-0.142 0.316,-0.213 0.518,-0.213l2.232,0c0.203,0 0.375,0.071 0.518,0.213c0.143,0.142 0.214,0.314 0.214,0.516l0,2.99l-0.732,0l0,2.224l5.965,0l0,-2.918c-0.822,-0.143 -1.563,-0.457 -2.224,-0.943c-0.66,-0.487 -1.181,-1.086 -1.562,-1.798c-0.381,-0.735 -0.572,-1.524 -0.572,-2.366c0,-0.949 0.239,-1.827 0.715,-2.634c0.464,-0.783 1.089,-1.406 1.875,-1.868c0.809,-0.475 1.69,-0.712 2.643,-0.712c0.952,0 1.827,0.237 2.625,0.712c0.785,0.462 1.41,1.091 1.875,1.886c0.464,0.795 0.696,1.667 0.696,2.616Z"/></svg>