<?xml version="1.0" encoding="UTF-8" standalone="no"?>
<!DOCTYPE svg PUBLIC "-//W3C//DTD SVG 1.1//EN" "http://www.w3.org/Graphics/SVG/1.1/DTD/svg11.dtd"><svg width="100%" height="100%" viewBox="0 0 18 18" version="1.1" xmlns="http://www.w3.org/2000/svg" xmlns:xlink="http://www.w3.org/1999/xlink"
    xml:space="preserve" style="fill-rule:evenodd;clip-rule:evenodd;stroke-linejoin:round;stroke-miterlimit:1.41421;">
    <rect id="registros" x="0" y="0" width="18" height="18" style="fill:none;" />
    <path d="M15.237,14.276l-12.409,0c-0.875,0 -1.585,-0.696 -1.585,-1.552l0,-7.867c0,-0.856 0.71,-1.551 1.585,-1.551l12.409,0c0.875,0 1.585,0.695 1.585,1.551l0,7.867c0,0.856 -0.71,1.552 -1.585,1.552Zm-7.06,-1.561l0,-0.913c0,-0.264 -0.16,-0.501 -0.481,-0.711c-0.267,-0.176 -0.617,-0.319 -1.051,-0.431c-0.385,-0.093 -0.739,-0.14 -1.059,-0.14c-0.321,0 -0.677,0.047 -1.068,0.14c-0.434,0.112 -0.787,0.255 -1.06,0.431c-0.321,0.21 -0.481,0.447 -0.481,0.711l0,0.913l5.2,0Zm7.315,-2.487l0,-1.227l-6.325,0l0,1.227l6.325,0Zm-9.906,-0.428c-0.196,0 -0.38,-0.05 -0.552,-0.15c-0.172,-0.099 -0.309,-0.234 -0.41,-0.403c-0.101,-0.17 -0.151,-0.352 -0.151,-0.545c0,-0.193 0.05,-0.375 0.151,-0.544c0.101,-0.17 0.238,-0.305 0.41,-0.404c0.172,-0.1 0.356,-0.15 0.552,-0.15c0.196,0 0.378,0.05 0.547,0.15c0.17,0.099 0.303,0.232 0.401,0.399c0.098,0.167 0.147,0.35 0.147,0.549c0,0.199 -0.049,0.382 -0.147,0.549c-0.098,0.167 -0.231,0.3 -0.401,0.399c-0.169,0.1 -0.351,0.15 -0.547,0.15Zm9.906,-1.588l0,-1.227l-6.325,0l0,1.227l6.325,0Zm-11.95,-2.964c-0.205,0.093 0.006,1.006 0.472,2.04c0.044,0.097 0.088,0.191 0.132,0.282c0.075,-0.047 0.026,-0.289 0.109,-0.326c0.17,-0.077 0.327,-0.266 0.503,-0.291c-0.466,-1.034 -1.01,-1.797 -1.216,-1.705Zm3.955,-0.08c0.013,0 0.025,0.002 0.035,0.007c0.115,0.051 0.102,0.355 -0.01,0.792c-0.091,0.351 -0.245,0.789 -0.45,1.25c-0.051,0.116 -0.103,0.227 -0.156,0.335c-0.136,-0.114 -0.225,-0.44 -0.396,-0.516c-0.083,-0.036 -0.133,-0.072 -0.217,-0.096l0.007,-0.018l0,0.001c0,0 0.003,-0.007 0.016,-0.037c0.223,-0.502 0.465,-0.94 0.678,-1.249c0.203,-0.294 0.381,-0.469 0.492,-0.469l0.001,0Zm-1.454,1.842c0.005,-0.119 0.007,-0.243 0.007,-0.369c0,-1.134 -0.183,-2.053 -0.408,-2.053c-0.225,0 -0.408,0.919 -0.408,2.053c0,0.106 0.002,0.21 0.005,0.312c0.087,-0.012 0.176,-0.018 0.267,-0.018c0.187,0 0.367,0.026 0.537,0.075Z" /></svg>