<?xml version="1.0" encoding="UTF-8" standalone="no"?><!DOCTYPE svg PUBLIC "-//W3C//DTD SVG 1.1//EN" "http://www.w3.org/Graphics/SVG/1.1/DTD/svg11.dtd"><svg width="100%" height="100%" viewBox="0 0 18 19" version="1.1" xmlns="http://www.w3.org/2000/svg" xmlns:xlink="http://www.w3.org/1999/xlink" xml:space="preserve" style="fill-rule:evenodd;clip-rule:evenodd;stroke-linejoin:round;stroke-miterlimit:1.41421;"><rect id="si3rc" x="0" y="0.701" width="18" height="18" style="fill:none;"/><g><path d="M7.84,14.37c-0.019,0.069 -0.041,0.137 -0.064,0.206c-0.004,0.004 -0.01,0.011 -0.006,0.015c0.004,0.006 0.012,0.002 0.019,0.002l0.002,0c0.012,-0.002 0.024,-0.004 0.034,-0.006c0.006,-0.001 0.006,-0.001 0.01,-0.001l0.003,-0.002c0.002,-0.008 0.004,-0.016 0.006,-0.024c0.012,-0.053 0.02,-0.106 0.026,-0.16l0,-0.002l-0.012,-0.016c-0.006,-0.008 -0.01,-0.016 -0.014,-0.023c-0.002,0.003 -0.002,0.007 -0.004,0.011m-1.266,-5.313c0.008,0 0.008,0 0.016,0.002c0.008,-0.002 0.014,-0.002 0.021,-0.004c0.452,-0.076 0.865,0.767 1.042,1.033c0.019,0.028 0.039,0.055 0.056,0.084c0.309,0.46 0.448,0.981 0.581,1.509c0.004,0.016 0.008,0.032 0.012,0.045c0.006,0.02 0.016,0.039 0.026,0.059c0.008,0.022 0.015,0.041 0.023,0.063c0.174,0.479 0.194,1.011 0.19,1.514l0,0.047c0,0 0.012,0.09 0.022,0.135c0.005,0.026 0.011,0.053 0.015,0.079c0.004,0.021 0.008,0.043 0.01,0.066c0.051,0.364 0.09,0.828 -0.069,1.176l-0.001,0.004c-0.002,0.071 -0.004,0.141 -0.006,0.212l0,0.015c-0.008,0.133 -0.135,0.231 -0.267,0.204c-0.029,-0.008 -0.058,-0.016 -0.088,-0.024c-0.019,-0.006 -0.037,-0.011 -0.056,-0.015c-0.008,0.002 -0.008,0.002 -0.016,0.004c-0.211,0.047 -0.476,-0.073 -0.652,-0.153l-0.009,0.006c-0.102,0.037 -0.224,-0.006 -0.276,-0.102l-0.01,-0.008c-0.075,-0.08 -0.082,-0.205 -0.012,-0.293l0.006,-0.014c0.031,-0.053 0.063,-0.08 0.117,-0.108l0.002,0c0.157,-0.383 0.245,-0.763 0.292,-1.164l0.002,-0.022c0.035,-0.947 -0.172,-1.767 -0.634,-2.585c-0.022,-0.031 -0.043,-0.062 -0.065,-0.094c-0.139,-0.192 -0.286,-0.379 -0.432,-0.565c-0.008,-0.008 -0.018,-0.016 -0.026,-0.024c-0.058,-0.051 -0.119,-0.1 -0.178,-0.149c-0.015,-0.013 -0.033,-0.027 -0.049,-0.043c-0.037,-0.033 -0.074,-0.068 -0.105,-0.109c-0.008,-0.002 -0.014,-0.006 -0.022,-0.008l-0.016,-0.008c-0.013,-0.008 -0.013,-0.008 -0.029,-0.019c-0.356,-0.3 0.27,-0.736 0.554,-0.746c0.012,0 0.021,0 0.031,0" style="fill:#010101;fill-rule:nonzero;"/><path d="M4.652,6.188c0,0 0,0.002 0.002,0.002c0.01,0.014 0.02,0.027 0.028,0.041c0.017,0.025 0.037,0.051 0.056,0.076l0.002,0.002c-0.027,-0.043 -0.058,-0.084 -0.09,-0.125c0,0 0.002,0.002 0.002,0.004m-0.252,-0.82c0.104,0.006 0.164,0.106 0.221,0.182c0,0 0.024,0.045 0.027,0.07c0.057,0.057 0.112,0.112 0.169,0.169c0.364,0.37 0.702,0.749 0.937,1.211c0.071,0.141 0.051,0.476 -0.199,0.392c-0.124,-0.042 -0.19,-0.118 -0.274,-0.216l-0.004,-0.006c-0.077,-0.052 -0.155,-0.101 -0.233,-0.152c-0.02,-0.014 -0.041,-0.028 -0.061,-0.041c-0.106,-0.075 -0.186,-0.141 -0.274,-0.237c-0.033,-0.037 -0.066,-0.075 -0.102,-0.112c-0.205,-0.229 -0.279,-0.383 -0.346,-0.685c-0.024,-0.103 -0.053,-0.244 -0.022,-0.352l0.002,-0.006c-0.002,-0.006 -0.004,-0.012 -0.005,-0.017c-0.002,-0.006 -0.002,-0.006 -0.002,-0.01c-0.014,-0.092 0.05,-0.18 0.146,-0.188c0.012,-0.002 0.012,-0.002 0.02,-0.002" style="fill:#010101;fill-rule:nonzero;"/><path d="M4.95,7.75c-0.1,0.16 -0.057,0.366 0.029,0.52c-0.047,-0.131 -0.051,-0.274 -0.029,-0.411l0,-0.004l-0.002,-0.013c0,-0.016 0,-0.016 -0.002,-0.034c0,-0.019 0.002,-0.039 0.004,-0.058m0.507,-0.531c0.413,0.01 0.728,0.358 0.826,0.742c0.074,0.294 0.005,0.575 -0.267,0.708l-0.005,0.006c-0.016,0.012 -0.026,0.018 -0.045,0.024c-0.012,0.004 -0.024,0.006 -0.034,0.01c-0.019,0.005 -0.037,0.013 -0.056,0.021c-0.012,0.004 -0.026,0.008 -0.038,0.012c-0.009,0.002 -0.017,0.006 -0.027,0.008l-0.01,0.002c-0.029,0.011 -0.059,0.021 -0.088,0.033c-0.021,0.008 -0.021,0.008 -0.043,0.016c-0.145,0.048 -0.211,0.06 -0.378,0.043c-0.178,-0.018 -0.34,-0.173 -0.45,-0.302c-0.325,-0.385 -0.28,-0.982 0.204,-1.213c0.137,-0.065 0.225,-0.098 0.362,-0.108c0.015,-0.002 0.031,-0.002 0.049,-0.002" style="fill:#010101;"/><path d="M4.224,11.781c-0.028,0 -0.055,0.002 -0.08,0.002c-0.089,-0.016 -0.177,-0.029 -0.263,-0.043c-0.137,-0.02 -0.274,-0.039 -0.413,-0.059c-0.099,-0.015 -0.201,-0.027 -0.297,-0.058c-0.016,-0.006 -0.031,-0.012 -0.047,-0.018c-0.123,-0.049 -0.243,-0.108 -0.374,-0.131c-0.104,-0.094 -0.188,-0.213 -0.211,-0.354c0.105,-0.243 0.319,-0.676 0.606,-0.76c0.02,-0.006 0.04,-0.009 0.059,-0.015c0.225,-0.057 0.617,-0.092 0.769,-0.321c0.282,-0.421 0.257,-1.026 -0.409,-0.781c-0.053,-0.012 -0.098,-0.018 -0.154,-0.02c-0.02,0 -0.02,0 -0.039,0c-0.224,0.006 -0.386,0.081 -0.603,0.202c-0.621,0.342 -1.64,1.391 -1.065,2.147c0,0 0.004,0.101 0.022,0.148c0.049,0.141 0.09,0.214 0.19,0.306c0.009,0.008 0.019,0.015 0.029,0.025c0.01,0.008 0.019,0.016 0.029,0.024l0.002,0.002c0.165,0.274 0.397,0.342 0.722,0.371c0.034,0.002 0.034,0.002 0.065,0.006c0.066,0.004 0.131,0.008 0.198,0.014c0.015,0.002 0.035,0 0.048,0.004c0.089,0.021 0.151,0.033 0.245,0.047c0.026,0.004 0.051,0.006 0.074,0.01c0.29,0.029 0.58,0.107 0.862,0.172c0.109,0.025 0.221,0.053 0.33,0.078c0.505,0.352 0.732,0.875 0.292,1.392c-0.1,0.117 -0.204,0.238 -0.339,0.309c-0.186,0.094 -0.391,0.154 -0.599,0.168c-0.029,-0.014 -0.097,-0.017 -0.097,-0.017c-0.012,0 -0.026,0.002 -0.038,0.002l-0.021,-0.004c-0.119,-0.02 -0.237,-0.04 -0.356,-0.053c-0.03,-0.004 -0.057,-0.006 -0.086,-0.01c-0.032,-0.002 -0.094,-0.012 -0.094,-0.012c-0.196,-0.096 -0.445,-0.244 -0.674,-0.182l-0.003,-0.004c-0.004,-0.004 -0.006,-0.006 -0.01,-0.009c-0.016,0.015 -0.035,0.031 -0.055,0.041c-0.029,0.043 -0.057,0.088 -0.082,0.133c-0.028,0.051 -0.053,0.101 -0.078,0.154c-0.002,0.004 -0.004,0.01 -0.006,0.014c-0.004,0.008 -0.008,0.018 -0.01,0.025c-0.01,0.028 -0.022,0.055 -0.03,0.083c-0.019,0.054 -0.035,0.111 -0.048,0.168c-0.008,0.029 -0.014,0.061 -0.02,0.09c-0.002,0.014 -0.006,0.027 -0.008,0.039c0,0.004 -0.002,0.01 -0.002,0.018c-0.002,0.011 -0.004,0.025 -0.004,0.029c-0.002,0.012 -0.002,0.024 -0.004,0.035c0.067,0.196 0.241,0.265 0.451,0.321c0.052,0.014 0.103,0.026 0.156,0.039c0.01,0.002 0.018,0.006 0.027,0.008c0.014,0.004 0.026,0.01 0.04,0.014c0.481,0.19 0.986,0.158 1.483,0.002c0.773,-0.119 1.53,-0.525 1.568,-1.356c0.413,-1.149 -0.447,-2.449 -1.648,-2.435Z" style="fill:#010101;"/><path d="M12.7,10.752c0.002,-0.01 0.002,-0.022 0.002,-0.032c0,-0.004 0,-0.007 -0.002,-0.013c-0.002,-0.014 -0.002,-0.014 -0.006,-0.026c-0.006,-0.013 -0.006,-0.013 -0.012,-0.027c-0.008,-0.012 -0.008,-0.012 -0.016,-0.024c-0.009,-0.009 -0.011,-0.013 -0.021,-0.021c-0.004,-0.004 -0.008,-0.006 -0.012,-0.01c-0.012,-0.006 -0.012,-0.006 -0.021,-0.012l-0.006,-0.002c-0.006,-0.011 -0.012,-0.019 -0.02,-0.029c-0.008,-0.01 -0.01,-0.012 -0.019,-0.02c-0.01,-0.007 -0.012,-0.009 -0.024,-0.015c-0.004,-0.002 -0.008,-0.004 -0.014,-0.006c-0.011,-0.006 -0.015,-0.006 -0.027,-0.01l-0.002,0c-0.016,-0.002 -0.016,-0.002 -0.031,-0.004l-0.002,0c-0.004,0 -0.008,-0.004 -0.012,-0.004c-0.016,-0.004 -0.029,-0.008 -0.045,-0.008c-0.018,0 -0.035,0 -0.053,0.004c-0.027,0.006 -0.053,0.018 -0.076,0.032c-0.01,0.006 -0.01,0.006 -0.02,0.011c-0.006,0.004 -0.013,0.01 -0.019,0.014l-0.002,0.002c-0.032,0.012 -0.065,0.024 -0.094,0.037c-0.035,0.018 -0.071,0.037 -0.104,0.059c-0.021,0.014 -0.021,0.014 -0.043,0.027c-0.066,0.043 -0.131,0.088 -0.2,0.13l-0.009,0.003c-0.086,0.042 -0.175,0.083 -0.265,0.116c-0.005,0.002 -0.013,0.004 -0.019,0.006c-0.018,0.006 -0.035,0.012 -0.055,0.015c-0.043,0.012 -0.088,0.024 -0.131,0.034c-0.145,0.031 -0.294,0.051 -0.442,0.058c-0.053,0.002 -0.106,0.004 -0.157,0.004c-0.047,0 -0.096,-0.002 -0.143,-0.009c-0.053,-0.008 -0.105,-0.02 -0.154,-0.038c-0.022,-0.007 -0.043,-0.015 -0.063,-0.025c-0.008,-0.004 -0.014,-0.008 -0.021,-0.012c-0.028,-0.017 -0.028,-0.017 -0.053,-0.033c-0.012,-0.008 -0.024,-0.016 -0.036,-0.024l-0.003,-0.003l-0.002,-0.002c-0.012,-0.01 -0.024,-0.02 -0.038,-0.026c-0.011,-0.006 -0.011,-0.006 -0.025,-0.01l-0.002,0c-0.016,-0.004 -0.016,-0.004 -0.031,-0.006l-0.002,0c-0.014,0 -0.014,0 -0.03,0l-0.013,0.002c-0.01,0.002 -0.01,0.002 -0.02,0.006c-0.004,0 -0.008,0 -0.014,0c-0.021,0.002 -0.043,0.008 -0.062,0.018c-0.014,0.006 -0.016,0.01 -0.028,0.018c-0.004,0.003 -0.007,0.007 -0.011,0.011c-0.016,0.016 -0.028,0.036 -0.036,0.055c-0.002,0.006 -0.004,0.01 -0.004,0.014c-0.007,0.002 -0.017,0.004 -0.029,0.008l-0.002,0c-0.035,0.013 -0.051,0.023 -0.076,0.047c-0.039,0.041 -0.063,0.092 -0.073,0.146c-0.033,0.047 -0.045,0.108 -0.05,0.165c-0.002,0.017 -0.004,0.037 -0.004,0.055c-0.002,0.025 -0.002,0.052 -0.002,0.078c0,0.027 0,0.057 0,0.084c0,0.037 0.002,0.074 0.004,0.11c0.002,0.052 0.005,0.103 0.011,0.156c0.006,0.069 0.012,0.135 0.02,0.204c0.004,0.041 0.01,0.08 0.014,0.121c0.011,0.098 0.025,0.196 0.035,0.294c0.015,0.152 0.027,0.305 0.035,0.457c0.002,0.042 0.004,0.081 0.004,0.122c-0.02,0.229 -0.049,0.458 -0.09,0.683c-0.039,0.213 -0.09,0.426 -0.147,0.636c-0.012,0.039 -0.021,0.078 -0.033,0.117c-0.002,0.006 -0.002,0.01 -0.004,0.016c-0.002,0.01 -0.002,0.021 -0.002,0.031c0.002,0.034 0.012,0.065 0.033,0.09c0.01,0.012 0.012,0.014 0.022,0.024l0.014,0.01l0.011,0.005l-0.002,0.004c-0.015,0.032 -0.031,0.065 -0.047,0.096c-0.006,0.014 -0.011,0.028 -0.017,0.041c-0.008,0.006 -0.01,0.006 -0.02,0.014c-0.01,0.008 -0.012,0.012 -0.019,0.02c-0.004,0.004 -0.006,0.007 -0.01,0.011c-0.01,0.016 -0.018,0.034 -0.022,0.051c-0.006,0.002 -0.01,0.006 -0.019,0.012l-0.002,0c-0.03,0.021 -0.043,0.035 -0.063,0.067c-0.023,0.045 -0.031,0.091 -0.023,0.142c0.011,0.047 0.035,0.086 0.07,0.12c0.024,0.017 0.031,0.021 0.059,0.033c0.014,0.004 0.025,0.008 0.039,0.01c0.01,0.002 0.02,0.002 0.029,0.004c0.026,0 0.051,0.002 0.077,0.004c0.019,0.002 0.039,0.004 0.056,0.005c0.233,0.03 0.531,0.096 0.728,-0.068c0.002,-0.01 0.002,-0.018 0.004,-0.027c0.051,-0.419 0.104,-0.842 0.202,-1.255c0,-0.241 -0.016,-0.479 -0.043,-0.718c-0.004,-0.031 -0.008,-0.063 -0.012,-0.094c0.004,-0.18 0.006,-0.36 0,-0.54c-0.002,-0.028 -0.002,-0.057 -0.004,-0.084c0,-0.01 0,-0.01 -0.002,-0.022c-0.002,-0.019 -0.006,-0.039 -0.008,-0.059c-0.021,-0.14 -0.047,-0.279 -0.066,-0.42c-0.014,-0.098 -0.026,-0.196 -0.026,-0.294l0.004,0.002c0.041,0.016 0.083,0.029 0.126,0.033c0.017,0.002 0.037,0 0.054,-0.002c0.01,-0.002 0.01,-0.002 0.022,-0.004c0.074,0.012 0.151,0.018 0.227,0.02c0.047,0 0.094,0 0.139,-0.004c0.078,-0.006 0.158,-0.017 0.235,-0.035c0.08,0.006 0.162,0.01 0.242,0.01c0.032,0 0.032,0 0.065,0c0.016,0 0.031,-0.002 0.047,-0.002l0.01,0.004c0.246,0.121 0.434,0.131 0.663,-0.006c0.016,-0.01 0.031,-0.02 0.047,-0.03c0.016,0.008 0.031,0.012 0.047,0.016l0.002,0c0.022,0.004 0.02,0.004 0.047,0.004l0.002,0c0.018,-0.002 0.018,-0.002 0.037,-0.006l0.002,0c0.098,-0.027 0.163,-0.117 0.221,-0.196c0.014,-0.019 0.014,-0.019 0.028,-0.039c0.088,-0.16 0.09,-0.54 -0.047,-0.702Z" style="fill:#010101;"/><path d="M16.575,14.286c0.168,0.02 0.262,0.192 0.184,0.341c0,0 0.002,0.007 0.003,0.009l0.01,0.012l0.008,0.014c0,0 0.01,0.021 0.016,0.031c0,0 0.008,0.024 0.01,0.035c0,0 0.003,0.024 0.003,0.036l0,0.002c0,0.015 0,0.015 -0.002,0.031l0,0.002c-0.054,0.309 -0.616,0.329 -0.847,0.366c-0.031,0.006 -0.064,0.012 -0.096,0.017c-0.06,0.012 -0.121,0.026 -0.184,0.04c-0.113,0.025 -0.227,0.052 -0.342,0.08c-0.219,0.051 -0.689,0.145 -0.991,0.102c-0.886,-0.126 -1.33,-0.989 -1.499,-1.789c-0.005,-0.02 -0.011,-0.039 -0.017,-0.061c-0.071,-0.25 -0.088,-0.489 -0.061,-0.749c0.004,-0.026 0.002,-0.055 0.002,-0.081c0.039,-0.822 0.452,-1.546 1.272,-1.788c0.018,-0.012 0.037,-0.022 0.055,-0.032c0.458,-0.254 0.973,-0.35 1.489,-0.293c0.008,0 0.018,0.002 0.026,0.002c0.078,0 0.188,-0.033 0.262,-0.051c0.016,-0.004 0.033,-0.008 0.049,-0.012c0.458,-0.09 0.581,0.161 0.575,0.564c-0.002,0.174 -0.029,0.436 -0.227,0.499l-0.002,0c-0.015,0.004 -0.015,0.004 -0.031,0.006l-0.002,0c-0.018,0.002 -0.018,0.002 -0.035,0.002l-0.002,0c-0.018,-0.002 -0.018,-0.002 -0.035,-0.004l-0.002,0c-0.018,-0.004 -0.018,-0.004 -0.034,-0.01l-0.002,0c-0.013,-0.006 -0.013,-0.006 -0.029,-0.014l-0.002,-0.002c-0.086,-0.056 -0.108,-0.143 -0.121,-0.24l-0.002,-0.018l-0.01,0.006c-0.006,0.002 -0.01,0.004 -0.016,0.008c-0.123,0.049 -0.356,0 -0.469,-0.016c-0.022,-0.002 -0.022,-0.002 -0.043,-0.004c-0.771,-0.07 -1.548,0.646 -1.84,1.313c-0.072,0.167 -0.151,0.503 -0.084,0.699c0.289,0.836 1.272,1.597 2.2,1.229c0.09,-0.035 0.18,-0.072 0.27,-0.108c0.146,-0.058 0.383,-0.168 0.563,-0.17c0.018,-0.004 0.018,-0.004 0.03,-0.004" style="fill:#010101;fill-rule:nonzero;"/><path d="M11.887,4.828l-0.001,-0.005l0,-0.004c-0.052,-0.179 -0.246,-0.094 -0.358,-0.018c-0.032,0.022 -0.063,0.045 -0.095,0.069c-0.093,0.065 -0.182,0.131 -0.271,0.206c-0.082,0.067 -0.161,0.136 -0.243,0.205c-0.066,0.055 -0.133,0.109 -0.203,0.157c-0.016,0.011 -0.032,0.022 -0.049,0.033c-0.425,0.273 -0.78,0.566 -1.151,0.934c-0.031,0.032 -0.063,0.062 -0.094,0.093c-0.009,0.011 -0.02,0.021 -0.029,0.03c-0.024,-0.022 -0.055,-0.031 -0.086,-0.033c-0.01,0.001 -0.01,0.001 -0.02,0.002c-0.019,0.002 -0.027,0.005 -0.047,0.016l-0.007,0.005c-0.075,0.049 -0.148,0.101 -0.22,0.155c-0.022,0.018 -0.046,0.034 -0.068,0.052c-0.027,-0.017 -0.056,-0.023 -0.084,-0.022c-0.13,0.163 -0.265,0.321 -0.406,0.475c-0.105,0.113 -0.221,0.219 -0.331,0.331c-0.121,0.123 -0.24,0.247 -0.36,0.373c-0.109,0.117 -0.219,0.235 -0.324,0.357c-0.005,0.005 -0.009,0.01 -0.014,0.015c-0.02,0.099 0.009,0.194 0.119,0.275c0.014,0.009 0.014,0.009 0.027,0.018c0.033,0.021 0.065,0.042 0.098,0.063c0.009,0.007 0.017,0.013 0.026,0.019c0.008,0.006 0.015,0.014 0.024,0.02c0.004,0.003 0.005,0.006 0.009,0.009c0.007,0.008 0.007,0.008 0.014,0.016c0.01,0.009 0.021,0.018 0.03,0.029l0,0.005c0.003,0 0.008,0.001 0.012,0.001c0.012,-0.014 0.024,-0.026 0.037,-0.04c0.165,-0.208 0.346,-0.405 0.536,-0.593c0.118,-0.117 0.24,-0.23 0.363,-0.341c0.037,-0.039 0.076,-0.077 0.113,-0.116c0.039,-0.041 0.081,-0.084 0.125,-0.124c0.188,-0.189 0.377,-0.375 0.57,-0.56c0.339,-0.322 0.684,-0.636 1.041,-0.936c0.348,-0.293 0.706,-0.571 1.079,-0.833c0.115,-0.081 0.232,-0.16 0.351,-0.237c-0.016,-0.046 -0.061,-0.085 -0.113,-0.101Z" style="fill:#010101;"/><path d="M12.275,4.472l0,0.005c0,-0.005 0,-0.009 0,-0.005" style="fill:#010101;"/><path d="M10.798,7.85c-0.049,-0.118 -0.111,-0.231 -0.179,-0.339c-0.024,-0.04 -0.05,-0.079 -0.076,-0.118c-0.028,-0.041 -0.056,-0.081 -0.085,-0.122l-0.006,-0.009l-0.003,-0.006c-0.023,-0.011 -0.047,-0.02 -0.072,-0.029c-0.178,-0.065 -0.363,-0.092 -0.553,-0.101c-0.173,-0.007 -0.347,0.007 -0.516,0.038c-0.165,0.032 -0.33,0.073 -0.482,0.146c-0.042,0.019 -0.082,0.04 -0.122,0.064c-0.017,0.009 -0.031,0.023 -0.044,0.04c-0.003,-0.001 -0.006,-0.001 -0.01,-0.003l-0.001,0c-0.02,-0.008 -0.019,-0.007 -0.043,-0.02c-0.018,-0.01 -0.017,-0.009 -0.039,-0.027c-0.021,-0.02 -0.019,-0.019 -0.043,-0.047c-0.018,-0.025 -0.021,-0.033 -0.033,-0.062c-0.012,-0.039 -0.015,-0.054 -0.015,-0.09c0.001,-0.03 0.002,-0.038 0.009,-0.067c0.011,-0.033 0.014,-0.042 0.032,-0.072c0.015,-0.023 0.013,-0.021 0.037,-0.047l0.001,-0.002c0.045,-0.04 0.069,-0.053 0.135,-0.077l0.002,0l0.023,-0.031c0.023,-0.031 0.046,-0.064 0.07,-0.097c0.044,-0.058 0.076,-0.097 0.132,-0.139c0.014,-0.01 0.026,-0.019 0.041,-0.029c0.045,-0.036 0.082,-0.074 0.112,-0.114c0,-0.02 0,-0.039 0,-0.058c0,-0.007 -0.002,-0.013 -0.003,-0.02c-0.001,-0.007 -0.002,-0.013 -0.003,-0.02c-0.004,-0.026 -0.009,-0.052 -0.014,-0.079c-0.014,-0.075 -0.03,-0.15 -0.045,-0.225c-0.003,-0.015 -0.007,-0.031 -0.01,-0.046c-0.019,-0.073 -0.044,-0.144 -0.076,-0.212c-0.051,-0.107 -0.12,-0.205 -0.199,-0.293c-0.048,-0.053 -0.1,-0.102 -0.154,-0.149c-0.002,-0.002 -0.005,-0.003 -0.007,-0.004c-0.028,-0.015 -0.057,-0.028 -0.087,-0.038c-0.149,-0.051 -0.312,-0.039 -0.463,-0.002c-0.026,0.007 -0.052,0.014 -0.077,0.022c-0.032,0.009 -0.063,0.02 -0.095,0.031c-0.037,0.014 -0.074,0.029 -0.111,0.045c-0.048,0.021 -0.095,0.043 -0.142,0.067c-0.058,0.029 -0.116,0.06 -0.172,0.092c-0.071,0.041 -0.141,0.083 -0.21,0.127c-0.099,0.062 -0.198,0.126 -0.296,0.189l-0.01,0.006c-0.008,0.004 -0.01,0.005 -0.019,0.009c-0.014,0.005 -0.028,0.007 -0.042,0.008c-0.018,0.001 -0.036,-0.002 -0.053,-0.007c-0.031,-0.011 -0.056,-0.031 -0.074,-0.057c-0.163,0.018 -0.365,-0.106 -0.309,-0.283c0.054,-0.173 0.158,-0.225 0.294,-0.322l0.008,-0.006c0.009,-0.009 0.017,-0.021 0.026,-0.031c0.009,-0.01 0.009,-0.01 0.018,-0.021c0.524,-0.572 1.388,-0.701 2.106,-0.489c0.568,0.167 1.07,0.705 1.025,1.325c-0.008,0.115 -0.027,0.23 -0.056,0.342l0.001,0c0.06,-0.001 0.12,0.001 0.18,0c0.021,-0.001 0.042,-0.002 0.063,-0.003c0.046,-0.001 0.092,-0.001 0.138,0.002c0.108,0.008 0.215,0.028 0.317,0.065c0.055,0.02 0.109,0.045 0.16,0.074c0.051,0.029 0.099,0.063 0.145,0.098c0.08,0.063 0.155,0.133 0.22,0.211c0.062,0.072 0.115,0.151 0.162,0.233c0.091,0.16 0.154,0.333 0.211,0.508c0.076,0.156 0.132,0.324 0.161,0.495c0.004,0.01 0.008,0.019 0.011,0.029c0.002,0.008 0.005,0.017 0.007,0.025c0.012,0.054 0.016,0.109 0.015,0.164c-0.001,0.029 -0.003,0.057 -0.007,0.086c-0.003,0.392 -0.151,0.767 -0.494,1.005c-0.136,0.139 -0.311,0.22 -0.503,0.255c-0.12,0.043 -0.245,0.062 -0.372,0.067l-0.087,0.005c-0.077,0.006 -0.078,0.01 -0.15,0.03c-0.024,0.007 -0.024,0.007 -0.047,0.013c-0.225,0.055 -0.486,0.079 -0.717,0.035c-0.015,-0.001 -0.029,-0.002 -0.043,-0.002c-0.103,-0.006 -0.203,-0.019 -0.303,-0.041l-0.005,-0.002c-0.202,-0.052 -0.27,-0.328 -0.105,-0.46l-0.002,-0.013l-0.001,-0.014c-0.001,-0.017 -0.001,-0.017 0,-0.032c0.003,-0.031 0.006,-0.051 0.019,-0.082c0.025,0.001 0.048,0.001 0.073,0.001c0.102,0 0.206,0.004 0.31,0.004c0.023,0.001 0.047,-0.001 0.071,-0.001c0.016,0.001 0.034,0.003 0.051,0.004c0.016,0.001 0.032,0.002 0.048,0.002c0.002,-0.002 0.004,-0.004 0.006,-0.005c0.023,-0.02 0.05,-0.032 0.079,-0.037c0.016,-0.003 0.03,-0.006 0.046,-0.005c0.011,0.001 0.022,0.003 0.033,0.006l0.002,0.001c0.057,-0.003 0.114,-0.007 0.172,-0.013c0.04,-0.004 0.08,-0.008 0.12,-0.016c0.013,-0.003 0.027,-0.007 0.04,-0.011c0.016,-0.003 0.016,-0.003 0.032,-0.007c0.039,-0.008 0.079,-0.014 0.119,-0.019c0.084,-0.011 0.168,-0.021 0.252,-0.031c0.049,-0.007 0.097,-0.014 0.145,-0.022c0.023,-0.019 0.045,-0.04 0.066,-0.061c0.127,-0.131 0.197,-0.304 0.242,-0.477c0.009,-0.033 0.016,-0.065 0.023,-0.098c0.011,-0.05 0.02,-0.101 0.028,-0.152c0.011,-0.07 0.02,-0.14 0.029,-0.21c0.006,-0.048 0.012,-0.097 0.017,-0.145Z" style="fill:#010101;"/></g></svg>