<svg xmlns="http://www.w3.org/2000/svg" viewBox="0 0 39 35.04"><title>ave</title><g id="Layer_2" data-name="Layer 2"><g id="Layer_1-2" data-name="Layer 1"><path d="M38.78,25.2c-.89-.89-21.71-21.86-23-23.07A7.5,7.5,0,0,0,3.29,5.82L.43,7.25a.78.78,0,0,0,0,1.39l3.09,1.55.09,0a7.24,7.24,0,0,0,1,1.8,7.63,7.63,0,0,0,3,2.35,10.55,10.55,0,0,0,9.72,14.68h.49v4.45H13.94a.78.78,0,0,0-.78.78.77.77,0,0,0,.78.77h6.19a.76.76,0,0,0,.77-.77.77.77,0,0,0-.77-.78h-.77V28.85a10.44,10.44,0,0,0,4.82-2.33h14a.78.78,0,0,0,.55-1.32ZM2.51,8l.59-.3c0,.2,0,.41,0,.61ZM24.18,25H20a7,7,0,0,1-5.81-3.06.78.78,0,0,0-1.28.89A8.62,8.62,0,0,0,20,26.52h1.39A9,9,0,0,1,9.35,14.3a.77.77,0,0,0-.46-1.1,6,6,0,0,1,1.7-11.65,5.92,5.92,0,0,1,4.16,1.69c1.05,1,16.9,17,21.62,21.73Z"/><path d="M8.52,4.85A1.55,1.55,0,1,0,10.06,6.4,1.54,1.54,0,0,0,8.52,4.85Z"/><path d="M13,17.9a.78.78,0,0,0-1.55,0,8.82,8.82,0,0,0,.21,1.92.77.77,0,0,0,.76.6l.17,0a.77.77,0,0,0,.58-.93A7.48,7.48,0,0,1,13,17.9Z"/></g></g></svg>