<svg xmlns="http://www.w3.org/2000/svg" viewBox="0 0 46.39 27.82"><title>mamifero</title><g id="Layer_2" data-name="Layer 2"><g id="Layer_1-2" data-name="Layer 1"><path d="M0,22.68a14.17,14.17,0,0,0,4.11-2.34,6.22,6.22,0,0,0,3.75,1.85l2,2.92a1.05,1.05,0,0,0,.86.47,29.73,29.73,0,0,1,7.48,1.05.92.92,0,0,0,.36.07,1,1,0,0,0,1-.69,1.06,1.06,0,0,0-.62-1.35,19.9,19.9,0,0,0-4-.87l-.65-2.58.6-.24a10.5,10.5,0,0,1,4.78-1A7.49,7.49,0,0,1,24.69,22a16.16,16.16,0,0,0,2,1.39L27.58,26a1,1,0,0,0,.84.71,22.84,22.84,0,0,1,4.25,1.06,1.27,1.27,0,0,0,.37.07,1.05,1.05,0,0,0,.38-2,23.74,23.74,0,0,0-4.05-1.07l-.13-.39a9.49,9.49,0,0,0,1.57.13c2.51,0,4.58-1.35,6-3.91.65.44,1.51,1,2.39,1.53a13.64,13.64,0,0,1,3.06,2.7,2,2,0,0,0,1.64.8h.39a2.07,2.07,0,0,0,2-2.58c-.11-.45-.27-.95-.43-1.48a12.49,12.49,0,0,1-.62-2.58A13.07,13.07,0,0,0,44,13.89v0a6.93,6.93,0,0,0,.65-4.31A9.85,9.85,0,0,0,44.33,8c-.22-.72-.36-1-.66-1.15a1,1,0,0,0-1.42.29C41.64,8,41,8.94,40.6,9.6a8.13,8.13,0,0,0-2.52-2.73,1.05,1.05,0,0,0-1.43.3l-.09.13a20.58,20.58,0,0,0-3.27-3A22.83,22.83,0,0,0,19.63,0,20.1,20.1,0,0,0,5.48,5.89C2.39,8.88.69,12.2.69,13.35A7,7,0,0,0,1,15m.82,2.08a13,13,0,0,0,.93,1.65m8.47,4.78-.9-1.36a14.19,14.19,0,0,0,1.9-.29l.43,1.73C12.1,23.53,11.6,23.51,11.25,23.5Zm-2.8-3.37h0c-3.84,0-5.55-5.95-5.65-6.78A16.21,16.21,0,0,1,7.1,7.24,19.19,19.19,0,0,1,12.73,3.5C12.16,6.64,11.17,13.05,14,19A12.3,12.3,0,0,1,8.45,20.13Zm8.25-2c-.24.05-.47.1-.68.16C13.18,12.57,14.37,6.15,14.88,3.4c0-.26.1-.49.13-.7a18.48,18.48,0,0,1,2.07-.42C16.16,5.37,14.86,12.06,16.7,18.16Zm2.75-.27-.63,0c-2.05-6.29-.27-13.59.52-15.81h.29c.64,0,1.28,0,1.9.07A34.59,34.59,0,0,0,19.45,17.89Zm2.15.21A29.2,29.2,0,0,1,22,7.91,27.74,27.74,0,0,1,23.7,2.45a22.56,22.56,0,0,1,2.61.63,36.63,36.63,0,0,0-4.39,15.09Zm14,.13-.07.08a1.06,1.06,0,0,0-.2.55c-.87,1.84-2.31,3.5-4.55,3.5a7.25,7.25,0,0,1-4.85-2A17.48,17.48,0,0,0,24,19,34.67,34.67,0,0,1,28.3,3.84,19.43,19.43,0,0,1,32,5.94a17.34,17.34,0,0,1,3.71,3.6,9,9,0,0,0,.78,5.16A12.14,12.14,0,0,1,35.63,18.23Zm7-7.91A5.34,5.34,0,0,1,42.52,12a4.48,4.48,0,0,0-.67-.47Zm1.3,13.16a15.92,15.92,0,0,0-3.66-3.21c-1-.56-1.93-1.22-2.56-1.67a13.54,13.54,0,0,0,.85-4.13,1.14,1.14,0,0,0-.13-.51,6.55,6.55,0,0,1-.57-4.54q.16.16.33.36a3.64,3.64,0,0,1,1,2.81,1,1,0,0,0,1.79.86c1.79,1.2,2.22,4.81,2.22,5.49a12.62,12.62,0,0,0,.72,3.2c.15.49.29.95.39,1.34Z"/></g></g></svg>