<svg xmlns="http://www.w3.org/2000/svg" viewBox="0 0 23.94 15.47"><title>peixe</title><g id="Layer_2" data-name="Layer 2"><g id="Layer_1-2" data-name="Layer 1"><path d="M9.81,15.47c-6.29,0-9.43-6.75-9.56-7L0,7.89.29,7.4C.47,7.11,4.66.24,9.79,0c3-.14,6.48,3,9.46,6.65A56.24,56.24,0,0,0,23,1.22l.9,1.12a54.49,54.49,0,0,1-3.77,5.45c1.45,1.86,2.75,3.75,3.76,5.32l-.88,1.17c-.87-1.36-2.22-3.36-3.8-5.36C16.52,12.2,13,15.47,9.81,15.47ZM1.52,8c.85,1.51,3.65,5.72,8.29,5.72,2.78,0,6-2.94,8.52-6C15.68,4.6,12.56,1.72,10,1.72H9.83C6,1.9,2.57,6.48,1.52,8Z"/><circle cx="6.34" cy="6.42" r="1.6"/></g></g></svg>