<svg width="100%" height="100%" viewBox="0 0 18 18" version="1.1" xmlns="http://www.w3.org/2000/svg" xmlns:xlink="http://www.w3.org/1999/xlink" xml:space="preserve" style="fill-rule:evenodd;clip-rule:evenodd;stroke-linejoin:round;stroke-miterlimit:1.41421;"><rect id="rec-contato" x="0" y="0" width="18" height="18" style="fill:none;"/><g><path d="M11.684,12.358c0.592,0 1.249,0.088 1.972,0.265c0.8,0.21 1.452,0.48 1.956,0.812c0.592,0.397 0.888,0.845 0.888,1.342l0,1.723l-4.109,0l0,-1.723c0,-0.939 -0.449,-1.734 -1.348,-2.386c0.153,-0.022 0.367,-0.033 0.641,-0.033Zm-5.457,0c0.592,0 1.244,0.088 1.956,0.265c0.8,0.21 1.446,0.48 1.939,0.812c0.592,0.397 0.888,0.845 0.888,1.342l0,1.723l-9.599,0l0,-1.723c0,-0.497 0.296,-0.945 0.888,-1.342c0.504,-0.332 1.156,-0.602 1.956,-0.812c0.723,-0.177 1.38,-0.265 1.972,-0.265Zm0,-1.359c-0.362,0 -0.701,-0.094 -1.019,-0.282c-0.318,-0.187 -0.57,-0.442 -0.756,-0.762c-0.187,-0.32 -0.28,-0.663 -0.28,-1.027c0,-0.365 0.093,-0.707 0.28,-1.027c0.186,-0.321 0.438,-0.575 0.756,-0.763c0.318,-0.187 0.657,-0.281 1.019,-0.281c0.362,0 0.699,0.094 1.011,0.281c0.312,0.188 0.559,0.439 0.739,0.754c0.181,0.315 0.272,0.66 0.272,1.036c0,0.375 -0.091,0.721 -0.272,1.035c-0.18,0.315 -0.427,0.567 -0.739,0.754c-0.312,0.188 -0.649,0.282 -1.011,0.282Zm5.457,0c-0.362,0 -0.701,-0.094 -1.019,-0.282c-0.318,-0.187 -0.57,-0.442 -0.756,-0.762c-0.186,-0.32 -0.28,-0.663 -0.28,-1.027c0,-0.365 0.094,-0.707 0.28,-1.027c0.186,-0.321 0.438,-0.575 0.756,-0.763c0.318,-0.187 0.657,-0.281 1.019,-0.281c0.362,0 0.701,0.094 1.019,0.281c0.318,0.188 0.57,0.442 0.756,0.763c0.186,0.32 0.28,0.662 0.28,1.027c0,0.364 -0.094,0.707 -0.28,1.027c-0.186,0.32 -0.438,0.575 -0.756,0.762c-0.318,0.188 -0.657,0.282 -1.019,0.282Z"/><path d="M12.797,6.071c0.008,-0.226 0.013,-0.459 0.013,-0.697c0,-2.139 -0.338,-3.874 -0.753,-3.874c-0.416,0 -0.753,1.735 -0.753,3.874c0,0.2 0.003,0.397 0.008,0.588c0.161,-0.022 0.326,-0.034 0.494,-0.034c0.344,0 0.677,0.05 0.991,0.143Z"/><path d="M10.295,2.684c-0.415,0 -0.752,1.734 -0.752,3.874c0,0.2 0.002,0.396 0.008,0.588c0.161,-0.023 0.263,-0.477 0.431,-0.477c0.344,0 0.752,-0.204 1.066,-0.111c0,-2.14 -0.337,-3.874 -0.753,-3.874Z"/><path d="M14.318,6.558c0,-2.14 -0.337,-3.874 -0.753,-3.874c-0.416,0 -0.753,1.734 -0.753,3.874c0,0.2 -0.006,-0.081 0,0.111c0.161,-0.023 0.272,0 0.439,0c0.345,0 0.74,0.492 1.055,0.585c0.008,-0.226 0.012,-0.458 0.012,-0.696Z"/></g></svg>