<?xml version="1.0" encoding="UTF-8" standalone="no"?><!DOCTYPE svg PUBLIC "-//W3C//DTD SVG 1.1//EN" "http://www.w3.org/Graphics/SVG/1.1/DTD/svg11.dtd"><svg width="100%" height="100%" viewBox="0 0 18 18" version="1.1" xmlns="http://www.w3.org/2000/svg" xmlns:xlink="http://www.w3.org/1999/xlink" xml:space="preserve" style="fill-rule:evenodd;clip-rule:evenodd;stroke-linejoin:round;stroke-miterlimit:1.41421;"><rect id="relatos" x="0" y="0" width="18" height="18" style="fill:none;"/><path d="M11.863,11.424l0.274,3.603l-5.244,-3.603l-2.484,0c-1.189,0 -2.155,-0.965 -2.155,-2.155l0,-4.311c0,-1.189 0.966,-2.155 2.155,-2.155l7.83,0c1.19,0 2.156,0.966 2.156,2.155l0,4.311c0,1.19 -0.966,2.155 -2.156,2.155l-0.376,0Zm-3.775,-4.305c0.371,0 0.671,0.301 0.671,0.672c0,0.37 -0.3,0.671 -0.671,0.671c-0.37,0 -0.671,-0.301 -0.671,-0.671c0,-0.371 0.301,-0.672 0.671,-0.672Zm-2.566,-0.048c0.37,0 0.671,0.3 0.671,0.671c0,0.37 -0.301,0.671 -0.671,0.671c-0.37,0 -0.671,-0.301 -0.671,-0.671c0,-0.371 0.301,-0.671 0.671,-0.671Zm5.14,0c0.371,0 0.671,0.3 0.671,0.671c0,0.37 -0.3,0.671 -0.671,0.671c-0.37,0 -0.671,-0.301 -0.671,-0.671c0,-0.371 0.301,-0.671 0.671,-0.671Z"/></svg>