<svg xmlns="http://www.w3.org/2000/svg" xmlns:xlink="http://www.w3.org/1999/xlink" viewBox="0 0 2057.6 1865.6"><defs><style>.cls-1{fill:#49a5cb;}.cls-2{fill:#2d8fb4;}.cls-3{fill:#22718f;}.cls-4{fill:#227999;}.cls-19,.cls-5{fill:none;}.cls-6{fill:#365463;}.cls-7{fill:#484849;}.cls-8{fill:#5f5f5f;}.cls-9{fill:#405b78;}.cls-10{fill:#bbc7c4;}.cls-11{fill:url(#linear-gradient);}.cls-12{fill:#fff;}.cls-13{fill:#020202;}.cls-14{fill:url(#linear-gradient-2);}.cls-15{fill:url(#linear-gradient-3);}.cls-16{fill:url(#linear-gradient-4);}.cls-17{fill:#b4c2cb;}.cls-18{fill:url(#linear-gradient-5);}.cls-19{stroke:#fff;stroke-miterlimit:10;stroke-width:0.23px;}</style><linearGradient id="linear-gradient" x1="2405.33" y1="-820.52" x2="2405.62" y2="-820.52" gradientTransform="matrix(0.65, 0.76, 0.76, -0.65, 403.81, -915.61)" gradientUnits="userSpaceOnUse"><stop offset="0" stop-color="#565555"/><stop offset="1" stop-color="#5f5f5f"/></linearGradient><linearGradient id="linear-gradient-2" x1="2278.67" y1="-846.24" x2="2587.03" y2="-577.95" xlink:href="#linear-gradient"/><linearGradient id="linear-gradient-3" x1="2286.76" y1="-805.91" x2="2290.83" y2="-805.38" xlink:href="#linear-gradient"/><linearGradient id="linear-gradient-4" x1="-424.54" y1="-841.44" x2="-424.57" y2="-841.44" gradientTransform="translate(1001.48 2310.73) rotate(49.1)" gradientUnits="userSpaceOnUse"><stop offset="0" stop-color="#020201"/><stop offset="1" stop-color="#020202"/></linearGradient><linearGradient id="linear-gradient-5" x1="2407.28" y1="-817.59" x2="2407.32" y2="-817.59" gradientTransform="matrix(0.65, 0.76, 0.76, -0.65, 403.81, -915.61)" gradientUnits="userSpaceOnUse"><stop offset="0" stop-color="#020201"/><stop offset="1" stop-color="#090909"/></linearGradient></defs><title>lago</title><g id="lago"><g id="lago_desenhado" data-name="lago desenhado"><path class="cls-1" d="M1852.3,1065.3c-7.7-12.7-3.9-21,1.4-34.9,1-2.7,2.1-5.9-1.6-6.4-14.1-1.8-10.8-12-11.4-21.1-.3-5.3-2-11.2-5.1-15.3-2.6-3.4-8-4.9-12.6-.4-2.9,2.8-5.8.1-7.8-1.9-2.5-2.4.5-3.7,1.8-5.2,6.1-7.1-3.2-6.2-4.9-9.3-1.6-2.9-3.6-1.5-4.9.7-2.9,4.6-3.7,10.6-9.2,13.4-.5-5.7-.9-11.4-1.4-17.1v-.5c-.5-2.1-1-4.2-1.5-6.2-1.4,1.6-3.1,3-4,4.8-3.5,6.8-6.9,15.4-15.3,14.4-9.3-1-16.9,1-24.8,4.8-2.5,1.2-5.8.7-8.8.9,1-2,2.5-3.9,3-6,1-4-.2-6.8-4.8-7.5-1.8-.3-4.6-.9-5-2.1-4-10.6-4.5-11.1-10.7-3.1-5.1,6.5-14.9,5.7-18.5,13.6-3.3-2.6-8.7,8-11.6-2.1-.9-3.3-7.7-5.2-11.3-2.5-3.9,2.9-5.6,3.4-11.1-1.1a24.68,24.68,0,0,0-7.5-4.4c-15.1-4.8-32-2.5-46.3-11-7.4-4.5-15.4-8.3-22.3-13.5-2.5-1.9-4.4-6-.8-10.5,2.7-3.4,4.6-9.4,1.1-13-10.1-10.3-18.9-21.6-28-32.6-10.1-12.1-19.6-23.6-23.7-39.1-.8-3.2-2.5-7.4-5-8.8-19.8-11.5-33.9-30.4-54.3-41.1-10.6-5.6-16.5-14.5-15.5-27.3,1.1-13.6,3.2-27.1-1.8-40.7-5.9-15.8-3.4-33.9-13.4-48.8a10.09,10.09,0,0,1,1.8-13.7c2.8-2.5,6.9-4.4,10.1-1.9,7.3,5.8,14.4,3,22.2,1.6,10.5-1.8,19.5-10,30.9-7.5.3.1.6-.2.9-.2a6.66,6.66,0,0,0-2-1.2c-15.4-4.7-28.9-11.8-39.1-25.3-4.3-5.7-12.3-8.3-17.8-13.3-6.1-5.5-17.8-5-18.9-15.7-1.5-14.3,3.9-27.8,9.9-40,7.4-15.2,17.8-29,27-43.4,3.2-4.9,5.9-12.7,4.3-12.5-7.7,1-15.5-4.5-23.4,2.2-5.1,4.3-11.9,7.1-17.7,11.1-6.7,4.5-13.6,1.4-19.4-3.9-9.1-8.3-7.1-17.3-2.4-27,6-12.4-.8-27.1-14.2-31.6-3.3-1.1-5-2.9-6.5-6.1-6.2-13.6-15-24.6-31.3-25.5-9.9-.5-17.5-4.9-21.6-12.9-3.1-6-7.3-10.8-12.9-12.2-5.9-1.5-8.7,4.8-11.1,9.7-.4.9-1.6,1.4-2.4,2.1-.4-.7-1.2-1.4-1.1-2,1-7.3-4.5-6.7-9-8.4-5.1-2-12.8-1.5-12.9-10.4-.1-8-2.6-15.3-12.3-11.5-7.5,2.8-17.4,2.3-21.4,11.9-.3.8-3.4,1.3-4.4.7a5.23,5.23,0,0,1-1.8-4.4c.9-3.9.4-7.6-1.8-10.5-10.2-13.3-15-26.5-1.2-40.5.7-.7,3.1-3.8,1.1-3.5-8.3,1.1-12.1-7.1-19.2-8.3-10.8-1.8-14.3-9.2-12.6-19.5.5-3,1.2-6.9-1.6-8.2a7.94,7.94,0,0,0-9.6,1.9c-8.4,10-18.9,9.2-30.5,7.7-10.6-1.4-22.3,2.8-28.3-10.9-1.1-2.6-6.1-3.5-9.2-5.2s-7.5-2.6-8.7-5.1c-5.2-11.2-9.4-22.9-13.8-34.4-1.6-4.1-3.1-7.6-7.4-10-9.8-5.5-20.2-8.9-30.9-12.4-7-2.3-12.3-8.7-15.7,3-.6,2.1-1.1,4.3-1.6,6.4-2.9-2.6-3.4-6.2-2.9-9.6,1-6.5-4.5-14.6-6.4-13.9-14.1,5-17.4-7.8-24.9-13.4s-16.6-10.5-21.9-17.9c-4.3-6.1-9.5-4.8-14-5.4-5.2-.7-11.1,1.5-8.3,9.7.4,1.2-.8,3.7-2,4.7-9.6,7.5-3.3,11.5,3,16,1.8,1.3,3,3.6,4.4,5.5-1.7-.9-3.5-1.7-5.2-2.6-10.9-5.4-13.2-16.3-17.1-26.4l-2.5-1.3c3.7,19.2,15.7,32.6,31.5,43,1.9,1.3,3.9,2.4,5.8,3.6-3,1.4-5.4-.4-7.9-1.7-13.7-7.1-21-20.6-31.7-30.8-1.4-1.4-3.5-2.1-5.2-3.2.9,1.8,1.3,4.1,2.6,5.4a300.24,300.24,0,0,1,21,22.6c4.9,5.9,10.9,14.2,20.6,10.3,9.9-3.9,10.7,2.6,11,8.8.6,11.8,6,17.7,18,17.6,9.3-.1,17.9.5,17.6,13.6-.1,5.6,4.2,9.7,8.6,13.4,12.2,10.1,24.7,20.1,35.9,31.3,12.6,12.5,24,25.8,42.9,29.8,10.3,2.2,18.2,9.3,25.3,18.1,13.2,16.3,19.8,37,36.7,50.8,16,13,35.7,15.2,54,22.1,33,12.4,60.9,33.9,88.9,54.9,9.3,6.9,8.5,15.2,1.3,23.6a145.49,145.49,0,0,0-10.6,14.2c-14.2,22.3-11.6,45.4,6.3,58.6,17.4,12.8,20.2,21.5,10,40.2-5.8,10.6-6.7,21.4-7.8,32.9-3.3,36.2-9.6,71.6-31.8,101.9-3,4.1-7.8,8.2-12.6,9.5-12.6,3.5-35.4-15.2-33.7-28.3,1.8-13.9,7-27.5-.6-41-1.7-3-5.9-5.8-5.7-8.5.7-10.5-3.3-17.3-11.7-23.5-12.8-9.4-28.6-11.8-42.1-19.2-2.4-1.3-4.2-2.6-5.1-5.6-4.3-15.3-15.9-25.6-29.3-30.7-16.2-6.1-30.6-10.2-24.1-32a4.71,4.71,0,0,0-.2-2c-4.6-24.7-18.5-41.7-41.1-52.6-7.6-3.7-16.4-5.4-22.8-11.9-6.9-7.1-13.5-15-21.8-20.2-25.2-15.7-56.1-18.4-81.2-34.8-1.8-1.2-4.9-.7-7.3-.4-19.6,2.7-31.8-5.5-36.1-24.3a11.66,11.66,0,0,0-1.1-3.3c-14.6-21.4-34.3-34.7-60.4-38.5a127.72,127.72,0,0,1-25-6.5c-17.6-6.2-26.7-23.5-40.4-33.5-24.6-17.7-26.6-47-43.4-68.2-11.3-14.2-18.6-31.7-36.2-39.8-4.7-2.2-11.3-.7-15.5-3.4-14.5-9.2-27.3-15.2-46.5-9.3-27.2,8.3-56.2,8.6-84.8,3.9-2.3-.4-7.4-2.5-7.2,2.8.2,4.8-3.1,4.2-5.5,4.7-3.4.7-3.3-2.1-3.3-4.2-.1-17.2-19.8-12.7-25.9-23.2-.1-.1-.7,0-.9.1-7.6,4.7-13.9.3-20-3.3-6.7-4-13.4-1.2-20.1-1.1-1.2,0-2.4,2.4-3.6,3.7.7.6,1.3,1.5,2.2,1.8,10.7,3.2,20.5,11.9,33.1,4.8,2-1.1,6.8,4.3,5.8,4.8-6.7,3.7.1,5.9,1.1,6.8,6.1,5.3,11.9,10.3,16.6,17.4,4.5,6.9,8.8,5.9,11.1.3.1-.2.7-.6.7-.5,9.2,7.7,20.3,1.9,30.3,4.2,20.3,4.6,37.4,18.5,56.6,22.7a215.32,215.32,0,0,1,56.4,21.1c31.2,16.6,39.1,40.6,19.9,69.8-2.9,4.4-10,10.6-.2,14.2,9.4,3.5,19.7,8.2,29.4-.4a3.66,3.66,0,0,1,5.6,1.3c3.9,8.1,11.7,14.1,12.8,23.9,1.5,12.2,15.8,23.7,25.4,20.1,5.6-2.1,7.9,6.5,13,2.6a7.72,7.72,0,0,1,.2,1.5c2.4,12.7,12.6,20.4,20.3,29.2,14.4,16.5,31,31,45.9,47.2,14.2,15.4,24.3,33.9,38.9,48.9.8.8,1.4,2.6,1,3.4-2.5,5.6,0,10.2,2.7,14.6a55.44,55.44,0,0,0,70.6,21.1c18-8.4,46.5,1,45.9,16.6-.8,21.9,12.1,36.3,25.3,48.2,18.8,17,30.4,36.9,38.8,59.8,3.4,9.3-4.4,26.3-14.1,26.8-15.2.8-23.9,8.2-28,22.2-.8,2.8-2.5,5.7-6.1,4.5-14.3-5.1-25.2.9-35.8,9.9-8.7,7.4-10.8,20.7-21.8,25.4-17.6,7.4-18,24.6-19.7,38.4-1.7,13.6,6.9,27.8,2.4,42.6-1.5,4.8,3.4,8.9,7.1,8.6,7.3-.6,10.1,5.2,15.1,7.8,6,3.2,14.1,7.3,17.4-1.6,5.7-15.3,17.1-22.7,32.6-16.5,19.8,8,40.7,13.7,58.7,25.7,9.9,6.6,17.9,17.2,31,16.8,15.2-.5,30.8-.4,45.3-4.1,27.7-6.9,54.3-15.6,83.9-9.5,20.4,4.2,42.4,1.1,62.7,5.6,26.2,5.9,46.1,23.4,61.1,45.7,2.1,3.1,4.6,5.6,8.5,6.4,13.5,2.8,27,5.5,40.4,8.7,6.9,1.6,9.9,6.6,5.6,12.7-8.4,11.8-20,20.7-33.6,24.5-24.3,6.8-46.2,16.5-64,35.2-9.6,10.2-20.8,19-31.7,27.8-3.2,2.6-4.4,4.8-4.1,8.6,2.6,31,5.7,61.9,7.2,93,.9,18.6-5.4,37.1-1.8,56,.8,4.4,1.6,9.5.2,13.5-3.3,9.7-10.9,16.4-13.2,28.2-2.4,12.1-7.7,25.6-13.9,37.7-3.7,7.2-3.8,14.1-17.5,13.3-28.2-1.8-56.9,1.1-82.6,15.8a5.44,5.44,0,0,1-6,0c-15.9-9.3-34-11.9-51.6-11.6-14.4.3-26.7,2-40.4-7.5-13.2-9.2-29.5-19.8-46.9-15.6-36.7,9-74.2,12.4-111.3,18.3-16.1,2.5-32.8,3.6-48.9,2.3-18.6-1.5-35.4-11.2-55.1-11.7-34.9-.9-64,18-96.7,24.6-12.2,2.5-23.8,13.9-32.9,23.8-25.2,27.1-55.7,50-70.6,85.7-2.7,6.4-8.9,12.6-8.5,18.6s-.6,10.1-5,12.3c-12,6.1-24.5,11.3-36.7,17-19.9,9.3-42.6,13.6-52.7,38.2-4.3,10.5-16.8,14.9-29.8,11.7-22.6-5.6-40.5,5.2-57.9,17.5-9.3,6.6-16.7,21.2-31.1,7.6-.6-.5-3.4.1-3.5.5-.3,1.8-.6,3.9.2,5.4,4.7,9.5,10.5,18.7,8.5,28.7-.4,17.2-23.4,34.1-39.7,32.6-10.8-1-24.1-1.9-32.4,3.3-8.7,5.5-18.6,8.4-26.9,14.4-3.4,2.5-7.5,5.3-12,3.8-8-2.7-10.5,1.6-11.4,8-.8,5.6-.5,11.7-9.1,10.8-1.9-.2-2.3,1.5-1.1,3.2,1.9,2.8,3.8,5.7,5.7,8.5-3.5-1.6-7-3.2-10.6-4.8a10.36,10.36,0,0,0-3.8-1.1c-2,.1-5.8.7-5.8,1,.1,3.2,3.1,1.9,4.8,2.6,2.7,1,7.2.6,7.2,4,0,2.8-2.3,6.9-4.7,8.1a25,25,0,0,1-12.9,2.7c-12.3-1-21.4,6.4-31.7,10.8-1.3.6-4.4,2.1-2,4.5,2.1,2.2,4,.3,5.4-1.5,5.7-7.1,11.4-8.2,17.3-.1,1,1.4,2.9,2.1,4.5,2.9,1.3.7,2.8,1.1,4.2,1.7-1.3,1.2-2.5,2.5-3.8,3.6-1.1,1-2.3,1.8-3.4,2.7,1.7.3,3.9,1.4,5.1.7,9.7-5.5,19.3-11.2,28.7-17.2,14.7-9.2,28.6-19.9,44-27.6,12.4-6.2,26.1-9.6,33.6-22.8,1.7-3,4.4-4.5,8-5.2,17-3.4,34.9-2.5,51-10.7,11.5-5.8,20.5-15.3,32.7-20,23.9-9.1,45.2-23.5,64.2-39.8,13.3-11.4,24.7-20.4,42.8-14.4a134.48,134.48,0,0,0,17.9,4.7c10.7,1.9,22.3,4.5,28.8-7.8,4.1-7.8,10-12.6,17.8-15.8,37.3-15.5,55.2-44.9,61.5-83.7,2.9-17.9,6.5-36.1,15.7-52.3,1.4-2.5,3.7-4.5,6.5-3.6a6.83,6.83,0,0,1,4,4.3c2.4,9.2,8,8.9,14.9,5.5,17.8-8.6,36.6-16.1,41.1-38.9.7-3.5,4.6-5.6,8.5-6.1,15-2.1,29.9-1.8,44.5,3,11.6,3.8,19.2,17.4,13.3,27.8-5.5,9.6-3.4,18.1-1.4,27.2,1.4,6.1,3.2,11.2,11,12.9,8.3,1.8,13.3-1.6,16.3-7.9,10.4-22.1,30.8-21.5,49-19,23.2,3.2,44.7,1.8,65.8-8,12.6-5.8,25.9-6.7,39.1-4.7,11.3,1.7,10.7,13.8,14.9,21.4,2.3,4.2-3.1,7.7-6.6,9.2-26.3,11.3-37.8,38.8-59.9,54.9-15.3,11.1-21.1,30.8-33.8,44.6-30.2,32.8-55.2,68.4-66.4,112.4-.7,2.6-3.1,5.2-5.3,6.9-6.6,4.9-7.3,11.3-1.2,15.3,7.9,5.3,11.7,12.4,16.1,20.2,4.5,8,7.2,15.9-1.1,21-19.1,11.7-30,32.2-50.1,43.1-9.6,5.2-17.1,13.4-29.2,13.1-2.9-.1-3.4,2.5-1.3,5.1,5.7,7.2,14.2,10.4,21.8,14.6,5.6,3,10.4,2.4,16.2-2.3,4.7-3.7,5.5-9.1,9.1-12.4,9-8.3,17.5-16.1,11.8-30a3.39,3.39,0,0,1,.7-2.9c5.8-5.8,13-9,20.3-12.3,5.1-2.3,4.7-15.6,16-6.3,3.2,2.6,13.1-2.5,19.7-4.7,20.5-6.9,46.4-11.5,56.7,6.6,2.2,3.9,4.7,8.6,10.8,2.7,2.8-2.7,8.2-3.4,12.6-3.7,4-.3,8-.1,8-5,.1-5.6,4.5-13.3-4.1-16-15-4.6-29.7-10.2-45.8-10.2-15.5,0-21.2-9.9-13.3-22.5,11-17.6,21-36.4,41.9-44.6,12.7-5,21.5-14.4,29.6-24.6,7.4-9.4,14.3-19.2,24.2-26.2,19.4-13.7,38.7-26.9,63.1-10.1,4.1,2.8,9.2,2.5,14.1,1.3,15.7-3.7,31.2-8.3,47-10.8,9.7-1.6,23.9-3.6,29-.3,17.4,11.1,12.6-5.4,13.5-9.9,6.6-32.8,21-59.7,51.9-75.9,18.4-9.7,37.4-20.1,58.3-11.1,17.4,7.4,34.7,13.9,53.4,16.5,3.9.5,7.8.8,11.7,1.2-.1-6-1.8-11.4-6.4-15.6-1.6-1.5-3.4-2.7-5-4.2-12.7-11.4-15.1-31.3-4.8-41,6-5.7,14.9-10,17.9-16.9,5.7-13,29.5-2,28.3-25.9-.7-15.1,31.5-32.7,47.5-34.4,10.4-1.1,19.9.5,29.7,2.7.6.1,1.4-.4,2.1-.6-6.2-10.1-9.9-21.8-21.9-27.9-11.1-5.7-18.1-15.1-15.5-29,1.5-8.2,3-16.3,4.3-24.5,2.6-16.4,10.5-34.5,6.2-49-6-20.2,4-29.5,14.7-41a.75.75,0,0,0,.1-.5c-1.6-21.1,10.2-18,23.2-12.8a31.55,31.55,0,0,0,5.3,1.3c4.6.9,10.1,2.6,12.7-2.2,2.5-4.6-2.6-7.6-5.5-10.6-10.4-11-20.2-21.8-7.6-37.8,3.9-4.9,5.6-11.6,8.1-17.5,8-18.3,14.9-37,32.7-49.5,4.9-3.4,23.5-7,8.8-21-.3-.3-.1-1.3.1-1.9,4.8-10.5,11.6-21.8,23.9-19.8,18.4,3,35.4-12,53.7-2.4,2.9,1.5,8.6-4,10.1.9,1.6,5.1-4.1,8-7.8,11-1.9,1.5-5.2,2.5-3.7,5.6s4.3,1.4,7,1.3c7.1-.3,17.3-9.7,20.1,5.7.1.6,2.2,1.2,3.4,1.1,26.5-2.2,23.6,1.8,28.5,22.1.6,2.7-1.5,7.2,2.1,7.7s4.3-4.2,6-7.1c2.6-4.5,2.8-18.4,11.6-3.5.3.6,2.8.7,3.5.1,11.9-10,9.4,3.1,12,7.6a14,14,0,0,1,1.1,4,38,38,0,0,1,2.9-3.8c3.8-4.2,3.4-14,12.1-11.5,5.1,1.5,9.2.6,14,.3,10.7-.6,18.5-11.1,31.4-5.8,9.5,3.9,15.2,10,10.5,20-2.9,6.2-4.1,14.8-3.4,19.9,1.6,11.3,12.8,18.8,22.1,25.4,14.1,10,17.8,12,24.8-5,4.8-11.7,9.6-24,14.7-35.6C1854.3,1072.5,1853.8,1067.8,1852.3,1065.3Z"/><path class="cls-2" d="M827.5,1800a2.39,2.39,0,0,0-.7-.3c-1.7-.9-3.4-1.8-5-2.6-.1-.1-.2-.1-.3-.2,2.7-1.5,5.2-3.2,7.4-4.7a70.11,70.11,0,0,1,6.6-4.1c1.2-.6,2.3-1.3,3.4-1.9l-.6.6a32.1,32.1,0,0,0-6.1,8.4c-1,1.8-1.6,2.9-2.3,3.4A12.19,12.19,0,0,1,827.5,1800Zm152.1-64a34.85,34.85,0,0,0-8.5-8.1c5.5,1.3,11.1,3.1,16.9,4.9.4.1.9.3,1.3.4A31.9,31.9,0,0,0,979.6,1736Zm-80.2-3.8c-.9-.6-1.9-1.1-2.8-1.6a21.79,21.79,0,0,0,.5-6.3c-.4-6.4-3.3-12.3-5.8-16.8l-.6-1c-3.8-6.8-8.1-14.3-15.6-20.5,2.9-2.5,6.5-6.6,7.8-12,9.3-36.5,28.9-69.6,63.6-107.2,6.1-6.6,10.6-14,14.9-21.1,5.2-8.6,10.2-16.8,17.2-21.9,10.3-7.5,18.3-16.9,25.9-25.9,9.7-11.4,18.8-22.2,31.6-27.7,4-1.7,11-5.7,13.5-13a15.88,15.88,0,0,0-1.2-13.1,32.7,32.7,0,0,1-1.9-5.2c-2.2-7-6.3-20-21.8-22.3a98.93,98.93,0,0,0-14.1-1.1,75,75,0,0,0-31.8,6.8,92.48,92.48,0,0,1-39.6,8.4,150.1,150.1,0,0,1-19.4-1.4,124.24,124.24,0,0,0-16.5-1.3c-21.5,0-36.6,9.1-45,27.2a6.94,6.94,0,0,1-.9,1.5h-.3a6,6,0,0,1-1.6-.2c-.4-.1-.7-.2-.8-.2a23.34,23.34,0,0,1-1.1-3.6l-.2-.8c-1.9-8.5-2.7-12.8.2-17.8a28.13,28.13,0,0,0,1.6-24.7,35.19,35.19,0,0,0-21.5-20.5,100.07,100.07,0,0,0-31.3-4.8,122.83,122.83,0,0,0-18.6,1.4c-9.7,1.4-17,7.5-18.6,15.7-2.9,14.6-13.6,20.4-30.7,28.6-1,.5-1.9.9-2.9,1.4a18.9,18.9,0,0,0-11.2-10.1,15.94,15.94,0,0,0-4.8-.7c-6.3,0-12,3.6-15.6,9.9-10.3,18.1-14.1,37.7-17.1,56.3-6.2,38-23.4,61.7-54.2,74.5-10.8,4.5-18.6,11.5-23.8,21.3-1.2,2.3-2.1,3-5.4,3a62.69,62.69,0,0,1-9.6-1.2l-1.1-.2a127.87,127.87,0,0,1-16.2-4.3,46,46,0,0,0-14.8-2.5c-17.1,0-29.6,10.7-39.6,19.2-20.7,17.7-40.5,30-60.7,37.7-8.4,3.2-15.3,8.2-21.5,12.5a96.06,96.06,0,0,1-12.4,8,45.14,45.14,0,0,1-7.2,2.9c9.1-7.8,15.8-18.4,16.4-29.8a36.89,36.89,0,0,0-2-18.6c8-1.4,13.8-6.9,18.2-11,1.7-1.6,3.3-3.1,4.6-4.1,14.5-10.4,26.1-16.8,38.7-16.8a37.09,37.09,0,0,1,9.3,1.2,46.89,46.89,0,0,0,11.1,1.4c15,0,27.5-7.7,32.7-20.1,6.2-15.1,18.6-20.2,34.3-26.6,4.1-1.7,8.2-3.4,12.4-5.3,4.4-2,8.9-4.1,13.3-6,7.8-3.5,15.9-7.1,23.8-11.1,12.2-6.2,11.9-18.6,11.6-23.3a41.5,41.5,0,0,1,2.9-5.1,53.5,53.5,0,0,0,4.7-8.6c10.2-24.5,28.7-42.7,48.3-62,6.6-6.5,13.4-13.2,19.9-20.2,5.1-5.5,17-18.2,26.5-20.2,13.3-2.7,25.9-7.2,38.1-11.6,18.2-6.5,35.3-12.7,53.9-12.7h2c9,.2,17.6,2.8,26.8,5.5,8.7,2.6,17.8,5.3,27.7,6.1q7.5.6,15.3.6a233.16,233.16,0,0,0,36.5-3c11.3-1.8,22.9-3.4,34.1-4.9,25.7-3.5,52.2-7.2,78.2-13.6a22.42,22.42,0,0,1,5.2-.6c10.5,0,21.5,7.1,32,14.4,12.6,8.8,24.6,10,34.6,10,2.6,0,5.2-.1,7.8-.2,1.7-.1,3.3-.1,5-.1h2.5c17.3,0,31.3,3.3,42.8,10a18,18,0,0,0,9.1,2.6,16.9,16.9,0,0,0,8.9-2.5c17.3-9.9,37.7-14.7,62.4-14.7,4.3,0,8.8.1,13.5.4,1,.1,2,.1,2.9.1,17.3,0,22.1-11,24.7-17,.5-1,.9-2,1.3-2.9,7.3-14.1,12.6-28.6,15.1-40.9.9-4.7,3.3-8.6,5.9-13a71.82,71.82,0,0,0,6.8-13.6c2.2-6.5,1.4-13.3.2-19.6-1.7-9.1-.6-18.7.6-28.8,1-8.2,1.9-16.7,1.5-25.6-1.2-23.1-3.2-46.4-5.2-68.9-.7-7.7-1.3-15.4-2-23.1l1.3-1.1c10.5-8.5,21.5-17.2,31.1-27.4,13.8-14.6,31.9-24.4,58.5-31.9,16-4.5,29.9-14.6,40.2-29.2,5.7-8.1,4.4-15.2,3.1-18.7-2.3-6.2-8.1-10.8-15.7-12.6-11.3-2.7-22.8-5.1-33.9-7.3l-6.8-1.4a8.85,8.85,0,0,1-1.1-1.4c-18.6-27.6-41.6-44.7-68.4-50.7-11.5-2.6-23.2-2.9-34.4-3.3-10.1-.3-19.6-.6-28.5-2.4a116.5,116.5,0,0,0-23-2.3c-19.9,0-38.6,4.8-56.6,9.5l-9.6,2.4c-11.5,2.9-24,3.2-37.3,3.6-1.8,0-3.7.1-5.5.2h-.4c-4.8,0-8.8-3.2-15.1-8.3-2.7-2.2-5.4-4.4-8.5-6.5-14.5-9.7-30.2-15.5-45.5-21.1-5.1-1.9-10.4-3.8-15.4-5.8a41,41,0,0,0-14.9-3.1c-13.8,0-25.2,8.2-31.9,22.8-.8-.4-1.6-.8-2.1-1.1s-1.4-1.1-2.2-1.7c-2.6-2.3-6.7-5.8-12.7-7,1.2-8.7-.4-16.7-1.8-23.9-1.1-5.3-2-10.3-1.6-14.3.1-1.1.3-2.3.4-3.5,1.7-14.8,3.3-21.6,12.1-25.3,10.1-4.2,15-12.4,18.9-19,2-3.4,3.9-6.5,6.1-8.4,7.3-6.2,12.6-8.9,17.7-8.9a18.87,18.87,0,0,1,6.3,1.2,15.4,15.4,0,0,0,5.6,1c5.8,0,13.1-3.5,16-13.4,2.8-9.5,7.2-13.1,17.1-13.6,7.6-.4,14.6-4.9,19.7-12.7,4.8-7.2,9-19.5,5-30.2-9.9-27.1-23.3-47.6-42.1-64.6-13.6-12.3-21.9-23.1-21.3-38.9.3-7-2.4-13.6-7.7-19.1-7.8-8.1-21.2-13.1-34.9-13.1a48.37,48.37,0,0,0-20.4,4.3,42.9,42.9,0,0,1-18.3,4.1,43.56,43.56,0,0,1-37-20.6,24.18,24.18,0,0,1-1.9-3.6c2.6-5.9.2-12.8-3.4-16.6-7-7.2-13-15.5-19.4-24.2a268.85,268.85,0,0,0-19.3-24.5c-6.7-7.3-13.8-14.3-20.7-21-8.8-8.7-17.2-17-25-25.9-1.9-2.2-3.9-4.3-5.9-6.3-5.6-5.8-10.5-10.9-11.7-17.2,0-.2-.1-.5-.1-.7l-.1-.6a11.89,11.89,0,0,0-7.4-9.1,11.66,11.66,0,0,0-4.5-.9,7.57,7.57,0,0,0-1.5.1,17.51,17.51,0,0,0-9.8-3.1,15.93,15.93,0,0,0-5.7,1c-2.7-.2-8.9-5.2-9.5-10.2-1.1-9.3-5.9-15.8-9.7-21.1a48.3,48.3,0,0,1-4.3-6.5,16,16,0,0,0-14.3-9,15.62,15.62,0,0,0-10.1,3.8,6.11,6.11,0,0,1-4.5,1.8,21.2,21.2,0,0,1-6-1.2c10.4-16.4,13.8-32.1,10.1-46.8-4-15.6-15.8-28.8-35.2-39.1a226.9,226.9,0,0,0-59.4-22.2c-8.1-1.8-16.2-5.8-24.9-10.1-3.2-1.6-6.4-3.2-9.7-4.7a179.17,179.17,0,0,0,49.4-7.5,38.29,38.29,0,0,1,11.1-1.8c8.5,0,15.8,3.6,25.5,9.7,4.7,3,9.8,3.4,13.5,3.7a26.24,26.24,0,0,1,3.5.4c9.8,4.5,15.8,13.4,22.7,23.6,2.8,4.2,5.7,8.5,9,12.6,5.8,7.3,9.7,16.1,13.9,25.4,6.8,15.2,14.5,32.5,31.9,45.1,4.3,3.1,8.3,7.4,12.6,12,8,8.5,17.1,18.2,30.8,23.1a144.52,144.52,0,0,0,27.3,7c21.5,3.1,38.3,13.7,51.5,32.3l.1.3c5,22,19.6,34.1,40.9,34.1a65.53,65.53,0,0,0,8.6-.6c.4-.1.8-.1,1.1-.2,13.5,8.4,28.1,13.3,42.2,18,13.4,4.5,26,8.7,37.1,15.6,5.2,3.3,10.1,8.4,15.2,13.8,1.5,1.5,2.9,3.1,4.4,4.6,6.3,6.5,13.9,9.4,20,11.8,2.2.9,4.3,1.7,6.1,2.5,19.4,9.4,30.4,23,34.3,43-3.1,12.5-.9,22.7,6.4,30.4,6.2,6.5,15,9.7,23.4,12.9l2.2.8c6.5,2.4,18,8.6,22,22.7a20.56,20.56,0,0,0,10.9,12.8,129.56,129.56,0,0,0,19.5,8.3c7.8,2.9,15.2,5.6,21.3,10s7.2,7.9,6.8,13c-.4,6.7,3.7,11.3,6.1,14a13,13,0,0,1,1.2,1.4c3.6,6.6,2.6,13.5.6,24.2-.5,3-1.1,6.1-1.5,9.3-1.1,8,2.3,17,9.4,25.1,7,7.9,19.7,17.2,32.8,17.2a23.91,23.91,0,0,0,6.6-.9c6.9-1.9,14-7.2,19-14,24.4-33.2,30.8-71.5,34.1-107.9v-.2c1-10.5,1.8-19.6,6.3-28s9.4-19.5,6.4-31.1c-2.8-10.8-11.6-18.4-19.8-24.5-12.7-9.4-14-25.6-3.2-42.5a119.44,119.44,0,0,1,9.6-12.9c6.3-7.4,9.1-15,8.3-22.6-.5-4.9-3-12.1-11.5-18.4l-3.7-2.8c-27-20.3-55-41.3-88.2-53.8-5.9-2.2-11.8-3.9-17.4-5.6-12.2-3.6-23.8-7-33.1-14.6-8.6-7-14.4-16.8-20.5-27.2-4.3-7.3-8.7-14.8-14.5-21.9-6.5-8-16.9-19.1-32.1-22.3-13.4-2.8-22.4-12-32.9-22.5-1.3-1.4-2.7-2.7-4-4.1-10.1-10.1-21.2-19.2-31.8-28-1.6-1.4-3.3-2.7-4.9-4.1-2.9-2.4-4-3.6-4.3-4.2.1-7.8-2-14-6.4-18.5-6.9-7.1-16.9-7.1-21.7-7.1h-1.8c-4.2,0-5.3,0-5.6-6.1a31.8,31.8,0,0,0-2.1-10.9,16.69,16.69,0,0,0-14.6-10.4c-.5-.3-1-.6-1.4-.9-1.3-.8-2.5-1.5-3.6-2.3a7.1,7.1,0,0,1-1.4-1,11.9,11.9,0,0,0-2.4-9.2c-.2-.2-.5-.7-.8-1.1a25.05,25.05,0,0,0-5.8-6.5,18.47,18.47,0,0,0,3.6-8.5,1.27,1.27,0,0,1,.6.1h0c5.1,7.2,12.2,12.1,18.5,16.4,2.1,1.4,4.1,2.8,5.9,4.1a25.16,25.16,0,0,1,3.6,4c4,4.9,10.7,13,22.5,13h.3c-.9,7.7,1.6,14.6,6.9,19.3a11.88,11.88,0,0,0,8,3,14.87,14.87,0,0,0,3.6-.5,12,12,0,0,0,8.1-8.5,8.33,8.33,0,0,1,.4-1.5c.5.2,1,.4,1.6.6l.4.1c10.1,3.3,19.6,6.5,28.3,11.3.5.3.8.5,2.1,3.8l1.2,3.2c4,10.5,8.1,21.4,12.9,32,2.8,6,8.5,8.4,12,9.8.7.3,1.5.6,1.9.8a37.06,37.06,0,0,0,4.8,2.1c.2.1.4.1.6.2,8,14.8,21.8,14.8,30.3,14.9a57.24,57.24,0,0,1,6.1.2,92.8,92.8,0,0,0,12.3,1,39,39,0,0,0,19-4.5c1.9,11.4,9.9,19.4,22.4,21.6a23.33,23.33,0,0,1,2.9,1.9,4.23,4.23,0,0,0,.7.5,33.56,33.56,0,0,0-3.7,19.4c.9,8.2,4.7,16.3,11.8,25.7a1.76,1.76,0,0,1-.1.6,16.93,16.93,0,0,0,6.8,17.3,14.43,14.43,0,0,0,8,2.3c5.1,0,11.5-2.2,14.1-8.3.5-1.2,1.2-1.7,7.2-3.2q1.65-.45,3.6-.9c.6,15.5,14,18.9,18.4,20,.8.2,1.8.5,2.2.6.6.2,1.2.4,1.7.6a15,15,0,0,0,2.5,5,11.93,11.93,0,0,0,8.1,5.5,14.92,14.92,0,0,0,2.1.2,12.15,12.15,0,0,0,7.6-2.7l.1-.1a16.26,16.26,0,0,0,5.4-6,4.88,4.88,0,0,0,.3-.7,24.07,24.07,0,0,1,2.2,3.5c6.1,11.8,17.4,18.7,31.7,19.4,9.2.5,15.2,5.8,21,18.4a21.86,21.86,0,0,0,13.6,12.6,11.88,11.88,0,0,1,7.4,6.6,9.65,9.65,0,0,1-.2,8.3c-3,6.2-12.2,25.2,5.1,41.1,6.7,6.1,13.7,9.2,20.7,9.2a23.89,23.89,0,0,0,13.5-4.2,74.79,74.79,0,0,1,6.5-3.8,86.89,86.89,0,0,0,7.7-4.6c-.5.8-1.1,1.6-1.6,2.4-7.1,10.6-14.5,21.5-20.2,33.4-6.4,13.3-12.8,29.1-11,46.5,1.4,14.1,12.5,18.7,18.4,21.2a25.4,25.4,0,0,1,4.4,2.2,66.48,66.48,0,0,0,9.5,6.7c2.7,1.7,5.6,3.4,6.7,4.9a73.47,73.47,0,0,0,15.6,15.4l-2.9.6a33.24,33.24,0,0,1-6.1.9,3.46,3.46,0,0,1-2.6-.9,16.94,16.94,0,0,0-10.8-3.8c-6.4,0-11.5,3.3-14.6,6.1a22,22,0,0,0-3.8,29.4c4.5,6.7,5.7,14.8,7.1,24.2,1.1,7.2,2.2,14.7,5,22.2,3.5,9.4,2.6,19.1,1.6,30.4-.2,1.7-.3,3.4-.5,5.2-1.4,17,6.4,30.8,21.9,38.9,9.5,5,17.7,12.2,26.5,19.9,8,7,16.3,14.3,26,20.2.2.5.5,1.3.8,2.3,4.8,18.1,15.6,31.1,26.1,43.7,2,2.4,4.1,4.9,6.1,7.4,6.4,7.8,13,15.9,20.3,23.6a19.93,19.93,0,0,0-4.1,14.5,19.12,19.12,0,0,0,7.5,12.7,147.75,147.75,0,0,0,16.2,10c2.5,1.4,4.8,2.7,7.1,4.1,10.8,6.5,22.3,7.9,32.5,9.2,5.9.7,11.4,1.4,16.3,3a11.88,11.88,0,0,1,3.6,2.3c3.7,3,8.2,6,13.9,6a17.38,17.38,0,0,0,7.6-1.8,14.58,14.58,0,0,0,12.2,6.6,17,17,0,0,0,8.3-2.3,7.27,7.27,0,0,0,2.5-.4,12.29,12.29,0,0,0,8-6.6,30.85,30.85,0,0,1,3.7-1.9,44.66,44.66,0,0,0,7.4-3.9,11.23,11.23,0,0,0,2.8,1.8,12,12,0,0,0,11.4,16h2.8a24.66,24.66,0,0,0,11.1-2c5.6-2.7,10.1-3.9,14.9-3.9,1.1,0,2.3.1,3.4.2a20.9,20.9,0,0,0,2.5.1,21.25,21.25,0,0,0,10.1-2.5,11.34,11.34,0,0,0,5.1,5.5,12,12,0,0,0,5.9,1.5,11.33,11.33,0,0,0,5.4-1.3,19.48,19.48,0,0,0,3.2-2l.3.3c2.2,2.1,6.7,6.5,13.5,6.5a16,16,0,0,0,7.4-1.9,21.81,21.81,0,0,1,.9,5.1c.1,1.2,0,2.6,0,4.1-.1,4.6-.2,10.3,2.5,15.7a20.76,20.76,0,0,0,8.8,9.3c-4.3,11.8-7.2,23.5,1.7,38.5v.1c-3.5,7.9-6.8,16.1-10,24.1-1.4,3.5-2.9,7-4.3,10.5-.6,1.4-1.1,2.5-1.5,3.4-1.8-1.2-3.9-2.7-5.3-3.7l-1-.7c-7.2-5-15.3-10.8-16.1-16.6-.4-2.6.3-8.7,2.3-13.1,4.1-8.7,3-15.7,1.3-20-2.7-7-8.8-12.4-18.1-16.3a30.25,30.25,0,0,0-11.7-2.4c-7.3,0-13.1,2.7-17.8,4.8-2.9,1.3-5.3,2.4-7.1,2.5l-3.4.3c-1.4.1-2.7.2-3.8.2a8.25,8.25,0,0,1-2.8-.4,20.5,20.5,0,0,0-5.8-.9,16.17,16.17,0,0,0-10.2,3.3,14.5,14.5,0,0,0-8.6-2.8,18,18,0,0,0-6.2,1.2,15.51,15.51,0,0,0-10.4-4.4,13.2,13.2,0,0,0-6.2,1.4c-3.2-8-9.4-14.3-25.3-14.3-1.5,0-3.2,0-5.1.1a17.55,17.55,0,0,0-12-9.1,16.64,16.64,0,0,0-.8-6.8,14.52,14.52,0,0,0-14-10.5,17.57,17.57,0,0,0-5.5.9,40.51,40.51,0,0,0-15.6-3c-7.4,0-14.3,1.8-20.4,3.4-5.2,1.4-10.2,2.7-14.7,2.7a16.55,16.55,0,0,1-3.2-.3,25.92,25.92,0,0,0-4.8-.4c-19.7,0-28.6,19.6-32,27-2,4.3-2.1,10.3,1.6,14.7l-.6.3a37,37,0,0,0-5.9,3.2c-19.1,13.4-27,31.9-34.7,49.8l-2.1,4.8c-.9,2-1.6,4-2.4,5.9-1.4,3.6-2.6,7-4.2,9-8.3,10.6-10.5,21.4-6.6,32.2a42.7,42.7,0,0,0,5.3,9.9,35.1,35.1,0,0,0-8.3-1.1,19.71,19.71,0,0,0-15,6.2c-4,4.3-6,10.2-6.1,18.2-10.1,10.9-21.4,24.7-14.2,49.1,2,7-.5,17.4-3,27.4-1.3,5.3-2.7,10.8-3.5,16.3-1.2,7.8-2.7,15.7-4.1,23.4l-.1.8c-3.3,17.7,4.7,32.9,21.8,41.8a16.91,16.91,0,0,1,4.1,2.9h-1.8a70.26,70.26,0,0,0-8,.4c-18.4,1.9-59.4,21.6-58.3,46.8a12.94,12.94,0,0,1-.3,3.9c-.9.6-3.9,1.3-5.7,1.8-6.2,1.5-16.6,4-21.3,14.8-.7,1.7-4.6,4.5-7.4,6.6a74.23,74.23,0,0,0-7.8,6.3c-6.7,6.3-10.2,15.4-10.1,25.6a45.44,45.44,0,0,0,10.4,28c-12.8-3.2-24.8-8-36.2-12.8a53.68,53.68,0,0,0-21.2-4.4c-17.1,0-32.6,8.1-46.2,15.3l-1.2.7c-30.9,16.2-49.9,43.7-58,84a35.9,35.9,0,0,0-11.1-1.5,141.18,141.18,0,0,0-21.5,2.2c-11.9,1.9-23.5,4.9-34.8,7.7-4.3,1.1-8.8,2.2-13.1,3.3a13.85,13.85,0,0,1-3.6.5,2.39,2.39,0,0,1-.9-.1c-9.6-6.6-19.6-10-29.7-10-18.4,0-33.6,10.7-47,20.2-10,7-16.9,16-23.6,24.6l-3.1,4c-7.7,9.8-14.9,17.1-24.5,20.9-22.6,8.9-34.3,27.8-44.6,44.4-1,1.7-2.1,3.3-3.1,5-6.1,9.7-7,19.9-2.5,27.9a22.8,22.8,0,0,0,9.5,9.2,125,125,0,0,0-25.4,6.1c-1.9.6-3.9,1.4-5.8,2.2S901.3,1731.6,899.4,1732.2ZM306,1708.4a13.09,13.09,0,0,0-.9-2.8,14.88,14.88,0,0,0,2.3-3.2,23.56,23.56,0,0,0,2.9-9.8,19.27,19.27,0,0,0,2.4.1c7.5,0,13.1-4.1,16.4-6.5,3.6-2.6,8-4.6,12.6-6.8a119.55,119.55,0,0,0,13.7-7.1c1.3-.8,3.7-1.7,8.3-2.1a24,24,0,0,0-3.9,5c-3.7,6.6-10,9.7-20,14.1-2.8,1.2-5.6,2.5-8.5,3.9A238.69,238.69,0,0,0,306,1708.4Z"/><path class="cls-3" d="M908,1716.2a54.83,54.83,0,0,0-6.2-14.6l-.6-1a102.12,102.12,0,0,0-10-15.4,32.36,32.36,0,0,0,3.4-8.2c8.8-34.5,27.6-66,60.8-102.1,6.9-7.5,11.9-15.7,16.3-23,4.6-7.6,8.9-14.7,14-18.4,11.5-8.4,19.9-18.3,28-27.8,9.1-10.7,17-20,27.2-24.4,5.8-2.5,16.2-8.4,20.1-20.1a28,28,0,0,0-1.9-22.6c-.3-.6-.8-2.2-1.1-3.1-2.3-7.4-8.5-27.2-31.5-30.5a108.11,108.11,0,0,0-15.8-1.2,87.59,87.59,0,0,0-36.9,7.9,80,80,0,0,1-34.6,7.3,126.49,126.49,0,0,1-17.8-1.3,128.25,128.25,0,0,0-18.1-1.4c-13.3,0-24.8,3-34.3,8.9a41.79,41.79,0,0,0-2.6-19.9,47.45,47.45,0,0,0-29-27.6,112,112,0,0,0-35-5.4,143.62,143.62,0,0,0-20.2,1.5c-14.8,2.1-26.1,12-28.7,25.2-1.4,7.2-5.6,10.9-18.3,17.2a30.21,30.21,0,0,0-11.2-6.5,28.54,28.54,0,0,0-7-1.2c2.9-2.9,5.8-5.9,8.6-9,12.5-13.4,18-16.1,20.1-16.6,14.2-2.9,27.2-7.6,39.8-12.1,17.2-6.2,33.3-12,49.8-12h1.8c7.4.2,14.9,2.4,23.6,5,8.9,2.7,19,5.7,30.1,6.6,5.3.4,10.8.6,16.3.6a255.42,255.42,0,0,0,38.3-3.1c11.1-1.8,22.6-3.3,33.7-4.9h.1c25.9-3.6,52.8-7.3,79.4-13.8a9.28,9.28,0,0,1,2.4-.3c7,0,16.6,6.3,25.1,12.2,15.4,10.7,30.3,12.1,41.5,12.1,2.8,0,5.4-.1,8-.2h.1c1.6-.1,3.2-.1,4.9-.1h2.3c15.1,0,27.2,2.7,36.8,8.3a29.37,29.37,0,0,0,30.1.1c15.4-8.8,33.9-13.1,56.4-13.1,4,0,8.3.1,12.7.4,1.3.1,2.5.1,3.7.1,25.2,0,32.8-17.6,35.7-24.2a14.12,14.12,0,0,1,1-2.1c7.8-15.1,13.5-30.8,16.2-44,.5-2.6,2.2-5.4,4.4-9.1a81,81,0,0,0,7.9-15.9c3.1-9.2,2.1-18.1.6-25.7-1.4-7.3-.4-15.6.7-25.2,1-8.7,2-17.7,1.6-27.6-1.2-23.3-3.2-46.7-5.2-69.4v-.2c-.5-5.5-1-11-1.4-16.6,9.7-7.8,19.6-16,28.7-25.6,12.2-12.9,28.6-21.7,53-28.6,18.6-5.2,34.8-16.9,46.7-33.8,6.5-9.2,8.2-20.1,4.5-29.9-3.8-10-12.6-17.3-24.1-20s-23-5.1-34.2-7.4l-2.2-.5c-20-28.7-44.9-46.5-73.9-53-12.7-2.9-24.9-3.2-36.7-3.6-9.5-.3-18.6-.5-26.5-2.2a125,125,0,0,0-25.4-2.5c-21.4,0-40.8,5-59.6,9.9-3.1.8-6.3,1.6-9.5,2.4-10.3,2.6-22.1,2.9-34.7,3.2h-.2c-1.7,0-3.5.1-5.2.1-1.5-.5-5.5-3.8-7.7-5.6-2.8-2.3-5.9-4.8-9.4-7.2-15.7-10.5-32.1-16.6-48.1-22.4-5.1-1.9-10.3-3.8-15.1-5.7a52.05,52.05,0,0,0-19.4-3.9c-14.1,0-26.4,6.2-35.4,17.5-.4-.2-.7-.4-1.1-.6a103.76,103.76,0,0,0-2.5-18.3c-.8-3.9-1.7-8.4-1.4-10.5.1-1.2.3-2.4.4-3.6,1.6-14.2,2.7-14.7,4.8-15.6,13.7-5.8,20.2-16.6,24.5-23.8a33.22,33.22,0,0,1,3.6-5.4c6.1-5.2,8.8-6,9.9-6a8,8,0,0,1,2.3.5,29,29,0,0,0,9.6,1.7c9.7,0,22.8-5.8,27.5-22,1.3-4.5,1.6-4.7,6.2-5,11.5-.6,21.8-7,29.1-18.1,6.6-10,11.7-26,6.3-40.9-10.6-29-25-51-45.3-69.4-13.4-12.1-17.8-19.6-17.4-29.5.4-10.3-3.4-20-11-27.9-10.1-10.5-26.4-16.8-43.5-16.8a61,61,0,0,0-25.5,5.4A30.24,30.24,0,0,1,973,587a31.6,31.6,0,0,1-26.1-13.8,28.23,28.23,0,0,0-7.6-23.2c-6.4-6.6-12.2-14.5-18.3-22.9s-12.5-17.2-20.2-25.6c-6.9-7.5-14.1-14.6-21.1-21.4-8.7-8.6-16.9-16.7-24.3-25.2-2.1-2.5-4.3-4.7-6.3-6.8-4.1-4.3-8-8.3-8.5-11.1l-.2-1a24.18,24.18,0,0,0-14.7-18.3,23.46,23.46,0,0,0-7.4-1.7,29.06,29.06,0,0,0-12.9-3c-1.2,0-2.3.1-3.5.2-1.7-11.7-7.7-20-11.7-25.6-1.2-1.7-2.7-3.7-3.2-4.7a27.81,27.81,0,0,0-24.9-15.7,62.77,62.77,0,0,0,2.4-24.9c6.5,13.5,15.3,28.1,31.1,39.6,3.3,2.4,7,6.3,10.9,10.4,8.5,9.1,19.1,20.4,35.6,26.2a153.79,153.79,0,0,0,29.6,7.6c17.6,2.5,31,10.7,42.1,25.5,6.8,26.3,25.7,41.3,52.1,41.3a57.4,57.4,0,0,0,7.1-.4c13.6,7.8,27.5,12.5,41.1,17,12.7,4.2,24.7,8.2,34.5,14.4,3.9,2.5,8.2,7,12.8,11.8,1.5,1.6,3,3.2,4.5,4.7,8.1,8.3,17.5,12,24.3,14.6,2,.8,3.8,1.5,5.3,2.2,15.2,7.3,23.7,17.3,27.2,32.1-3.9,19.2,3.2,31.6,10.1,38.7,8.1,8.4,18.6,12.3,27.9,15.8l2.2.8c5.3,2,12.2,6.2,14.6,14.7,3.6,13,13.4,18.3,16.6,20.1a152.65,152.65,0,0,0,21.1,9.1c7.3,2.7,13.6,5,18.4,8.5a15.58,15.58,0,0,1,2,1.7v.9c-.8,11.8,6.1,19.5,9.2,22.8,1,2.7.5,6.7-1.1,15.4-.6,3.1-1.2,6.4-1.6,9.9-1.5,11.5,2.8,23.8,12.3,34.6,9,10.3,24.8,21.3,41.8,21.3a36.36,36.36,0,0,0,9.9-1.3c9.5-2.7,18.8-9.4,25.4-18.5,26.1-35.6,32.9-75.8,36.3-113.9v-.2c.9-9.6,1.6-17.1,4.9-23.3,5.2-9.5,11.6-24,7.5-39.9-3.8-14.5-15-24.2-24.3-31.1-10.5-7.7-3.7-21-.2-26.4a95.43,95.43,0,0,1,8.6-11.5c10.7-12.5,11.9-24.1,11.1-31.7-.8-7.3-4.3-17.8-16.2-26.7l-3.7-2.8c-27.5-20.6-55.8-41.9-90.2-55a27.77,27.77,0,0,0,14.2-6.2c3.8,5.4,10,10.3,20,13.2.5.8.9,1.4,1.2,1.9a24,24,0,0,0,15.9,10.5,29.84,29.84,0,0,0,4.2.4,23.6,23.6,0,0,0,11.6-3c8.6,9.8,20.9,15.6,35.2,16.3,2.4.1,5.6.3,10.6,11.4,4.2,9.3,11,15.6,20.3,18.8-12.2,26.6-2.2,43.8,8.5,53.6,8.4,7.7,17.5,11.9,26.9,12.3-1,1.9-2,3.9-3,5.9-7.2,14.8-14.2,32.6-12.2,53,2.2,21.1,19.3,28.3,25.7,31.1.5.2,1.4.6,2,.9,1.8,1.5,3.7,2.9,5.4,4.1a38.63,38.63,0,0,0-11.5,7,34.09,34.09,0,0,0-5.9,45.1c3,4.5,4,11,5.2,19.3,1.1,7.5,2.4,15.9,5.6,24.6,2.5,6.8,1.8,14.9.9,25.1v.3c-.2,1.7-.3,3.3-.4,5-1.8,21.8,8.5,40.2,28.3,50.5,8.2,4.3,15.9,11.1,24.1,18.2,7.3,6.4,14.9,13.1,23.8,18.9,5.7,19.4,17.4,33.4,27.8,45.9,2,2.4,4,4.9,6,7.3,4.8,5.9,9.8,12,15.1,17.9a30.61,30.61,0,0,0-1.5,14.1,31,31,0,0,0,12.3,20.8,163.83,163.83,0,0,0,17.4,10.9c2.4,1.4,4.7,2.6,6.8,3.9a64.18,64.18,0,0,0,17.8,7.4,51.23,51.23,0,0,0-6.9-.4c-8.9,0-17,2.1-23.4,3.8-4.5,1.2-8.7,2.3-11.6,2.3a5.28,5.28,0,0,1-1.3-.1,39.06,39.06,0,0,0-6.8-.6c-27.4,0-39.1,25.6-42.9,34a27.55,27.55,0,0,0-2.3,14.3c-20.8,15.2-29.6,35.7-37.5,53.8l-.1.2c-.7,1.5-1.3,3-2,4.5-1,2.3-1.8,4.5-2.6,6.5a55,55,0,0,1-2.5,5.9c-11.2,14.4-12.2,27.7-10.1,37.7a31.1,31.1,0,0,0-13.9,8.6c-5.1,5.5-8.1,12.7-9,21.4-9.4,10.5-22.5,28.5-14,57.5,1.1,3.8-1.4,13.8-3.2,21.1-1.4,5.5-2.8,11.3-3.8,17.3-1.2,7.6-2.7,15.5-4.1,23.1l-.2.8c-2.8,14.8.7,28.6,9.4,39.6a112.45,112.45,0,0,0-24.5,12.3c-15.9,10.7-25.3,23.6-26.9,36.9-7.6,2-19.5,6.3-25.9,19.5-1.1,1-3.2,2.5-4.2,3.3a99.64,99.64,0,0,0-8.9,7.3c-9.1,8.6-14,20.9-13.8,34.4a55.36,55.36,0,0,0,.7,8.1c-3.4-1.4-6.7-2.7-9.8-4.1a66.3,66.3,0,0,0-25.9-5.3c-20.1,0-37.6,9.2-51.8,16.6l-1.2.7c-31.4,16.4-51.6,43.1-61.7,81.2H1179a147.17,147.17,0,0,0-23.4,2.4c-12.4,2-24.3,5-35.8,8h-.1c-3.8,1-7.8,2-11.6,2.9q-15.75-9.6-32.7-9.6c-22.2,0-39.8,12.4-54,22.4-11.4,8.1-19.2,18.1-26.1,27l-.1.1c-1,1.3-2,2.5-3,3.8-6.5,8.3-12.3,14.4-19.5,17.2-26.4,10.3-39.7,31.9-50.4,49.3-1,1.7-2,3.3-3,4.9-7.5,12-9.2,24.8-4.9,35.9C912.4,1714.8,910.3,1715.5,908,1716.2Zm-462.6-89.8a42.78,42.78,0,0,0-.2-10.1,63.49,63.49,0,0,0,12.3-9.7c1.2-1.1,2.7-2.5,3.4-3,12.6-9,22.3-14.6,31.8-14.6a29.62,29.62,0,0,1,6.5.8,54.27,54.27,0,0,0,6.8,1.3c-17.9,14.7-35.1,25.1-52.5,31.7A60,60,0,0,0,445.4,1626.4ZM596.6,1573c-1.3-.2-2.8-.5-4.3-.7l-1.1-.2a100.71,100.71,0,0,1-14.6-3.9,57.9,57.9,0,0,0-18.5-3.1h-1.6c.2-.4.3-.7.5-1.1,4.1-10,11.9-13.6,27.8-20,4.2-1.7,8.5-3.5,13-5.5,4.3-2,8.8-4,13.1-6,7.9-3.6,16.1-7.2,24.3-11.4,6.9-3.5,18.1-12.1,18.3-31.2a12.83,12.83,0,0,1,1-1.5,69.76,69.76,0,0,0,5.6-10.4c4.8-11.6,11.9-21.8,20.2-31.5-4.3,12.8-6.7,25.7-8.7,38.1-5.5,34-20,54.1-47,65.3C612.3,1554.8,603,1562.6,596.6,1573Zm1224.1-482.3a28.1,28.1,0,0,1-5.2-4.7,17.92,17.92,0,0,1,1.3-5.8c5.9-12.6,4.1-22.9,1.6-29.4-4-10.2-12.3-17.9-24.8-23a41.78,41.78,0,0,0-16.2-3.2c-9.9,0-17.7,3.5-22.8,5.9-1.2.5-2.7,1.2-3.5,1.5-1.1.1-2.1.2-3.1.2s-2,.2-2.6.2a33.32,33.32,0,0,0-8.8-1.2,29.52,29.52,0,0,0-10.4,1.8,26.35,26.35,0,0,0-8.4-1.3,24.33,24.33,0,0,0-3.8.3,26.35,26.35,0,0,0-12.8-3.4h-.1c-6.6-8.4-16.8-12.7-30.5-12.9a31.75,31.75,0,0,0-6.7-5.4,15.19,15.19,0,0,0-.6-2,27.11,27.11,0,0,0-14.1-16.4,61.39,61.39,0,0,1,7.2,1.4c.1.1.3.2.5.4,4.6,3.7,11.8,8.7,21.5,8.7a29.66,29.66,0,0,0,4.2-.3,25.85,25.85,0,0,0,15.5,5,29.25,29.25,0,0,0,11.8-2.6,14.16,14.16,0,0,0,2-.4,24,24,0,0,0,10.1-5.3c.1.1.2.3.3.4a23.84,23.84,0,0,0,19.9,10.6,12.1,12.1,0,0,0,1.9-.1h1a35.9,35.9,0,0,0,16.3-3.2c4.9-2.3,7.6-2.7,9.7-2.7a14.77,14.77,0,0,1,2.1.1c1.3.1,2.6.2,3.8.2a42.05,42.05,0,0,0,6.2-.5,21.12,21.12,0,0,0,3.1,2.1,24.08,24.08,0,0,0,11.7,3.1,24.47,24.47,0,0,0,7.1-1.1,30.31,30.31,0,0,0,11.8,4.4,39.7,39.7,0,0,0,3.6,16.4,33.45,33.45,0,0,0,5.7,8.2c-2.8,10.1-3.7,21.6,2.4,34.8-2.8,6.5-5.4,12.9-7.9,19.2ZM1632.5,989.6c.2,0,.5.1.7.1h-.2C1632.8,989.7,1632.7,989.6,1632.5,989.6ZM1242.2,413.9c-9.9-2.9-18.6-5.8-25.2-11.2-7-5.7-12-14.2-17.8-24-4.5-7.7-9.2-15.6-15.5-23.3-5.5-6.8-13.4-15.4-24.5-21.2a66.85,66.85,0,0,0,15.2,1.5c1.8,0,3.6,0,4.6.1a112.06,112.06,0,0,0,13.9,1.1,57.17,57.17,0,0,0,11.9-1.2,37.07,37.07,0,0,0,18.1,15.4,46.63,46.63,0,0,0-.6,14c1,9.1,4.6,18,11.2,27.6A31.3,31.3,0,0,0,1242.2,413.9Zm-94.1-84.2c-1.1-.3-2.1-.6-3.2-.8-9.9-2.1-17.4-9.7-26.9-19.2l-.2-.2-3.9-3.9c-10.5-10.4-21.8-19.7-32.6-28.7,0,0-5-4.1-5.1-4.2a37.15,37.15,0,0,0-1.2-6.8,24.11,24.11,0,0,0,9.5-6.5,131.71,131.71,0,0,1,15.7,6.3l.9,2.3c4,10.7,8.2,21.8,13.2,32.8,4.7,10.3,14.2,14.2,18.3,15.9.3.1.7.3,1,.4.9.5,1.8.9,2.7,1.3A37,37,0,0,0,1148.1,329.7ZM740.9,299.9A103.54,103.54,0,0,0,722,287.3a240.72,240.72,0,0,0-52.4-20.9c1.9-.5,3.8-1.1,5.6-1.6a24.74,24.74,0,0,1,7.6-1.3c5,0,9.8,2,19,7.9,7.2,4.6,14.5,5.2,18.9,5.6a2.49,2.49,0,0,1,.8.1c6.1,3.4,10.7,10.3,16.4,18.8A41.69,41.69,0,0,1,740.9,299.9Z"/><path class="cls-4" d="M907.8,1674.4c8.9-30.4,26.5-58.8,56.5-91.4,7.7-8.4,13.3-17.6,17.8-24.9,3.6-6,7.7-12.7,10.8-14.9,12.7-9.2,21.9-20.1,30.1-29.8s15.2-17.9,22.8-21.2,21.3-11.2,26.8-27.2a39.28,39.28,0,0,0-2.3-31.3c-.2-.6-.5-1.4-.6-1.8-1.3-4.1-3.9-12.5-9.9-20.5a46.49,46.49,0,0,0-31.3-18.4,118.72,118.72,0,0,0-17.6-1.3,99.33,99.33,0,0,0-42,9,69.21,69.21,0,0,1-29.5,6.1,120.18,120.18,0,0,1-16.2-1.2,148.47,148.47,0,0,0-19.8-1.5,85.19,85.19,0,0,0-23.6,3.2,40.93,40.93,0,0,0-2.1-6.5,59.13,59.13,0,0,0-18.4-24.9c8.9,2.7,19,5.5,30.5,6.4,5.6.5,11.4.7,17.3.7a256.22,256.22,0,0,0,40.2-3.3c11-1.7,22.4-3.3,33.4-4.8h.1c26.2-3.6,53.2-7.3,80.3-14,1.9.1,6.6,2.1,18.1,10.1,18.4,12.8,36.4,14.3,48.4,14.3,2.9,0,5.6-.1,8.3-.2h.3c1.5,0,3.1-.1,4.7-.1h2.1c13,0,23,2.2,30.7,6.7a41.54,41.54,0,0,0,42,.2c13.6-7.8,30.1-11.5,50.5-11.5,3.8,0,7.8.1,12,.4,1.5.1,3,.1,4.4.1,21.9,0,37.6-10.6,46.7-31.4a11.43,11.43,0,0,0,.6-1.4c8.3-16,14.4-32.8,17.2-47.1a49.74,49.74,0,0,1,3-5.3,93.1,93.1,0,0,0,9-18.2c4.1-11.9,2.7-23.3,1.1-31.9-1-5.5-.2-12.9.8-21.6,1.1-9.2,2.2-18.7,1.6-29.5-1.2-23.5-3.2-47-5.2-69.8,0,0-.6-7-.9-10.4a258.46,258.46,0,0,0,24.9-22.7c10.7-11.3,25.3-19.1,47.6-25.3,21.3-6,39.8-19.3,53.3-38.4,8.9-12.6,11-27.5,5.9-41.1-5.2-13.8-17.1-23.8-32.6-27.5-10.9-2.6-21.7-4.8-32.2-7-21.3-28.9-47.6-47-78.3-53.9-13.8-3.1-26.6-3.5-39-3.8-9-.3-17.5-.5-24.4-1.9a134.45,134.45,0,0,0-27.8-2.8c-22.9,0-43.1,5.2-62.6,10.2h-.1l-9.2,2.4c-9,2.2-20.2,2.5-32.1,2.9h-1.7c-.9-.7-2-1.6-3.4-2.7a121,121,0,0,0-10.4-7.9c-16.9-11.3-34-17.6-50.6-23.7-5-1.8-10.1-3.7-14.8-5.6a63.7,63.7,0,0,0-23.9-4.8,55.13,55.13,0,0,0-27.4,7.1c-.4-2-.9-4.7-1-5.9.1-1.1.3-2.2.4-3.2.4-3.7.8-6,1-7.5,14.9-7.5,22.2-19.7,26.7-27.1.5-.8,1.4-2.3,2-3.2.9-.7,1.6-1.3,2.2-1.7a40.37,40.37,0,0,0,10.9,1.5c13.2,0,30.6-7.2,38-27.4,13.9-1.8,26.2-9.9,34.9-23.1,8.2-12.5,14.5-32.6,7.5-51.7-11.3-30.9-26.7-54.4-48.5-74.1-12.7-11.5-13.6-15.8-13.5-20.2.5-13.7-4.5-26.4-14.4-36.6-12.4-12.8-31.9-20.5-52.2-20.5a72.1,72.1,0,0,0-30.6,6.6,19.12,19.12,0,0,1-8.1,1.8,19.84,19.84,0,0,1-13.9-5.7,40.52,40.52,0,0,0-11.3-27.7c-5.9-6-11.3-13.6-17.2-21.6-6.3-8.7-12.9-17.8-21.1-26.7-7.1-7.7-14.4-14.9-21.4-21.8-8.5-8.4-16.6-16.4-23.7-24.6-2.3-2.7-4.6-5-6.7-7.2-1.6-1.6-3.8-3.9-5-5.4a148.37,148.37,0,0,0,17.3,3.6c13.8,2,24,7.9,32.8,19.1,8.8,30,32.1,47.9,63,47.9,1.4,0,2.9,0,4.4-.1,13.5,7.3,26.9,11.8,39.9,16.1,12,4,23.3,7.8,32,13.2,2.6,1.6,6.6,5.8,10.4,9.9,1.6,1.6,3.1,3.3,4.6,4.9,9.9,10.2,21.1,14.5,28.5,17.4,1.7.7,3.4,1.3,4.4,1.8,11.2,5.4,17.2,11.8,20.2,21.8-2.8,17.9,2,34.4,13.7,46.5,10,10.4,22.4,15,32.3,18.7l2.2.8c6,2.3,6.9,5.6,7.3,6.7,3.3,11.8,10.9,21,22.4,27.3a161.16,161.16,0,0,0,22.8,9.8,120.57,120.57,0,0,1,12.6,5.1,41.77,41.77,0,0,0,9.5,22.3c-.3,2.5-1,6.6-1.3,8.2-.6,3.3-1.2,6.7-1.7,10.5-2,15,3.4,30.7,15.2,44.1,10.8,12.3,29.8,25.4,50.9,25.4a47.63,47.63,0,0,0,13.1-1.8c12.1-3.4,23.7-11.7,31.9-22.9,27.8-38,35-80.1,38.6-119.9V671c.7-8.2,1.3-14.7,3.5-18.6,3.6-6.5,14.4-26.4,8.5-48.7-4.8-18.1-17.9-29.7-28.8-37.7-.6-.5-.9-.7-.6-2.5a23.1,23.1,0,0,1,3.4-7.8,92.72,92.72,0,0,1,7.6-10.2,62.54,62.54,0,0,0,11.1-18.5,56.66,56.66,0,0,0,14.3,20.2,61.35,61.35,0,0,0,17.7,11.6c-6.5,14.8-11.9,32.1-9.8,51.9a45.32,45.32,0,0,0,15.2,30.2,56.43,56.43,0,0,0,7.4,5.5,45.93,45.93,0,0,0-4.9,57.9c1.5,2.2,2.4,8.1,3.3,14.4,1.2,7.6,2.6,17.1,6.2,26.9,1.6,4.3,1,11.2.2,19.9v.5c-.1,1.6-.3,3.2-.4,4.9-2.2,26.4,10.8,49.6,34.7,62.1,7,3.6,14.2,10,21.8,16.6a231.23,231.23,0,0,0,21.6,17.5c6.8,19.6,18.9,34.2,28.7,46l6,7.2c3.6,4.4,7.3,9,11.2,13.5a39.68,39.68,0,0,0-.2,12.4,43.3,43.3,0,0,0,17,28.9c3,2.2,6,4.2,8.9,6a11.48,11.48,0,0,1-1.4.2,56.56,56.56,0,0,0-8.2-.6c-23.3,0-41.4,13.8-53.8,41a40.22,40.22,0,0,0-3.5,13.5c-19.9,16.6-29,37.7-36.4,54.8l-.2.5-1.8,4.2c-1.1,2.6-2.1,5.1-2.8,7.1-.3.8-1,2.7-1.5,3.7-10.3,13.5-13,26.4-12.8,36.8a41.48,41.48,0,0,0-9.8,7.9,45.77,45.77,0,0,0-11.6,24.3c-8.2,9.7-23.9,31.7-14.3,65.4,0,3.1-2.2,11.8-3.1,15.5-1.4,5.8-2.9,11.8-4,18.3-1.2,7.5-2.6,15.2-4,22.8l-.2.8c-2.3,12.7-1,25.1,3.9,36.1a117.14,117.14,0,0,0-13.9,8c-16,10.7-26.4,23.6-30.5,37.6-15.6,6-22.2,15.6-25.1,21a21.23,21.23,0,0,1-1.9,1.4,88.68,88.68,0,0,0-9.9,8.2,56.94,56.94,0,0,0-17,33.5,76.07,76.07,0,0,0-23.6-3.7c-23,0-42.9,10.4-57.3,18l-1.3.7c-32.1,16.8-53.5,43.1-65.2,80.1-6.3.4-12.6,1.4-18.2,2.3-12.9,2.1-25.1,5.2-36.8,8.2h-.1c-2.3.6-4.6,1.2-6.9,1.7a73.32,73.32,0,0,0-34.4-8.8c-26,0-46.2,14.2-60.9,24.6-12.9,9.1-21.7,20.4-28.7,29.5l-.2.2c-.9,1.2-1.9,2.4-2.8,3.6-6.3,8-10.5,11.9-14.5,13.4-30.1,11.8-45.2,36.3-56.2,54.1l-.1.2c-1,1.6-1.9,3.1-2.9,4.7A11.65,11.65,0,0,0,907.8,1674.4ZM591.2,1559.8c-2.5-.5-5.2-1.3-8.3-2.2,1.8-.8,3.9-1.6,6.2-2.6,3.7-1.5,7.6-3.1,11.6-4.9A72.7,72.7,0,0,0,591.2,1559.8Zm1134.7-539.3a37.46,37.46,0,0,0-8.2-.9h-1.5a33.71,33.71,0,0,0-6.8-2.2,24.64,24.64,0,0,0,3.8-1.4l1.4-.3a41.62,41.62,0,0,0,5-1.6,35.18,35.18,0,0,0,10,5.6C1728.4,1019.9,1727.1,1020.2,1725.9,1020.5ZM1361.5,465.8c1.1.1,2.2.3,3.4.3a40,40,0,0,1,2,3.6C1366.7,469.7,1361.9,466.1,1361.5,465.8Zm-148.2-87c-1.2-2-2.4-4-3.7-6.2-4.6-7.7-9.2-15.7-15.6-23.7a49.33,49.33,0,0,0,5.5-.3,50.06,50.06,0,0,0,10.7,9.3,60.93,60.93,0,0,0,.3,8.5A79,79,0,0,0,1213.3,378.8Z"/><path class="cls-1" d="M1235.1,1075.4c.3-19.7,20.3-36.2,37.3-32.8,5.1,1,7.7,3.7,9.4,8.9,3.4,10.2,12.6,16.8,16.9,27.1,2.9,6.8,2,11.6.1,17.3-2,6-5.8,10.8-12.6,11.1-21.5,1-37.4-9.4-49.8-25.9C1234.9,1079.2,1235.2,1076,1235.1,1075.4Z"/><path class="cls-3" d="M1283.4,1097c-15,0-27.2-6.6-38.3-20.8v-1c.2-5.7,3-11.5,7.6-16s10.1-7,15.2-7a21.12,21.12,0,0,1,2.6.2,2.61,2.61,0,0,1,1,.3,4.64,4.64,0,0,1,.8,1.9c2.3,7,6.5,12.4,10.3,17.2,2.8,3.6,5.4,7,6.9,10.6s1.3,5.6-.2,10.2c-1.4,4.2-2.8,4.3-3.6,4.3A17.7,17.7,0,0,1,1283.4,1097Z"/><path class="cls-5" d="M1280.5,1086.9c-9.4-.7-17.3-5.1-25-13.8a14.62,14.62,0,0,1,4.2-6.7,16.65,16.65,0,0,1,5.1-3.5c2.9,6.2,6.7,11,9.8,15.1,2.4,3.1,4.6,6,5.6,8.4A.91.91,0,0,1,1280.5,1086.9Z"/><path class="cls-4" d="M1280.5,1086.9c-9.4-.7-17.3-5.1-25-13.8a14.62,14.62,0,0,1,4.2-6.7,16.65,16.65,0,0,1,5.1-3.5c2.9,6.2,6.7,11,9.8,15.1,2.4,3.1,4.6,6,5.6,8.4A.91.91,0,0,1,1280.5,1086.9Z"/><path class="cls-1" d="M932.8,192.2c-2.9-.5-6.5-1.4-6-4.7.7-5.2,5.6-4.9,9.6-4.7,3.1.1,8.6-.7,8.3,2.8C944.2,192.2,937.3,190.7,932.8,192.2Z"/><path class="cls-1" d="M932.8,192.2c-2.9-.5-6.5-1.4-6-4.7.7-5.2,5.6-4.9,9.6-4.7,3.1.1,8.6-.7,8.3,2.8C944.2,192.2,937.3,190.7,932.8,192.2Z"/><path class="cls-1" d="M932.8,192.2c-2.9-.5-6.5-1.4-6-4.7.7-5.2,5.6-4.9,9.6-4.7,3.1.1,8.6-.7,8.3,2.8C944.2,192.2,937.3,190.7,932.8,192.2Z"/><path class="cls-1" d="M932.8,192.2c-2.9-.5-6.5-1.4-6-4.7.7-5.2,5.6-4.9,9.6-4.7,3.1.1,8.6-.7,8.3,2.8C944.2,192.2,937.3,190.7,932.8,192.2Z"/></g></g><g id="pontes"><g id="ponte"><path class="cls-6" d="M1328.2,1412.7s-20.4,10.8-12.2,22.9c7,10.4,32.2,8.2,42.8,6.5l-.7-1.5c-11.5.6-34.6,2.1-38.6-6.9-3.9-8.6,10.9-19.4,10.9-19.4"/><path class="cls-6" d="M1279,1328.1l9.1,13.6,41.1,71.2s20,37.5,20.9,37.9-23.8-36.6-23.8-36.6l-41.6-71.8Z"/><path class="cls-6" d="M1286.9,1342s-20.2,11-12.3,22.8,41.9,5.7,41.9,5.7l-.7-1.4s-34.7,2.5-37.8-6.2,11-19.3,11-19.3"/><path class="cls-6" d="M1305.3,1378.7s-20.4,10.8-12.2,22.9,34.1,8.5,34.1,8.5l-.3-1.7s-27.1.1-30.4-8.8,10.9-19.4,10.9-19.4,11.2-6.6,11.9-6.4-1.3-2.3-1.3-2.3Z"/><path class="cls-7" d="M1321.3,1360.6l1.1-.2-.8.5-.3-.3"/><path class="cls-8" d="M1310.8,1367.6l.3.3h-.6l.3-.3"/><path class="cls-9" d="M1357.2,1445.3c-5.3-13.7-10.7-27.5-17.2-40.7a399.2,399.2,0,0,0-19.3-35.1,269.82,269.82,0,0,0-17-24.2c-2.8-3.5-5.9-7.2-8.7-10.9-1.1-1.4-2.7-3.6-5.2-6.5-1-1.1-.2-1.6-1.7-1.3-1.1.2-6.8.7-8.8,1.3-.3.1.6,1.6.4,1.6,3.9,5.1,9.4,10.4,13.5,15.3,4.4,5.3,7.6,10.7,11.5,16.4a303.06,303.06,0,0,1,19.5,32.2c4.8,9.1,9.5,18.3,13.5,27.8,4.2,10,5.5,15.1,9.6,25.1.4,1.2,2.8,4.6,3.2,4.4a43,43,0,0,0,5-2.6C1357.3,1447.1,1358,1447.2,1357.2,1445.3Z"/><path class="cls-10" d="M1358.7,1445.3c-5.3-13.7-10.7-27.5-17.2-40.7a399.2,399.2,0,0,0-19.3-35.1,269.82,269.82,0,0,0-17-24.2c-2.8-3.5-5.9-7.2-8.7-10.9-1.1-1.4-3.2-4.4-5.8-7.4-1-1.1-1.4-1.9-2.9-1.7-1.3.2-7.3,2.3-8.6,2.5,3.9,5.1,11.4,12.1,15.4,17,4.4,5.3,7.6,10.7,11.5,16.4a303.06,303.06,0,0,1,19.5,32.2c4.8,9.1,9.5,18.3,13.5,27.8,4.2,10,7.2,19.5,11.3,29.5.8-.5,5.7-2.1,6.5-2.6C1358.7,1447.1,1359.4,1447.2,1358.7,1445.3Z"/><polyline class="cls-11" points="1359.9 1438.6 1359 1439.5 1359 1439.5 1359 1439.5 1359 1439.6 1358.9 1439.6 1357.9 1440.5 1357.8 1440.6 1357.6 1440.7 1357.5 1440.8 1357 1441.2 1357.9 1440.2 1358.2 1439.9 1359.4 1439 1359.5 1438.9 1359.9 1438.6"/><path class="cls-12" d="M1321.4,1365.6c1.2-4,2.1-8.2,1.5-12.4a26.15,26.15,0,0,0-5-12.3,17.07,17.07,0,0,0-9.7-6.3,21.37,21.37,0,0,0-6.2-.3,10.39,10.39,0,0,0-4.8,1.5,22.7,22.7,0,0,1,6.3-.8h0a25.69,25.69,0,0,1,6.2,1.6h0l1.9,1h0a27.33,27.33,0,0,1,5,4.6h0l1.4,1.9h0l1.2,2h-.1l1,2.2h0a32.87,32.87,0,0,1,1.5,8.3,29.13,29.13,0,0,1-1.1,8.3h0a4.23,4.23,0,0,0-.4,1.2c0,.3.5.8.7,1.1Z"/><polyline class="cls-13" points="1362 1439.2 1361.8 1439.4 1361.9 1439.3 1361.9 1439.3 1362 1439.2"/><polygon class="cls-14" points="1328.7 1370.2 1328.3 1370.1 1327.2 1370 1326.9 1369.9 1326.9 1369.9 1325.7 1370 1325.4 1370 1323.8 1370.3 1323.8 1370.3 1322.9 1370.6 1323.1 1370.9 1323.4 1371.4 1323.5 1371.5 1325 1371 1326.5 1370.5 1328.1 1370.3 1329.2 1370.3 1328.7 1370.2"/><polygon class="cls-15" points="1292.7 1340.8 1293.5 1340.2 1293.9 1340 1293.9 1339.9 1294.3 1339.6 1295.8 1338.7 1295.6 1338.8 1295.5 1338.8 1295 1339.1 1294.9 1339.1 1294.9 1339.1 1294.8 1339.2 1294.8 1339.2 1294.7 1339.2 1294.7 1339.2 1294.7 1339.2 1294.6 1339.3 1294.6 1339.3 1293.8 1339.7 1293.7 1339.7 1293.7 1339.7 1292.2 1340.7 1292.2 1340.8 1292 1340.9 1292 1340.8 1292 1340.9 1290.4 1342.2 1290.4 1342.2 1290.4 1342.2 1289 1343.6 1289.2 1343.4 1289.4 1343.4 1290.6 1342.8 1291.2 1342.2 1292.7 1340.8"/><path class="cls-16" d="M1360.2,1438.3l-1.2,1.3h0l.9-.9.1-.1.2-.3"/><path class="cls-17" d="M1361.8,1439.4a17.67,17.67,0,0,0,1.2-1.7c.5-.4.6-1.3,1-1.7h0a9.38,9.38,0,0,0,1-2.8,15.67,15.67,0,0,0,.5-3c.3-.3,0-1.6,0-2.1h0a19.63,19.63,0,0,0-.9-4.2h0l-.8-2.1h0l-1.1-2h0l-1.3-1.9h0l-1.6-1.8h0c-1.2-1.1-2.4-2.1-3.7-3.1v.1l-2.1-1.4h0a33.19,33.19,0,0,0-4.7-2c-1.7-.3-3.4-.9-5.2-1.1a37.43,37.43,0,0,0-5.8,0,26.64,26.64,0,0,0-10.5,3.5h0l-.1.1a17.41,17.41,0,0,0,1.2,1.4,26.26,26.26,0,0,1,6-2.5c1.2-.2,2.3-.5,3.4-.6.5,0,.9-.1,1.4-.1a5.31,5.31,0,0,0,1.8-.1c1,.2,2,.1,2.9.3,1.2.2,2.4.4,3.5.7a20.62,20.62,0,0,1,5.7,2.5,20.13,20.13,0,0,1,8.4,9.6,16.53,16.53,0,0,1,.6,10.3,14.21,14.21,0,0,1-2.5,4.7,7.68,7.68,0,0,1-1.5,1.6,13,13,0,0,0-1.8,1.5c.4.5.8.9,1.2,1.4A32.82,32.82,0,0,0,1361.8,1439.4Z"/><path class="cls-17" d="M1328.1,1409.3h0c.4-.6,1-1.2,1.4-1.8h0c.5-.6.9-1.3,1.4-2h0c4.3-7,7.3-15.2,7-23.6a20.87,20.87,0,0,0-2.3-9.2h0a18.57,18.57,0,0,0-2.2-2.7h0a14.76,14.76,0,0,0-2.7-1.6,12.86,12.86,0,0,0-1.9-.4,11.3,11.3,0,0,0-2.6,0,10.31,10.31,0,0,0-4.2,1.3l.9,1.5a9.91,9.91,0,0,1,5.9-.4,8.46,8.46,0,0,1,5,3.7c2.3,3.3,2.9,8.3,2.4,12.3a41.07,41.07,0,0,1-3.1,12.4h0a37,37,0,0,1-3.1,5.9c-.7,1-1.4,2-2.2,3-.2.2-.8.7-.9,1a5.08,5.08,0,0,0,.3,1.7Z"/><path class="cls-12" d="M1329.4,1410.3c.5-.6,1-1.1,1.5-1.7h0c1-1.3,1.9-2.6,2.8-4h0c.4-.7.9-1.5,1.3-2.2a11.4,11.4,0,0,0,1-1.9c.3-.6.5-1.2.8-1.8.5-1.2.8-2.6,1.4-3.7h0a51.56,51.56,0,0,0,1.9-10.4h0c.1-3.7-.2-7.5-1.9-10.8a10.68,10.68,0,0,0-3.5-4.1,15.35,15.35,0,0,0-5.1-1.7,5,5,0,0,0,1.3.3,14.76,14.76,0,0,1,2.7,1.6h0a28.77,28.77,0,0,1,2.2,2.7h0c3.9,7.5,2.5,16.8-.4,24.3a55.91,55.91,0,0,1-4.2,8.5h0c-.5.7-.9,1.4-1.4,2h0l-1.5,1.8h0l-.8.9A2.44,2.44,0,0,0,1329.4,1410.3Z"/><path class="cls-17" d="M1320.5,1365.1h0a27.78,27.78,0,0,0,1.1-8.1,31,31,0,0,0-1.5-8.5h0l-1-2.2h.1l-1.2-2h0l-1.4-1.9h0a27.33,27.33,0,0,0-5-4.6h0l-1.9-1h0a22.67,22.67,0,0,0-6.2-1.6h0a26.53,26.53,0,0,0-6.3.8l.3-.2a30.57,30.57,0,0,0-5.1,2.6,15.45,15.45,0,0,0-2.4,1.9,10.45,10.45,0,0,0-2.1,2.1c.4.4.7.9,1.1,1.3,1-1,2-1.8,3-2.7h0a33,33,0,0,1,4.1-2.3,17.43,17.43,0,0,1,6-1.3,16,16,0,0,1,11.8,4.9c5.5,5.6,7.4,14.8,5,22.2a11.27,11.27,0,0,0,1.2,1.8Z"/><polygon class="cls-18" points="1361.9 1439.3 1361.9 1439.3 1361.8 1439.4 1361.9 1439.3"/><path class="cls-12" d="M1362,1439.2c5.9-5.5,6-14.5,2-21.1-4.5-7.4-13.7-11.5-22.3-11.1a24.8,24.8,0,0,0-13.9,4.8,30.28,30.28,0,0,1,10.5-3.5,27.15,27.15,0,0,1,5.7,0,49.91,49.91,0,0,1,5.3,1.1,47.28,47.28,0,0,1,4.7,2h0l2.1,1.4v-.1c1.3,1,2.5,2,3.7,3.1h0l1.6,1.8h0l1.3,1.9h0l1.1,2h0l.8,2.1h0a31.48,31.48,0,0,1,.9,4.2h0a7.35,7.35,0,0,1,0,2.1,14.46,14.46,0,0,1-.5,3,8.49,8.49,0,0,1-1,2.8h0c-.4.5-.5,1.3-1,1.7a6.07,6.07,0,0,1-1,1.8Z"/><line class="cls-19" x1="1303.2" y1="1337.6" x2="1297.2" y2="1349.9"/><line class="cls-19" x1="1306.9" y1="1337.6" x2="1299.9" y2="1352.1"/><line class="cls-19" x1="1309.4" y1="1339" x2="1301.9" y2="1355.5"/><path class="cls-19" d="M1312.2,1340.9c0,.3-8.2,17.5-8.2,17.5"/><line class="cls-19" x1="1315.1" y1="1343.5" x2="1306.3" y2="1361.5"/><line class="cls-19" x1="1317.4" y1="1347.1" x2="1308.6" y2="1364.4"/><path class="cls-19" d="M1319.1,1351.7c.1.3-8.3,15.9-8.3,15.9"/><line class="cls-19" x1="1319.8" y1="1358.7" x2="1318" y2="1363.2"/><line class="cls-19" x1="1328.1" y1="1370.3" x2="1325.4" y2="1374.9"/><line class="cls-19" x1="1331.3" y1="1371.4" x2="1327.5" y2="1378.2"/><line class="cls-19" x1="1333.8" y1="1373.9" x2="1329.6" y2="1381.5"/><line class="cls-19" x1="1335.6" y1="1377.6" x2="1331.6" y2="1385.5"/><line class="cls-19" x1="1336.4" y1="1383.3" x2="1333.7" y2="1389.1"/><line class="cls-19" x1="1348.1" y1="1411.2" x2="1338.4" y2="1419.5"/><line class="cls-19" x1="1294.9" y1="1346.1" x2="1299.3" y2="1337.6"/><line class="cls-19" x1="1351.3" y1="1412.4" x2="1340.1" y2="1423.6"/><line class="cls-19" x1="1355" y1="1414.5" x2="1342" y2="1428.5"/><line class="cls-19" x1="1358.9" y1="1418" x2="1344.1" y2="1433.6"/><line class="cls-19" x1="1362.2" y1="1423.2" x2="1346.1" y2="1439"/><line class="cls-19" x1="1363.2" y1="1430.8" x2="1347.9" y2="1443.3"/><line class="cls-19" x1="1344.5" y1="1410.4" x2="1336.8" y2="1415.6"/><path class="cls-9" d="M754.4,1348.8c.2.3,11.3,15.2,16,25s6.7,22.8,10,27.4a42.57,42.57,0,0,0-5.3,7.7c-5.2-7.1-9-19.1-13.5-29.8s-10.7-18.6-16-27.2C751.6,1349.9,754.4,1348.8,754.4,1348.8Z"/><path class="cls-10" d="M755.2,1348c.2.3,11.3,15.2,16,25s6.7,22.8,10,27.4a42.57,42.57,0,0,0-5.3,7.7c-5.2-7.1-9-19.1-13.5-29.8s-10.7-18.6-16.1-27.2C752.4,1349.1,755.2,1348,755.2,1348Z"/><path class="cls-6" d="M747.1,1352.1a30,30,0,0,1-.3,4.7s6.7,19.5,10.5,26.1,13.6,20.9,15,22.1a51.71,51.71,0,0,0,4.4,3.1l-6.9-1.9s-14.3-18.1-16.1-21.8-9.7-26.1-9.5-27.3S747.1,1352.1,747.1,1352.1Z"/><path class="cls-9" d="M521.4,1549.1c.2.3,7.9,18.3,11,28.7s5.6,25.7,8.2,30.8c-2.5,2-9.1,3.9-9.1,4.7-4-7.8-5.9-20.3-8.7-31.5s-10.1-19.5-14.1-28.8A80.2,80.2,0,0,0,521.4,1549.1Z"/><path class="cls-10" d="M522.4,1548.4c.2.3,7.9,18.3,11,28.7s5.6,25.7,8.2,30.8c-2.5,2-7.6,2.7-9.1,4.7-4-7.8-5.9-20.3-8.7-31.5s-10.1-19.5-14.1-28.8A73.1,73.1,0,0,0,522.4,1548.4Z"/><path class="cls-6" d="M510.3,1553.2a39.42,39.42,0,0,0,1.5,4s3.6,20.3,6.3,27.4,10.2,22.8,11.3,24.2a39.61,39.61,0,0,0,3.9,3.8l-6.5-2.9s-11.3-20.2-12.4-24-5.4-27.3-5.1-28.4C509.7,1556,510.3,1553.2,510.3,1553.2Z"/><path class="cls-9" d="M578.5,262.8l-10.9,3.1a131.52,131.52,0,0,0-3.4-18.3,69.32,69.32,0,0,0-6-14.2l10.9-3.1a73.42,73.42,0,0,1,6.2,15.3A82.9,82.9,0,0,1,578.5,262.8Z"/><path class="cls-10" d="M579.6,262.5l-10.9,3.1a151,151,0,0,0-3.4-18.8,69.32,69.32,0,0,0-6-14.2l10.9-3.1a79.23,79.23,0,0,1,6.4,15.4A84.9,84.9,0,0,1,579.6,262.5Z"/></g></g></svg>