<svg id="Layer_1" data-name="Layer 1" xmlns="http://www.w3.org/2000/svg" viewBox="0 0 44 44"><defs><style>.cls-1{fill:#231f20;}</style></defs><title>Banheiro</title><path class="cls-1" d="M13.9,12.24a3.43,3.43,0,0,0,3.52-3.35A3.43,3.43,0,0,0,13.9,5.54a3.44,3.44,0,0,0-3.52,3.35A3.44,3.44,0,0,0,13.9,12.24Z"/><path class="cls-1" d="M29.74,12.24a3.44,3.44,0,0,0,3.52-3.35,3.52,3.52,0,0,0-7,0A3.43,3.43,0,0,0,29.74,12.24Z"/><path class="cls-1" d="M16.54,13.92H11.26a3.44,3.44,0,0,0-3.51,3.35v9.21h2.63V39.05h7V26.48h2.64V17.27A3.44,3.44,0,0,0,16.54,13.92Z"/><path class="cls-1" d="M33.18,16.21a3.5,3.5,0,0,0-3.34-2.29h-.2a3.49,3.49,0,0,0-3.33,2.29L21.82,29H27.1v10h5.28V29h5.28Z"/></svg>