<svg id="Layer_1" data-name="Layer 1" xmlns="http://www.w3.org/2000/svg" viewBox="0 0 38.1 38.1"><defs><style>.cls-1{fill:#231f20;}</style></defs><title>Campo de Futebol</title><path class="cls-1" d="M21.62,10.2a3.51,3.51,0,1,0-3.51-3.5A3.5,3.5,0,0,0,21.62,10.2Z"/><circle class="cls-1" cx="28.26" cy="33.21" r="2.3"/><path class="cls-1" d="M30.92,11.39l-13.27-.05h0a.69.69,0,0,0-.24.05l-.06,0h0L8.08,17a.69.69,0,0,0-.15,1l1,1.6a.69.69,0,0,0,.91.32l7.36-4.43L9.92,24.32,4.61,20a.71.71,0,0,0-1,.17L2.46,21.58a.69.69,0,0,0,0,1l8.6,7.08a.71.71,0,0,0,1-.18L13.23,28l0-.09,2.48-3,3.12,3.85V35c0,.25.33.46.75.46h1.87c.41,0,.75-.2.75-.46V27a.34.34,0,0,0-.07-.19h0l-4-4.88L23.8,15a.77.77,0,0,0,.16-.31l6.94,0a.74.74,0,0,0,.76-.74V12.14A.75.75,0,0,0,30.92,11.39Z"/></svg>