<svg xmlns="http://www.w3.org/2000/svg" viewBox="0 0 81.44 81.3"><title>centro-educacao</title><g id="Layer_2" data-name="Layer 2"><g id="Layer_1-2" data-name="Layer 1"><g id="yLAojW"><path d="M47.49,16.9a8.31,8.31,0,0,0,5.14-2.72C56.49,9.71,61.89,8,67.47,6.9a59.15,59.15,0,0,1,6.26-.79c.81-.08,1.92-.52,2.09,1,.14,1.25-.43,1.65-1.64,1.85a102,102,0,0,0-10.29,2.12,70.86,70.86,0,0,0-9.61,3.75c5.94-.88,11.87-1.83,17.83-2.6,2.42-.32,4.9-.21,7.35-.37,1.6-.11,2.12.55,2,2.1-.53,5-1,10.05-1.49,15.08q-1.38,14.23-2.75,28.48c-.41,4.26-.8,8.52-1.32,12.76a1.93,1.93,0,0,1-1.38,1.28c-11.85-.18-22.4,3.92-32.54,9.54A3.17,3.17,0,0,1,39.31,81a72.24,72.24,0,0,0-27.59-9.09,29.33,29.33,0,0,0-5-.22c-1.79.12-2.53-.49-2.63-2.29-.23-4.2-.59-8.4-.9-12.59Q1.93,40.17.71,23.6C.44,19.82.25,16.05,0,12c8.16-.61,16,.21,24,1.42A23.51,23.51,0,0,0,20.3,11.8c-4.21-1-8.45-2-12.72-2.8C5.7,8.66,5.42,7.86,6.06,5.93c2.55.31,5.19.46,7.77,1C19.78,8,25.29,10,29.55,14.7c.95,1.06,2.78,1.32,4.21,1.95l.43-.63a39.32,39.32,0,0,0-3.26-3.32c-5.2-4.21-11.37-6.28-17.77-7.77C9.73,4.13,9.62,4,9,0c2.43.43,4.76.67,7,1.27,8.88,2.34,15.85,7.62,21.71,14.49a2.89,2.89,0,0,1,.37,2c1.91,1.79,4,1.29,6.47,0l-1.37-.63C46.36,9.38,64.54-1,72.36.47c-.3,3.36-.5,3.58-3.64,4.34-6.38,1.53-12.6,3.49-17.84,7.65A44.08,44.08,0,0,0,47,16.4ZM43.63,74.61c.69-.24,1-.31,1.34-.46,8.42-4.1,17.09-7.12,26.66-6.76A2.11,2.11,0,0,0,73.11,66c.51-4.32.87-8.66,1.25-13q1.2-13.74,2.37-27.47c.27-3.11.46-6.23.68-9.24a4.76,4.76,0,0,0-.73-.26c-.49,0-1,0-1.47,0a73.3,73.3,0,0,0-29.72,7.73,3.33,3.33,0,0,0-2,3.47c.06,15,0,30.05,0,45.08C43.51,73,43.58,73.65,43.63,74.61Zm-5.87,0A7,7,0,0,0,38,73.52c0-15.79,0-31.58,0-47.37a2.63,2.63,0,0,0-1.22-1.93c-8.91-4.67-18.21-8-28.42-8.25-2.86-.06-2.91,0-2.75,2.93q.86,15.66,1.77,31.3c.3,5.11.68,10.21,1,15.32.08,1.49.65,2,2.18,2.06a66.85,66.85,0,0,1,21.7,4.61C34,72.91,35.76,73.75,37.76,74.63Z"/></g></g></g></svg>