<svg id="Layer_1" data-name="Layer 1" xmlns="http://www.w3.org/2000/svg" viewBox="0 0 38.1 38.1"><defs><style>.cls-1{fill:#231f20;}</style></defs><title>Chuveiros</title><path class="cls-1" d="M34.26,16.29,33,15a.69.69,0,0,0-1-.09l-7.6,7h-7a.32.32,0,0,0-.09,0,.48.48,0,0,0-.31.15l-6,7.36a.34.34,0,0,0,.2.58c.17,0,4.12,0,5.68,0v5.4a.57.57,0,0,0,.53.61h8.13a.57.57,0,0,0,.53-.61V24.81l8.14-7.54A.7.7,0,0,0,34.26,16.29ZM22.84,30H19.38a1.67,1.67,0,0,0,0-3.33h3.46Z"/><polygon class="cls-1" points="11.26 3.57 7.62 4.15 7.62 4.15 5.1 1.78 3.45 3.54 5.97 5.92 5.59 9.71 11.26 3.57"/><path class="cls-1" d="M7,10a.14.14,0,0,0-.16,0,.11.11,0,0,0,0,.16l2.09,2.75a.14.14,0,0,0,.09,0,.09.09,0,0,0,.07,0,.12.12,0,0,0,0-.16Z"/><path class="cls-1" d="M11.74,16.59a.1.1,0,0,0,.07,0,.11.11,0,0,0,0-.16L9.74,13.66a.11.11,0,0,0-.16,0,.12.12,0,0,0,0,.16l2.1,2.75A.11.11,0,0,0,11.74,16.59Z"/><path class="cls-1" d="M14.78,20.59a.13.13,0,0,0,.09,0l.07,0a.11.11,0,0,0,0-.16l-2.1-2.75a.11.11,0,1,0-.18.14Z"/><path class="cls-1" d="M8,9.07a.14.14,0,0,0,0,.17l2.48,2.41a.11.11,0,0,0,.08,0,.09.09,0,0,0,.08,0,.11.11,0,0,0,0-.16L8.2,9.07A.12.12,0,0,0,8,9.07Z"/><path class="cls-1" d="M13.8,14.87a.11.11,0,0,0,.08,0,.09.09,0,0,0,.08,0,.12.12,0,0,0,0-.16l-2.48-2.41a.12.12,0,0,0-.16,0,.12.12,0,0,0,0,.17Z"/><path class="cls-1" d="M17.48,18.4a.11.11,0,0,0,.08,0,.09.09,0,0,0,.08,0,.1.1,0,0,0,0-.16l-2.48-2.4a.1.1,0,0,0-.16,0A.11.11,0,0,0,15,16Z"/><path class="cls-1" d="M12.23,10.07a.11.11,0,0,0,.09,0,.11.11,0,0,0,0-.16L9.59,7.73a.11.11,0,1,0-.14.17l2.71,2.15Z"/><path class="cls-1" d="M13,10.61a.11.11,0,0,0,0,.16l2.71,2.14a.09.09,0,0,0,.07,0,.12.12,0,0,0,.09,0,.11.11,0,0,0,0-.16l-2.71-2.14A.11.11,0,0,0,13,10.61Z"/><path class="cls-1" d="M10.7,5.83a.12.12,0,0,0-.16,0,.12.12,0,0,0,0,.16L13.44,8l.06,0a.12.12,0,0,0,.1-.06.1.1,0,0,0,0-.15Z"/><path class="cls-1" d="M17.29,10.57a.12.12,0,0,0,.07-.21L14.49,8.42a.11.11,0,0,0-.15,0,.1.1,0,0,0,0,.16l2.86,1.94Z"/><path class="cls-1" d="M18.62,11.44l2.77,1.87A3.41,3.41,0,0,0,18.86,15l-1.65-1.3a.11.11,0,0,0-.14.18l1.68,1.33a3.46,3.46,0,0,0-.33,1.44,3.41,3.41,0,1,0,3.41-3.41l-.18,0a.1.1,0,0,0,0-.11l-2.86-1.93a.11.11,0,0,0-.16,0A.11.11,0,0,0,18.62,11.44Z"/><path class="cls-1" d="M14.52,6.47l.06,0a.13.13,0,0,0,.1-.06.12.12,0,0,0,0-.16l-3-1.73a.12.12,0,0,0-.16,0,.11.11,0,0,0,0,.15Z"/><path class="cls-1" d="M18.49,8.79h.06a.11.11,0,0,0,.09-.05.11.11,0,0,0,0-.16l-3-1.73a.12.12,0,0,0-.16,0,.11.11,0,0,0,.05.15Z"/><path class="cls-1" d="M22.93,11.31H23a.14.14,0,0,0,.1-.05.12.12,0,0,0-.05-.16l-3-1.73a.12.12,0,0,0-.16,0,.11.11,0,0,0,.05.15Z"/><path class="cls-1" d="M27,13.66l.06,0a.11.11,0,0,0,.1-.06.13.13,0,0,0,0-.16l-3-1.73a.11.11,0,0,0-.15,0,.11.11,0,0,0,0,.15Z"/></svg>