<svg id="Layer_1" data-name="Layer 1" xmlns="http://www.w3.org/2000/svg" viewBox="0 0 38.1 38.1"><defs><style>.cls-1{fill:#231f20;}</style></defs><title>Ciclovia</title><path class="cls-1" d="M9.61,23.9a5.78,5.78,0,1,0,5.78,5.78A5.78,5.78,0,0,0,9.61,23.9Z"/><circle class="cls-1" cx="29.84" cy="29.68" r="5.78"/><path class="cls-1" d="M24.87,11.84a2.71,2.71,0,1,0-2.71-2.71A2.71,2.71,0,0,0,24.87,11.84Z"/><path class="cls-1" d="M28.68,19.92V18.44c0-.32-.18-.59-.39-.59H23.71V13.28a.33.33,0,0,0-.16-.26l0-.06L21,11c-.29-.23-.8-.07-1.14.36l-7.09,9h0l-.21.27a.58.58,0,0,0,0,.81l.1.08,0,0,2.54,2h0l3.6,2.83v7.34a.54.54,0,0,0,.59.49h1.47a.55.55,0,0,0,.59-.49V25.14a.25.25,0,0,0,0-.07.45.45,0,0,0-.16-.38l-3.79-3,3.56-4.53v2.94a.33.33,0,0,0,.17.28.29.29,0,0,0,.22.11h6.84C28.51,20.51,28.68,20.24,28.68,19.92Z"/></svg>