<svg id="Layer_1" data-name="Layer 1" xmlns="http://www.w3.org/2000/svg" viewBox="0 0 44 44"><defs><style>.cls-1{fill:#231f20;}</style></defs><title>Coopervia</title><path class="cls-1" d="M27.6,11.49a3,3,0,1,0-1.82-3.8A3,3,0,0,0,27.6,11.49Z"/><path class="cls-1" d="M38.46,13.78l-1.29-1.24a.41.41,0,0,0-.57,0L32.76,16.5,30,13.43h0a.39.39,0,0,0-.23-.24L24.37,11.3a.36.36,0,0,0-.36.06v0l-7,2.11h0a.4.4,0,0,0-.29.2l-3.74,7.24a.39.39,0,0,0,.17.53l1.59.82a.39.39,0,0,0,.53-.17l3.29-6.36,3.8-1.11L18.2,22.67l-4.6,4.15-7,0a.46.46,0,0,0-.39.5v2.25a.46.46,0,0,0,.4.5l8.15,0A.36.36,0,0,0,15,30l0,0,5.85-5.28,1.81,2.26h0l2.63,3.8-.56,6.88,3.21.26.66-8.13h-.14a.41.41,0,0,0-.05-.21l-3.78-5.44,4.11-8,2.72,3.13.85,1a.4.4,0,0,0,.56,0l5.62-5.9A.4.4,0,0,0,38.46,13.78Z"/></svg>