<svg id="Layer_1" data-name="Layer 1" xmlns="http://www.w3.org/2000/svg" viewBox="0 0 38.1 38.1"><defs><style>.cls-1{fill:#231f20;}</style></defs><title>Deck</title><path class="cls-1" d="M37.53,16.7H23l-2.38-1.34h0L.8,15.39v1.69h.6V20.5a.72.72,0,0,0-.37.16v.5a.73.73,0,0,1,.93,0,.74.74,0,0,0,.94,0,.73.73,0,0,1,.93,0,.74.74,0,0,0,.94,0v-.5a.73.73,0,0,1-.94,0,.73.73,0,0,0-.93,0,.83.83,0,0,1-.49.16V17.08H11v3.37a.7.7,0,0,0-.64.14.73.73,0,0,1-.93,0,.74.74,0,0,0-.94,0v.5a.72.72,0,0,1,.94,0,.73.73,0,0,0,.93,0,.73.73,0,0,1,.94,0,.73.73,0,0,0,.85,0v0a.74.74,0,0,1,.94,0,.74.74,0,0,0,.94,0,.73.73,0,0,1,.93,0,.74.74,0,0,0,.94,0v-.5a.73.73,0,0,1-.94,0,.73.73,0,0,0-.93,0,.73.73,0,0,1-.94,0,.77.77,0,0,0-.86-.06h0a.76.76,0,0,1-.22.11V17.08h.34l5.56,3.34v4a2.6,2.6,0,0,1-.51-.16,3.67,3.67,0,0,0-2.64,0,3.7,3.7,0,0,1-2.65,0,3.67,3.67,0,0,0-2.64,0V25a3.67,3.67,0,0,1,2.64,0,3.7,3.7,0,0,0,2.65,0,3.67,3.67,0,0,1,2.64,0,3.7,3.7,0,0,0,2.65,0v-.71a4.44,4.44,0,0,1-1.13.23V21l5.25,3.16h.36V28.1a4.42,4.42,0,0,0-1.27.25v.79a5.06,5.06,0,0,1,3.28,0,5.06,5.06,0,0,0,3.28,0,5.06,5.06,0,0,1,3.28,0,5.06,5.06,0,0,0,3.28,0v-.79a5.76,5.76,0,0,1-1.52.26V24.18h1.52L23.57,17h14a.15.15,0,0,0,.14-.15A.14.14,0,0,0,37.53,16.7ZM33.85,28.55a3.63,3.63,0,0,1-.75-.2,5.06,5.06,0,0,0-3.28,0,5.06,5.06,0,0,1-3.28,0,5.59,5.59,0,0,0-1-.21v-4h8.31Z"/><path class="cls-1" d="M12.69,32.86a3.5,3.5,0,0,0-2.84,0,3.5,3.5,0,0,1-2.84,0,3.5,3.5,0,0,0-2.84,0v.86a3.55,3.55,0,0,1,2.84,0,3.5,3.5,0,0,0,2.84,0,3.55,3.55,0,0,1,2.84,0,3.5,3.5,0,0,0,2.84,0v-.86A3.5,3.5,0,0,1,12.69,32.86Z"/></svg>