<svg id="Layer_1" data-name="Layer 1" xmlns="http://www.w3.org/2000/svg" viewBox="0 0 38.1 38.1"><defs><style>.cls-1{fill:#231f20;}</style></defs><title>Lanchonete</title><polygon class="cls-1" points="23.44 34.69 31.69 34.69 35.95 16.2 19.18 16.2 23.44 34.69"/><polygon class="cls-1" points="19.05 16.2 19.18 16.2 19.05 15.64 19.05 16.2"/><polygon class="cls-1" points="36.04 15.37 36.04 15.79 36.49 13.84 26.72 13.84 25.46 6.21 19.18 7.24 19.4 8.6 24.33 7.78 25.33 13.84 18.64 13.84 19.05 15.64 19.05 15.37 36.04 15.37"/><polygon class="cls-1" points="36.04 15.79 35.95 16.2 36.04 16.2 36.04 15.79"/><path class="cls-1" d="M15.1,23.79H5.43c-2.06,0-3.72,1.39-3.72,3.09v4.63c0,1.7,1.66,3.09,3.72,3.09H15.1c2,0,3.71-1.39,3.71-3.09V26.88C18.81,25.18,17.15,23.79,15.1,23.79Zm3.54,5.14v.53a.67.67,0,0,1-.67.67H2.55a.66.66,0,0,1-.66-.67v-.53a.66.66,0,0,1,.66-.67H18A.67.67,0,0,1,18.64,28.93Z"/></svg>