<svg id="Layer_1" data-name="Layer 1" xmlns="http://www.w3.org/2000/svg" viewBox="0 0 38.1 38.1"><defs><style>.cls-1{fill:#231f20;}</style></defs><title>Parque Infantil</title><path class="cls-1" d="M21.79,15.17a.58.58,0,0,0-.81.06L19.9,16.31a.59.59,0,0,0-.07.81l3.76,3.78-4.91,4.88-5.46-5.49a.61.61,0,0,0-.5-.17.46.46,0,0,0-.4.13L5.75,26.73a.57.57,0,0,0,.06.81l1.07,1.09a.59.59,0,0,0,.81.07l4.56-4.5,6.67,6.71a.72.72,0,0,0,1-.07l1.36-1.36,0-.05,5.83-5.8h0l1.09-1.09a.59.59,0,0,0,.05-.82Z"/><path class="cls-1" d="M30.58,14.93a2.54,2.54,0,1,0,2.53,2.54A2.54,2.54,0,0,0,30.58,14.93Z"/><path class="cls-1" d="M12.76,25.88a.3.3,0,0,0-.43.43l5,5a.3.3,0,0,0,.21.09.31.31,0,0,0,.22-.09.3.3,0,0,0,0-.43Z"/><path class="cls-1" d="M17.57,23.65a.16.16,0,0,0,.13-.06l3.66-3.45a.19.19,0,0,0-.26-.28l-3.66,3.46a.19.19,0,0,0,0,.27A.16.16,0,0,0,17.57,23.65Z"/><path class="cls-1" d="M37.93,4.07a.19.19,0,0,0-.27,0L24.55,16.52a.19.19,0,0,0,0,.27.2.2,0,0,0,.14.06.19.19,0,0,0,.13-.05L37.92,4.34A.19.19,0,0,0,37.93,4.07Z"/></svg>