<svg id="Layer_1" data-name="Layer 1" xmlns="http://www.w3.org/2000/svg" viewBox="0 0 38.1 38.1"><defs><style>.cls-1{fill:#231f20;}</style></defs><title>Piscina Pública</title><path class="cls-1" d="M28.28,26.62c-5.32-2.57-9,0-9,0-5.32,2.56-9,0-9,0-5.32-2.57-9,0-9,0V30s3.71-2.57,9,0c0,0,3.71,2.56,9,0,0,0,3.71-2.57,9,0,0,0,3.71,2.56,9,0V26.62C32,29.18,28.28,26.62,28.28,26.62Z"/><path class="cls-1" d="M28.28,31.85c-5.32-2.56-9,0-9,0-5.32,2.57-9,0-9,0-5.32-2.56-9,0-9,0v3.42s3.71-2.56,9,0c0,0,3.71,2.57,9,0,0,0,3.71-2.56,9,0,0,0,3.71,2.57,9,0V31.85C32,34.42,28.28,31.85,28.28,31.85Z"/><path class="cls-1" d="M9.58,24.72h9.33a.45.45,0,0,0,.45-.47s-.07-4.12,0-6.95h0a3,3,0,0,1,2.78-2.94c1.42-.06,2.36,1.05,2.5,3a.46.46,0,1,0,.91-.06,4.43,4.43,0,0,0-1.16-2.94,3,3,0,0,0-2.29-.88,3.85,3.85,0,0,0-3.65,3.85c-.06,2.28,0,5.36,0,6.51h-8c0-1.14-.05-4.23,0-6.5h0a3,3,0,0,1,2.78-2.94c1.43-.06,2.36,1.05,2.5,3a.46.46,0,0,0,.49.43.47.47,0,0,0,.43-.49,4.53,4.53,0,0,0-1.16-2.94,3,3,0,0,0-2.3-.88,3.85,3.85,0,0,0-3.65,3.85c-.07,2.84,0,6.94,0,7Z"/></svg>