<svg id="Layer_1" data-name="Layer 1" xmlns="http://www.w3.org/2000/svg" viewBox="0 0 38.1 38.1"><defs><style>.cls-1{fill:#231f20;}</style></defs><title>Pista Downhill</title><path class="cls-1" d="M26.18,11.71A2.43,2.43,0,1,0,23.5,9.54,2.43,2.43,0,0,0,26.18,11.71Z"/><path class="cls-1" d="M16.9,31.44a.85.85,0,0,0,1,.72.85.85,0,1,0-.25-1.69A.85.85,0,0,0,16.9,31.44Z"/><path class="cls-1" d="M9.52,28.85a.85.85,0,1,0,.72-1A.86.86,0,0,0,9.52,28.85Z"/><path class="cls-1" d="M11.59,25.34a.52.52,0,0,0,.71,0l5.61-4.63a.63.63,0,0,0,.11-.12l1.47,1.77-2.84,5.09a.48.48,0,0,0,.11.67l1.45.81a.48.48,0,0,0,.63-.26l2.81-5.05h0l.59-1a.87.87,0,0,0-.13-1.18L20.05,19l5.32-4.41,6.1,2.76c.17.08.42-.11.57-.43l.33-.73c.14-.32.12-.63,0-.71L16.74,8.41c-.18-.08-.43.12-.57.43l-.33.73c-.15.32-.12.63.05.71L22,13.06l-5.58,4.59a.61.61,0,0,0-.13.84l.15.17-.14.08L10.7,23.37a.5.5,0,0,0-.16.68Z"/><path class="cls-1" d="M9.7,27.11l9.91,3.65a.45.45,0,0,0,.59-.27.44.44,0,0,0-.27-.58L10,26.25a.47.47,0,0,0-.59.27A.45.45,0,0,0,9.7,27.11Z"/><path class="cls-1" d="M33.1,38.68l-36.66-14a.37.37,0,0,0-.48.21.37.37,0,0,0,.22.47l36.66,14a.3.3,0,0,0,.13,0,.36.36,0,0,0,.13-.7Z"/></svg>