<svg id="Layer_1" data-name="Layer 1" xmlns="http://www.w3.org/2000/svg" viewBox="0 0 38.1 38.1"><defs><style>.cls-1{fill:#231f20;}</style></defs><title>Pista de Skate</title><path class="cls-1" d="M23.7,14.89a2.06,2.06,0,0,0,1.55-2.52,2.18,2.18,0,0,0-2.74-1.3A2.06,2.06,0,0,0,21,13.58,2.21,2.21,0,0,0,23.7,14.89Z"/><path class="cls-1" d="M17.6,31.28a.77.77,0,1,0,1,.6A.81.81,0,0,0,17.6,31.28Z"/><path class="cls-1" d="M10.55,30.77a.71.71,0,1,0-.26-1.38.71.71,0,1,0,.26,1.38Z"/><path class="cls-1" d="M12.6,28.29a.51.51,0,0,0,.63-.14l4.36-4.66a.42.42,0,0,0,.08-.12l1.6,1.18-1.79,4.57a.38.38,0,0,0,.2.53l1.43.41a.49.49,0,0,0,.53-.32l1.78-4.54h0l.37-.93a.66.66,0,0,0-.3-.93l-2.23-1.57,4.13-4.44,5.93,1.2c.16,0,.36-.16.45-.44l.18-.64c.09-.28,0-.53-.15-.57L14.67,13.81c-.16,0-.36.16-.44.44l-.19.64c-.08.28,0,.53.15.57l6,1.21L15.8,21.3a.46.46,0,0,0,0,.69l.16.12a.48.48,0,0,0-.11.09L11.5,26.86c-.19.2-.21.46-.05.58Z"/><path class="cls-1" d="M9.86,28.65,19,31.18h.07a.22.22,0,0,0,.22-.16.24.24,0,0,0-.16-.29L10,28.21a.22.22,0,0,0-.28.15A.24.24,0,0,0,9.86,28.65Z"/><rect class="cls-1" x="2.78" y="34.83" width="32.25" height="1.5"/></svg>