<svg id="Layer_1" data-name="Layer 1" xmlns="http://www.w3.org/2000/svg" viewBox="0 0 38.1 38.1"><defs><style>.cls-1{fill:#231f20;}</style></defs><title>Ponto de Encontro Comunitário - PEC</title><path class="cls-1" d="M9.34,10.61a11.88,11.88,0,0,0-3.41-.4H1.55V27.89H4.48V21H6a9.6,9.6,0,0,0,3.76-.56,4.35,4.35,0,0,0,2-1.81,6,6,0,0,0,.72-3,5.79,5.79,0,0,0-.89-3.25A4,4,0,0,0,9.34,10.61Zm-.72,7.31a3.87,3.87,0,0,1-2.69.72H4.48V12.48H5.93a7.46,7.46,0,0,1,1.86.17,2.09,2.09,0,0,1,1.08.94,3.53,3.53,0,0,1,.49,2A3.22,3.22,0,0,1,8.62,17.92Z"/><polygon class="cls-1" points="16.75 19.96 22.39 19.96 22.39 17.61 16.75 17.61 16.75 12.56 23.94 12.56 23.94 10.21 13.82 10.21 13.82 27.89 24.06 27.89 24.06 25.49 16.75 25.49 16.75 19.96"/><path class="cls-1" d="M33.18,24.8a2.27,2.27,0,0,1-2,1q-3.39,0-3.39-6.5,0-7,3.39-7,2.54,0,3,4l2.72-.4q-.84-6-5.71-6a5.52,5.52,0,0,0-4.81,2.38q-1.66,2.38-1.67,6.85a12.21,12.21,0,0,0,1.58,6.62A5.32,5.32,0,0,0,31,28.21q5,0,5.78-5.89l-2.69-.38A7.19,7.19,0,0,1,33.18,24.8Z"/></svg>