<svg id="Layer_1" data-name="Layer 1" xmlns="http://www.w3.org/2000/svg" viewBox="0 0 38.1 38.1"><defs><style>.cls-1{fill:#231f20;}</style></defs><title>Quadra de Areia</title><path class="cls-1" d="M24.85,17.44A2.42,2.42,0,1,0,22.44,15,2.42,2.42,0,0,0,24.85,17.44Z"/><path class="cls-1" d="M33.62,15.21a2.15,2.15,0,1,0-2.15-2.15A2.15,2.15,0,0,0,33.62,15.21Z"/><path class="cls-1" d="M4,28.1l10.59-4.16L5.26,30.88a.75.75,0,0,0-.26,1l1,1.33a.75.75,0,0,0,1,0l10.64-7.92s0,0,0,0l5-3.76,10-3.16a.57.57,0,0,0,.42-.69l-.4-1.27a.57.57,0,0,0-.74-.32l-8.22,2.6a.53.53,0,0,0-.06-.1l-2.43-2.89a1.64,1.64,0,0,0-.25-.22.88.88,0,0,0-.22-.1.44.44,0,0,0-.16,0,.21.21,0,0,0-.11,0l-11.75.49c-.37,0-.66.25-.65.53l.06,1.25c0,.27.32.48.69.47l8.75-.37L13.8,21,2.89,25.32a.76.76,0,0,0-.52.92L3,27.78A.77.77,0,0,0,4,28.1Z"/><path class="cls-1" d="M25.42,33.73a2.08,2.08,0,0,0-2.05,0,2.11,2.11,0,0,1-2.05,0,2.05,2.05,0,0,0-2,0h0a2.1,2.1,0,0,1-2.05,0,2.07,2.07,0,0,0-2.05,0,2.1,2.1,0,0,1-2,0,2.07,2.07,0,0,0-2.05,0h0a2.1,2.1,0,0,1-2.05,0,2.08,2.08,0,0,0-2,0,2.08,2.08,0,0,1-2,0,2.07,2.07,0,0,0-2.05,0v.77a2.1,2.1,0,0,1,2.05,0,2.08,2.08,0,0,0,2,0,2.11,2.11,0,0,1,2,0,2.1,2.1,0,0,0,2.05,0h0a2.1,2.1,0,0,1,2.05,0,2.1,2.1,0,0,0,2,0,2.1,2.1,0,0,1,2.05,0,2.1,2.1,0,0,0,2.05,0h0a2.08,2.08,0,0,1,2,0,2.11,2.11,0,0,0,2.05,0,2.11,2.11,0,0,1,2.05,0,2.1,2.1,0,0,0,2,0v-.77A2.1,2.1,0,0,1,25.42,33.73Z"/><path class="cls-1" d="M33.62,33.73a2.07,2.07,0,0,0-2,0,2.1,2.1,0,0,1-2.05,0,2.07,2.07,0,0,0-2.05,0v.77a2.1,2.1,0,0,1,2.05,0,2.1,2.1,0,0,0,2.05,0,2.1,2.1,0,0,1,2,0,2.1,2.1,0,0,0,2.05,0v-.77A2.1,2.1,0,0,1,33.62,33.73Z"/></svg>