<svg id="Layer_1" data-name="Layer 1" xmlns="http://www.w3.org/2000/svg" viewBox="0 0 38.1 38.1"><defs><style>.cls-1,.cls-2{fill:#231f20;}.cls-2{fill-rule:evenodd;}</style></defs><title>Sede Administrativa</title><rect class="cls-1" x="0.89" y="32.69" width="21.81" height="1.31"/><path class="cls-2" d="M9.66,19.89a1.49,1.49,0,1,0-.35-2.09A1.49,1.49,0,0,0,9.66,19.89Z"/><path class="cls-2" d="M33.31,31.83V28.21H31.37v-3.6h1.94V14h2.95L18.72,5.62,1.33,14h3V31.83h18.3V16.11h7.29V31.83ZM14.89,25.24l-.15-.32a.28.28,0,0,0,.13,0H16.5v.33H14.89S14.9,25.25,14.89,25.24Zm-6.66,0H7.61L8.23,24Zm4.54,0V23.85l.68,1.43Zm7.43,0H17.84V25h1.63a.44.44,0,0,0,.44-.44V22a.44.44,0,0,0-.44-.44h-4.6a.44.44,0,0,0-.44.44v2.24l-1.66-3.46a.18.18,0,0,0,0-.09v0a.3.3,0,0,0-.31-.16l-.31,0H8.91a1,1,0,0,0-.3,0,.24.24,0,0,0-.21.08c-.11.06-.17.13-.17.22v.08l-1.44,3V16.11H20.2Z"/><polygon class="cls-2" points="37.21 27.97 37.21 24.85 31.7 24.85 31.7 27.97 34.14 27.97 34.14 32.69 30.99 32.69 29.91 32.69 29.91 34 30.99 34 36.13 34 37.21 34 37.21 32.69 36.13 32.69 34.77 32.69 34.77 27.97 37.21 27.97"/><polygon class="cls-2" points="36.38 13.73 36.38 12.77 18.73 4.1 1.08 12.77 1.08 13.73 18.73 5.06 36.38 13.73"/></svg>