<svg id="Layer_1" data-name="Layer 1" xmlns="http://www.w3.org/2000/svg" viewBox="0 0 38.1 38.1"><defs><style>.cls-1{fill:#231f20;}</style></defs><title>Trilha</title><path class="cls-1" d="M28.73,16.43H28V14a.61.61,0,0,0-.61-.61.61.61,0,0,0-.61.61v2.42H23.06V10.67a.44.44,0,0,0-.44-.44H18.23a.5.5,0,0,0-.55.3L14.12,22.17l0,.07L10.38,34.36c-.07.23,0,.45.14.5l2.36.72c.15,0,.33-.11.4-.34L17,23.12a0,0,0,0,0,0,0H17l2.17,12.46c.05.32.23.54.39.52l2.55-.45c.16,0,.24-.3.19-.61L19.79,20.39l.8-2.79v.86a.44.44,0,0,0,.44.44h5.72V34a.61.61,0,0,0,.61.61A.61.61,0,0,0,28,34V18.9h.76a.42.42,0,0,0,.4-.44V16.87A.42.42,0,0,0,28.73,16.43Z"/><path class="cls-1" d="M12.2,18.37l1.72.51a.45.45,0,0,0,.55-.33L17,10.24a.46.46,0,0,0-.28-.59L15,9.13a.46.46,0,0,0-.56.34l-2.5,8.31A.47.47,0,0,0,12.2,18.37Z"/><path class="cls-1" d="M20.43,9.64a3.17,3.17,0,1,0-3.17-3.16A3.17,3.17,0,0,0,20.43,9.64Z"/></svg>