<svg xmlns="http://www.w3.org/2000/svg" viewBox="0 0 77.54 50.56"><title>Vestiario</title><g id="Layer_2" data-name="Layer 2"><g id="Layer_1-2" data-name="Layer 1"><path d="M70.4,50.56H7.14c-3.42,0-6.22-1.81-7-4.51A5.22,5.22,0,0,1,2.9,40.12l31-18.34a8.42,8.42,0,0,1,4.25-1.12h1.23a8.41,8.41,0,0,1,4.24,1.12l31,18.34a5.21,5.21,0,0,1,2.72,5.93C76.63,48.75,73.83,50.56,70.4,50.56ZM38.16,25.36a3.79,3.79,0,0,0-1.86.45l-31,18.35c-.31.19-.63.47-.58.65s.83,1.06,2.43,1.06H70.4c1.61,0,2.35-.73,2.44-1.06s-.27-.46-.59-.65l-31-18.35a3.75,3.75,0,0,0-1.85-.45Z"/><path d="M41.2,23.27H36.5v-14A9.25,9.25,0,0,1,55,9.24v.86H50.3V9.24a4.55,4.55,0,1,0-9.1,0Z"/></g></g></svg>