<svg xmlns="http://www.w3.org/2000/svg" viewBox="0 0 52.3 48.56"><title>congresso</title><g id="Layer_2" data-name="Layer 2"><g id="congresso"><polyline points="16.02 16.07 0 42.77 14.76 46.7 18.45 46.05" fill="#010201" opacity="0.4" style="isolation:isolate"/><polygon points="45.04 39.88 52.3 5.42 49.38 10.08 45.04 39.88" fill="#717a83"/><polygon points="2.75 40.82 16.02 16.75 28.35 20 18.45 46.05 2.75 40.82" fill="#9ba6ae"/><polygon points="2.75 40.14 16.02 16.07 28.35 19.32 18.45 45.37 2.75 40.14" fill="#97a1a9"/><path d="M8.39,33.3S.69,39,4.33,41.05c5.75,3.25,13.16-2,14.23-3.62S8.39,33.3,8.39,33.3Z" fill="#010201" opacity="0.4" style="isolation:isolate"/><path d="M17,21.6s-5,4.13-2.87,6.15,10.66-.46,11.44-1.54S17,21.6,17,21.6Z" fill="#010201" opacity="0.4" style="isolation:isolate"/><path d="M19.5,27.54a3.76,3.76,0,0,1-3.87-3.17c-.73-3.4,3.49-4.78,5.4-4.58s5.62,2.32,4.19,5.31S19.69,27.54,19.5,27.54Z" fill="#e4e9ec"/><path d="M14.45,29.86S9,30.14,8.39,33.3s2.28,6.09,5.61,6,6.47-2.48,5.81-5.75S15.75,30.1,14.45,29.86Z" fill="#e4e9ec"/><polygon points="27.89 9.43 28.35 4.44 50.57 10.08 44.93 40.02 40.16 40.02 26.04 34.79 27.89 9.43" fill="#808992"/><polyline points="50.57 10.08 52.3 5.42 30.31 0 28.35 4.44" fill="#fff"/><polygon points="49.16 12.9 44.17 44.81 42.11 48.56 47.64 17.45 49.16 12.9" fill="#808992"/><polygon points="47.64 17.45 42.11 48.56 23.25 43.46 24.77 11.27 47.64 17.45" fill="#b4c2cb"/><polygon points="24.77 11.27 27.27 6.72 49.38 12.57 47.64 17.45 24.77 11.27" fill="#fff"/><path d="M10.05,33s-.63,4,2.62,4.69,5.47-1.09,5.74-2.86c-1.05,1.4-2.34,3.14-5.63,2.4C10,36.43,10,34.17,10.05,33Z" fill="#010201" opacity="0.4" style="isolation:isolate"/></g></g></svg>