<?xml version="1.0" encoding="UTF-8" standalone="no"?><!DOCTYPE svg PUBLIC "-//W3C//DTD SVG 1.1//EN" "http://www.w3.org/Graphics/SVG/1.1/DTD/svg11.dtd"><svg width="100%" height="100%" viewBox="0 0 35 43" version="1.1" xmlns="http://www.w3.org/2000/svg" xmlns:xlink="http://www.w3.org/1999/xlink" xml:space="preserve" style="fill-rule:evenodd;clip-rule:evenodd;stroke-linejoin:round;stroke-miterlimit:1.41421;"><rect id="vestigio-map" x="0.323" y="0.223" width="34.092" height="42" style="fill:none;"/><rect x="6.511" y="6.598" width="21.938" height="14.625" style="fill:#fff;"/><g><g><path d="M13.048,26.139l-5.09,0l-6.224,-0.076l0,-21.991c0,-0.856 0.3,-1.587 0.9,-2.191c0.6,-0.605 1.325,-0.907 2.175,-0.907l25.047,0c0.85,0 1.574,0.302 2.174,0.907c0.6,0.604 0.9,1.335 0.9,2.191l0,18.893c0,0.857 -0.3,1.6 -0.9,2.23c-0.6,0.63 -1.324,0.944 -2.174,0.944l-9.764,0c0,0 -3.269,16.084 -3.269,16.084l-3.775,-16.084Z" style="fill:#644e4e;"/></g></g><g><path d="M17.516,4.626c0.943,0.338 1.398,1.484 1.014,2.558c-0.384,1.074 -1.462,1.672 -2.406,1.334c-0.944,-0.337 -1.398,-1.483 -1.014,-2.557c0.384,-1.074 1.462,-1.672 2.406,-1.335Z" style="fill:#fff;"/><circle cx="20.706" cy="9.399" r="1.627" style="fill:#fff;"/><circle cx="23.033" cy="12.522" r="1.158" style="fill:#fff;"/><circle cx="23.146" cy="15.922" r="0.996" style="fill:#fff;"/><path d="M17.816,10.915c1.96,1.518 4.744,4.872 1.038,7.537c-2.477,1.781 -5.24,2.375 -7.2,0.856c-1.96,-1.518 -1.772,-3.948 0.097,-6.36c1.868,-2.412 4.104,-3.552 6.065,-2.033Z" style="fill:#fff;"/></g></svg>