<?xml version="1.0" encoding="UTF-8" standalone="no"?><!DOCTYPE svg PUBLIC "-//W3C//DTD SVG 1.1//EN" "http://www.w3.org/Graphics/SVG/1.1/DTD/svg11.dtd"><svg width="100%" height="100%" viewBox="0 0 35 42" version="1.1" xmlns="http://www.w3.org/2000/svg" xmlns:xlink="http://www.w3.org/1999/xlink" xml:space="preserve" style="fill-rule:evenodd;clip-rule:evenodd;stroke-linecap:round;stroke-linejoin:round;stroke-miterlimit:1.5;"><rect id="generico-map" x="0.177" y="0" width="34.092" height="42" style="fill:none;"/><rect x="6.364" y="6.375" width="21.938" height="14.625" style="fill:#fff;"/><g><g><path d="M12.902,25.917l-5.09,0l-6.224,-0.076l0,-21.991c0,-0.857 0.3,-1.587 0.9,-2.192c0.6,-0.605 1.325,-0.907 2.174,-0.907l25.047,0c0.85,0 1.575,0.302 2.175,0.907c0.6,0.605 0.9,1.335 0.9,2.192l0,18.893c0,0.856 -0.3,1.599 -0.9,2.229c-0.6,0.63 -1.325,0.945 -2.175,0.945l-9.764,0c0,0 -3.268,16.083 -3.268,16.083l-3.775,-16.083Z" style="fill:#ec762d;"/></g></g><circle cx="16.704" cy="13.201" r="5.367" style="fill:#fff;stroke:#000;stroke-width:0.1px;"/></svg>