<?xml version="1.0" encoding="UTF-8" standalone="no"?><!DOCTYPE svg PUBLIC "-//W3C//DTD SVG 1.1//EN" "http://www.w3.org/Graphics/SVG/1.1/DTD/svg11.dtd"><svg width="100%" height="100%" viewBox="0 0 35 42" version="1.1" xmlns="http://www.w3.org/2000/svg" xmlns:xlink="http://www.w3.org/1999/xlink" xml:space="preserve" style="fill-rule:evenodd;clip-rule:evenodd;stroke-linecap:round;stroke-linejoin:round;stroke-miterlimit:1.5;"><rect id="relatos-map" x="0.323" y="0" width="34.092" height="42" style="fill:none;"/><rect x="6.511" y="6.375" width="21.938" height="14.625" style="fill:#fff;"/><g><g><path d="M13.048,25.917l-5.09,0l-6.224,-0.076l0,-21.991c0,-0.857 0.3,-1.587 0.9,-2.192c0.6,-0.605 1.325,-0.907 2.175,-0.907l25.047,0c0.85,0 1.574,0.302 2.174,0.907c0.6,0.605 0.9,1.335 0.9,2.192l0,18.893c0,0.856 -0.3,1.599 -0.9,2.229c-0.6,0.63 -1.324,0.945 -2.174,0.945l-9.764,0c0,0 -3.269,16.083 -3.269,16.083l-3.775,-16.083Z" style="fill:{0};"/></g></g><path d="M27.69,8.518c0,-1.065 -0.865,-1.93 -1.93,-1.93l-16.627,0c-1.066,0 -1.93,0.865 -1.93,1.93l0,9.786c0,1.065 0.864,1.93 1.93,1.93l16.627,0c1.065,0 1.93,-0.865 1.93,-1.93l0,-9.786Z" style="fill:none;stroke:#fff;stroke-width:1px;"/><g><path d="M12.489,15.562c0.39,0 0.82,0.058 1.289,0.175c0.528,0.138 0.954,0.317 1.279,0.535c0.39,0.262 0.585,0.557 0.585,0.885l0,1.136l-6.328,0l0,-1.136c0,-0.328 0.195,-0.623 0.585,-0.885c0.332,-0.218 0.762,-0.397 1.289,-0.535c0.477,-0.117 0.911,-0.175 1.301,-0.175Zm0,-0.896c-0.239,0 -0.462,-0.062 -0.672,-0.185c-0.209,-0.124 -0.376,-0.292 -0.498,-0.503c-0.123,-0.211 -0.185,-0.437 -0.185,-0.677c0,-0.241 0.062,-0.466 0.185,-0.678c0.122,-0.211 0.289,-0.378 0.498,-0.502c0.21,-0.124 0.433,-0.186 0.672,-0.186c0.238,0 0.46,0.062 0.666,0.186c0.206,0.124 0.369,0.289 0.488,0.497c0.119,0.208 0.179,0.435 0.179,0.683c0,0.247 -0.06,0.475 -0.179,0.682c-0.119,0.208 -0.282,0.374 -0.488,0.498c-0.206,0.123 -0.428,0.185 -0.666,0.185Z" style="fill:#fff;"/><path d="M11.25,8.783c-0.274,0 -0.496,1.144 -0.496,2.555c0,0.132 0.002,0.261 0.006,0.388c0.106,-0.016 0.173,-0.315 0.283,-0.315c0.228,0 0.496,-0.135 0.704,-0.073c0,-1.411 -0.222,-2.555 -0.497,-2.555Z" style="fill:#fff;"/><path d="M13.902,11.338c0,-1.411 -0.222,-2.555 -0.496,-2.555c-0.274,0 -0.496,1.144 -0.496,2.555c0,0.132 -0.004,-0.054 0,0.073c0.106,-0.015 0.179,0 0.289,0c0.227,0 0.488,0.325 0.695,0.386c0.006,-0.149 0.008,-0.302 0.008,-0.459Z" style="fill:#fff;"/></g><path d="M12.9,11.017c0.005,-0.149 0.008,-0.303 0.008,-0.46c0,-1.41 -0.222,-2.554 -0.497,-2.554c-0.274,0 -0.496,1.144 -0.496,2.554c0,0.132 0.002,0.262 0.006,0.388c0.106,-0.015 0.215,-0.023 0.325,-0.023c0.227,0 0.446,0.033 0.654,0.095Z" style="fill:#fff;"/><rect x="16.848" y="11.165" width="7.698" height="1.526" style="fill:#fff;"/><rect x="16.848" y="13.673" width="7.698" height="1.526" style="fill:#fff;"/></svg>