<?xml version="1.0" encoding="utf-8"?>
<svg version="1.1" id="Capa_1" x="0px" y="0px" viewBox="0 0 512.001 512.001" style="enable-background:new 0 0 512.001 512.001;" xmlns="http://www.w3.org/2000/svg">
  <g>
    <g>
      <path d="M 498.112 419.272 C 493.019 417.131 487.157 419.52 485.016 424.612 C 470.965 458.007 438.477 479.585 402.249 479.585 C 358.781 479.585 322.437 448.523 314.234 407.432 C 314.241 407.274 314.258 407.119 314.258 406.959 C 314.258 402.554 313.68 398.283 312.605 394.211 C 312.535 392.76 312.497 391.301 312.497 389.834 C 312.497 352.294 335.667 320.069 368.455 306.694 L 392.623 392.544 C 393.865 396.954 397.877 399.837 402.244 399.837 C 403.141 399.837 404.053 399.715 404.959 399.46 C 410.275 397.963 413.372 392.44 411.875 387.124 L 387.706 301.267 C 392.441 300.492 397.298 300.083 402.249 300.083 C 437.96 300.083 470.266 321.236 484.552 353.974 C 486.761 359.036 492.654 361.348 497.717 359.139 C 502.779 356.93 505.092 351.036 502.883 345.974 C 485.415 305.947 445.914 280.083 402.249 280.083 C 395.423 280.083 388.742 280.715 382.257 281.914 L 381.4 278.869 C 378.507 268.592 376.348 258.136 374.924 247.581 C 374.924 247.577 374.923 247.573 374.923 247.569 C 374.099 241.459 373.518 235.317 373.192 229.155 C 374.102 233.741 378.148 237.198 383.001 237.198 L 396.664 237.198 C 415.58 237.198 430.97 221.808 430.97 202.892 C 430.97 183.976 415.58 168.586 396.664 168.586 L 366.667 168.586 L 289.974 100.626 C 293.953 101.781 298.152 102.413 302.498 102.413 C 327.311 102.413 347.498 82.226 347.498 57.413 C 347.498 32.6 327.311 12.413 302.498 12.413 C 277.685 12.413 257.498 32.6 257.498 57.413 C 257.498 65.868 259.845 73.782 263.917 80.547 C 256.762 77.288 248.934 75.56 240.836 75.56 C 225.949 75.56 211.954 81.358 201.427 91.884 L 119.545 173.765 C 119.523 173.787 119.506 173.813 119.484 173.835 C 119.221 174.103 118.971 174.388 118.736 174.689 C 118.709 174.724 118.679 174.756 118.653 174.791 C 118.643 174.804 118.632 174.815 118.623 174.828 C 113.424 181.743 110.455 190.026 109.826 198.96 L 90.173 198.96 C 84.65 198.96 80.173 203.438 80.173 208.96 L 80.173 221.197 C 80.173 242.019 97.113 258.96 117.936 258.96 L 129.792 258.96 L 124.664 281.103 C 119.785 280.437 114.808 280.085 109.75 280.085 C 49.234 280.082 0 329.317 0 389.833 C 0 426.883 18.457 459.701 46.657 479.584 C 46.657 479.584 65.8 491.258 72.996 493.696 C 80.192 496.134 109.751 499.584 109.751 499.584 C 164.011 499.584 209.193 460.001 217.958 408.197 C 218.569 413.134 222.771 416.958 227.873 416.958 L 295.893 416.958 C 302.446 442.638 318.078 464.723 339.155 479.584 C 339.155 479.584 359.227 491.259 368.48 494.725 C 377.733 498.191 402.25 499.584 402.25 499.584 C 446.548 499.584 486.271 473.2 503.452 432.367 C 505.593 427.277 503.202 421.415 498.112 419.272 Z M 372.873 188.585 L 396.663 188.585 C 404.551 188.584 410.969 195.001 410.969 202.89 C 410.969 210.778 404.552 217.196 396.663 217.196 L 383 217.196 C 377.826 217.196 373.57 221.125 373.053 226.162 C 372.933 223.147 372.873 220.131 372.873 217.11 L 372.873 188.585 Z M 353.842 238.957 L 253.618 238.957 C 252.016 237.046 250.335 235.19 248.556 233.41 L 217.04 201.893 L 258.561 160.372 L 353.16 228.896 C 353.32 232.255 353.546 235.611 353.842 238.957 Z M 339.085 258.957 L 277.809 314.465 L 271.97 278.184 C 271.959 278.114 271.947 278.044 271.934 277.974 C 270.726 271.365 268.751 264.997 266.081 258.957 L 339.085 258.957 Z M 302.498 32.411 C 316.283 32.411 327.498 43.626 327.498 57.411 C 327.498 71.196 316.283 82.411 302.498 82.411 C 288.713 82.411 277.498 71.196 277.498 57.411 C 277.498 43.626 288.712 32.411 302.498 32.411 Z M 215.569 106.025 C 222.318 99.275 231.291 95.558 240.836 95.558 C 250.381 95.558 259.354 99.275 266.105 106.026 L 352.874 183.085 L 352.874 203.993 L 263.387 139.173 C 261.626 137.898 259.57 137.272 257.524 137.272 C 254.947 137.272 252.386 138.264 250.45 140.201 L 199.946 190.706 L 166.573 181.492 L 145.83 175.765 L 215.569 106.025 Z M 117.936 238.958 C 108.142 238.957 100.173 230.989 100.173 221.195 L 100.173 218.958 L 112.176 218.958 C 114.399 226.328 118.02 233.152 122.701 238.958 L 117.936 238.958 Z M 109.751 479.584 C 60.262 479.584 20 439.323 20 389.833 C 20 340.343 60.262 300.082 109.751 300.082 C 113.261 300.082 116.723 300.291 120.13 300.686 L 100.009 387.578 C 99.321 390.548 100.026 393.67 101.923 396.057 C 103.82 398.444 106.702 399.834 109.751 399.834 L 198.942 399.834 C 193.953 444.633 155.86 479.584 109.751 479.584 Z M 122.331 379.833 L 139.614 305.197 C 171.447 316.462 195.085 345.203 198.942 379.833 L 122.331 379.833 Z M 144.151 285.61 L 150.29 259.096 L 198.219 286.772 L 213.958 355.381 C 203.063 322.513 177.026 296.488 144.151 285.61 Z M 216.738 278.054 C 216.117 275.347 214.398 273.02 211.992 271.63 L 147.254 234.248 C 138.994 229.478 132.548 220.075 130.433 209.707 C 129.162 203.478 129.54 197.579 131.469 192.548 L 160.591 200.588 L 197.693 210.831 L 234.415 247.553 C 243.698 256.835 249.861 268.561 252.242 281.469 L 264.392 356.962 C 264.347 356.962 264.304 356.959 264.259 356.959 L 234.839 356.959 L 234.839 356.958 L 216.738 278.054 Z M 237.873 396.958 L 237.873 376.958 L 264.258 376.958 C 277.296 376.958 288.417 385.317 292.545 396.958 L 237.873 396.958 Z M 294.803 367.414 C 291.905 365.17 288.758 363.237 285.406 361.665 L 281.6 338.016 L 358.277 268.558 C 359.397 273.837 360.684 279.083 362.149 284.287 L 363.009 287.341 C 328.591 300.563 302.467 330.64 294.803 367.414 Z" style=""/>
    </g>
  </g>
  <g/>
  <g/>
  <g/>
  <g/>
  <g/>
  <g/>
  <g/>
  <g/>
  <g/>
  <g/>
  <g/>
  <g/>
  <g/>
  <g/>
  <g/>
</svg>