<svg xmlns="http://www.w3.org/2000/svg" viewBox="0 0 55.26 57.25"><title>arvores</title><g id="Layer_2" data-name="Layer 2"><g id="Layer_27" data-name="Layer 27"><path d="M25.86,17.08,4.79,38.16a15.68,15.68,0,0,0,1.47,1.77L27.64,18.56A15.7,15.7,0,0,0,25.86,17.08Z" fill="none" stroke="#6c9160" stroke-miterlimit="10" stroke-width="1.33"/><path d="M27.64,18.56,6.26,39.93A15.55,15.55,0,0,0,8,41.45L29.16,20.29A14.81,14.81,0,0,0,27.64,18.56Z" fill="none" stroke="#6c9160" stroke-miterlimit="10" stroke-width="1.33"/><path d="M23.83,15.87,3.57,36.12a16.17,16.17,0,0,0,1.22,2L25.86,17.08A15.32,15.32,0,0,0,23.83,15.87Z" fill="none" stroke="#6c9160" stroke-miterlimit="10" stroke-width="1.33"/><path d="M21.51,14.93,2.64,33.81a14.48,14.48,0,0,0,.93,2.31L23.83,15.87A15.22,15.22,0,0,0,21.51,14.93Z" fill="none" stroke="#6c9160" stroke-miterlimit="10" stroke-width="1.33"/><path d="M3.16,23.53l8.08-8.07A15.16,15.16,0,0,0,3.16,23.53Z" fill="none" stroke="#6c9160" stroke-miterlimit="10" stroke-width="1.33"/><path d="M17.11,14.28a15.18,15.18,0,0,0-1.52.07L2.06,27.89A15.11,15.11,0,0,0,2,29.4a16,16,0,0,0,.1,1.71L18.82,14.38A16.34,16.34,0,0,0,17.11,14.28Z" fill="none" stroke="#6c9160" stroke-miterlimit="10" stroke-width="1.33"/><path d="M11.24,15.46,3.16,23.53a15.18,15.18,0,0,0-1.1,4.36L15.59,14.35A14.73,14.73,0,0,0,11.24,15.46Z" fill="none" stroke="#6c9160" stroke-miterlimit="10" stroke-width="1.33"/><path d="M18.82,14.38,2.08,31.11a15,15,0,0,0,.56,2.7L21.51,14.93A15.1,15.1,0,0,0,18.82,14.38Z" fill="none" stroke="#6c9160" stroke-miterlimit="10" stroke-width="1.33"/><path d="M31.54,33.92A15.24,15.24,0,0,0,32.2,30L17.72,44.49a15.23,15.23,0,0,0,3.91-.65Z" fill="none" stroke="#6c9160" stroke-miterlimit="10" stroke-width="1.33"/><path d="M31.54,33.92l-9.91,9.92A15.18,15.18,0,0,0,31.54,33.92Z" fill="none" stroke="#6c9160" stroke-miterlimit="10" stroke-width="1.33"/><path d="M30.36,22.11,9.81,42.65a15.22,15.22,0,0,0,2.26,1L31.35,24.36A15.06,15.06,0,0,0,30.36,22.11Z" fill="none" stroke="#6c9160" stroke-miterlimit="10" stroke-width="1.33"/><path d="M29.16,20.29,8,41.45a14.67,14.67,0,0,0,1.82,1.2L30.36,22.11A17.34,17.34,0,0,0,29.16,20.29Z" fill="none" stroke="#6c9160" stroke-miterlimit="10" stroke-width="1.33"/><path d="M32.23,29.4A15.18,15.18,0,0,0,32,27L14.66,44.31a15.08,15.08,0,0,0,2.45.22c.2,0,.4,0,.61,0L32.2,30C32.21,29.81,32.23,29.61,32.23,29.4Z" fill="none" stroke="#6c9160" stroke-miterlimit="10" stroke-width="1.33"/><path d="M31.35,24.36,12.07,43.65a15.6,15.6,0,0,0,2.59.66L32,27A14.26,14.26,0,0,0,31.35,24.36Z" fill="none" stroke="#6c9160" stroke-miterlimit="10" stroke-width="1.33"/><path d="M25.55.49l-11,11a10.28,10.28,0,0,0,.36,1.77L27.32.86A9.43,9.43,0,0,0,25.55.49Z" fill="none" stroke="#4c7344" stroke-miterlimit="10" stroke-width="0.75"/><path d="M28.84,1.47l-13.3,13.3a11.29,11.29,0,0,0,.8,1.34L30.18,2.27A9.49,9.49,0,0,0,28.84,1.47Z" fill="none" stroke="#4c7344" stroke-miterlimit="10" stroke-width="0.75"/><path d="M27.32.86,14.93,13.25a10,10,0,0,0,.61,1.52l13.3-13.3A9.65,9.65,0,0,0,27.32.86Z" fill="none" stroke="#4c7344" stroke-miterlimit="10" stroke-width="0.75"/><path d="M24.43.43a8,8,0,0,0-1,0L14.55,9.36c0,.33-.05.66-.05,1a10.36,10.36,0,0,0,.07,1.12l11-11A10.37,10.37,0,0,0,24.43.43Z" fill="none" stroke="#4c7344" stroke-miterlimit="10" stroke-width="0.75"/><path d="M15.27,6.51,20.58,1.2A10,10,0,0,0,15.27,6.51Z" fill="none" stroke="#4c7344" stroke-miterlimit="10" stroke-width="0.75"/><path d="M20.58,1.2,15.27,6.51a10,10,0,0,0-.72,2.85L23.44.48A10,10,0,0,0,20.58,1.2Z" fill="none" stroke="#4c7344" stroke-miterlimit="10" stroke-width="0.75"/><path d="M30.18,2.27,16.34,16.11a10.83,10.83,0,0,0,1,1.16l14-14A9.77,9.77,0,0,0,30.18,2.27Z" fill="none" stroke="#4c7344" stroke-miterlimit="10" stroke-width="0.75"/><path d="M34.36,10.36a10.59,10.59,0,0,0-.14-1.61L22.82,20.14a9.55,9.55,0,0,0,1.61.15l.4,0,9.51-9.51C34.34,10.63,34.36,10.49,34.36,10.36Z" fill="none" stroke="#4c7344" stroke-miterlimit="10" stroke-width="0.75"/><path d="M31.34,3.24l-14,14a10,10,0,0,0,1.14,1L32.34,4.37A8.89,8.89,0,0,0,31.34,3.24Z" fill="none" stroke="#4c7344" stroke-miterlimit="10" stroke-width="0.75"/><path d="M33.91,13.33l-6.51,6.5A10,10,0,0,0,33.91,13.33Z" fill="none" stroke="#4c7344" stroke-miterlimit="10" stroke-width="0.75"/><path d="M33.91,13.33a10.39,10.39,0,0,0,.43-2.57l-9.51,9.51a10,10,0,0,0,2.57-.44Z" fill="none" stroke="#4c7344" stroke-miterlimit="10" stroke-width="0.75"/><path d="M33.78,7.05,21.12,19.71a9.85,9.85,0,0,0,1.7.43L34.22,8.75A9.64,9.64,0,0,0,33.78,7.05Z" fill="none" stroke="#4c7344" stroke-miterlimit="10" stroke-width="0.75"/><path d="M32.34,4.37,18.45,18.27a10.67,10.67,0,0,0,1.19.79L33.13,5.57A9.55,9.55,0,0,0,32.34,4.37Z" fill="none" stroke="#4c7344" stroke-miterlimit="10" stroke-width="0.75"/><path d="M33.13,5.57,19.64,19.06a9.77,9.77,0,0,0,1.48.65L33.78,7.05A9.77,9.77,0,0,0,33.13,5.57Z" fill="none" stroke="#4c7344" stroke-miterlimit="10" stroke-width="0.75"/><path d="M9.28,45.18,1,53.49a5.38,5.38,0,0,0,.5.83l8.64-8.64A5.38,5.38,0,0,0,9.28,45.18Z" fill="none" stroke="#4c7344" stroke-miterlimit="10" stroke-width="0.54"/><path d="M7.22,44.57.36,51.43a6.81,6.81,0,0,0,.22,1.11L8.33,44.8A5.91,5.91,0,0,0,7.22,44.57Z" fill="none" stroke="#4c7344" stroke-miterlimit="10" stroke-width="0.54"/><path d="M10.11,45.68,1.47,54.32a5.3,5.3,0,0,0,.6.73l8.77-8.77A5.3,5.3,0,0,0,10.11,45.68Z" fill="none" stroke="#4c7344" stroke-miterlimit="10" stroke-width="0.54"/><path d="M10.84,46.28,2.07,55.05a6,6,0,0,0,.71.63L11.47,47A6,6,0,0,0,10.84,46.28Z" fill="none" stroke="#4c7344" stroke-miterlimit="10" stroke-width="0.54"/><path d="M.8,48.32,4.11,45A6.23,6.23,0,0,0,.8,48.32Z" fill="none" stroke="#4c7344" stroke-miterlimit="10" stroke-width="0.54"/><path d="M4.11,45,.8,48.32a6,6,0,0,0-.45,1.79L5.9,44.56A6.27,6.27,0,0,0,4.11,45Z" fill="none" stroke="#4c7344" stroke-miterlimit="10" stroke-width="0.54"/><path d="M6.52,44.53c-.21,0-.42,0-.62,0L.35,50.11c0,.21,0,.41,0,.62a5.36,5.36,0,0,0,0,.7l6.86-6.86A5.37,5.37,0,0,0,6.52,44.53Z" fill="none" stroke="#4c7344" stroke-miterlimit="10" stroke-width="0.54"/><path d="M8.33,44.8.58,52.54a6.11,6.11,0,0,0,.39,1l8.31-8.31A6.07,6.07,0,0,0,8.33,44.8Z" fill="none" stroke="#4c7344" stroke-miterlimit="10" stroke-width="0.54"/><path d="M12.44,52.59A6.1,6.1,0,0,0,12.71,51l-5.94,6a6.54,6.54,0,0,0,1.61-.28Z" fill="none" stroke="#4c7344" stroke-miterlimit="10" stroke-width="0.54"/><path d="M11.47,47,2.78,55.68a7.43,7.43,0,0,0,.75.49L12,47.74A7.43,7.43,0,0,0,11.47,47Z" fill="none" stroke="#4c7344" stroke-miterlimit="10" stroke-width="0.54"/><path d="M12.44,52.59,8.38,56.65A6.2,6.2,0,0,0,12.44,52.59Z" fill="none" stroke="#4c7344" stroke-miterlimit="10" stroke-width="0.54"/><path d="M12.73,50.73a6.52,6.52,0,0,0-.09-1L5.52,56.85a6.52,6.52,0,0,0,1,.09h.25l5.94-6A2,2,0,0,0,12.73,50.73Z" fill="none" stroke="#4c7344" stroke-miterlimit="10" stroke-width="0.54"/><path d="M12,47.74,3.53,56.17a7,7,0,0,0,.92.41l7.92-7.92A7,7,0,0,0,12,47.74Z" fill="none" stroke="#4c7344" stroke-miterlimit="10" stroke-width="0.54"/><path d="M12.37,48.66,4.45,56.58a6.45,6.45,0,0,0,1.07.27l7.12-7.12A6.45,6.45,0,0,0,12.37,48.66Z" fill="none" stroke="#4c7344" stroke-miterlimit="10" stroke-width="0.54"/><path d="M35.26,38.85l-8.81,8.81a9.4,9.4,0,0,0,.29,1.42l9.94-9.93A8.33,8.33,0,0,0,35.26,38.85Z" fill="none" stroke="#7e9141" stroke-miterlimit="10" stroke-width="0.7"/><path d="M36.68,39.15l-9.94,9.93a7.62,7.62,0,0,0,.5,1.22L37.9,39.64A6.76,6.76,0,0,0,36.68,39.15Z" fill="none" stroke="#7e9141" stroke-miterlimit="10" stroke-width="0.7"/><path d="M37.9,39.64,27.24,50.3a7.76,7.76,0,0,0,.64,1.07L39,40.28A7.76,7.76,0,0,0,37.9,39.64Z" fill="none" stroke="#7e9141" stroke-miterlimit="10" stroke-width="0.7"/><path d="M34.36,38.8a7,7,0,0,0-.8,0L26.44,46a7.14,7.14,0,0,0,0,.8c0,.3,0,.6.05.9l8.81-8.81C35,38.82,34.66,38.8,34.36,38.8Z" fill="none" stroke="#7e9141" stroke-miterlimit="10" stroke-width="0.7"/><path d="M27,43.67l4.25-4.25A8,8,0,0,0,27,43.67Z" fill="none" stroke="#7e9141" stroke-miterlimit="10" stroke-width="0.7"/><path d="M31.27,39.42,27,43.67A8,8,0,0,0,26.44,46l7.12-7.12A8,8,0,0,0,31.27,39.42Z" fill="none" stroke="#7e9141" stroke-miterlimit="10" stroke-width="0.7"/><path d="M39,40.28,27.88,51.37a7.6,7.6,0,0,0,.77.93L39.9,41.05A7.6,7.6,0,0,0,39,40.28Z" fill="none" stroke="#7e9141" stroke-miterlimit="10" stroke-width="0.7"/><path d="M42.32,46.76a9.1,9.1,0,0,0-.11-1.29l-9.14,9.14a9.1,9.1,0,0,0,1.29.11l.32,0,7.62-7.62C42.31,47,42.32,46.87,42.32,46.76Z" fill="none" stroke="#7e9141" stroke-miterlimit="10" stroke-width="0.7"/><path d="M42,49.14l-5.22,5.22A8,8,0,0,0,42,49.14Z" fill="none" stroke="#7e9141" stroke-miterlimit="10" stroke-width="0.7"/><path d="M42,49.14a8.14,8.14,0,0,0,.34-2.06L34.68,54.7a8.14,8.14,0,0,0,2.06-.34Z" fill="none" stroke="#7e9141" stroke-miterlimit="10" stroke-width="0.7"/><path d="M41.33,42.92,30.52,53.73a8.45,8.45,0,0,0,1.19.53L41.86,44.11A8.45,8.45,0,0,0,41.33,42.92Z" fill="none" stroke="#7e9141" stroke-miterlimit="10" stroke-width="0.7"/><path d="M41.86,44.11,31.71,54.26a8.75,8.75,0,0,0,1.36.35l9.14-9.14A8.75,8.75,0,0,0,41.86,44.11Z" fill="none" stroke="#7e9141" stroke-miterlimit="10" stroke-width="0.7"/><path d="M40.7,42,29.56,53.1a8.34,8.34,0,0,0,1,.63L41.33,42.92A8.34,8.34,0,0,0,40.7,42Z" fill="none" stroke="#7e9141" stroke-miterlimit="10" stroke-width="0.7"/><path d="M39.9,41.05,28.65,52.3a7.66,7.66,0,0,0,.91.8L40.7,42A7.66,7.66,0,0,0,39.9,41.05Z" fill="none" stroke="#7e9141" stroke-miterlimit="10" stroke-width="0.7"/><path d="M8.31,3.75,2,10.05a5.48,5.48,0,0,0,.21,1L9.32,4A5.48,5.48,0,0,0,8.31,3.75Z" fill="#6c9160"/><path d="M10.2,4.31,2.57,11.94A5.91,5.91,0,0,0,3,12.7L11,4.77A5.91,5.91,0,0,0,10.2,4.31Z" fill="#6c9160"/><line x1="2.42" y1="7.2" x2="5.46" y2="4.16" fill="#6c9160"/><path d="M2.42,7.2A5.57,5.57,0,0,0,2,8.84l5.1-5.1a5.57,5.57,0,0,0-1.64.42" fill="#6c9160"/><path d="M12.65,6.66,4.92,14.39a6.48,6.48,0,0,0,.85.38L13,7.51A6.48,6.48,0,0,0,12.65,6.66Z" fill="#6c9160"/><path d="M13.1,11.11,9.37,14.84A5.74,5.74,0,0,0,13.1,11.11Z" fill="#6c9160"/><path d="M11.63,5.32l-8,8a5.09,5.09,0,0,0,.66.57l8-8A5.77,5.77,0,0,0,11.63,5.32Z" fill="#6c9160"/><path d="M13.36,9.41a5.64,5.64,0,0,0-.08-.93L6.74,15a5.64,5.64,0,0,0,.93.08H7.9l5.45-5.45C13.35,9.56,13.36,9.48,13.36,9.41Z" fill="#6c9160"/><path d="M45.8,12.51,30.22,28.08A12.75,12.75,0,0,0,31,30L47.71,13.28A12.11,12.11,0,0,0,45.8,12.51Z" fill="none" stroke="#8c9160" stroke-miterlimit="10" stroke-width="1.09"/><path d="M43.57,12.05l-13.8,13.8a12.59,12.59,0,0,0,.45,2.23L45.8,12.51A12.6,12.6,0,0,0,43.57,12.05Z" fill="none" stroke="#8c9160" stroke-miterlimit="10" stroke-width="1.09"/><path d="M47.71,13.28,31,30a11.81,11.81,0,0,0,1,1.68L49.38,14.28A12.29,12.29,0,0,0,47.71,13.28Z" fill="none" stroke="#8c9160" stroke-miterlimit="10" stroke-width="1.09"/><path d="M37.32,12.94,30.66,19.6a12.06,12.06,0,0,0-.91,3.6L40.91,12A12.3,12.3,0,0,0,37.32,12.94Z" fill="none" stroke="#8c9160" stroke-miterlimit="10" stroke-width="1.09"/><path d="M30.66,19.6l6.66-6.66A12.48,12.48,0,0,0,30.66,19.6Z" fill="none" stroke="#8c9160" stroke-miterlimit="10" stroke-width="1.09"/><path d="M42.16,12c-.42,0-.84,0-1.25.06L29.75,23.2c0,.41-.07.82-.07,1.24a13,13,0,0,0,.09,1.41l13.8-13.8A13,13,0,0,0,42.16,12Z" fill="none" stroke="#8c9160" stroke-miterlimit="10" stroke-width="1.09"/><path d="M49.38,14.28,32,31.67a12.93,12.93,0,0,0,1.22,1.46L50.85,15.5A13.21,13.21,0,0,0,49.38,14.28Z" fill="none" stroke="#8c9160" stroke-miterlimit="10" stroke-width="1.09"/><path d="M53.09,18.43,36.15,35.37A12.29,12.29,0,0,0,38,36.2L53.91,20.29A11.93,11.93,0,0,0,53.09,18.43Z" fill="none" stroke="#8c9160" stroke-miterlimit="10" stroke-width="1.09"/><path d="M54.07,28.17A12.19,12.19,0,0,0,54.61,25L42.67,36.89a12.19,12.19,0,0,0,3.22-.54Z" fill="none" stroke="#8c9160" stroke-miterlimit="10" stroke-width="1.09"/><path d="M50.85,15.5,33.22,33.13a12,12,0,0,0,1.42,1.25L52.1,16.93A12.19,12.19,0,0,0,50.85,15.5Z" fill="none" stroke="#8c9160" stroke-miterlimit="10" stroke-width="1.09"/><path d="M54.07,28.17l-8.18,8.18A12.52,12.52,0,0,0,54.07,28.17Z" fill="none" stroke="#8c9160" stroke-miterlimit="10" stroke-width="1.09"/><path d="M52.1,16.93,34.64,34.38a11.54,11.54,0,0,0,1.51,1L53.09,18.43A11.79,11.79,0,0,0,52.1,16.93Z" fill="none" stroke="#8c9160" stroke-miterlimit="10" stroke-width="1.09"/><path d="M54.64,24.44a12.24,12.24,0,0,0-.18-2L40.14,36.74a12.24,12.24,0,0,0,2,.18l.51,0L54.61,25C54.62,24.78,54.64,24.61,54.64,24.44Z" fill="none" stroke="#8c9160" stroke-miterlimit="10" stroke-width="1.09"/><path d="M53.91,20.29,38,36.2a12.65,12.65,0,0,0,2.14.54L54.46,22.42A11.68,11.68,0,0,0,53.91,20.29Z" fill="none" stroke="#8c9160" stroke-miterlimit="10" stroke-width="1.09"/></g></g></svg>