<svg xmlns="http://www.w3.org/2000/svg" viewBox="0 0 34.81 41"><title>catedral</title><g id="Layer_2" data-name="Layer 2"><g id="catedral"><g id="catedral-2" data-name="catedral"><path d="M24.91,14.5s.6.7,3.4,1.9c1.5,1.2,3.5,2.3,4.5,4.4s2.7,5.6,1.2,8.8S28.41,42,14.51,40h-.1s-9.1-1.6-11.9-7.5.1-11.6,2.1-13.3a31.11,31.11,0,0,1,4.6-3.1c2.3-1.2,1.3-.8,1.3-.8" fill="#6e9dca"/><polygon points="18.61 6.8 17.71 6.6 17.71 6.6 17.71 6.8 18.71 6.9 18.61 6.8" fill="#fff"/><polygon points="18.91 0 17.91 5.7 19.21 6 18.91 0" fill="#fff"/><polygon points="21.81 7.7 22.11 5.2 22.81 0.7 21.71 3.7 21.61 3.9 20.41 7.2 21.11 7.3 21.81 7.7" fill="#fff"/><polygon points="15.01 5.9 15.01 7 16.21 6.9 16.21 6.2 16.21 6.2 15.01 5.9" fill="#fff"/><polygon points="23.81 8.9 24.61 6.5 25.81 3.5 25.81 3.5 25.91 3.2 25.91 3.2 25.91 3.2 25.91 3.2 25.91 3.1 25.91 3.1 25.91 3.1 25.91 3 26.01 3 26.01 3 26.01 2.9 26.01 2.9 26.01 2.9 26.01 2.8 26.01 2.8 26.01 2.8 26.11 2.7 26.11 2.7 26.11 2.7 26.11 2.7 26.21 2.3 22.71 8.1 23.81 8.9" fill="#fff"/><polygon points="12.41 7.8 13.11 7.5 13.91 7.3 10.81 0.9 12.01 5.5 12.41 7.8" fill="#fff"/><polygon points="8.61 13.6 8.71 13.5 8.61 13.4 8.61 13.4 8.61 13.1 8.61 13.1 8.61 12.8 8.61 12.7 8.61 12.2 8.61 12.1 8.71 11.7 7.31 10.5 3.41 7.6 7.31 11.9 8.61 13.6" fill="#fff"/><path d="M31.71,26.4l-2-2.2-.1-.1-.5-.5L26,19.7l-.2-.2L25,18.4a1.08,1.08,0,0,1-.2-.7l2.4,2.2,1.9,1.6,2.6,1.9,2.6,1.6h.1l.2-.2-.5-.4-2.3-1.6-2.7-2.2-3-2.9-.4-.4-.3-.7,2.8,2,2.2,1.2,2,.8.2.1.1-.3-.8-.4-3.2-1.7h0l-.1-.1h0l-.6-.4h0l-.3-.2h0l-.4-.3h0l-.3-.2h0l-.9-.7-.6-.7.9.6L28,17l1.2.3.4.1v-.3l-1.2-.5-2-.8-.8-.4.1-.1,2.1-2.2h0l-.3.2h0l-1.1.7,3.3-3.6.1-.1-.1.1h0l-3.1,2.2-.8.7,1-1.7L30,7.4l.1-.1h0l-3.3,3-1.3,1.3-.1-.3h0l-.1-.3h0l.6-1.2,2.9-5V4.7l-3.2,3.8-1,1.3h-.1l.6.8.1.2-.2-.3-.1-.1h-.1l-.7-.9-1.5-1.1-1.7-.8-1.3-.3-.1.1-.8-.2h0l-1.8-.1.3,5.3-.1.1v.1l-.2.2-.4-.1-.4-5.4h0L15,7.4l-2,.5-1.8.9L9.81,9.9l-.9,1.3-.5,1.4.1,1.4.1.2-.1-.2-1.6-1.1-3.3-2h0l.1.2,4,3.6.2.2-2.3-1.1.1.1,3.1,2.5L6,17.8V18l.4-.1,1-.4,1.3-.7.3-.2H9l-.2.3-.6.6v.1l-.3.3h0l-.1.1h0l-1.2,1-2.9,1.8h0l-.9.6.1.1v.1H3l.3-.1L5,20.6l1.9-1.2,2.3-2v.1L9,18l-.3.5-.1.1L6,21.5l-.2.2-.1.1L4,23.4,2,25.1H2l-.4.3v.1h0l-.5.4.3.2h.1l2.3-1.7L6,22.5l2.9-2.9,1-1.1h0v.2l-.2.6v.1h0l-.5.7v.1L7.31,23v.1l-.6.9-.2.2-.2.3-1.7,2.3-.3.3-.2.4-2.3,2.7-.4.5.4.1.2-.2,2.4-2.4,2.4-2.7,3.1-3.9.1-.1.2-.2.9-1.3.4-.7h0v.4l-.9,2.3-.1.2-1.1,2.4v.1h0l-.2.4-1.1,2.3v.1l-.1.1-.3.6h0l-.2.4-1.4,2.7-.8,1.3v.1l-1.1,1.9a1.45,1.45,0,0,0-.2.7h.4l.1-.2,2.2-3.3,2.2-3.5v-.1l1.4-2.5h0l.2-.4.2-.3.9-1.6v-.1l.9-1.8.5-1.4v.1l-.3,1.7V22l-.1.3-.3,1.7-.1.1v.1l-.6,2.5-.1.1v.3l-1.9,7.2-1.2,3.9-.1.1v.1l-.1.2v.1l.1.4.4-.1.1-.1,1.6-4,.1-.3,1.2-3.3.1-.1v-.1l2.7-8.3.1-.2.4-1.7v2l-.4,13-.2,4.6v.2h.1l.3.3.4-.3v-.2l.7-4.6,1.5-12.3.2-2.5,1.8,10,.1.2v.1l.2,1v.4l1.6,7.8v.1l.4.2.2-.3v-.1l-1-9.3-.8-8.6v-.1L20,20.8l.5,1.6h0l.6,1.7.2.4h0l2.1,5.1,2,4.5,1.9,4.1.1.1.5.1.1-.3v-.2l-1.5-4-.1-.2-3.3-10.1-.6-2-.1-.3-.3-1.5.6,1.2,1.1,1.8.1.2.3.5h0l1,1.5.1.2,1.6,2.4,2.5,3.4,2.5,3.3.1.1.4-.1-.1-.4-.1-.2-2.1-3.3L28,26.8l-.1-.1-1.4-2.6-.1-.1-1.2-2.2-.1-.2-.7-1.5V20l-.2-.4-.4-.9v-.2l.4.8,2.6,3.1,2,2.1,2.9,2.8,2.6,2.3.2.1.3-.2-.4-.5Zm-6.1-14.6v0ZM9.11,14.6,9,14.3H9l-.1-.2V14l.2.6Zm.9,1.2-.1-.1.1.1Zm.3.3-.2-.2.2.2Zm3.8,2.2-1-.7h.1l.2.1,1.1.3.2.5.1.6Zm3.3.4-.2.7h0l-.3-.7-.5-.4h1.4Zm2.8-.5h0l-.1.1v.1l-.4.7v-.6l-.1-.5h0l.5-.1.9-.3Zm3.6-2.3-.3.3.1-.1.3-.3Z" fill="#fff"/><polygon points="4.91 5 4.91 5 8.11 9.5 9.01 11 9.01 10.9 9.01 10.8 9.01 10.8 9.71 9.9 9.71 9.8 4.81 4.8 4.81 4.9 4.91 5" fill="#fff"/><polygon points="16.11 5.2 14.81 0.1 14.91 4.9 16.11 5.2" fill="#fff"/><polygon points="10.41 9.1 11.31 8.4 11.51 8.3 10.21 6.5 10.11 6.4 7.41 2.5 9.51 7 10.41 9.1" fill="#fff"/><path d="M29.51,17.5l.1-.1-1.7-.5-1.6-.7-.7-.5h-.1C25.61,16.1,26.91,16.7,29.51,17.5Z" fill="#010201"/><polygon points="25.61 16.7 25.61 16.7 25.91 17.3 26.11 17.6 26.41 17.9 32.71 20.8 32.81 20.8 32.71 20.7 30.51 19.8 28.61 18.8 25.61 16.7" fill="#010201"/><polygon points="28.11 28.5 28.01 28.3 27.91 28.3 28.11 28.5" fill="#010201"/><path d="M9.07,38.73c.1-.2,3,1.67,3.14,1.67.5,0,1,.1,1.5.1.3,0,.3,0,.3-.1.6-.6.3-3.1.4-3.9a7.72,7.72,0,0,1,.2,1.5c-.1.6-.2,1.3-.3,1.9,0,.1,0,.2.1.2a11,11,0,0,0,1.8.2h4.4c.2,0,.3,0,.2-.3s-.1-.6-.2-.9c.7-1.9-.9-5.8-1.3-8.2v-.3L19,27c.1-.1.1-.2.2-.2h.2c.1,0,.1.1.2.2s.2.1.3,0h0c.4,0,.7-.3,1-.9.3-.2.3-.2.5.1.4.9.7,1.8,1.1,2.6a6.89,6.89,0,0,1,.3.8.1.1,0,0,1-.1-.1l-.2-.2a14.34,14.34,0,0,0-2.3-2,.35.35,0,0,0-.2-.1c-.2-.1-.3-.1-.3.2h0q-1,.9.3,2.7c0,.1.1.2.2.3h0a3.28,3.28,0,0,0,1.9,1.3c.1.1.2.1.3.2s.2.2.2.3c1.1,1.7,2.2,3.4,3.2,5.2.3.6.1.6.9.5h.2c.2,0,.2-.1.1-.2s-.1-.3-.2-.4c-.4-1.2-1.5-3.6-1.5-3.7-.5-1.1-1.1-2.1-1.5-3.2,0-.1-.1-.2,0-.2s.1-.2,0-.3c-.2-.5-.5-1-.7-1.5a1.78,1.78,0,0,1-.4-1v-.2c.1-.1.1-.1.1-.2-.1-.3-.2-.5-.3-.8-.4-1.3-1-3.3-1-3.4a1.48,1.48,0,0,1-.1-.7,3.45,3.45,0,0,1,.9.8c.4,1.3.8,2.7,1.2,4,.1.2.1.3.3.4a1.79,1.79,0,0,1,.7.5,17.68,17.68,0,0,1,4.1,3.6c.7.9,1.4,1.8,2.1,2.6.1.2.2.3.5.2h.3c.2,0,.2-.1.1-.2-.8-1.1-1.5-2.3-2.3-3.4-.5-.7-1-1.3-1.5-2-.1-.1-.1-.2-.2-.1s-.1,0-.2,0l-.6-.6-.1-.1-.2-.2A2.65,2.65,0,0,1,26,27a16.38,16.38,0,0,1-2.7-3.2c0-.1-.1-.1-.1-.2a4.19,4.19,0,0,1-.9-1.4v-.3h0a.37.37,0,0,1,.3.1,4.35,4.35,0,0,1,.4.7.22.22,0,0,0,.2.2c.4,0,.7.3,1.2.3.3,0,.2-.1.1-.2a16.92,16.92,0,0,1-1.3-3.1,1.27,1.27,0,0,1-.1-.6l.1.1c.7,1.5,1.5,2.9,2.3,4.4a.78.78,0,0,0,.4.4,25.34,25.34,0,0,1,2.7,1.8c.8.6,1.7,1.1,2.5,1.8s1.5,1.3,2.2,1.9c.1.1.3.2.4,0s-.1-.2-.1-.2a82.24,82.24,0,0,1-6.1-5.7l-2.7-2.7a6,6,0,0,1-.9-1.3c-.1-.1,0-.2.1-.2h.4c.5.2.8.2.5-.6a.1.1,0,0,0-.1-.1c.5.7,1,1.3,1.5,2,1.3,1.7,5.4,2.9,7.2,4.1.1.1.2.2.3.1.6-.3.4-.3.3-.4-.9-.6-1.8-1.1-2.7-1.7a41.18,41.18,0,0,1-4.1-3.2A22.91,22.91,0,0,1,25,17.7l-.2-.2a1.7,1.7,0,0,1,0-1h0c.1-.2.2-.3.3-.5a14.94,14.94,0,0,0,1.5-1.9,2,2,0,0,0,.9-.9h0l.1-.1c0-.1-.1,0-.2,0h0a.72.72,0,0,0-.6.4l-.1.1,3-3.3s-2.7,2-3.8,2.8l4-5.6V7.4l-4.4,4.1v1.9a4.2,4.2,0,0,0-.2.5.22.22,0,0,0-.2.2,3,3,0,0,1-.9,1.3c-.1,0-.1.1-.1,0s-.2-.1-.2,0h0a6.29,6.29,0,0,0-1.4.9,12.49,12.49,0,0,0-1.2.9h0c-.1.1-.2.2-.3.2l-1.1.3c-.1,0-.2-.1-.3-.2a2.2,2.2,0,0,1-.1-.8c0-.1,0-.2-.1-.2s-.1,0-.2.1a2.58,2.58,0,0,0-.9.9h0a1.17,1.17,0,0,1-1.1.5h-.4a3.55,3.55,0,0,1-.9-.4,13,13,0,0,0-1.5-1h-.2c-.1.1,0,.1,0,.2.1.3.3.7.3.5.1.1.2.3.1.4s-.3,0-.4-.1c-.3-.1-.7-.2-1.2-.4-.3-.1-.5-.3-.8-.4a7.46,7.46,0,0,0-1.2-.7c-.2-.1-.3-.1-.5-.2s-.3-.3-.5-.4l-.4-.4c-.1-.1-.2-.2-.3-.2s-.1-.2-.2-.3a2.32,2.32,0,0,1-.3-.9h-.3l-.1.3-4.5-3.5h-.1l4.4,4,.6.3h0c-.1,0-.2-.1-.3-.1-.9-.5-1.7-1-2.6-1.5-.1,0-.2-.1-.3-.1.1.2.2.2.3.3a2.7,2.7,0,0,1,.8.7c.7.5,1.4,1.2,1.9,1.5,0,.1.2.1.2.2l-.8.4c-.6.3-1.1.6-1.8.9a.77.77,0,0,1-.3.1v.2l1-.3c.1,0,.2.2.3.1h.3c-1.5,1.1-3,2.1-4.6,3.1a.87.87,0,0,0-.6.9c0,.2,0,.3.2.2,1.7-.7,3.3-.6,1.3,1.1C3,23.2,2,24,1.21,24.7c-.6.5-.6.5-.7,1-.2,1,.1,2.1,0,3.1V29c-.1.5-1.44,0,.68,2.11" fill="#010201" opacity="0.4" style="isolation:isolate"/><polygon points="9.71 10 5.01 5.2 4.91 5.2 9.11 10.8 9.71 10" fill="#010201"/><polygon points="11.51 8.5 7.41 2.7 10.61 9.1 11.51 8.5" fill="#010201"/><path d="M13.91,7.5,11,1.4h-.1L12.71,8Z" fill="#010201"/><polygon points="16.61 7.3 14.91 0.5 14.81 0.5 14.91 7.2 14.61 7.4 16.61 7.3" fill="#010201"/><path d="M19,.3h0c-.1,0-1.2,6.4-1.3,6.9h1.6Z" fill="#010201"/><polygon points="21.81 7.9 22.81 1.3 22.71 1.2 20.41 7.4 18.51 8.3 21.81 7.9" fill="#010201"/><polygon points="22.01 10 23.91 9.1 26.21 2.5 26.21 2.5 22.81 8.2 22.01 10" fill="#010201"/><polygon points="24.51 12.6 25.21 11.1 28.71 4.6 24.51 9.7 24.51 12.6" fill="#010201"/><path d="M8.51,12.1l-.3.4s-3.9-4.1-3.9-4.2a5.55,5.55,0,0,1-.8-.6l5.2,5.8A9.32,9.32,0,0,0,8.51,12.1Z" fill="#010201"/><polyline points="17.11 17.4 12.01 21.9 12.81 22.3 17.51 17.5" fill="silver"/><polygon points="19.31 12 19.11 11.9 19.01 11.9 18.21 11.7 18.11 11.7 17.51 11.5 17.51 11.5 17.51 11.8 17.81 17.1 17.71 17.2 17.71 17.3 17.51 17.5 17.11 17.4 16.71 11.9 16.71 11.9 16.61 11.9 16.61 11.2 16.61 11.2 15.41 10.9 15.41 10.9 13.81 10.5 13.81 10 14.11 9.6 15.31 9.9 16.51 10.3 16.31 7.1 16.61 6.7 17.11 6.8 17.41 10.5 18.31 10.7 19.61 11.1 20.41 11.3 20.41 11.8 20.21 12.1 20.11 12.2 19.31 12" fill="#797979"/><polygon points="20.11 12.2 20.11 11.5 17.11 10.7 16.81 7.2 16.31 7.2 16.51 10.6 13.81 10 13.81 10.5 16.61 11.2 17.11 17.4 17.51 17.5 17.11 11.7 17.11 11.5 20.11 12.2" fill="#646363"/></g></g></g></svg>