<?xml version="1.0" encoding="UTF-8" standalone="no"?><!DOCTYPE svg PUBLIC "-//W3C//DTD SVG 1.1//EN" "http://www.w3.org/Graphics/SVG/1.1/DTD/svg11.dtd"><svg width="100%" height="100%" viewBox="0 0 221 150" version="1.1" xmlns="http://www.w3.org/2000/svg" xmlns:xlink="http://www.w3.org/1999/xlink" xml:space="preserve" xmlns:serif="http://www.serif.com/" style="fill-rule:evenodd;clip-rule:evenodd;stroke-linejoin:round;stroke-miterlimit:1.41421;"><path d="M54.525,44.497c3.307,0.389 7.133,0.778 11.089,1.102l0.453,0.065l21.724,21.724l25.744,0l0,-22.891l-59.01,0Zm23.928,27.106c-3.955,0 -8.43,-0.259 -12.839,-0.584c0.907,10.181 2.204,19.325 2.204,19.325l22.891,0c0,0 -1.297,-9.209 -2.204,-19.39c-3.891,0.519 -7.263,0.649 -10.052,0.649m-12.904,-24.772c-10.7,-0.907 -20.622,-2.334 -20.622,-2.334l0,22.891c0,0 19.779,2.983 33.526,2.983c2.918,0 6.226,-0.13 9.987,-0.714l-22.891,-22.826Zm25.16,-25.225l-22.891,0l0,21.659l22.891,0l0,-21.659Zm-1.686,47.014l0.519,0.519l0.065,0.454c0,0.389 0.065,0.778 0.065,1.102c0.324,3.567 0.648,7.004 1.037,9.922l0,-11.997l-1.686,0Z" style="fill:#fff;fill-rule:nonzero;"/><path d="M185.451,112.197l-6.809,-2.01c-4.41,-1.427 -7.393,-5.577 -7.393,-10.181c0,-6.031 4.799,-10.765 10.83,-10.765l13.423,0l0,4.799l-9.403,0c-1.816,0 -3.437,1.427 -3.437,3.372c0,1.232 0.778,2.594 2.205,2.983l6.615,2.205c4.604,1.426 7.003,6.031 7.003,11.218c0,6.615 -5.382,11.997 -11.997,11.997l-14.201,0l0,-5.382l12.191,0c1.816,0 3.826,-1.816 3.826,-4.215c-0.065,-1.816 -1.102,-3.437 -2.853,-4.021m-62.513,0l-6.809,-2.01c-4.215,-1.427 -7.198,-5.577 -7.198,-10.181c0,-6.031 4.799,-10.765 10.83,-10.765l13.423,0l0,4.799l-9.403,0c-1.815,0 -3.372,1.427 -3.372,3.372c0,1.232 0.778,2.594 2.205,2.983l6.614,2.205c4.41,1.426 6.809,6.031 6.809,11.218c0,6.615 -5.187,11.997 -11.802,11.997l-14.201,0l0,-5.382l12.191,0c1.816,0 3.826,-1.816 3.826,-4.215c-0.065,-1.816 -1.297,-3.437 -3.113,-4.021m31.062,14.785c-8.236,0 -14.655,-5.771 -14.655,-13.034l0,-24.577l11.024,0l0,25.615c0,3.242 2.788,5.836 6.419,5.836c3.372,0 6.42,-2.594 6.42,-5.836l0,-25.615l5.188,0l0,24.577c0,7.263 -6.42,13.034 -14.396,13.034" style="fill:#fff;fill-rule:nonzero;"/><path d="M51.866,89.176l0,36.704l-7.457,0l-0.584,-3.956c-1.816,2.659 -4.993,4.475 -9.079,4.475c-7.392,0 -11.413,-5.707 -11.413,-13.035c0,-8.495 5.642,-12.969 11.673,-12.969c5.058,0 7.327,2.788 8.171,3.956l0,-15.11l8.689,0l0,-0.065Zm-19.519,24.318c0,4.021 1.038,7.522 5.318,7.522c4.279,0 5.641,-3.566 5.641,-7.911c0,-4.215 -1.426,-7.393 -5.447,-7.393c-3.761,0.065 -5.512,3.048 -5.512,7.782Z" style="fill:#94d6da;fill-rule:nonzero;"/><path d="M89.931,105.064c0.778,0.713 2.075,1.816 2.075,4.02c0,5.188 -6.549,7.134 -12.321,7.134c-1.686,0 -2.529,-0.195 -3.372,-0.325c-1.037,1.038 -1.361,1.622 -1.361,2.14c0,1.103 1.556,1.297 4.02,1.427c4.864,0.324 16.082,0.13 16.082,7.587c0,5.058 -6.355,8.625 -15.174,8.625c-7.004,0 -13.942,-2.205 -13.942,-5.707c0,-2.918 3.826,-4.28 7.457,-5.382c-1.686,-0.389 -4.669,-1.232 -4.669,-3.437c0,-1.881 1.751,-3.372 4.345,-5.642c-2.853,-0.778 -6.809,-2.529 -6.809,-7.003c0,-4.28 3.761,-7.976 12.062,-7.976c2.658,0 4.279,0.324 6.03,0.648l9.792,-0.13l0,4.215l-4.215,0l0,-0.194Zm-16.406,23.475c0,2.399 4.02,2.918 6.939,2.918c2.982,0 7.198,-0.584 7.198,-3.113c0,-2.529 -4.669,-2.983 -7.393,-2.983c-5.253,0 -6.744,1.362 -6.744,3.178Zm0.713,-20.168c0,2.659 2.205,3.956 4.929,3.956c1.75,0 5.122,-0.649 5.122,-4.021c0,-2.853 -2.204,-4.02 -5.058,-4.02c-2.334,0 -4.993,0.908 -4.993,4.085Z" style="fill:#94d6da;fill-rule:nonzero;"/><path d="M89.931,105.064c0.778,0.713 2.075,1.816 2.075,4.02c0,5.188 -6.549,7.134 -12.321,7.134c-1.686,0 -2.529,-0.195 -3.372,-0.325c-1.037,1.038 -1.361,1.622 -1.361,2.14c0,1.103 1.556,1.297 4.02,1.427c4.864,0.324 16.082,0.13 16.082,7.587c0,5.058 -6.355,8.625 -15.174,8.625c-7.004,0 -13.942,-2.205 -13.942,-5.707c0,-2.918 3.826,-4.28 7.457,-5.382c-1.686,-0.389 -4.669,-1.232 -4.669,-3.437c0,-1.881 1.751,-3.372 4.345,-5.642c-2.853,-0.778 -6.809,-2.529 -6.809,-7.003c0,-4.28 3.761,-7.976 12.062,-7.976c2.658,0 4.279,0.324 6.03,0.648l9.792,-0.13l0,4.215l-4.215,0l0,-0.194Zm-16.406,23.475c0,2.399 4.02,2.918 6.939,2.918c2.982,0 7.198,-0.584 7.198,-3.113c0,-2.529 -4.669,-2.983 -7.393,-2.983c-5.253,0 -6.744,1.362 -6.744,3.178Zm0.713,-20.168c0,2.659 2.205,3.956 4.929,3.956c1.75,0 5.122,-0.649 5.122,-4.021c0,-2.853 -2.204,-4.02 -5.058,-4.02c-2.334,0 -4.993,0.908 -4.993,4.085Z" style="fill:#94d6da;fill-rule:nonzero;"/><path d="M64.511,100.914l0,24.966l-8.624,0l0,-24.966l8.624,0Zm-4.539,-11.932c-2.464,0 -4.475,2.01 -4.475,4.474c0,2.465 2.011,4.475 4.475,4.475c2.464,0 4.474,-2.01 4.474,-4.475c0,-2.464 -1.945,-4.474 -4.474,-4.474Z" style="fill:#94d6da;fill-rule:nonzero;"/><path d="M106.013,100.914l0,24.966l-8.624,0l0,-24.966l8.624,0Zm-4.539,-11.932c-2.464,0 -4.475,2.01 -4.475,4.474c0,2.465 2.011,4.475 4.475,4.475c2.464,0 4.474,-2.01 4.474,-4.475c0,-2.464 -2.01,-4.474 -4.474,-4.474Z" style="fill:#94d6da;fill-rule:nonzero;"/></svg>