<svg xmlns="http://www.w3.org/2000/svg" viewBox="0 0 38.21 38.21"><title>arvore_1</title><g id="Layer_2" data-name="Layer 2"><g id="Layer_27" data-name="Layer 27"><path d="M6.07,33l-.56-.58a20.35,20.35,0,0,1-1.86-2.23l-.39-.55L29.61,3.26l.55.39a19.28,19.28,0,0,1,2.23,1.86l.58.56Zm-.71-3.2c.24.32.49.62.75.91L30.68,6.1c-.29-.25-.59-.5-.91-.74Z" fill="#00f2a1"/><path d="M8.24,34.72l-.55-.42a18.73,18.73,0,0,1-2.18-1.91L5,31.82,31.83,5l.56.55A18.5,18.5,0,0,1,34.3,7.68l.42.56Zm-1-2.89c.28.26.57.51.88.77L32.6,8.1c-.25-.31-.51-.6-.77-.88Z" fill="#00f2a1"/><path d="M4.2,30.93l-.55-.77A19.18,19.18,0,0,1,2.13,27.6l-.26-.51L27.09,1.87l.51.25a20.37,20.37,0,0,1,2.56,1.53l.77.55ZM3.82,27.4c.19.35.39.7.61,1l24-24c-.34-.22-.69-.42-1-.61Z" fill="#00f2a1"/><path d="M2.62,28.59l-.49-1A18.71,18.71,0,0,1,1,24.69l-.14-.46L24.23.81l.46.14A19.23,19.23,0,0,1,27.6,2.12l1,.5Zm0-3.92q.19.6.45,1.2L25.87,3.08c-.4-.17-.8-.32-1.19-.46Z" fill="#00f2a1"/><path d="M.44,22.94.25,21.3a21.12,21.12,0,0,1-.13-2.16c0-.62,0-1.26.1-1.9l0-.28L17,.25l.29,0a18.34,18.34,0,0,1,4.05,0L23,.44Zm1.35-5.26c-.05.5-.07,1-.07,1.46a2.26,2.26,0,0,0,0,.26L19.4,1.72q-.86,0-1.71.06Z" fill="#00f2a1"/><path d="M0,19.47l.22-2.23a19.05,19.05,0,0,1,1.39-5.47l.17-.26,10-9.9A18.8,18.8,0,0,1,17.25.22L19.47,0Zm3-6.94A17.92,17.92,0,0,0,2.23,15L15,2.22a19.09,19.09,0,0,0-2.46.8Z" fill="#00f2a1"/><path d="M1.34,26,1,24.69a19.06,19.06,0,0,1-.7-3.39l0-.39L20.91.21l.39,0a19.06,19.06,0,0,1,3.39.7L26,1.34Zm.55-4.46c.06.47.15.94.25,1.4L22.9,2.14a13.23,13.23,0,0,0-1.4-.25Z" fill="#00f2a1"/><path d="M17.88,38.21,38.21,17.87l-.08,2.05a19,19,0,0,1-.83,4.91l-.06.19L25,37.24l-.18.06a19.11,19.11,0,0,1-4.92.83ZM36.32,22,22,36.32a16.26,16.26,0,0,0,2.14-.49L35.83,24.17A16.26,16.26,0,0,0,36.32,22Z" fill="#00f2a1"/><path d="M13.29,37.23l-.48-.17A18.42,18.42,0,0,1,10,35.81l-.93-.51L35.3,9l.51.94a19,19,0,0,1,1.25,2.83l.17.47Zm-1.58-2.34c.37.18.76.34,1.16.49L35.38,12.87c-.15-.41-.31-.79-.48-1.16Z" fill="#00f2a1"/><path d="M10.5,36.1,10,35.81A18.36,18.36,0,0,1,7.69,34.3L7,33.75,33.75,7l.55.73A19.2,19.2,0,0,1,35.81,10l.29.52ZM9.4,33.57l.83.54L34.11,10.23l-.54-.84Z" fill="#00f2a1"/><path d="M19.15,38.17a19.27,19.27,0,0,1-3.08-.27l-1.54-.25L37.65,14.53l.25,1.54a19.15,19.15,0,0,1,.27,3.07c0,.18,0,.35,0,.52l0,.57L20.23,38.12l-.57,0Zm-1.23-1.65a11.05,11.05,0,0,0,1.62,0l17-17c0-.13,0-.26,0-.4,0-.39,0-.8,0-1.22Z" fill="#00f2a1"/><path d="M16.47,38l-.4-.06a19.73,19.73,0,0,1-3.26-.84l-1.19-.42,25-25,.42,1.2a17.93,17.93,0,0,1,.84,3.26l.06.4Zm-1.89-2c.44.12.89.22,1.34.31L36.25,15.92c-.09-.45-.19-.9-.31-1.34Z" fill="#00f2a1"/></g></g></svg>