<svg xmlns="http://www.w3.org/2000/svg" viewBox="0 0 81.77 80.3"><title>arvores_2</title><g id="Layer_2" data-name="Layer 2"><g id="Layer_27" data-name="Layer 27"><line x1="10.78" y1="32.12" x2="32.55" y2="10.36" fill="#484848"/><path d="M0,18c0-.13,0-.26,0-.39L11,6.66l.39,0c.21,0,.42,0,.62,0l-12,12C0,18.42,0,18.21,0,18Z" fill="#484848"/><path d="M1.65,12.13A11.38,11.38,0,0,1,5.49,8.29Z" fill="#484848"/><path d="M8.05,7.14A10.2,10.2,0,0,1,9.4,6.82L.18,16A11.38,11.38,0,0,1,.49,14.7Z" fill="#484848"/><path d="M13.25,6.81c.29.05.58.11.86.18L.35,20.75c-.07-.28-.13-.56-.18-.85Z" fill="#484848"/><path d="M15.19,7.32c.25.09.5.18.74.29l-15,15c-.11-.24-.2-.49-.29-.74Z" fill="#484848"/><path d="M16.87,8.08c.22.12.44.25.65.39L1.82,24.16c-.13-.21-.27-.42-.39-.64Z" fill="#484848"/><path d="M18.34,9.05l.56.47-16,16c-.16-.18-.32-.37-.47-.56Z" fill="#484848"/><path d="M19.61,10.22a6.28,6.28,0,0,1,.49.54l-16,16-.54-.49Z" fill="#484848"/><path d="M20.71,11.56c.12.17.22.35.33.53L5.45,27.69c-.18-.11-.36-.22-.53-.34Z" fill="#484848"/><path d="M21.54,13c.12.23.23.46.33.7L7.06,28.51l-.71-.32Z" fill="#484848"/><path d="M22.24,14.74c.08.27.15.55.21.83L8.92,29.09c-.28-.06-.55-.13-.82-.21Z" fill="#484848"/><path d="M22.65,16.77c0,.32.05.65.05,1L11.11,29.35c-.33,0-.66,0-1-.06Z" fill="#484848"/><path d="M22.65,19.21c0,.42-.12.83-.2,1.24L13.8,29.09a9.86,9.86,0,0,1-1.23.2Z" fill="#484848"/><path d="M21.77,22.53a11,11,0,0,1-1.6,2.63l-1.65,1.65a11.6,11.6,0,0,1-2.63,1.61Z" fill="#484848"/><path d="M21,32.25c0-.1,0-.19,0-.29l8-8,.29,0,.46,0L21,32.7C21,32.55,21,32.4,21,32.25Z" fill="#484848"/><path d="M22.2,28A8.39,8.39,0,0,1,25,25.17Z" fill="#484848"/><path d="M26.86,24.33a8.2,8.2,0,0,1,1-.23l-6.71,6.72a10,10,0,0,1,.22-1Z" fill="#484848"/><path d="M30.65,24.1a6.19,6.19,0,0,1,.62.13l-10,10c-.05-.2-.09-.41-.13-.62Z" fill="#484848"/><path d="M32.06,24.47a5,5,0,0,1,.54.21L21.7,35.58q-.12-.27-.21-.54Z" fill="#484848"/><path d="M33.29,25l.47.28L22.32,36.73c-.1-.15-.19-.3-.28-.46Z" fill="#484848"/><path d="M34.36,25.73l.4.34L23.09,37.74l-.34-.41Z" fill="#484848"/><path d="M35.29,26.58a4.4,4.4,0,0,1,.35.39L24,38.62l-.39-.36Z" fill="#484848"/><path d="M36.08,27.56c.09.12.17.25.25.38L25,39.3c-.13-.08-.26-.15-.38-.24Z" fill="#484848"/><path d="M36.69,28.6c.08.17.17.34.24.52L26.14,39.91l-.52-.24Z" fill="#484848"/><path d="M37.2,29.87q.09.3.15.6L27.5,40.33l-.6-.16Z" fill="#484848"/><path d="M37.5,31.35c0,.24,0,.47,0,.71l-8.45,8.45a5.53,5.53,0,0,1-.71,0Z" fill="#484848"/><path d="M37.5,33.13a8.89,8.89,0,0,1-.15.9l-6.3,6.3q-.43.09-.9.15Z" fill="#484848"/><path d="M36.86,35.55a8.36,8.36,0,0,1-1.17,1.92l-1.2,1.2a8.73,8.73,0,0,1-1.92,1.17Z" fill="#484848"/><path d="M63.4,76.46c-.06-.09-.11-.18-.17-.26l2.2-11.9c.08-.06.16-.13.24-.18a4.78,4.78,0,0,1,.42-.26l-2.4,13C63.59,76.72,63.49,76.6,63.4,76.46Z" fill="#484848"/><path d="M61.85,72a9.06,9.06,0,0,1,.77-4.17Z" fill="#484848"/><path d="M63.76,65.9a9.09,9.09,0,0,1,.73-.8l-1.85,10a7.79,7.79,0,0,1-.39-1Z" fill="#484848"/><path d="M67,63.39c.21-.1.41-.19.63-.27L64.84,78.07c-.17-.15-.34-.3-.5-.47Z" fill="#484848"/><path d="M68.44,62.85l.6-.14L66,79c-.17-.1-.34-.22-.51-.34Z" fill="#484848"/><path d="M69.86,62.59l.58,0-3.14,17q-.27-.1-.54-.24Z" fill="#484848"/><path d="M71.23,62.57l.57.06L68.59,80,68,79.88Z" fill="#484848"/><path d="M72.57,62.76l.55.13-3.2,17.38-.57-.08Z" fill="#484848"/><path d="M73.87,63.14l.45.19-3.13,17-.49,0Z" fill="#484848"/><path d="M75,63.69l.53.31-3,16.1-.6.1Z" fill="#484848"/><path d="M76.26,64.51c.17.14.34.28.5.43l-2.71,14.7a6.56,6.56,0,0,1-.62.23Z" fill="#484848"/><path d="M77.43,65.63c.16.19.32.4.47.61l-2.33,12.6c-.21.14-.43.28-.65.4Z" fill="#484848"/><path d="M78.51,67.2a7.91,7.91,0,0,1,.41.89l-1.73,9.39a9,9,0,0,1-.7.68Z" fill="#484848"/><path d="M79.41,69.72a8.89,8.89,0,0,1,.14,2.41l-.33,1.8a9.16,9.16,0,0,1-1,2.19Z" fill="#484848"/><path d="M23.17,20.66v-.15l4.36-4.36h.16l.25,0-4.76,4.75A2,2,0,0,1,23.17,20.66Z" fill="#484848"/><path d="M23.82,18.33a4.57,4.57,0,0,1,1.53-1.53Z" fill="#484848"/><path d="M26.37,16.34a4.71,4.71,0,0,1,.54-.12l-3.67,3.66a4.54,4.54,0,0,1,.12-.53Z" fill="#484848"/><path d="M28.44,16.21l.34.07-5.47,5.48c0-.11-.06-.23-.08-.34Z" fill="#484848"/><path d="M29.21,16.41l.3.12-6,6c0-.1-.08-.2-.11-.3Z" fill="#484848"/><path d="M29.88,16.71l.26.16-6.25,6.25-.15-.26Z" fill="#484848"/><path d="M30.47,17.1l.22.19-6.38,6.38-.18-.23Z" fill="#484848"/><path d="M31,17.57l.2.21L24.8,24.15l-.21-.2Z" fill="#484848"/><path d="M31.41,18.1a2.39,2.39,0,0,1,.13.21l-6.21,6.21-.21-.13Z" fill="#484848"/><path d="M31.74,18.67l.13.28L26,24.85l-.28-.13Z" fill="#484848"/><path d="M32,19.37c0,.11.06.21.08.32l-5.38,5.39c-.11,0-.22,0-.33-.09Z" fill="#484848"/><path d="M32.18,20.18a2.36,2.36,0,0,1,0,.38l-4.61,4.62-.39,0Z" fill="#484848"/><path d="M32.18,21.15a4.17,4.17,0,0,1-.08.49l-3.44,3.44-.49.08Z" fill="#484848"/><path d="M31.83,22.47a4.65,4.65,0,0,1-.63,1.05l-.66.65a4.34,4.34,0,0,1-1.05.64Z" fill="#484848"/><path d="M14.7,6.85c0-.06,0-.12,0-.18l5-5h.18l.29,0L14.72,7.14A2.83,2.83,0,0,1,14.7,6.85Z" fill="#484848"/><path d="M15.45,4.18A5.23,5.23,0,0,1,17.2,2.43Z" fill="#484848"/><path d="M18.37,1.9A6,6,0,0,1,19,1.76L14.79,6a3.88,3.88,0,0,1,.14-.61Z" fill="#484848"/><path d="M20.74,1.76l.38.08L14.86,8.1c0-.13-.06-.26-.08-.39Z" fill="#484848"/><path d="M21.62,2l.33.13L15.14,8.93A3.42,3.42,0,0,1,15,8.59Z" fill="#484848"/><path d="M22.38,2.33l.3.18L15.53,9.65a2.75,2.75,0,0,1-.17-.29Z" fill="#484848"/><path d="M23.05,2.78l.26.21L16,10.28,15.8,10Z" fill="#484848"/><path d="M23.63,3.31l.22.24-7.27,7.28-.25-.22Z" fill="#484848"/><path d="M24.13,3.92l.15.24-7.1,7.1-.24-.15Z" fill="#484848"/><path d="M24.51,4.57l.15.32-6.74,6.74-.32-.14Z" fill="#484848"/><path d="M24.82,5.37c0,.12.07.25.1.37L18.76,11.9l-.37-.1Z" fill="#484848"/><path d="M25,6.29c0,.15,0,.3,0,.45L19.76,12l-.45,0Z" fill="#484848"/><path d="M25,7.4a5,5,0,0,1-.09.56L21,11.9l-.57.09Z" fill="#484848"/><path d="M24.61,8.91a5.07,5.07,0,0,1-.73,1.2l-.75.75a4.88,4.88,0,0,1-1.2.73Z" fill="#484848"/><path d="M23.33,9.35a2.45,2.45,0,0,1,0-.27l7.71-7.71.28,0,.44,0L23.36,9.8C23.35,9.65,23.33,9.5,23.33,9.35Z" fill="#484848"/><path d="M24.5,5.22a8,8,0,0,1,2.7-2.71Z" fill="#484848"/><path d="M29,1.7A9.21,9.21,0,0,1,30,1.48L23.46,8c.06-.32.13-.64.22-1Z" fill="#484848"/><path d="M32.67,1.47l.6.13-9.69,9.69c0-.2-.09-.4-.13-.6Z" fill="#484848"/><path d="M34,1.83l.53.2L24,12.58c-.07-.17-.14-.35-.2-.53Z" fill="#484848"/><path d="M35.22,2.36a4.92,4.92,0,0,1,.45.28l-11,11c-.1-.15-.19-.3-.28-.45Z" fill="#484848"/><path d="M36.25,3.05l.4.33L25.36,14.67l-.33-.4Z" fill="#484848"/><path d="M37.15,3.87c.12.12.24.25.35.38L26.23,15.52l-.38-.35Z" fill="#484848"/><path d="M37.92,4.82c.09.12.16.24.24.37l-11,11c-.13-.08-.25-.15-.37-.24Z" fill="#484848"/><path d="M38.51,5.83c.08.16.16.33.23.5L28.31,16.76l-.5-.23Z" fill="#484848"/><path d="M39,7.06a5.47,5.47,0,0,1,.15.58l-9.53,9.53c-.2-.05-.39-.09-.58-.15Z" fill="#484848"/><path d="M39.29,8.49c0,.23,0,.46,0,.69l-8.17,8.17-.69,0Z" fill="#484848"/><path d="M39.29,10.21a8.74,8.74,0,0,1-.14.87l-6.09,6.09a8.74,8.74,0,0,1-.87.14Z" fill="#484848"/><path d="M38.67,12.54a7.84,7.84,0,0,1-1.13,1.86l-1.16,1.16a7.64,7.64,0,0,1-1.86,1.13Z" fill="#484848"/><path d="M0,4.94a.49.49,0,0,1,0-.12L3.3,1.52h.3L0,5.12C0,5.06,0,5,0,4.94Z" fill="#484848"/><path d="M.5,3.17A3.45,3.45,0,0,1,1.65,2Z" fill="#484848"/><path d="M2.42,1.67l.41-.1L.05,4.34c0-.13.06-.27.1-.4Z" fill="#484848"/><path d="M4,1.57l.25.05L.1,5.76c0-.08,0-.17,0-.25Z" fill="#484848"/><path d="M4.57,1.72l.22.09L.29,6.31.2,6.09Z" fill="#484848"/><path d="M5.08,2l.19.12L.55,6.79l-.12-.2Z" fill="#484848"/><path d="M5.52,2.24l.16.14L.87,7.2.72,7Z" fill="#484848"/><path d="M5.9,2.59l.15.17L1.24,7.57l-.17-.15Z" fill="#484848"/><path d="M6.23,3s.07.1.1.16L1.64,7.85l-.16-.1Z" fill="#484848"/><path d="M6.48,3.43l.1.21L2.12,8.1,1.91,8Z" fill="#484848"/><path d="M6.69,4l.06.24L2.68,8.27l-.24-.06Z" fill="#484848"/><path d="M6.81,4.57a2.64,2.64,0,0,1,0,.29L3.34,8.35l-.29,0Z" fill="#484848"/><path d="M6.81,5.3a2.2,2.2,0,0,1-.06.37l-2.6,2.6a2.2,2.2,0,0,1-.37.06Z" fill="#484848"/><path d="M6.55,6.3a4,4,0,0,1-.48.79l-.5.5a4,4,0,0,1-.79.48Z" fill="#484848"/><path d="M2.16,33.85c0-.07,0-.15,0-.23L8.6,27.19h.23l.37,0-7,7C2.17,34.1,2.16,34,2.16,33.85Z" fill="#484848"/><path d="M3.13,30.4a6.66,6.66,0,0,1,2.26-2.25Z" fill="#484848"/><path d="M6.89,27.47a5.32,5.32,0,0,1,.79-.18L2.27,32.7a7,7,0,0,1,.18-.79Z" fill="#484848"/><path d="M10,27.28a4.48,4.48,0,0,1,.5.11L2.37,35.47c0-.17-.08-.33-.11-.5Z" fill="#484848"/><path d="M11.09,27.58l.43.17L2.73,36.54c-.06-.14-.12-.29-.17-.44Z" fill="#484848"/><path d="M12.07,28l.38.23L3.23,37.47c-.08-.12-.15-.25-.23-.38Z" fill="#484848"/><path d="M12.93,28.6a3,3,0,0,1,.33.27L3.85,38.28,3.58,38Z" fill="#484848"/><path d="M13.68,29.28c.1.1.2.21.29.32L4.58,39l-.32-.29Z" fill="#484848"/><path d="M14.33,30.07c.07.1.13.21.19.31L5.36,39.54l-.31-.19Z" fill="#484848"/><path d="M14.82,30.91c.07.14.13.28.19.42L6.31,40l-.42-.19Z" fill="#484848"/><path d="M15.23,31.94l.12.48L7.4,40.37l-.48-.13Z" fill="#484848"/><path d="M15.47,33.13a5.49,5.49,0,0,1,0,.58L8.69,40.52c-.2,0-.39,0-.58,0Z" fill="#484848"/><path d="M15.47,34.56c0,.25-.07.49-.12.73l-5.08,5.08q-.36.08-.72.12Z" fill="#484848"/><path d="M15,36.51A6.61,6.61,0,0,1,14,38.06l-1,1a6.61,6.61,0,0,1-1.55.94Z" fill="#484848"/><path d="M47.82,62.86l.23,0,7.44,5.24c0,.07,0,.15,0,.22s0,.25,0,.37l-8.11-5.72Z" fill="#484848"/><path d="M51.39,63.23A6.63,6.63,0,0,1,54,65.06Z" fill="#484848"/><path d="M54.92,66.43c.12.24.22.49.32.75L49,62.77a7.32,7.32,0,0,1,.81,0Z" fill="#484848"/><path d="M55.63,69.41a4.35,4.35,0,0,1,0,.51l-9.34-6.58.47-.19Z" fill="#484848"/><path d="M55.53,70.58c0,.15-.05.31-.09.46L45.27,63.88a4.23,4.23,0,0,1,.4-.24Z" fill="#484848"/><path d="M55.26,71.63c0,.14-.1.28-.16.41L44.44,64.53l.34-.29Z" fill="#484848"/><path d="M54.84,72.58c-.06.12-.14.25-.21.37L43.75,65.28c.09-.11.18-.22.28-.32Z" fill="#484848"/><path d="M54.3,73.43l-.26.34L43.17,66.12c.08-.13.16-.24.23-.36Z" fill="#484848"/><path d="M53.63,74.2l-.27.25L42.77,67c0-.11.08-.22.13-.33Z" fill="#484848"/><path d="M52.88,74.83c-.12.09-.24.18-.37.26L42.45,68a3.6,3.6,0,0,1,.12-.44Z" fill="#484848"/><path d="M51.94,75.4a4.54,4.54,0,0,1-.45.21L42.3,69.14c0-.17,0-.34,0-.5Z" fill="#484848"/><path d="M50.81,75.85l-.56.13-7.88-5.55a5.51,5.51,0,0,1-.06-.57Z" fill="#484848"/><path d="M49.4,76.09a6.12,6.12,0,0,1-.74,0L42.79,72a7,7,0,0,1-.24-.69Z" fill="#484848"/><path d="M47.39,75.92a6.85,6.85,0,0,1-1.69-.67l-1.12-.79a6.76,6.76,0,0,1-1.19-1.36Z" fill="#484848"/><line x1="48.71" y1="13.82" x2="70.48" y2="35.59" fill="#484848"/><path d="M62.83,3l.4,0L74.17,14c0,.14,0,.26,0,.4s0,.41,0,.62L62.21,3.07C62.42,3.06,62.62,3,62.83,3Z" fill="#484848"/><path d="M68.71,4.69a11.44,11.44,0,0,1,3.83,3.84Z" fill="#484848"/><path d="M73.7,11.09A12.38,12.38,0,0,1,74,12.43L64.8,3.22a12.38,12.38,0,0,1,1.34.31Z" fill="#484848"/><path d="M74,16.29c0,.29-.11.58-.18.86L60.08,3.39c.29-.07.57-.13.86-.18Z" fill="#484848"/><path d="M73.52,18.23c-.09.25-.19.5-.29.74l-15-15c.24-.11.49-.2.74-.29Z" fill="#484848"/><path d="M72.76,19.91c-.12.22-.25.43-.39.64L56.68,4.86c.21-.13.42-.27.64-.39Z" fill="#484848"/><path d="M71.78,21.38c-.15.19-.31.37-.47.56l-16-16,.56-.47Z" fill="#484848"/><path d="M70.62,22.65c-.18.17-.35.34-.54.49l-16-16c.15-.18.32-.36.49-.54Z" fill="#484848"/><path d="M69.27,23.75c-.17.12-.35.22-.52.33L53.15,8.48c.11-.17.21-.35.33-.52Z" fill="#484848"/><path d="M67.84,24.58c-.23.12-.47.23-.71.33L52.32,10.1c.1-.24.21-.47.33-.71Z" fill="#484848"/><path d="M66.09,25.28c-.27.08-.54.15-.82.21L51.74,12c.06-.28.13-.55.21-.82Z" fill="#484848"/><path d="M64.06,25.69c-.32,0-.65,0-1,0L51.49,14.15c0-.33,0-.66,0-1Z" fill="#484848"/><path d="M61.62,25.69a9.87,9.87,0,0,1-1.23-.21l-8.64-8.64a12.13,12.13,0,0,1-.21-1.23Z" fill="#484848"/><path d="M58.31,24.81a11.08,11.08,0,0,1-2.64-1.6L54,21.56a11.08,11.08,0,0,1-1.6-2.64Z" fill="#484848"/><path d="M16.06,78.26l-.35.15L1.6,73.81c-.06-.11-.13-.21-.19-.33s-.16-.36-.24-.55l15.41,5C16.4,78.06,16.24,78.17,16.06,78.26Z" fill="#484848"/><path d="M10.32,79.4a11.06,11.06,0,0,1-4.95-1.61Z" fill="#484848"/><path d="M3.27,76.09a10.54,10.54,0,0,1-.85-1L14.3,79a9.92,9.92,0,0,1-1.28.31Z" fill="#484848"/><path d="M.73,71.79Q.61,71.38.52,71l17.74,5.78c-.21.19-.43.36-.66.53Z" fill="#484848"/><path d="M.33,69.91a6.31,6.31,0,0,1-.08-.76l19.3,6.29c-.16.2-.34.39-.51.57Z" fill="#484848"/><path d="M.24,68.14c0-.24,0-.48,0-.71L20.53,74c-.12.21-.25.42-.38.62Z" fill="#484848"/><path d="M.44,66.47c0-.23.1-.46.16-.69l20.65,6.74c-.08.22-.17.43-.27.64Z" fill="#484848"/><path d="M.88,64.87c.08-.22.16-.44.25-.65l20.62,6.72c-.05.23-.12.45-.19.68Z" fill="#484848"/><path d="M1.55,63.35c.1-.18.2-.34.31-.51L22,69.39c0,.2,0,.4-.06.6Z" fill="#484848"/><path d="M2.42,62c.15-.19.3-.39.46-.58L22,67.65c0,.25,0,.5,0,.75Z" fill="#484848"/><path d="M3.61,60.66l.61-.54,17.44,5.69c.07.27.13.53.18.8Z" fill="#484848"/><path d="M5.17,59.43c.26-.17.53-.32.81-.47l15,4.87c.14.29.27.57.38.86Z" fill="#484848"/><path d="M7.25,58.37A8,8,0,0,1,8.4,58l11.14,3.63a11.5,11.5,0,0,1,.71,1Z" fill="#484848"/><path d="M10.47,57.68a10.82,10.82,0,0,1,2.95.22l2.12.7a10.76,10.76,0,0,1,2.52,1.55Z" fill="#484848"/><path d="M47.56,45.1c.1.09.18.2.27.29V60.87a3.71,3.71,0,0,1-.27.29c-.15.15-.31.28-.46.42V44.68C47.25,44.82,47.41,45,47.56,45.1Z" fill="#484848"/><path d="M50.55,50.42a11.59,11.59,0,0,1,0,5.43Z" fill="#484848"/><path d="M49.55,58.48a10.32,10.32,0,0,1-.73,1.17v-13a9.5,9.5,0,0,1,.73,1.17Z" fill="#484848"/><path d="M46.1,62.38c-.24.17-.48.33-.73.48V43.4c.25.15.49.31.73.48Z" fill="#484848"/><path d="M44.37,63.39a7.55,7.55,0,0,1-.72.32V42.55l.72.32Z" fill="#484848"/><path d="M42.65,64.05c-.24.07-.49.13-.73.18V42c.24.06.49.11.73.18Z" fill="#484848"/><path d="M40.92,64.39l-.73.07V41.81c.25,0,.49,0,.73.06Z" fill="#484848"/><path d="M39.2,64.47c-.25,0-.49,0-.73,0V41.82c.24,0,.48,0,.73,0Z" fill="#484848"/><path d="M37.47,64.3l-.61-.14V42.1c.21-.05.41-.1.61-.13Z" fill="#484848"/><path d="M35.87,63.87c-.25-.08-.49-.17-.73-.27V42.66c.24-.1.48-.19.73-.27Z" fill="#484848"/><path d="M34.14,63.13l-.73-.43V43.57a7.74,7.74,0,0,1,.73-.43Z" fill="#484848"/><path d="M32.42,62a7.53,7.53,0,0,1-.73-.65V44.93a7.53,7.53,0,0,1,.73-.65Z" fill="#484848"/><path d="M30.69,60.26a10,10,0,0,1-.73-1V47a10,10,0,0,1,.73-1Z" fill="#484848"/><path d="M29,57.3a11.23,11.23,0,0,1-.72-3V52A11.16,11.16,0,0,1,29,49Z" fill="#484848"/><path d="M53.93,32.77l.27-.11,10.56,4c0,.08.09.16.13.25a3.2,3.2,0,0,1,.17.43L53.52,33C53.66,32.91,53.79,32.83,53.93,32.77Z" fill="#484848"/><path d="M58.32,32.08A8.34,8.34,0,0,1,62,33.47Z" fill="#484848"/><path d="M63.57,34.82a8,8,0,0,1,.61.8l-8.89-3.33c.32-.08.65-.15,1-.2Z" fill="#484848"/><path d="M65.35,38.17c.06.21.1.41.14.62l-13.28-5,.51-.38Z" fill="#484848"/><path d="M65.6,39.61c0,.19,0,.38,0,.57L51.19,34.79l.4-.42Z" fill="#484848"/><path d="M65.61,41c0,.18,0,.36-.06.54L50.4,35.84c.1-.16.2-.31.31-.46Z" fill="#484848"/><path d="M65.41,42.22a4.91,4.91,0,0,1-.15.51L49.8,37c.07-.17.15-.33.23-.48Z" fill="#484848"/><path d="M65,43.41c-.07.17-.13.33-.21.49L49.38,38.14a5,5,0,0,1,.16-.51Z" fill="#484848"/><path d="M64.46,44.55l-.25.38-15-5.62c0-.15,0-.31.06-.45Z" fill="#484848"/><path d="M63.76,45.53a5.2,5.2,0,0,1-.37.43L49.1,40.63a5.42,5.42,0,0,1,0-.57Z" fill="#484848"/><path d="M62.81,46.52a4.54,4.54,0,0,1-.48.39L49.28,42c-.05-.2-.08-.4-.11-.6Z" fill="#484848"/><path d="M61.59,47.41a6.25,6.25,0,0,1-.63.33L49.77,43.56a6,6,0,0,1-.26-.66Z" fill="#484848"/><path d="M60,48.15c-.29.1-.59.17-.88.24l-8.35-3.12a6.65,6.65,0,0,1-.5-.76Z" fill="#484848"/><path d="M57.51,48.57a8.41,8.41,0,0,1-2.23-.27l-1.59-.59a8.35,8.35,0,0,1-1.86-1.26Z" fill="#484848"/><path d="M53.11,23.18h.16l4.36,4.35v.16a2.09,2.09,0,0,1,0,.25l-4.76-4.76Z" fill="#484848"/><path d="M55.45,23.83A4.66,4.66,0,0,1,57,25.36Z" fill="#484848"/><path d="M57.44,26.38a5.23,5.23,0,0,1,.12.54l-3.67-3.67a4.28,4.28,0,0,1,.54.12Z" fill="#484848"/><path d="M57.57,28.45c0,.12,0,.23-.07.34L52,23.32l.34-.07Z" fill="#484848"/><path d="M57.36,29.22c0,.1-.07.2-.11.3l-6-6,.3-.11Z" fill="#484848"/><path d="M57.06,29.89a2.2,2.2,0,0,1-.15.26L50.66,23.9l.26-.15Z" fill="#484848"/><path d="M56.67,30.48l-.18.22-6.38-6.38.23-.18Z" fill="#484848"/><path d="M56.21,31l-.21.2-6.37-6.36a2.09,2.09,0,0,1,.2-.22Z" fill="#484848"/><path d="M55.68,31.42l-.21.13-6.21-6.2a1.07,1.07,0,0,1,.13-.21Z" fill="#484848"/><path d="M55.1,31.75l-.28.13L48.93,26a2.39,2.39,0,0,1,.13-.28Z" fill="#484848"/><path d="M54.41,32l-.33.08L48.7,26.73c0-.11,0-.22.08-.33Z" fill="#484848"/><path d="M53.6,32.19a2.55,2.55,0,0,1-.39,0L48.6,27.6c0-.13,0-.26,0-.39Z" fill="#484848"/><path d="M52.63,32.19a2.64,2.64,0,0,1-.49-.08L48.7,28.67a3.85,3.85,0,0,1-.08-.49Z" fill="#484848"/><path d="M51.31,31.84a4.65,4.65,0,0,1-1.05-.63l-.65-.66A4.34,4.34,0,0,1,49,29.5Z" fill="#484848"/><path d="M70,44.12h.16l4.35,4.36a.76.76,0,0,1,0,.15c0,.09,0,.17,0,.25l-4.76-4.75Z" fill="#484848"/><path d="M72.34,44.78a4.57,4.57,0,0,1,1.53,1.53Z" fill="#484848"/><path d="M74.33,47.33a4.54,4.54,0,0,1,.12.53L70.78,44.2a5.23,5.23,0,0,1,.54.12Z" fill="#484848"/><path d="M74.45,49.4a2.05,2.05,0,0,1-.07.34l-5.47-5.48.34-.07Z" fill="#484848"/><path d="M74.25,50.17c0,.1-.07.2-.11.3l-6-6,.3-.12Z" fill="#484848"/><path d="M74,50.84l-.15.26-6.25-6.25a2.26,2.26,0,0,1,.26-.16Z" fill="#484848"/><path d="M73.56,51.42l-.18.23L67,45.27l.22-.19Z" fill="#484848"/><path d="M73.1,51.93l-.21.2-6.37-6.37.2-.21Z" fill="#484848"/><path d="M72.56,52.37l-.2.13-6.21-6.21a2.39,2.39,0,0,1,.13-.21Z" fill="#484848"/><path d="M72,52.7l-.28.13-5.89-5.9.13-.28Z" fill="#484848"/><path d="M71.3,53l-.33.09-5.38-5.39c0-.11,0-.21.08-.32Z" fill="#484848"/><path d="M70.49,53.14l-.39,0-4.61-4.62a2.36,2.36,0,0,1,0-.38Z" fill="#484848"/><path d="M69.52,53.14,69,53.06l-3.44-3.44a2.78,2.78,0,0,1-.08-.49Z" fill="#484848"/><path d="M68.2,52.79a4.34,4.34,0,0,1-1-.64l-.66-.65a4.65,4.65,0,0,1-.63-1Z" fill="#484848"/><path d="M74,17.74h.18l5,5v.18a2.81,2.81,0,0,1,0,.29L73.7,17.76Z" fill="#484848"/><path d="M76.66,18.49a5.29,5.29,0,0,1,1.74,1.75Z" fill="#484848"/><path d="M78.93,21.41a4.15,4.15,0,0,1,.14.61l-4.19-4.19a4.15,4.15,0,0,1,.61.14Z" fill="#484848"/><path d="M79.08,23.78c0,.13,0,.26-.08.38L72.73,17.9l.39-.08Z" fill="#484848"/><path d="M78.85,24.66c0,.11-.09.22-.14.33L71.9,18.18l.34-.13Z" fill="#484848"/><path d="M78.5,25.42a1.75,1.75,0,0,1-.18.29l-7.14-7.14.29-.18Z" fill="#484848"/><path d="M78.06,26.09a2.62,2.62,0,0,1-.22.25l-7.29-7.29.26-.21Z" fill="#484848"/><path d="M77.53,26.67l-.25.22L70,19.62a2.73,2.73,0,0,1,.23-.25Z" fill="#484848"/><path d="M76.92,27.17l-.24.15-7.1-7.1.15-.24Z" fill="#484848"/><path d="M76.26,27.55l-.32.15L69.2,21l.15-.33Z" fill="#484848"/><path d="M75.47,27.86l-.38.1L68.94,21.8l.09-.37Z" fill="#484848"/><path d="M74.54,28.05c-.14,0-.29,0-.44,0L68.82,22.8a3.4,3.4,0,0,1,0-.45Z" fill="#484848"/><path d="M73.43,28.05a5.43,5.43,0,0,1-.56-.09L68.94,24a5.62,5.62,0,0,1-.09-.57Z" fill="#484848"/><path d="M71.92,27.65a5,5,0,0,1-1.19-.73L70,26.17a5.2,5.2,0,0,1-.73-1.2Z" fill="#484848"/><path d="M35.74,68.25h.18l5,5c0,.06,0,.11,0,.18s0,.18,0,.28l-5.44-5.44Z" fill="#484848"/><path d="M38.41,69a5.29,5.29,0,0,1,1.75,1.74Z" fill="#484848"/><path d="M40.68,71.91a4.15,4.15,0,0,1,.14.61l-4.19-4.19a4.15,4.15,0,0,1,.61.14Z" fill="#484848"/><path d="M40.83,74.28c0,.13,0,.26-.08.39L34.49,68.4l.38-.08Z" fill="#484848"/><path d="M40.6,75.16c0,.11-.08.23-.13.34l-6.81-6.81.33-.14Z" fill="#484848"/><path d="M40.25,75.93l-.17.29-7.15-7.15.3-.17Z" fill="#484848"/><path d="M39.81,76.59l-.21.26-7.3-7.29.26-.22Z" fill="#484848"/><path d="M39.28,77.17a2.73,2.73,0,0,1-.25.23l-7.27-7.28a2.62,2.62,0,0,1,.22-.25Z" fill="#484848"/><path d="M38.67,77.67l-.24.15-7.1-7.1.15-.24Z" fill="#484848"/><path d="M38,78.05l-.32.15L31,71.46l.15-.32Z" fill="#484848"/><path d="M37.22,78.37l-.37.09-6.16-6.15c0-.13.06-.26.1-.38Z" fill="#484848"/><path d="M36.3,78.55a3.4,3.4,0,0,1-.45,0L30.57,73.3c0-.15,0-.3,0-.44Z" fill="#484848"/><path d="M35.19,78.55a5.62,5.62,0,0,1-.57-.09l-3.93-3.93A5.43,5.43,0,0,1,30.6,74Z" fill="#484848"/><path d="M33.68,78.16a5.2,5.2,0,0,1-1.2-.73l-.75-.76A5,5,0,0,1,31,75.48Z" fill="#484848"/><path d="M79.27,32.55a1.37,1.37,0,0,1,0,.28l-5.76,9.25-.27.08-.43.08,6.29-10.11C79.19,32.27,79.24,32.41,79.27,32.55Z" fill="#484848"/><path d="M79.08,36.85a8.07,8.07,0,0,1-2,3.24Z" fill="#484848"/><path d="M75.48,41.3a6.35,6.35,0,0,1-.87.42l4.85-7.79a6.28,6.28,0,0,1,0,1Z" fill="#484848"/><path d="M72,42.35h-.62L78.6,30.72c.09.18.17.37.25.56Z" fill="#484848"/><path d="M70.56,42.31,70,42.23l7.88-12.66.32.46Z" fill="#484848"/><path d="M69.28,42.06l-.5-.17L77,28.62c.13.12.25.25.37.38Z" fill="#484848"/><path d="M68.12,41.62c-.16-.07-.31-.15-.46-.23l8.43-13.55.42.31Z" fill="#484848"/><path d="M67.06,41c-.14-.1-.29-.19-.43-.3l8.42-13.52a4.79,4.79,0,0,1,.45.25Z" fill="#484848"/><path d="M66.09,40.28c-.11-.1-.21-.2-.31-.31L74,26.78l.42.14Z" fill="#484848"/><path d="M65.29,39.43c-.12-.14-.23-.29-.34-.44l7.8-12.52.54.11Z" fill="#484848"/><path d="M64.54,38.34c-.1-.17-.19-.35-.28-.53l7.12-11.44H72Z" fill="#484848"/><path d="M63.93,37a4.58,4.58,0,0,1-.19-.66l6.1-9.81c.23-.05.45-.09.68-.12Z" fill="#484848"/><path d="M63.54,35.34c0-.3,0-.59-.06-.88L68,27.15a8.33,8.33,0,0,1,.82-.34Z" fill="#484848"/><path d="M63.61,32.92a7.79,7.79,0,0,1,.68-2.06l.87-1.4a8,8,0,0,1,1.55-1.52Z" fill="#484848"/><path d="M58.3,49.06h.28l7.71,7.71c0,.09,0,.18,0,.28s0,.29,0,.44l-8.42-8.42Z" fill="#484848"/><path d="M62.44,50.22a8.11,8.11,0,0,1,2.7,2.7Z" fill="#484848"/><path d="M66,54.73a9.4,9.4,0,0,1,.22,1l-6.49-6.5c.32.06.63.13.94.22Z" fill="#484848"/><path d="M66.18,58.39a6,6,0,0,1-.12.61l-9.69-9.7a5.31,5.31,0,0,1,.6-.12Z" fill="#484848"/><path d="M65.83,59.76c-.07.17-.13.35-.21.52L55.08,49.74c.17-.08.35-.14.52-.21Z" fill="#484848"/><path d="M65.3,60.94c-.09.16-.18.31-.28.46L54,50.34a4.25,4.25,0,0,1,.46-.27Z" fill="#484848"/><path d="M64.61,62l-.33.39L53,51.09l.4-.34Z" fill="#484848"/><path d="M63.79,62.87l-.38.35L52.14,52c.11-.13.23-.25.35-.38Z" fill="#484848"/><path d="M62.84,63.65l-.37.23-11-11,.23-.37Z" fill="#484848"/><path d="M61.83,64.23l-.5.23L50.9,54c.07-.17.15-.33.23-.5Z" fill="#484848"/><path d="M60.6,64.72c-.19.06-.39.11-.58.15l-9.53-9.53c0-.19.09-.39.15-.58Z" fill="#484848"/><path d="M59.17,65a5.32,5.32,0,0,1-.69,0l-8.17-8.17a5.32,5.32,0,0,1,0-.69Z" fill="#484848"/><path d="M57.45,65a7.9,7.9,0,0,1-.87-.14l-6.09-6.09a7.9,7.9,0,0,1-.14-.87Z" fill="#484848"/><path d="M55.11,64.4a8.49,8.49,0,0,1-1.85-1.13L52.09,62.1A8.49,8.49,0,0,1,51,60.25Z" fill="#484848"/><path d="M21.58,37.92l.25,0L29,45.08c0,.09,0,.17,0,.26s0,.27,0,.41l-7.8-7.81Z" fill="#484848"/><path d="M25.41,39a7.41,7.41,0,0,1,2.51,2.5Z" fill="#484848"/><path d="M28.67,43.18a6.59,6.59,0,0,1,.2.88l-6-6a8.63,8.63,0,0,1,.88.2Z" fill="#484848"/><path d="M28.88,46.58c0,.19-.07.37-.11.55l-9-9c.18,0,.37-.08.56-.12Z" fill="#484848"/><path d="M28.55,47.84c-.06.16-.12.33-.19.49l-9.77-9.78.49-.19Z" fill="#484848"/><path d="M28.06,48.94c-.08.14-.17.28-.26.42L17.56,39.11a4.23,4.23,0,0,1,.42-.25Z" fill="#484848"/><path d="M27.42,49.9l-.31.36L16.65,39.8c.12-.1.24-.21.37-.3Z" fill="#484848"/><path d="M26.66,50.73l-.35.32L15.87,40.61c.1-.12.21-.24.32-.35Z" fill="#484848"/><path d="M25.78,51.45l-.34.21L15.25,41.48l.22-.35Z" fill="#484848"/><path d="M24.84,52c-.15.07-.3.15-.46.21l-9.67-9.67c.07-.16.14-.31.22-.46Z" fill="#484848"/><path d="M23.7,52.44a4.58,4.58,0,0,1-.53.14l-8.83-8.83a5.29,5.29,0,0,1,.13-.54Z" fill="#484848"/><path d="M22.38,52.71l-.64,0-7.57-7.58q0-.31,0-.63Z" fill="#484848"/><path d="M20.79,52.71a6.85,6.85,0,0,1-.81-.13l-5.64-5.64a7.62,7.62,0,0,1-.14-.81Z" fill="#484848"/><path d="M18.62,52.14a7.21,7.21,0,0,1-1.72-1L15.82,50a7.11,7.11,0,0,1-1-1.72Z" fill="#484848"/><path d="M75.9,3H76l3.29,3.29s0,.08,0,.12,0,.12,0,.18l-3.6-3.59Z" fill="#484848"/><path d="M77.67,3.54a3.42,3.42,0,0,1,1.15,1.15Z" fill="#484848"/><path d="M79.17,5.46a2.71,2.71,0,0,1,.09.41L76.49,3.09l.4.1Z" fill="#484848"/><path d="M79.27,7l-.06.25L75.07,3.14l.26-.05Z" fill="#484848"/><path d="M79.11,7.61a2,2,0,0,1-.08.22l-4.51-4.5.23-.09Z" fill="#484848"/><path d="M78.89,8.11l-.12.2L74.05,3.59l.19-.12Z" fill="#484848"/><path d="M78.59,8.55a1.15,1.15,0,0,1-.14.17L73.63,3.91l.17-.15Z" fill="#484848"/><path d="M78.24,8.94l-.16.15L73.27,4.28l.15-.17Z" fill="#484848"/><path d="M77.84,9.27l-.16.1L73,4.68a.86.86,0,0,1,.1-.16Z" fill="#484848"/><path d="M77.41,9.52l-.22.1L72.74,5.16a2,2,0,0,1,.1-.21Z" fill="#484848"/><path d="M76.88,9.73l-.25.06L72.56,5.72a2.17,2.17,0,0,1,.07-.24Z" fill="#484848"/><path d="M76.27,9.85l-.29,0L72.49,6.38a2.71,2.71,0,0,1,0-.29Z" fill="#484848"/><path d="M75.54,9.85a2.5,2.5,0,0,1-.38-.06l-2.59-2.6c0-.12,0-.24-.07-.37Z" fill="#484848"/><path d="M74.54,9.59a3.7,3.7,0,0,1-.79-.48l-.5-.5a3.21,3.21,0,0,1-.48-.79Z" fill="#484848"/><path d="M4.59,42.24h.12L8,45.54s0,.07,0,.11,0,.13,0,.19L4.4,42.25Z" fill="#484848"/><path d="M6.36,42.73a3.45,3.45,0,0,1,1.15,1.16Z" fill="#484848"/><path d="M7.86,44.66a2.88,2.88,0,0,1,.09.4L5.18,42.29l.41.1Z" fill="#484848"/><path d="M8,46.23l-.06.25L3.77,42.34,4,42.29Z" fill="#484848"/><path d="M7.81,46.81,7.72,47l-4.5-4.5.22-.09Z" fill="#484848"/><path d="M7.58,47.31l-.12.2L2.74,42.79l.19-.12Z" fill="#484848"/><path d="M7.28,47.75a1.15,1.15,0,0,1-.14.17L2.32,43.1,2.49,43Z" fill="#484848"/><path d="M6.93,48.14l-.16.15L2,43.48l.15-.17Z" fill="#484848"/><path d="M6.53,48.47l-.16.1L1.68,43.88a.86.86,0,0,1,.1-.16Z" fill="#484848"/><path d="M6.1,48.72l-.21.1L1.43,44.36a2,2,0,0,1,.1-.21Z" fill="#484848"/><path d="M5.57,48.93,5.33,49,1.26,44.92a2.1,2.1,0,0,1,.06-.24Z" fill="#484848"/><path d="M5,49.05l-.29,0L1.18,45.58a2.64,2.64,0,0,1,0-.29Z" fill="#484848"/><path d="M4.23,49.05A2.2,2.2,0,0,1,3.86,49l-2.6-2.6A2.38,2.38,0,0,1,1.2,46Z" fill="#484848"/><path d="M3.23,48.79a3.7,3.7,0,0,1-.79-.48l-.5-.5A3.55,3.55,0,0,1,1.46,47Z" fill="#484848"/><path d="M24.92,54H25l3.29,3.29s0,.08,0,.12,0,.12,0,.19L24.73,54Z" fill="#484848"/><path d="M26.68,54.48a3.36,3.36,0,0,1,1.16,1.15Z" fill="#484848"/><path d="M28.19,56.4a3,3,0,0,1,.09.41L25.51,54a2.59,2.59,0,0,1,.4.09Z" fill="#484848"/><path d="M28.28,58a2.38,2.38,0,0,1-.05.26l-4.14-4.14.26-.06Z" fill="#484848"/><path d="M28.13,58.55a1.45,1.45,0,0,1-.09.22l-4.5-4.5.23-.08Z" fill="#484848"/><path d="M27.9,59.06l-.11.19-4.72-4.72.19-.12Z" fill="#484848"/><path d="M27.61,59.5a2.09,2.09,0,0,1-.14.17l-4.82-4.82.17-.14Z" fill="#484848"/><path d="M27.26,59.88,27.1,60l-4.81-4.81a1.14,1.14,0,0,1,.15-.16Z" fill="#484848"/><path d="M26.86,60.21l-.16.1L22,55.62a1.4,1.4,0,0,1,.1-.16Z" fill="#484848"/><path d="M26.42,60.46l-.21.1-4.45-4.45a1.47,1.47,0,0,1,.1-.22Z" fill="#484848"/><path d="M25.9,60.67a1,1,0,0,1-.25.06l-4.07-4.06a1.82,1.82,0,0,1,.07-.25Z" fill="#484848"/><path d="M25.29,60.79l-.3,0-3.48-3.49a2.81,2.81,0,0,1,0-.29Z" fill="#484848"/><path d="M24.55,60.8l-.37-.07-2.6-2.6-.06-.37Z" fill="#484848"/><path d="M23.56,60.53a3.4,3.4,0,0,1-.8-.48l-.49-.5a3,3,0,0,1-.48-.79Z" fill="#484848"/><path d="M28.06,61.05h.11l3.3,3.3v.12a1.09,1.09,0,0,1,0,.18l-3.59-3.59Z" fill="#484848"/><path d="M29.82,61.54A3.57,3.57,0,0,1,31,62.7Z" fill="#484848"/><path d="M31.32,63.47c0,.13.07.27.1.4L28.65,61.1l.4.1Z" fill="#484848"/><path d="M31.42,65a2.21,2.21,0,0,1-.05.25l-4.14-4.14.26,0Z" fill="#484848"/><path d="M31.27,65.62l-.09.22-4.5-4.5.22-.09Z" fill="#484848"/><path d="M31,66.12a2.12,2.12,0,0,1-.12.2L26.2,61.6l.2-.12Z" fill="#484848"/><path d="M30.75,66.56l-.14.17-4.82-4.81.17-.15Z" fill="#484848"/><path d="M30.4,67l-.17.15-4.8-4.81a2.09,2.09,0,0,1,.14-.17Z" fill="#484848"/><path d="M30,67.28l-.16.1-4.69-4.69.1-.16Z" fill="#484848"/><path d="M29.56,67.53l-.21.1-4.46-4.46L25,63Z" fill="#484848"/><path d="M29,67.74l-.25.06-4.07-4.07.06-.24Z" fill="#484848"/><path d="M28.43,67.86l-.3,0-3.49-3.49c0-.1,0-.2,0-.29Z" fill="#484848"/><path d="M27.69,67.86a2.38,2.38,0,0,1-.37-.06l-2.6-2.6a2.2,2.2,0,0,1-.06-.37Z" fill="#484848"/><path d="M26.69,67.6a4,4,0,0,1-.79-.48l-.49-.5a3.59,3.59,0,0,1-.49-.79Z" fill="#484848"/><path d="M44.68,10.89l.23,0,6.43,6.43c0,.07,0,.15,0,.23s0,.24,0,.36l-7-7Z" fill="#484848"/><path d="M48.13,11.86a6.75,6.75,0,0,1,2.25,2.26Z" fill="#484848"/><path d="M51.06,15.62a5.62,5.62,0,0,1,.18.79L45.83,11c.27.05.53.11.79.18Z" fill="#484848"/><path d="M51.25,18.68c0,.17-.06.34-.1.5L43.06,11.1l.5-.11Z" fill="#484848"/><path d="M51,19.82a3.83,3.83,0,0,1-.17.43L42,11.46l.44-.17Z" fill="#484848"/><path d="M50.51,20.81c-.07.13-.15.25-.23.37L41.06,12l.38-.22Z" fill="#484848"/><path d="M49.93,21.67c-.08.11-.18.22-.27.33l-9.41-9.41c.11-.1.21-.19.33-.28Z" fill="#484848"/><path d="M49.25,22.42l-.32.29-9.39-9.4c.09-.11.19-.21.29-.32Z" fill="#484848"/><path d="M48.46,23.06l-.31.2L39,14.09c.06-.1.12-.21.19-.31Z" fill="#484848"/><path d="M47.62,23.55l-.42.19L38.5,15c.06-.14.13-.28.19-.41Z" fill="#484848"/><path d="M46.59,24a4.21,4.21,0,0,1-.48.12l-8-7.94c0-.17.08-.33.13-.49Z" fill="#484848"/><path d="M45.4,24.2a5.44,5.44,0,0,1-.57,0L38,17.42a5.27,5.27,0,0,1,0-.57Z" fill="#484848"/><path d="M44,24.2c-.25,0-.49-.07-.73-.12L38.16,19c0-.23-.09-.48-.12-.72Z" fill="#484848"/><path d="M42,23.69a7,7,0,0,1-1.55-1l-1-1a6.36,6.36,0,0,1-.94-1.54Z" fill="#484848"/><path d="M41.45,31.27h.17l4.88,4.87c0,.06,0,.12,0,.18s0,.18,0,.28l-5.32-5.33Z" fill="#484848"/><path d="M44.06,32a5.09,5.09,0,0,1,1.71,1.71Z" fill="#484848"/><path d="M46.29,34.85c.06.2.1.4.14.6l-4.11-4.1a3.75,3.75,0,0,1,.6.14Z" fill="#484848"/><path d="M46.43,37.17c0,.13,0,.26-.08.38l-6.13-6.13.38-.08Z" fill="#484848"/><path d="M46.21,38a3.42,3.42,0,0,1-.13.34L39.41,31.7l.33-.13Z" fill="#484848"/><path d="M45.87,38.78a2.75,2.75,0,0,1-.17.29l-7-7a2.61,2.61,0,0,1,.28-.17Z" fill="#484848"/><path d="M45.43,39.44l-.2.25-7.14-7.14.25-.21Z" fill="#484848"/><path d="M44.92,40l-.24.21L37.55,33.1l.22-.24Z" fill="#484848"/><path d="M44.32,40.49l-.24.15-6.95-7,.15-.23Z" fill="#484848"/><path d="M43.68,40.87l-.32.14-6.59-6.6c0-.1.09-.21.14-.31Z" fill="#484848"/><path d="M42.9,41.17l-.37.1-6-6c0-.12.06-.24.09-.36Z" fill="#484848"/><path d="M42,41.36l-.44,0-5.17-5.16c0-.15,0-.3,0-.44Z" fill="#484848"/><path d="M40.91,41.36a4.85,4.85,0,0,1-.55-.09l-3.85-3.85a5.25,5.25,0,0,1-.09-.55Z" fill="#484848"/><path d="M39.43,41a5.19,5.19,0,0,1-1.17-.72l-.74-.73a4.87,4.87,0,0,1-.71-1.18Z" fill="#484848"/><path d="M13.26,47.08h.18L18.31,52c0,.06,0,.11,0,.17s0,.19,0,.28L13,47.1Z" fill="#484848"/><path d="M15.88,47.82a5.09,5.09,0,0,1,1.71,1.71Z" fill="#484848"/><path d="M18.1,50.67a3.75,3.75,0,0,1,.14.6l-4.1-4.11a5.63,5.63,0,0,1,.59.14Z" fill="#484848"/><path d="M18.25,53c0,.13-.05.25-.08.38L12,47.24l.38-.08Z" fill="#484848"/><path d="M18,53.85c0,.11-.08.22-.13.33l-6.67-6.67.33-.13Z" fill="#484848"/><path d="M17.68,54.6c-.05.1-.11.19-.17.29l-7-7,.28-.17Z" fill="#484848"/><path d="M17.25,55.25,17,55.5,9.9,48.37a2.32,2.32,0,0,1,.25-.21Z" fill="#484848"/><path d="M16.73,55.82l-.24.22L9.36,48.91l.22-.24Z" fill="#484848"/><path d="M16.13,56.31l-.23.15-7-7c.05-.08.09-.16.15-.24Z" fill="#484848"/><path d="M15.49,56.68l-.31.15-6.6-6.6c0-.11.09-.21.14-.32Z" fill="#484848"/><path d="M14.71,57c-.12,0-.24.07-.36.09l-6-6,.09-.37Z" fill="#484848"/><path d="M13.81,57.17c-.14,0-.29,0-.44,0L8.21,52c0-.15,0-.29,0-.43Z" fill="#484848"/><path d="M12.72,57.17a5.25,5.25,0,0,1-.55-.09L8.32,53.23a4.85,4.85,0,0,1-.09-.55Z" fill="#484848"/><path d="M11.24,56.78a5,5,0,0,1-1.17-.71l-.73-.74a5.19,5.19,0,0,1-.72-1.17Z" fill="#484848"/><line x1="12.24" y1="30.81" x2="34.01" y2="9.05" fill="#424242"/><rect x="0.32" width="81.44" height="80.3" fill="none"/><path d="M1.46,16.69c0-.13,0-.26,0-.39l11-11,.39,0c.21,0,.42,0,.63,0l-12,12C1.48,17.11,1.46,16.9,1.46,16.69Z" fill="#c2ff9d"/><path d="M3.11,10.82A11.38,11.38,0,0,1,7,7Z" fill="#c2ff9d"/><path d="M9.51,5.83a8.81,8.81,0,0,1,1.35-.31L1.64,14.73A11.38,11.38,0,0,1,2,13.39Z" fill="#c2ff9d"/><path d="M14.72,5.5c.28,0,.57.11.85.18L1.81,19.44c-.07-.28-.13-.56-.18-.85Z" fill="#c2ff9d"/><path d="M16.65,6c.25.09.5.18.74.29l-15,15c-.11-.25-.2-.5-.29-.75Z" fill="#c2ff9d"/><path d="M18.33,6.77c.22.12.44.25.65.39L3.28,22.85l-.39-.64Z" fill="#c2ff9d"/><path d="M19.8,7.74l.56.47-16,16c-.16-.18-.32-.37-.47-.56Z" fill="#c2ff9d"/><path d="M21.07,8.91c.17.17.34.35.5.54l-16,16L5,25Z" fill="#c2ff9d"/><path d="M22.17,10.25a5.84,5.84,0,0,1,.33.53L6.91,26.38c-.18-.11-.36-.22-.53-.34Z" fill="#c2ff9d"/><path d="M23,11.69c.12.23.23.46.33.7L8.52,27.2l-.71-.32Z" fill="#c2ff9d"/><path d="M23.7,13.43c.08.27.15.55.21.83L10.38,27.78c-.27-.06-.55-.13-.82-.21Z" fill="#c2ff9d"/><path d="M24.11,15.46c0,.32.05.65.06,1L12.57,28c-.33,0-.66,0-1-.06Z" fill="#c2ff9d"/><path d="M24.11,17.9a10.33,10.33,0,0,1-.2,1.24l-8.65,8.64A9.86,9.86,0,0,1,14,28Z" fill="#c2ff9d"/><path d="M23.23,21.22a11,11,0,0,1-1.6,2.63L20,25.5a11.6,11.6,0,0,1-2.63,1.61Z" fill="#c2ff9d"/><path d="M22.46,30.94c0-.1,0-.19,0-.29l8-8,.28,0c.16,0,.31,0,.46,0l-8.71,8.7C22.47,31.24,22.46,31.09,22.46,30.94Z" fill="#65ff8e"/><path d="M23.66,26.66a8.39,8.39,0,0,1,2.79-2.8Z" fill="#65ff8e"/><path d="M28.32,23a8.2,8.2,0,0,1,1-.23l-6.71,6.72a8.2,8.2,0,0,1,.23-1Z" fill="#65ff8e"/><path d="M32.11,22.79c.21,0,.42.08.63.13l-10,10c-.05-.2-.09-.41-.13-.62Z" fill="#65ff8e"/><path d="M33.52,23.16a4.33,4.33,0,0,1,.54.21l-10.9,10.9c-.08-.18-.14-.36-.21-.54Z" fill="#65ff8e"/><path d="M34.75,23.71c.16.09.32.18.47.28L23.78,35.42c-.09-.15-.19-.3-.28-.46Z" fill="#65ff8e"/><path d="M35.82,24.42l.41.34L24.55,36.43,24.21,36Z" fill="#65ff8e"/><path d="M36.75,25.27c.12.13.24.25.35.39L25.45,37.31,25.06,37Z" fill="#65ff8e"/><path d="M37.55,26.25l.24.38L26.42,38c-.13-.08-.26-.15-.38-.24Z" fill="#65ff8e"/><path d="M38.15,27.29a4.9,4.9,0,0,1,.24.52L27.6,38.6l-.51-.24Z" fill="#65ff8e"/><path d="M38.66,28.56q.09.3.15.6L29,39l-.6-.16Z" fill="#65ff8e"/><path d="M39,30c0,.24,0,.48,0,.71L30.55,39.2a5.53,5.53,0,0,1-.71,0Z" fill="#65ff8e"/><path d="M39,31.82a6.76,6.76,0,0,1-.15.9L32.51,39q-.43.09-.9.15Z" fill="#65ff8e"/><path d="M38.32,34.24a8.36,8.36,0,0,1-1.17,1.92L36,37.36A8.73,8.73,0,0,1,34,38.53Z" fill="#65ff8e"/><path d="M64.86,75.15c-.06-.09-.11-.18-.17-.26L66.89,63l.24-.18a4.78,4.78,0,0,1,.42-.26l-2.4,13C65.05,75.41,65,75.29,64.86,75.15Z" fill="#65ff8e"/><path d="M63.32,70.64a8.93,8.93,0,0,1,.76-4.17Z" fill="#65ff8e"/><path d="M65.22,64.59c.23-.28.47-.54.73-.8l-1.85,10a9.56,9.56,0,0,1-.39-1Z" fill="#65ff8e"/><path d="M68.43,62.08q.31-.15.63-.27l-2.76,15c-.17-.15-.33-.3-.49-.47Z" fill="#65ff8e"/><path d="M69.9,61.54l.6-.14-3,16.27L67,77.32Z" fill="#65ff8e"/><path d="M71.32,61.28l.58,0L68.76,78.31l-.54-.25Z" fill="#65ff8e"/><path d="M72.69,61.26l.57.06L70.05,78.73l-.55-.16Z" fill="#65ff8e"/><path d="M74,61.45l.56.13L71.38,79l-.57-.08Z" fill="#65ff8e"/><path d="M75.33,61.83l.45.19L72.65,79l-.48,0Z" fill="#65ff8e"/><path d="M76.5,62.38c.18.1.36.2.53.31l-3,16.1-.6.1Z" fill="#65ff8e"/><path d="M77.72,63.2c.18.14.34.28.5.43l-2.71,14.7a6.56,6.56,0,0,1-.62.23Z" fill="#65ff8e"/><path d="M78.89,64.32c.16.19.32.4.47.61L77,77.53c-.21.14-.43.28-.65.4Z" fill="#65ff8e"/><path d="M80,65.89c.16.29.29.59.42.89l-1.74,9.39a9,9,0,0,1-.7.68Z" fill="#65ff8e"/><path d="M80.88,68.42a8.79,8.79,0,0,1,.13,2.4l-.33,1.8a9.13,9.13,0,0,1-1,2.19Z" fill="#65ff8e"/><path d="M24.63,19.36a.81.81,0,0,1,0-.16L29,14.84h.16l.25,0L24.64,19.6C24.64,19.52,24.63,19.44,24.63,19.36Z" fill="#c2ff9d"/><path d="M25.28,17a4.57,4.57,0,0,1,1.53-1.53Z" fill="#c2ff9d"/><path d="M27.83,15l.54-.12L24.7,18.57a4.54,4.54,0,0,1,.12-.53Z" fill="#c2ff9d"/><path d="M29.9,14.9l.34.07-5.47,5.48c0-.11-.05-.23-.07-.34Z" fill="#c2ff9d"/><path d="M30.67,15.1l.3.12-6,6c0-.1-.08-.2-.11-.3Z" fill="#c2ff9d"/><path d="M31.34,15.4l.26.16-6.25,6.25-.15-.26Z" fill="#c2ff9d"/><path d="M31.93,15.79l.22.19-6.38,6.38-.18-.23Z" fill="#c2ff9d"/><path d="M32.44,16.26l.19.21-6.36,6.37-.22-.2Z" fill="#c2ff9d"/><path d="M32.87,16.79A2.39,2.39,0,0,1,33,17l-6.2,6.21-.21-.13Z" fill="#c2ff9d"/><path d="M33.2,17.36l.13.28-5.89,5.9-.28-.13Z" fill="#c2ff9d"/><path d="M33.48,18.06a3.18,3.18,0,0,1,.08.33l-5.38,5.38-.33-.08Z" fill="#c2ff9d"/><path d="M33.64,18.87c0,.12,0,.25,0,.38l-4.62,4.62-.39,0Z" fill="#c2ff9d"/><path d="M33.64,19.84a2.78,2.78,0,0,1-.08.49l-3.44,3.44-.49.08Z" fill="#c2ff9d"/><path d="M33.29,21.16a4.65,4.65,0,0,1-.63,1.05l-.66.65A4.34,4.34,0,0,1,31,23.5Z" fill="#c2ff9d"/><path d="M16.17,5.54V5.36l5-5h.17l.29,0L16.18,5.83A2.81,2.81,0,0,1,16.17,5.54Z" fill="#08ff15"/><path d="M16.92,2.87a5.11,5.11,0,0,1,1.74-1.75Z" fill="#08ff15"/><path d="M19.83.6a4.18,4.18,0,0,1,.61-.15l-4.19,4.2A3.88,3.88,0,0,1,16.39,4Z" fill="#08ff15"/><path d="M22.2.45l.39.08L16.32,6.79c0-.13-.06-.26-.08-.39Z" fill="#08ff15"/><path d="M23.08.68l.34.13L16.6,7.62c0-.11-.09-.22-.13-.34Z" fill="#08ff15"/><path d="M23.84,1l.3.18L17,8.34a2.75,2.75,0,0,1-.17-.29Z" fill="#08ff15"/><path d="M24.51,1.47l.26.21L17.48,9c-.08-.08-.15-.17-.22-.25Z" fill="#08ff15"/><path d="M25.09,2l.23.24L18,9.52l-.25-.22Z" fill="#08ff15"/><path d="M25.59,2.61l.15.24L18.64,10,18.4,9.8Z" fill="#08ff15"/><path d="M26,3.26l.15.32-6.74,6.74-.32-.14Z" fill="#08ff15"/><path d="M26.29,4.06l.09.37-6.15,6.16-.38-.1Z" fill="#08ff15"/><path d="M26.47,5a3.4,3.4,0,0,1,0,.45L21.22,10.7l-.44,0Z" fill="#08ff15"/><path d="M26.47,6.09a5,5,0,0,1-.09.56l-3.93,3.94a5.43,5.43,0,0,1-.56.09Z" fill="#08ff15"/><path d="M26.07,7.6a5,5,0,0,1-.72,1.2l-.76.75a4.88,4.88,0,0,1-1.2.73Z" fill="#08ff15"/><path d="M24.79,8c0-.09,0-.18,0-.27L32.52.06l.28,0,.44,0L24.82,8.49C24.81,8.34,24.79,8.19,24.79,8Z" fill="#009976"/><path d="M26,3.91a8,8,0,0,1,2.7-2.71Z" fill="#009976"/><path d="M30.47.39a9.21,9.21,0,0,1,.94-.22L24.92,6.66a9.21,9.21,0,0,1,.22-.94Z" fill="#009976"/><path d="M34.13.16l.6.13L25,10c-.05-.2-.09-.4-.13-.6Z" fill="#009976"/><path d="M35.5.52l.52.2L25.47,11.27c-.07-.17-.14-.35-.2-.53Z" fill="#009976"/><path d="M36.68,1.05a4.92,4.92,0,0,1,.45.28L26.08,12.38c-.1-.15-.19-.3-.28-.45Z" fill="#009976"/><path d="M37.71,1.74l.4.33L26.82,13.36l-.33-.4Z" fill="#009976"/><path d="M38.61,2.56c.12.12.24.25.35.38L27.69,14.21l-.38-.35Z" fill="#009976"/><path d="M39.38,3.51c.09.12.16.24.24.37l-11,11c-.12-.08-.25-.15-.37-.24Z" fill="#009976"/><path d="M40,4.52c.08.16.16.33.23.5L29.77,15.45l-.5-.23Z" fill="#009976"/><path d="M40.46,5.75a5.47,5.47,0,0,1,.15.58l-9.53,9.53c-.2,0-.39-.09-.58-.15Z" fill="#009976"/><path d="M40.75,7.18c0,.23,0,.46,0,.69L32.62,16l-.69,0Z" fill="#009976"/><path d="M40.75,8.9a8.74,8.74,0,0,1-.14.87l-6.09,6.09a8.74,8.74,0,0,1-.87.14Z" fill="#009976"/><path d="M40.13,11.23A7.93,7.93,0,0,1,39,13.09l-1.17,1.16A7.78,7.78,0,0,1,36,15.38Z" fill="#009976"/><path d="M1.46,3.63s0-.08,0-.12L4.76.21h.31L1.47,3.81C1.47,3.75,1.46,3.69,1.46,3.63Z" fill="#bbff65"/><path d="M2,1.86A3.45,3.45,0,0,1,3.11.7Z" fill="#bbff65"/><path d="M3.88.36l.41-.1L1.52,3a2.88,2.88,0,0,1,.09-.4Z" fill="#bbff65"/><path d="M5.45.26l.25,0L1.57,4.45,1.51,4.2Z" fill="#bbff65"/><path d="M6,.41,6.25.5,1.75,5l-.09-.22Z" fill="#bbff65"/><path d="M6.54.64l.19.12L2,5.48l-.12-.2Z" fill="#bbff65"/><path d="M7,.93l.17.15L2.33,5.89a1.15,1.15,0,0,1-.14-.17Z" fill="#bbff65"/><path d="M7.36,1.28l.15.17L2.7,6.26l-.16-.15Z" fill="#bbff65"/><path d="M7.69,1.69a.86.86,0,0,1,.1.16L3.1,6.54l-.16-.1Z" fill="#bbff65"/><path d="M7.94,2.12a2,2,0,0,1,.1.21L3.58,6.79l-.21-.1Z" fill="#bbff65"/><path d="M8.15,2.65l.06.24L4.14,7,3.9,6.9Z" fill="#bbff65"/><path d="M8.27,3.26a2.64,2.64,0,0,1,0,.29L4.8,7,4.51,7Z" fill="#bbff65"/><path d="M8.27,4a2.2,2.2,0,0,1-.06.37L5.61,7A2.2,2.2,0,0,1,5.24,7Z" fill="#bbff65"/><path d="M8,5a3.55,3.55,0,0,1-.48.79l-.5.5a3.7,3.7,0,0,1-.79.48Z" fill="#bbff65"/><path d="M3.62,32.54c0-.07,0-.15,0-.23l6.44-6.43h.23l.36,0-7,7C3.64,32.79,3.62,32.67,3.62,32.54Z" fill="#65ffdc"/><path d="M4.59,29.09a6.66,6.66,0,0,1,2.26-2.25Z" fill="#65ffdc"/><path d="M8.35,26.16A5.32,5.32,0,0,1,9.14,26L3.73,31.39a7,7,0,0,1,.18-.79Z" fill="#65ffdc"/><path d="M11.41,26l.5.11L3.83,34.16c0-.17-.08-.33-.11-.5Z" fill="#65ffdc"/><path d="M12.55,26.27l.43.17L4.19,35.23c-.06-.14-.12-.29-.17-.44Z" fill="#65ffdc"/><path d="M13.54,26.71l.37.23L4.69,36.16c-.08-.12-.15-.25-.23-.38Z" fill="#65ffdc"/><path d="M14.4,27.29l.33.27L5.32,37A3,3,0,0,1,5,36.64Z" fill="#65ffdc"/><path d="M15.15,28l.28.32L6,37.68l-.32-.29Z" fill="#65ffdc"/><path d="M15.79,28.76l.2.31L6.82,38.23,6.51,38Z" fill="#65ffdc"/><path d="M16.28,29.6c.07.14.13.28.19.42l-8.7,8.7-.41-.19Z" fill="#65ffdc"/><path d="M16.69,30.63c0,.16.09.32.12.48l-7.95,8-.48-.13Z" fill="#65ffdc"/><path d="M16.93,31.82a5.49,5.49,0,0,1,0,.58l-6.81,6.81c-.2,0-.39,0-.58,0Z" fill="#65ffdc"/><path d="M16.93,33.25c0,.25-.07.49-.12.73l-5.08,5.08-.72.12Z" fill="#65ffdc"/><path d="M16.41,35.2a6.61,6.61,0,0,1-.94,1.55l-1,1a6.36,6.36,0,0,1-1.54.94Z" fill="#65ffdc"/><path d="M49.29,61.55l.22,0L57,66.76c0,.07,0,.15,0,.22s0,.25,0,.37l-8.11-5.72Z" fill="#65ffdc"/><path d="M52.85,61.92a6.73,6.73,0,0,1,2.61,1.83Z" fill="#65ffdc"/><path d="M56.38,65.12a6.26,6.26,0,0,1,.32.75l-6.26-4.41a7.32,7.32,0,0,1,.81,0Z" fill="#65ffdc"/><path d="M57.09,68.1a4.35,4.35,0,0,1,0,.51L47.73,62c.15-.07.31-.13.48-.19Z" fill="#65ffdc"/><path d="M57,69.27a3.73,3.73,0,0,1-.09.46L46.74,62.57a2.65,2.65,0,0,1,.4-.24Z" fill="#65ffdc"/><path d="M56.72,70.32a2.9,2.9,0,0,1-.16.41L45.9,63.22l.34-.29Z" fill="#65ffdc"/><path d="M56.31,71.27c-.07.12-.14.25-.22.37L45.21,64c.09-.11.18-.22.28-.32Z" fill="#65ffdc"/><path d="M55.76,72.12l-.26.34L44.64,64.81c.07-.12.15-.24.23-.36Z" fill="#65ffdc"/><path d="M55.09,72.89l-.27.25L44.23,65.67c0-.11.09-.22.14-.33Z" fill="#65ffdc"/><path d="M54.34,73.52c-.12.09-.24.18-.37.26L43.91,66.69c0-.15.08-.29.12-.44Z" fill="#65ffdc"/><path d="M53.4,74.09a3.68,3.68,0,0,1-.45.21l-9.19-6.47c0-.17,0-.34,0-.5Z" fill="#65ffdc"/><path d="M52.27,74.54l-.56.13-7.88-5.55a5.51,5.51,0,0,1-.06-.57Z" fill="#65ffdc"/><path d="M50.86,74.78a6.09,6.09,0,0,1-.74,0l-5.87-4.14A7,7,0,0,1,44,70Z" fill="#65ffdc"/><path d="M48.85,74.61a6.85,6.85,0,0,1-1.69-.67L46,73.15a6.76,6.76,0,0,1-1.19-1.36Z" fill="#65ffdc"/><line x1="50.18" y1="12.51" x2="71.94" y2="34.28" fill="#424242"/><path d="M64.29,1.73l.4,0L75.63,12.69c0,.14,0,.27,0,.4s0,.42,0,.62l-12-12C63.88,1.75,64.08,1.73,64.29,1.73Z" fill="#c2ff9d"/><path d="M70.17,3.38A11.35,11.35,0,0,1,74,7.22Z" fill="#c2ff9d"/><path d="M75.16,9.78a12.38,12.38,0,0,1,.31,1.34L66.26,1.91a12.38,12.38,0,0,1,1.34.31Z" fill="#c2ff9d"/><path d="M75.48,15c0,.29-.11.58-.18.86L61.55,2.08c.28-.07.56-.13.85-.18Z" fill="#c2ff9d"/><path d="M75,16.92c-.09.25-.19.5-.29.74l-15-15c.24-.11.49-.2.74-.29Z" fill="#c2ff9d"/><path d="M74.22,18.6c-.12.22-.25.43-.39.64L58.14,3.55c.21-.13.42-.27.64-.39Z" fill="#c2ff9d"/><path d="M73.24,20.07c-.15.19-.3.38-.47.56l-16-16c.19-.16.37-.32.57-.47Z" fill="#c2ff9d"/><path d="M72.08,21.34c-.18.17-.35.34-.54.49l-16-16c.15-.18.32-.36.49-.54Z" fill="#c2ff9d"/><path d="M70.73,22.44c-.17.12-.34.22-.52.33L54.61,7.17l.33-.52Z" fill="#c2ff9d"/><path d="M69.3,23.27c-.23.12-.47.23-.71.33L53.78,8.79c.1-.24.22-.47.33-.71Z" fill="#c2ff9d"/><path d="M67.55,24c-.27.08-.54.15-.82.21L53.2,10.65c.07-.28.14-.55.22-.82Z" fill="#c2ff9d"/><path d="M65.52,24.38c-.32,0-.64.05-1,.05L53,12.84c0-.33,0-.66.06-1Z" fill="#c2ff9d"/><path d="M63.08,24.38c-.41,0-.83-.12-1.23-.2l-8.64-8.65A12.13,12.13,0,0,1,53,14.3Z" fill="#c2ff9d"/><path d="M59.77,23.5a11.08,11.08,0,0,1-2.64-1.6l-1.65-1.65a11.08,11.08,0,0,1-1.6-2.64Z" fill="#c2ff9d"/><path d="M17.52,77l-.35.15L3.06,72.5c-.06-.11-.13-.21-.19-.33s-.16-.36-.24-.55l15.41,5C17.87,76.75,17.7,76.86,17.52,77Z" fill="#c2ff9d"/><path d="M11.78,78.09a11.06,11.06,0,0,1-4.95-1.61Z" fill="#c2ff9d"/><path d="M4.73,74.78a10.54,10.54,0,0,1-.85-1l11.88,3.88a9.54,9.54,0,0,1-1.28.31Z" fill="#c2ff9d"/><path d="M2.19,70.48q-.12-.41-.21-.81l17.74,5.78c-.21.19-.43.36-.66.53Z" fill="#c2ff9d"/><path d="M1.79,68.6c0-.25-.06-.5-.08-.76L21,74.13c-.16.2-.34.39-.51.57Z" fill="#c2ff9d"/><path d="M1.7,66.83c0-.24,0-.48.06-.71L22,72.71c-.12.21-.24.42-.38.62Z" fill="#c2ff9d"/><path d="M1.9,65.16c.05-.23.1-.46.16-.69l20.65,6.74c-.08.22-.17.43-.27.65Z" fill="#c2ff9d"/><path d="M2.34,63.56c.08-.22.16-.44.25-.65l20.62,6.72c-.05.23-.12.45-.19.68Z" fill="#c2ff9d"/><path d="M3,62l.31-.51,20.11,6.55c0,.2,0,.4-.05.6Z" fill="#c2ff9d"/><path d="M3.88,60.7c.15-.19.3-.39.46-.58l19.1,6.23c0,.24,0,.49,0,.74Z" fill="#c2ff9d"/><path d="M5.07,59.35l.61-.54L23.12,64.5c.07.27.13.53.18.8Z" fill="#c2ff9d"/><path d="M6.63,58.12c.26-.17.53-.32.81-.47l15,4.87c.14.29.27.57.38.86Z" fill="#c2ff9d"/><path d="M8.71,57.06a9.56,9.56,0,0,1,1.15-.36L21,60.33a11.5,11.5,0,0,1,.71,1Z" fill="#c2ff9d"/><path d="M11.93,56.37a10.82,10.82,0,0,1,3,.22l2.13.7a10.9,10.9,0,0,1,2.51,1.55Z" fill="#c2ff9d"/><path d="M49,43.79c.1.09.18.2.27.29V59.56a3.71,3.71,0,0,1-.27.29c-.15.15-.31.28-.46.42V43.37C48.71,43.51,48.87,43.64,49,43.79Z" fill="#c2ff9d"/><path d="M52,49.11a11.33,11.33,0,0,1,0,5.43Z" fill="#c2ff9d"/><path d="M51,57.17a10.32,10.32,0,0,1-.73,1.17v-13A9.5,9.5,0,0,1,51,46.48Z" fill="#c2ff9d"/><path d="M47.56,61.07c-.24.17-.48.33-.73.48V42.09c.25.15.49.31.73.48Z" fill="#c2ff9d"/><path d="M45.84,62.08c-.25.12-.49.23-.73.32V41.24l.73.32Z" fill="#c2ff9d"/><path d="M44.11,62.74c-.24.07-.48.13-.73.18V40.73c.25.05.49.1.73.17Z" fill="#c2ff9d"/><path d="M42.38,63.08l-.73.07V40.5c.25,0,.49,0,.73.06Z" fill="#c2ff9d"/><path d="M40.66,63.16c-.24,0-.49,0-.73,0V40.51c.24,0,.49,0,.73,0Z" fill="#c2ff9d"/><path d="M38.93,63l-.61-.14V40.79c.21,0,.41-.1.61-.13Z" fill="#c2ff9d"/><path d="M37.33,62.56c-.25-.08-.49-.17-.73-.27V41.35c.24-.1.48-.19.73-.27Z" fill="#c2ff9d"/><path d="M35.6,61.82l-.73-.43V42.26c.24-.16.49-.3.73-.43Z" fill="#c2ff9d"/><path d="M33.88,60.67a8.93,8.93,0,0,1-.73-.65V43.62a8.93,8.93,0,0,1,.73-.65Z" fill="#c2ff9d"/><path d="M32.15,59c-.26-.33-.5-.67-.73-1V45.71c.23-.35.47-.69.73-1Z" fill="#c2ff9d"/><path d="M30.43,56a11.25,11.25,0,0,1-.73-3V50.65a11.18,11.18,0,0,1,.73-3Z" fill="#c2ff9d"/><path d="M55.39,31.46l.27-.11L66.22,35.3a2,2,0,0,1,.13.25,3.2,3.2,0,0,1,.17.43L55,31.67C55.12,31.6,55.25,31.52,55.39,31.46Z" fill="#65ff8e"/><path d="M59.78,30.78a8.29,8.29,0,0,1,3.71,1.38Z" fill="#65ff8e"/><path d="M65,33.51a8,8,0,0,1,.61.8L56.75,31c.32-.08.65-.15,1-.2Z" fill="#65ff8e"/><path d="M66.81,36.86a4.61,4.61,0,0,1,.14.62l-13.28-5c.17-.13.34-.26.52-.38Z" fill="#65ff8e"/><path d="M67.06,38.3c0,.19,0,.38,0,.58l-14.45-5.4.41-.42Z" fill="#65ff8e"/><path d="M67.07,39.64a5,5,0,0,1-.06.54L51.86,34.53a5.09,5.09,0,0,1,.31-.45Z" fill="#65ff8e"/><path d="M66.87,40.91c0,.17-.09.34-.14.51L51.26,35.65c.08-.17.15-.33.23-.48Z" fill="#65ff8e"/><path d="M66.48,42.1a4.25,4.25,0,0,1-.21.49L50.84,36.83a5,5,0,0,1,.16-.51Z" fill="#65ff8e"/><path d="M65.92,43.24l-.25.38L50.62,38c0-.15,0-.31.06-.45Z" fill="#65ff8e"/><path d="M65.22,44.22a5.2,5.2,0,0,1-.37.43L50.56,39.32c0-.19,0-.38,0-.57Z" fill="#65ff8e"/><path d="M64.27,45.21a4.54,4.54,0,0,1-.48.39l-13-4.87c-.05-.21-.08-.41-.11-.61Z" fill="#65ff8e"/><path d="M63.05,46.1a6.25,6.25,0,0,1-.63.33L51.23,42.25a6,6,0,0,1-.26-.66Z" fill="#65ff8e"/><path d="M61.44,46.84c-.29.1-.59.17-.88.24L52.22,44a5.6,5.6,0,0,1-.51-.76Z" fill="#65ff8e"/><path d="M59,47.26A8.41,8.41,0,0,1,56.74,47l-1.59-.59a8.35,8.35,0,0,1-1.86-1.26Z" fill="#65ff8e"/><path d="M54.57,21.87h.16l4.36,4.35c0,.06,0,.11,0,.16a2.11,2.11,0,0,1,0,.25l-4.76-4.76Z" fill="#c2ff9d"/><path d="M56.91,22.52a4.57,4.57,0,0,1,1.53,1.53Z" fill="#c2ff9d"/><path d="M58.9,25.07a5.23,5.23,0,0,1,.12.54l-3.66-3.67a4.54,4.54,0,0,1,.53.12Z" fill="#c2ff9d"/><path d="M59,27.14c0,.12-.05.23-.07.34L53.48,22l.34-.07Z" fill="#c2ff9d"/><path d="M58.83,27.91l-.12.3-6-6,.3-.11Z" fill="#c2ff9d"/><path d="M58.53,28.58l-.16.26-6.25-6.25.26-.15Z" fill="#c2ff9d"/><path d="M58.14,29.17l-.19.22L51.57,23l.23-.18Z" fill="#c2ff9d"/><path d="M57.67,29.68l-.21.19-6.37-6.36a2.09,2.09,0,0,1,.2-.22Z" fill="#c2ff9d"/><path d="M57.14,30.11l-.21.13L50.72,24a1.07,1.07,0,0,1,.13-.21Z" fill="#c2ff9d"/><path d="M56.57,30.44l-.28.13-5.9-5.89a2.39,2.39,0,0,1,.13-.28Z" fill="#c2ff9d"/><path d="M55.87,30.72l-.33.08-5.38-5.38c0-.11.05-.22.08-.33Z" fill="#c2ff9d"/><path d="M55.06,30.88c-.12,0-.25,0-.39,0l-4.61-4.62c0-.13,0-.26,0-.39Z" fill="#c2ff9d"/><path d="M54.09,30.88a2.78,2.78,0,0,1-.49-.08l-3.44-3.44c0-.16-.06-.32-.08-.49Z" fill="#c2ff9d"/><path d="M52.77,30.53a4.65,4.65,0,0,1-1.05-.63l-.65-.66a4.34,4.34,0,0,1-.64-1Z" fill="#c2ff9d"/><path d="M71.46,42.81h.16L76,47.18v.16a1.93,1.93,0,0,1,0,.24l-4.76-4.75Z" fill="#c2ff9d"/><path d="M73.8,43.47A4.57,4.57,0,0,1,75.33,45Z" fill="#c2ff9d"/><path d="M75.79,46a4.54,4.54,0,0,1,.12.53l-3.67-3.66a4.71,4.71,0,0,1,.54.12Z" fill="#c2ff9d"/><path d="M75.92,48.09c0,.11,0,.23-.08.34L70.37,43l.34-.07Z" fill="#c2ff9d"/><path d="M75.71,48.86c0,.1-.07.2-.11.3l-6-6,.3-.12Z" fill="#c2ff9d"/><path d="M75.41,49.53l-.15.26L69,43.54l.26-.16Z" fill="#c2ff9d"/><path d="M75,50.11l-.18.23L68.46,44l.22-.19Z" fill="#c2ff9d"/><path d="M74.56,50.62l-.21.2L68,44.45l.2-.21Z" fill="#c2ff9d"/><path d="M74,51.06l-.21.13L67.61,45a2.39,2.39,0,0,1,.13-.21Z" fill="#c2ff9d"/><path d="M73.45,51.39l-.28.13-5.89-5.9.13-.28Z" fill="#c2ff9d"/><path d="M72.76,51.67l-.33.08-5.38-5.39c0-.11,0-.21.08-.32Z" fill="#c2ff9d"/><path d="M72,51.83l-.39,0L67,47.23c0-.13,0-.26,0-.38Z" fill="#c2ff9d"/><path d="M71,51.83l-.49-.08-3.44-3.44a4.17,4.17,0,0,1-.08-.49Z" fill="#c2ff9d"/><path d="M69.66,51.48a4.34,4.34,0,0,1-1-.64L68,50.19a4.65,4.65,0,0,1-.63-1Z" fill="#c2ff9d"/><path d="M75.45,16.43h.17l5,5c0,.06,0,.12,0,.18a2.83,2.83,0,0,1,0,.29l-5.44-5.44Z" fill="#08ff15"/><path d="M78.12,17.18a5.42,5.42,0,0,1,1.75,1.75Z" fill="#08ff15"/><path d="M80.39,20.1a4.15,4.15,0,0,1,.14.61l-4.19-4.19a4.15,4.15,0,0,1,.61.14Z" fill="#08ff15"/><path d="M80.54,22.47c0,.13-.05.26-.08.38l-6.27-6.26.39-.08Z" fill="#08ff15"/><path d="M80.31,23.35l-.13.33-6.82-6.81.34-.13Z" fill="#08ff15"/><path d="M80,24.11c0,.1-.11.2-.17.3l-7.15-7.15.3-.17Z" fill="#08ff15"/><path d="M79.52,24.78a2.62,2.62,0,0,1-.22.25L72,17.74l.26-.21Z" fill="#08ff15"/><path d="M79,25.36l-.25.22-7.27-7.27a2.62,2.62,0,0,1,.22-.25Z" fill="#08ff15"/><path d="M78.38,25.86l-.24.15L71,18.91l.15-.24Z" fill="#08ff15"/><path d="M77.72,26.24l-.32.15-6.74-6.74.15-.32Z" fill="#08ff15"/><path d="M76.93,26.55l-.37.1L70.4,20.49l.09-.37Z" fill="#08ff15"/><path d="M76,26.74c-.15,0-.3,0-.45,0l-5.28-5.28c0-.15,0-.3,0-.45Z" fill="#08ff15"/><path d="M74.9,26.74a5.21,5.21,0,0,1-.57-.09L70.4,22.72a5.62,5.62,0,0,1-.09-.57Z" fill="#08ff15"/><path d="M73.39,26.34a4.88,4.88,0,0,1-1.2-.73l-.75-.75a4.59,4.59,0,0,1-.73-1.2Z" fill="#08ff15"/><path d="M37.2,66.94h.18l5,5c0,.06,0,.11,0,.18a2.64,2.64,0,0,1,0,.28L36.91,67Z" fill="#08ff15"/><path d="M39.87,67.69a5.29,5.29,0,0,1,1.75,1.74Z" fill="#08ff15"/><path d="M42.14,70.6a6,6,0,0,1,.15.61L38.09,67a4.15,4.15,0,0,1,.61.14Z" fill="#08ff15"/><path d="M42.29,73c0,.13,0,.26-.08.39L36,67.09l.39-.08Z" fill="#08ff15"/><path d="M42.06,73.85c0,.11-.08.23-.13.34l-6.81-6.81.33-.14Z" fill="#08ff15"/><path d="M41.72,74.62l-.18.29L34.4,67.77a1.75,1.75,0,0,1,.29-.18Z" fill="#08ff15"/><path d="M41.27,75.28l-.21.26-7.29-7.29L34,68Z" fill="#08ff15"/><path d="M40.74,75.86l-.24.23-7.28-7.28a2.62,2.62,0,0,1,.22-.25Z" fill="#08ff15"/><path d="M40.13,76.36l-.24.15-7.1-7.1.15-.24Z" fill="#08ff15"/><path d="M39.48,76.74l-.33.15-6.74-6.74.15-.32Z" fill="#08ff15"/><path d="M38.68,77.06l-.37.09L32.15,71c0-.13.06-.25.1-.38Z" fill="#08ff15"/><path d="M37.76,77.24a3.4,3.4,0,0,1-.45,0L32,72c0-.15,0-.3,0-.44Z" fill="#08ff15"/><path d="M36.65,77.24a5.62,5.62,0,0,1-.57-.09l-3.93-3.93a5.43,5.43,0,0,1-.09-.56Z" fill="#08ff15"/><path d="M35.14,76.85a5.2,5.2,0,0,1-1.2-.73l-.75-.76a5,5,0,0,1-.73-1.19Z" fill="#08ff15"/><path d="M80.74,31.24a2.7,2.7,0,0,1,0,.28L75,40.77l-.27.08-.43.08,6.29-10.11C80.65,31,80.7,31.1,80.74,31.24Z" fill="#009976"/><path d="M80.54,35.54a7.9,7.9,0,0,1-2,3.24Z" fill="#009976"/><path d="M76.94,40a6.35,6.35,0,0,1-.87.42l4.85-7.79a7.87,7.87,0,0,1,0,1Z" fill="#009976"/><path d="M73.43,41h-.62l7.25-11.64c.09.18.18.37.26.56Z" fill="#009976"/><path d="M72,41l-.56-.08,7.88-12.66.32.46Z" fill="#009976"/><path d="M70.74,40.75l-.5-.17L78.5,27.31c.13.12.25.25.37.38Z" fill="#009976"/><path d="M69.58,40.31l-.46-.23,8.44-13.55.41.31Z" fill="#009976"/><path d="M68.52,39.72c-.14-.1-.29-.19-.42-.3L76.52,25.9l.45.25Z" fill="#009976"/><path d="M67.55,39l-.31-.31,8.21-13.19.42.14Z" fill="#009976"/><path d="M66.75,38.12l-.33-.43,7.79-12.53.54.11Z" fill="#009976"/><path d="M66,37c-.1-.17-.19-.35-.28-.53l7.12-11.44h.6Z" fill="#009976"/><path d="M65.39,35.7A6.36,6.36,0,0,1,65.2,35l6.1-9.81.68-.12Z" fill="#009976"/><path d="M65,34c0-.3,0-.59-.06-.88l4.55-7.31a8.33,8.33,0,0,1,.82-.34Z" fill="#009976"/><path d="M65.07,31.61a7.79,7.79,0,0,1,.68-2.06l.87-1.4a8,8,0,0,1,1.55-1.52Z" fill="#009976"/><path d="M59.76,47.75H60l7.71,7.71c0,.09,0,.19,0,.28s0,.29,0,.44l-8.42-8.42Z" fill="#009976"/><path d="M63.9,48.91a8,8,0,0,1,2.7,2.7Z" fill="#009976"/><path d="M67.42,53.42a9.4,9.4,0,0,1,.22.95l-6.49-6.5a9.21,9.21,0,0,1,.94.22Z" fill="#009976"/><path d="M67.65,57.08c0,.21-.08.41-.13.61L57.83,48a5.31,5.31,0,0,1,.6-.12Z" fill="#009976"/><path d="M67.29,58.45c-.06.17-.13.35-.2.52L56.54,48.43c.17-.08.35-.14.52-.21Z" fill="#009976"/><path d="M66.76,59.63c-.09.16-.18.31-.28.46L55.43,49a3.35,3.35,0,0,1,.45-.27Z" fill="#009976"/><path d="M66.07,60.67l-.33.39L54.45,49.78l.4-.34Z" fill="#009976"/><path d="M65.25,61.56l-.38.35L53.6,50.64c.11-.13.23-.25.35-.38Z" fill="#009976"/><path d="M64.3,62.34l-.37.23-11-11c.08-.12.15-.25.24-.37Z" fill="#009976"/><path d="M63.29,62.92l-.5.23L52.36,52.72c.07-.17.15-.33.23-.5Z" fill="#009976"/><path d="M62.06,63.41a5.47,5.47,0,0,1-.58.15L52,54c0-.19.09-.39.15-.58Z" fill="#009976"/><path d="M60.63,63.7a5.32,5.32,0,0,1-.69,0l-8.17-8.17c0-.23,0-.46,0-.69Z" fill="#009976"/><path d="M58.91,63.7a8.74,8.74,0,0,1-.87-.14L52,57.47a7.9,7.9,0,0,1-.14-.87Z" fill="#009976"/><path d="M56.57,63.09A8.49,8.49,0,0,1,54.72,62l-1.17-1.17a8.08,8.08,0,0,1-1.12-1.85Z" fill="#009976"/><path d="M23,36.61l.25,0,7.15,7.14c0,.09,0,.17,0,.26s0,.27,0,.41l-7.8-7.81Z" fill="#009976"/><path d="M26.87,37.69a7.35,7.35,0,0,1,2.51,2.51Z" fill="#009976"/><path d="M30.13,41.87a8.67,8.67,0,0,1,.21.88l-6-6a8.63,8.63,0,0,1,.88.2Z" fill="#009976"/><path d="M30.34,45.27c0,.19-.07.37-.11.55l-9-9,.56-.12Z" fill="#009976"/><path d="M30,46.53c-.06.16-.12.33-.19.49l-9.77-9.78.49-.19Z" fill="#009976"/><path d="M29.52,47.63c-.08.14-.17.28-.26.42L19,37.8a4.23,4.23,0,0,1,.42-.25Z" fill="#009976"/><path d="M28.88,48.59l-.31.36L18.11,38.49l.37-.3Z" fill="#009976"/><path d="M28.12,49.42l-.35.32L17.33,39.3c.1-.12.21-.24.32-.35Z" fill="#009976"/><path d="M27.24,50.14l-.34.21L16.71,40.17l.22-.35Z" fill="#009976"/><path d="M26.31,50.68c-.16.07-.31.15-.47.21l-9.67-9.67c.07-.15.14-.31.22-.46Z" fill="#009976"/><path d="M25.16,51.13a4.58,4.58,0,0,1-.53.14L15.8,42.44c0-.18.08-.36.13-.54Z" fill="#009976"/><path d="M23.84,51.4l-.64,0-7.57-7.58a4.44,4.44,0,0,1,0-.63Z" fill="#009976"/><path d="M22.25,51.4a7.19,7.19,0,0,1-.81-.13L15.8,45.63a7.62,7.62,0,0,1-.14-.81Z" fill="#009976"/><path d="M20.08,50.83a7.21,7.21,0,0,1-1.72-1l-1.08-1.07a7.51,7.51,0,0,1-1-1.72Z" fill="#009976"/><path d="M77.36,1.73h.12L80.77,5s0,.08,0,.12,0,.12,0,.18l-3.6-3.59Z" fill="#bbff65"/><path d="M79.13,2.23a3.33,3.33,0,0,1,1.15,1.15Z" fill="#bbff65"/><path d="M80.63,4.15a2.71,2.71,0,0,1,.09.41L78,1.78l.41.1Z" fill="#bbff65"/><path d="M80.73,5.72,80.67,6,76.53,1.83l.26-.05Z" fill="#bbff65"/><path d="M80.57,6.3a2,2,0,0,1-.08.22L76,2l.22-.09Z" fill="#bbff65"/><path d="M80.35,6.8l-.12.2L75.51,2.28l.19-.12Z" fill="#bbff65"/><path d="M80.05,7.24a1.15,1.15,0,0,1-.14.17L75.09,2.6l.17-.15Z" fill="#bbff65"/><path d="M79.7,7.63l-.16.15L74.73,3l.15-.17Z" fill="#bbff65"/><path d="M79.3,8l-.16.1L74.45,3.37a.86.86,0,0,1,.1-.16Z" fill="#bbff65"/><path d="M78.87,8.21l-.22.1L74.2,3.85a2,2,0,0,1,.1-.21Z" fill="#bbff65"/><path d="M78.34,8.42l-.25.06L74,4.41a2.1,2.1,0,0,1,.06-.24Z" fill="#bbff65"/><path d="M77.73,8.54l-.29,0L74,5.07a2.64,2.64,0,0,1,0-.29Z" fill="#bbff65"/><path d="M77,8.54a2.2,2.2,0,0,1-.37-.06L74,5.88c0-.12,0-.24-.07-.37Z" fill="#bbff65"/><path d="M76,8.28a3.7,3.7,0,0,1-.79-.48l-.5-.5a3.55,3.55,0,0,1-.48-.79Z" fill="#bbff65"/><path d="M6.05,40.93h.12l3.29,3.3a.49.49,0,0,1,0,.12c0,.06,0,.12,0,.18L5.87,40.94Z" fill="#bbff65"/><path d="M7.82,41.42A3.45,3.45,0,0,1,9,42.58Z" fill="#bbff65"/><path d="M9.32,43.35c0,.13.07.27.1.4L6.64,41l.41.1Z" fill="#bbff65"/><path d="M9.42,44.92a2.27,2.27,0,0,1-.06.25L5.23,41,5.48,41Z" fill="#bbff65"/><path d="M9.27,45.5l-.09.22-4.5-4.5.22-.09Z" fill="#bbff65"/><path d="M9,46l-.12.2L4.2,41.48l.19-.12Z" fill="#bbff65"/><path d="M8.74,46.44a1.15,1.15,0,0,1-.14.17L3.79,41.8,4,41.65Z" fill="#bbff65"/><path d="M8.39,46.83,8.23,47,3.42,42.17,3.57,42Z" fill="#bbff65"/><path d="M8,47.16l-.16.1L3.14,42.57c0-.06.07-.11.1-.16Z" fill="#bbff65"/><path d="M7.56,47.41l-.21.1L2.89,43.05l.1-.21Z" fill="#bbff65"/><path d="M7,47.62l-.24.06L2.72,43.61l.06-.24Z" fill="#bbff65"/><path d="M6.42,47.74l-.29,0L2.64,44.27a2.64,2.64,0,0,1,0-.29Z" fill="#bbff65"/><path d="M5.69,47.74a2.2,2.2,0,0,1-.37-.06l-2.6-2.6a2.2,2.2,0,0,1-.06-.37Z" fill="#bbff65"/><path d="M4.69,47.48A4,4,0,0,1,3.9,47l-.5-.5a4,4,0,0,1-.48-.79Z" fill="#bbff65"/><path d="M26.38,52.67h.12L29.79,56s0,.08,0,.12,0,.12,0,.19l-3.6-3.6Z" fill="#bbff65"/><path d="M28.15,53.17a3.51,3.51,0,0,1,1.15,1.15Z" fill="#bbff65"/><path d="M29.65,55.09a3,3,0,0,1,.09.41L27,52.73a2.59,2.59,0,0,1,.4.09Z" fill="#bbff65"/><path d="M29.74,56.66a2.38,2.38,0,0,1,0,.26l-4.14-4.14.26-.06Z" fill="#bbff65"/><path d="M29.59,57.24a1.43,1.43,0,0,1-.08.22L25,53l.23-.08Z" fill="#bbff65"/><path d="M29.37,57.75l-.12.19-4.72-4.72.19-.12Z" fill="#bbff65"/><path d="M29.07,58.19a2.09,2.09,0,0,1-.14.17l-4.82-4.82.17-.14Z" fill="#bbff65"/><path d="M28.72,58.57l-.16.15-4.81-4.81.15-.16Z" fill="#bbff65"/><path d="M28.32,58.9l-.16.1-4.69-4.69a1.4,1.4,0,0,1,.1-.16Z" fill="#bbff65"/><path d="M27.89,59.15l-.22.1L23.22,54.8a1.47,1.47,0,0,1,.1-.22Z" fill="#bbff65"/><path d="M27.36,59.36a1,1,0,0,1-.25.06L23,55.36a1.82,1.82,0,0,1,.07-.25Z" fill="#bbff65"/><path d="M26.75,59.48a1.46,1.46,0,0,1-.29,0L23,56a2.81,2.81,0,0,1,0-.29Z" fill="#bbff65"/><path d="M26,59.49l-.38-.07-2.59-2.6c0-.12-.05-.24-.07-.37Z" fill="#bbff65"/><path d="M25,59.22a3.34,3.34,0,0,1-.79-.48l-.5-.5a3,3,0,0,1-.48-.79Z" fill="#bbff65"/><path d="M29.52,59.74h.12L32.93,63v.12a1.09,1.09,0,0,1,0,.18l-3.59-3.59Z" fill="#bbff65"/><path d="M31.28,60.24a3.36,3.36,0,0,1,1.16,1.15Z" fill="#bbff65"/><path d="M32.79,62.16a2.88,2.88,0,0,1,.09.4l-2.77-2.77.4.1Z" fill="#bbff65"/><path d="M32.88,63.73a2.21,2.21,0,0,1-.05.25l-4.14-4.14.26-.05Z" fill="#bbff65"/><path d="M32.73,64.31a2,2,0,0,1-.09.22L28.14,60l.23-.09Z" fill="#bbff65"/><path d="M32.5,64.81a2,2,0,0,1-.11.2l-4.72-4.72.19-.12Z" fill="#bbff65"/><path d="M32.21,65.25c-.05.06-.09.12-.14.17l-4.82-4.81.17-.15Z" fill="#bbff65"/><path d="M31.86,65.64l-.16.15L26.89,61a2.09,2.09,0,0,1,.14-.17Z" fill="#bbff65"/><path d="M31.45,66l-.15.1-4.7-4.69.1-.16Z" fill="#bbff65"/><path d="M31,66.22l-.21.1-4.45-4.46.09-.21Z" fill="#bbff65"/><path d="M30.5,66.43l-.25.06-4.07-4.07a2.17,2.17,0,0,1,.07-.24Z" fill="#bbff65"/><path d="M29.89,66.55l-.3,0L26.1,63.08c0-.1,0-.2,0-.29Z" fill="#bbff65"/><path d="M29.15,66.55a2.38,2.38,0,0,1-.37-.06l-2.6-2.6c0-.12-.05-.24-.06-.37Z" fill="#bbff65"/><path d="M28.16,66.29a3.77,3.77,0,0,1-.8-.48l-.49-.5a3.59,3.59,0,0,1-.49-.79Z" fill="#bbff65"/><path d="M46.14,9.58l.23,0L52.8,16c0,.07,0,.15,0,.23s0,.24,0,.36l-7-7Z" fill="#65ffdc"/><path d="M49.59,10.55a6.75,6.75,0,0,1,2.25,2.26Z" fill="#65ffdc"/><path d="M52.52,14.31a7.55,7.55,0,0,1,.19.79L47.29,9.69c.27.05.53.11.79.18Z" fill="#65ffdc"/><path d="M52.71,17.37c0,.17-.06.34-.1.5L44.52,9.79,45,9.68Z" fill="#65ffdc"/><path d="M52.41,18.51a3.83,3.83,0,0,1-.17.43l-8.79-8.79.44-.17Z" fill="#65ffdc"/><path d="M52,19.5c-.07.13-.15.25-.23.37l-9.22-9.21.38-.23Z" fill="#65ffdc"/><path d="M51.4,20.36l-.28.33-9.41-9.41L42,11Z" fill="#65ffdc"/><path d="M50.71,21.11l-.32.29L41,12c.09-.11.19-.21.29-.32Z" fill="#65ffdc"/><path d="M49.92,21.75l-.31.2-9.16-9.17.2-.31Z" fill="#65ffdc"/><path d="M49.08,22.24l-.42.19L40,13.73c.06-.14.13-.28.2-.41Z" fill="#65ffdc"/><path d="M48.05,22.65a4.21,4.21,0,0,1-.48.12l-8-7.94c0-.17.08-.33.13-.49Z" fill="#65ffdc"/><path d="M46.86,22.89a5.44,5.44,0,0,1-.57,0l-6.82-6.81c0-.19,0-.39,0-.57Z" fill="#65ffdc"/><path d="M45.43,22.89a5.85,5.85,0,0,1-.73-.12l-5.07-5.08A5.71,5.71,0,0,1,39.5,17Z" fill="#65ffdc"/><path d="M43.48,22.38a7,7,0,0,1-1.55-.95l-1-1A6.36,6.36,0,0,1,40,18.92Z" fill="#65ffdc"/><path d="M42.91,30h.17L48,34.84c0,.06,0,.12,0,.18s0,.18,0,.28L42.63,30Z" fill="#65ffdc"/><path d="M45.53,30.69a5.15,5.15,0,0,1,1.7,1.71Z" fill="#65ffdc"/><path d="M47.75,33.55a5.63,5.63,0,0,1,.14.59L43.78,30a3.75,3.75,0,0,1,.6.14Z" fill="#65ffdc"/><path d="M47.89,35.86a2.33,2.33,0,0,1-.08.38l-6.13-6.13.38-.08Z" fill="#65ffdc"/><path d="M47.67,36.72a3.42,3.42,0,0,1-.13.34l-6.67-6.67.33-.13Z" fill="#65ffdc"/><path d="M47.33,37.48l-.17.28-7-7a2.61,2.61,0,0,1,.28-.17Z" fill="#65ffdc"/><path d="M46.9,38.13l-.21.25-7.14-7.14L39.8,31Z" fill="#65ffdc"/><path d="M46.38,38.7l-.24.21L39,31.79l.22-.24Z" fill="#65ffdc"/><path d="M45.78,39.18c-.08.06-.16.1-.24.15l-6.95-6.95.15-.23Z" fill="#65ffdc"/><path d="M45.14,39.56l-.32.14-6.59-6.6c0-.1.09-.21.14-.31Z" fill="#65ffdc"/><path d="M44.36,39.86,44,40l-6-6,.09-.36Z" fill="#65ffdc"/><path d="M43.46,40.05l-.44,0-5.17-5.16c0-.15,0-.3,0-.44Z" fill="#65ffdc"/><path d="M42.37,40.05a4.85,4.85,0,0,1-.55-.09L38,36.11a5.25,5.25,0,0,1-.09-.55Z" fill="#65ffdc"/><path d="M40.89,39.66a5.19,5.19,0,0,1-1.17-.72L39,38.21A4.87,4.87,0,0,1,38.27,37Z" fill="#65ffdc"/><path d="M14.72,45.77h.18l4.87,4.88a1,1,0,0,1,0,.17c0,.1,0,.19,0,.28l-5.33-5.32Z" fill="#65ffdc"/><path d="M17.34,46.51a5.09,5.09,0,0,1,1.71,1.71Z" fill="#65ffdc"/><path d="M19.56,49.36a3.75,3.75,0,0,1,.14.6l-4.1-4.11c.2,0,.4.08.6.14Z" fill="#65ffdc"/><path d="M19.71,51.68c0,.13-.05.25-.08.38L13.5,45.93l.38-.08Z" fill="#65ffdc"/><path d="M19.48,52.54c0,.11-.08.22-.13.33L12.69,46.2l.33-.13Z" fill="#65ffdc"/><path d="M19.14,53.29c-.05.1-.11.19-.17.29l-7-7,.29-.17Z" fill="#65ffdc"/><path d="M18.71,53.94l-.21.25-7.14-7.13a2.32,2.32,0,0,1,.25-.21Z" fill="#65ffdc"/><path d="M18.19,54.51l-.24.22-7.12-7.12.21-.25Z" fill="#65ffdc"/><path d="M17.59,55l-.23.15L10.41,48.2c.05-.08.09-.16.15-.24Z" fill="#65ffdc"/><path d="M17,55.37l-.31.15L10,48.92a2.3,2.3,0,0,1,.15-.32Z" fill="#65ffdc"/><path d="M16.17,55.68l-.36.09-6-6c0-.13.06-.25.1-.37Z" fill="#65ffdc"/><path d="M15.27,55.86c-.14,0-.29,0-.43,0L9.67,50.72c0-.15,0-.29,0-.43Z" fill="#65ffdc"/><path d="M14.18,55.86a5.25,5.25,0,0,1-.55-.09L9.78,51.92a4.85,4.85,0,0,1-.09-.55Z" fill="#65ffdc"/><path d="M12.71,55.47a4.87,4.87,0,0,1-1.18-.71L10.8,54a5.19,5.19,0,0,1-.72-1.17Z" fill="#65ffdc"/></g></g></svg>