<svg xmlns="http://www.w3.org/2000/svg" viewBox="0 0 19.52 20.23"><title>arvores_1</title><g id="Layer_2" data-name="Layer 2"><g id="Layer_27" data-name="Layer 27"><path d="M2.21,14.44,2,14.27a6.89,6.89,0,0,1-.54-.65l-.11-.16L9.11,5.73l.16.11a6,6,0,0,1,.66.55l.17.16ZM2,13.5a2.88,2.88,0,0,0,.22.27L9.43,6.56l-.27-.22Z" fill="#6c9160"/><path d="M2.84,15l-.16-.13A7.12,7.12,0,0,1,2,14.27l-.16-.16L9.76,6.23l.17.16a6,6,0,0,1,.56.64l.12.16Zm-.29-.85.25.22L10,7.15c-.08-.09-.15-.18-.23-.26Z" fill="#6c9160"/><path d="M1.66,13.84l-.16-.22a5.73,5.73,0,0,1-.45-.75L1,12.72l7.39-7.4.15.08a5.47,5.47,0,0,1,.75.44L9.5,6Zm-.11-1a2.38,2.38,0,0,0,.18.3l7-7-.31-.18Z" fill="#6c9160"/><path d="M1.2,13.16l-.15-.29A5.89,5.89,0,0,1,.71,12l0-.13L7.53,5l.14,0a5.46,5.46,0,0,1,.85.35l.29.14ZM1.2,12c0,.11.08.23.13.35L8,5.68l-.36-.14Z" fill="#6c9160"/><path d="M.44,9.33.9,8.22a5.62,5.62,0,0,1,3-3L5,4.78Z" fill="#6c9160"/><path d="M.56,11.5.5,11c0-.23,0-.43,0-.63a5.25,5.25,0,0,1,0-.56V9.75l4.9-4.9h.09a5.19,5.19,0,0,1,1.18,0l.49.05ZM1,10c0,.14,0,.29,0,.43v.07L6.12,5.28a4.35,4.35,0,0,0-.51,0Z" fill="#6c9160"/><path d="M.43,10.48l.06-.65A6.05,6.05,0,0,1,.9,8.22l0-.07,2.93-2.9a5.23,5.23,0,0,1,1.61-.41l.65-.07Zm.89-2a4.34,4.34,0,0,0-.24.72L4.82,5.43a5,5,0,0,0-.72.23Z" fill="#6c9160"/><path d="M.82,12.39.71,12A5.44,5.44,0,0,1,.5,11v-.11L6.56,4.83l.11,0a5.54,5.54,0,0,1,1,.2L8,5.17ZM1,11.08c0,.14.05.27.07.41L7.14,5.4l-.41-.07Z" fill="#6c9160"/><path d="M5.67,16l6-6,0,.6a5.64,5.64,0,0,1-.24,1.45l0,0L7.77,15.69l-.06,0A5.56,5.56,0,0,1,6.27,16Zm5.41-4.75L6.89,15.42a4.13,4.13,0,0,0,.63-.14l3.42-3.42A5.82,5.82,0,0,0,11.08,11.23Z" fill="#6c9160"/><path d="M6.8,16l4.85-4.85-.28.91a5.59,5.59,0,0,1-3.66,3.65Zm3.6-2.94L8.72,14.74A5.09,5.09,0,0,0,10.4,13.06Z" fill="#6c9160"/><path d="M4.32,15.69l-.13,0a4.63,4.63,0,0,1-.84-.37l-.27-.15,7.7-7.69.15.27a5.31,5.31,0,0,1,.37.83l0,.14ZM3.86,15l.34.14,6.61-6.6c-.05-.12-.1-.24-.15-.34Z" fill="#6c9160"/><path d="M3.51,15.36l-.16-.09a6.35,6.35,0,0,1-.67-.44l-.21-.16,7.86-7.86.16.22a5.9,5.9,0,0,1,.44.67l.08.15Zm-.33-.74.25.16,7-7c0-.08-.1-.16-.16-.24Z" fill="#6c9160"/><path d="M6,16a6,6,0,0,1-.9-.08l-.45-.08L11.47,9l.07.45a5,5,0,0,1,.08.91.76.76,0,0,1,0,.15v.17L6.36,16H6Zm-.36-.49a3.92,3.92,0,0,0,.48,0l5-5v-.11c0-.12,0-.24,0-.36Z" fill="#6c9160"/><path d="M5.26,15.91l-.12,0a5.75,5.75,0,0,1-.95-.25l-.36-.12,7.34-7.34.13.35a5.29,5.29,0,0,1,.24,1l0,.12Zm-.56-.6a2.59,2.59,0,0,0,.4.09l6-6L11,9.05Z" fill="#6c9160"/><path d="M5.21,4.93l-.06-.21A3.58,3.58,0,0,1,5,4.07V4L9,0H9a3.58,3.58,0,0,1,.65.14L9.9.24Zm.08-.83c0,.11,0,.22,0,.33L9.4.37,9.08.31Z" fill="#4c7344"/><path d="M5.76,5.89l-.09-.12a4,4,0,0,1-.3-.49l0-.09L10.16.36l.09,0c.17.09.34.19.49.29l.13.09Zm-.11-.65a2.55,2.55,0,0,0,.14.24L10.45.82,10.22.68Z" fill="#4c7344"/><path d="M5.45,5.44l-.08-.16a3.6,3.6,0,0,1-.22-.56l0-.08L9.62.15l.07,0a3.25,3.25,0,0,1,.56.22l.16.08Zm0-.72c0,.09.06.18.1.27L10,.56,9.69.45Z" fill="#4c7344"/><path d="M5.05,4.34l0-.27c0-.15,0-.28,0-.41s0-.25,0-.36v0L8.22,0h0A3.3,3.3,0,0,1,9,0l.28,0Zm.22-1a2.64,2.64,0,0,0,0,.29s0,.06,0,.1L8.73.28a2.55,2.55,0,0,0-.39,0Z" fill="#4c7344"/><path d="M5,2.87l.26-.62A3.72,3.72,0,0,1,7.22.3L7.84,0Z" fill="#4c7344"/><path d="M5,3.66,5,3.3a3.37,3.37,0,0,1,.26-1l0,0L7.22.3a3.37,3.37,0,0,1,1-.26l.37,0Zm.54-1.29a3.65,3.65,0,0,0-.18.56L7.9.36a3.22,3.22,0,0,0-.55.18Z" fill="#4c7344"/><path d="M6.11,6.29,6,6.19a3.71,3.71,0,0,1-.35-.42L5.6,5.68l5.05-5,.09.06a3.73,3.73,0,0,1,.43.36l.09.09ZM6,5.7a1.2,1.2,0,0,0,.17.21l4.76-4.76A1.2,1.2,0,0,0,10.67,1Z" fill="#4c7344"/><path d="M8.63,7.3a4.27,4.27,0,0,1-.59,0l-.25,0,4.39-4.4,0,.26a4.27,4.27,0,0,1,0,.59v.2L8.83,7.29h-.2ZM8.35,7a2.17,2.17,0,0,0,.36,0h0L12,3.74s0-.05,0-.08,0-.19,0-.29Z" fill="#4c7344"/><path d="M6.53,6.63l-.09-.07A3.08,3.08,0,0,1,6,6.19L5.93,6.1,11.07,1l.1.09a3.92,3.92,0,0,1,.36.42l.07.09ZM6.3,6.1l.21.18,4.74-4.75-.18-.2Z" fill="#4c7344"/><path d="M9.2,7.3l3.07-3.07-.16.52A3.62,3.62,0,0,1,9.72,7.13Zm2.39-2L10.26,6.62A3.36,3.36,0,0,0,11.59,5.28Z" fill="#4c7344"/><path d="M8.44,7.31l3.84-3.84,0,.34a3.62,3.62,0,0,1-.15.94l0,0L9.72,7.13a3.19,3.19,0,0,1-.94.16ZM12,4.15,9.12,7a3.88,3.88,0,0,0,.49-.11l2.25-2.25A3.88,3.88,0,0,0,12,4.15Z" fill="#4c7344"/><path d="M8.11,7.26H8a4.34,4.34,0,0,1-.62-.16L7.22,7,12,2.25l.07.2a4.34,4.34,0,0,1,.16.62v.07Zm-.4-.36L8,7,12,3.05a2.81,2.81,0,0,0-.08-.31Z" fill="#4c7344"/><path d="M7,6.9l-.08-.05a2.78,2.78,0,0,1-.44-.29l-.12-.09,5.12-5.13.09.13a3.25,3.25,0,0,1,.29.43l0,.09Zm-.24-.46.2.13L11.54,2l-.13-.2Z" fill="#4c7344"/><path d="M7.5,7.12l-.08,0a3.37,3.37,0,0,1-.54-.24l-.16-.09,5-5,.08.15a4,4,0,0,1,.24.55l0,.07ZM7.16,6.7l.27.11,4.35-4.35a1.69,1.69,0,0,0-.11-.27Z" fill="#4c7344"/><path d="M.51,19.34l-.07-.09a1.92,1.92,0,0,1-.18-.31l0-.06,3-3,.06,0a1.92,1.92,0,0,1,.31.18l.09.07Zm0-.42L.53,19l2.89-2.89-.12-.07Z" fill="#4c7344"/><path d="M.16,18.74l0-.15A2.7,2.7,0,0,1,0,18.18v0l2.49-2.49h0a2.7,2.7,0,0,1,.41.08l.15,0Zm.07-.53a.55.55,0,0,0,0,.17l2.5-2.5-.17,0Z" fill="#4c7344"/><path d="M.73,19.59l-.07-.07a2,2,0,0,1-.22-.27l0-.07L3.56,16l.07,0a2,2,0,0,1,.27.22l.07.07ZM.64,19.2l.09.11,3-3-.11-.09Z" fill="#4c7344"/><path d="M1,19.8l-.07-.05-.26-.23L.6,19.45l3.23-3.23.07.06c.08.08.15.17.23.26l0,.07-.06.06Zm-.12-.35.1.09,3-2.94-.09-.11Z" fill="#4c7344"/><path d="M0,17.49.19,17a2.31,2.31,0,0,1,1.23-1.23l.45-.19Z" fill="#4c7344"/><path d="M0,18l0-.26A2.45,2.45,0,0,1,.19,17l0,0,1.21-1.2a2.47,2.47,0,0,1,.65-.16l.27,0Zm.36-.83a1.4,1.4,0,0,0-.09.29L1.8,15.89a1.4,1.4,0,0,0-.29.09Z" fill="#4c7344"/><path d="M.05,18.38l0-.2a2.11,2.11,0,0,1,0-.26,1.64,1.64,0,0,1,0-.22v0l2-2h0a2,2,0,0,1,.49,0l.2,0Zm.16-.63V18l2.12-2.12h-.2Z" fill="#4c7344"/><path d="M.32,19.06l-.06-.12a2.63,2.63,0,0,1-.15-.35v-.05l2.82-2.82H3a2.63,2.63,0,0,1,.35.15l.12.06Zm0-.47a.78.78,0,0,0,0,.14L3.11,16,3,15.94Z" fill="#4c7344"/><path d="M2.15,20.22,4.6,17.77V18a2.35,2.35,0,0,1-.1.59l0,0L3,20.11a2.28,2.28,0,0,1-.59.1Zm2.22-1.95L2.65,20a1.1,1.1,0,0,0,.26-.06l1.4-1.4A1.1,1.1,0,0,0,4.37,18.27Z" fill="#4c7344"/><path d="M1.26,20l-.06,0-.28-.18-.08-.07,3.22-3.22.07.08a3.23,3.23,0,0,1,.18.28l0,.06Zm-.13-.3.1.06L4.1,16.85,4,16.75Z" fill="#4c7344"/><path d="M2.61,20.23l2-2-.12.37A2.34,2.34,0,0,1,3,20.11ZM4.09,19l-.69.69A2.07,2.07,0,0,0,4.09,19Z" fill="#4c7344"/><path d="M2.3,20.21l-.37,0-.18,0,2.78-2.78,0,.18a2.62,2.62,0,0,1,0,.37v.13L2.43,20.21H2.3ZM2.16,20h.19L4.4,18v0a.71.71,0,0,0,0-.14Z" fill="#4c7344"/><path d="M1.6,20.1l-.06,0a1.75,1.75,0,0,1-.34-.15l-.11-.06,3.16-3.16.06.11a1.75,1.75,0,0,1,.15.34l0,.06Zm-.19-.28.14.06,2.71-2.71L4.2,17Z" fill="#4c7344"/><path d="M2,20.19H1.93a2.79,2.79,0,0,1-.39-.1L1.4,20l3-3,0,.14a2.79,2.79,0,0,1,.1.39v.05Zm-.23-.25.17,0,2.44-2.44a1,1,0,0,0,0-.17Z" fill="#4c7344"/><path d="M9.39,17.57l-.06-.19a3.12,3.12,0,0,1-.11-.53v-.06l3.19-3.19h.06a2.82,2.82,0,0,1,.52.11l.2.06Zm.09-.69,0,.22,3.21-3.2-.22,0Z" fill="#7e9141"/><path d="M9.59,18l-.08-.15q-.11-.24-.18-.45l0-.08,3.61-3.61.07,0a4.22,4.22,0,0,1,.45.18l.16.08Zm0-.61a1.46,1.46,0,0,0,.07.19L13.18,14,13,14Z" fill="#7e9141"/><path d="M9.83,18.34l-.08-.12a3.14,3.14,0,0,1-.24-.39l0-.08,3.89-3.9.08,0a2.65,2.65,0,0,1,.4.24l.12.08Zm-.06-.55.1.17,3.7-3.71a.83.83,0,0,0-.16-.09Z" fill="#7e9141"/><path d="M9.25,17.11l0-.26c0-.11,0-.22,0-.33a2.64,2.64,0,0,1,0-.29v-.05L11.8,13.6h0a3.21,3.21,0,0,1,.62,0l.26,0Zm.21-.81a1.55,1.55,0,0,0,0,.22v0l2.73-2.73h-.27Z" fill="#7e9141"/><path d="M9.19,16l.24-.58A3,3,0,0,1,11,13.81l.58-.24Z" fill="#7e9141"/><path d="M9.18,16.57l0-.34a3.11,3.11,0,0,1,.21-.85l0,0L11,13.81a3,3,0,0,1,.85-.21l.34,0Zm.47-1.07a2.4,2.4,0,0,0-.12.38l2-2a2.4,2.4,0,0,0-.38.12Z" fill="#7e9141"/><path d="M10.12,18.65,10,18.56a3.17,3.17,0,0,1-.28-.34l-.06-.09,4.06-4.06.09.06a2.37,2.37,0,0,1,.34.29l.09.08ZM10,18.16l.12.14,3.79-3.79-.14-.12Z" fill="#7e9141"/><path d="M12.14,19.46a2.9,2.9,0,0,1-.48-.05l-.23,0L15,15.81l0,.24a2.63,2.63,0,0,1,0,.47v.17l-2.76,2.76h-.17ZM12,19.2h.25l2.63-2.63v-.06a1.28,1.28,0,0,0,0-.19Z" fill="#7e9141"/><path d="M12.54,19.47l2.55-2.55-.15.48A2.93,2.93,0,0,1,13,19.32Zm1.89-1.54-.88.88A2.64,2.64,0,0,0,14.43,17.93Z" fill="#7e9141"/><path d="M11.94,19.46l3.14-3.14v.32a3.1,3.1,0,0,1-.13.76l0,.05L13,19.32a2.69,2.69,0,0,1-.76.13ZM14.79,17l-2.21,2.2.33-.07,1.8-1.8A2,2,0,0,0,14.79,17Z" fill="#7e9141"/><path d="M11.23,19.31l-.07,0a2.94,2.94,0,0,1-.44-.2L10.58,19,14.63,15l.08.15a2.43,2.43,0,0,1,.19.43l0,.08ZM11,19l.18.08,3.48-3.48-.08-.18Z" fill="#7e9141"/><path d="M11.73,19.42h-.07a2.8,2.8,0,0,1-.5-.12L11,19.22l3.86-3.86.06.18A2.83,2.83,0,0,1,15,16v.07Zm-.3-.31.21.05L14.78,16a1.17,1.17,0,0,0,0-.2Z" fill="#7e9141"/><path d="M10.81,19.14l-.09-.05a3,3,0,0,1-.35-.23l-.11-.09,4.13-4.13.09.11a2.41,2.41,0,0,1,.23.36l0,.08Zm-.18-.39.13.08,3.69-3.69L14.36,15Z" fill="#7e9141"/><path d="M10.46,18.92l-.09-.06a2.51,2.51,0,0,1-.34-.3L10,18.48l4.15-4.15.08.09a1.94,1.94,0,0,1,.3.33l.06.09Zm-.16-.44.13.12,3.79-3.78-.12-.14Z" fill="#7e9141"/><path d="M2.94,1.33.71,3.55a2.29,2.29,0,0,0,.07.36L3.29,1.4A1.36,1.36,0,0,0,2.94,1.33Z" fill="#6c9160"/><path d="M3.6,1.52.91,4.22c0,.09.1.18.16.27l2.8-2.81A1.75,1.75,0,0,0,3.6,1.52Z" fill="#6c9160"/><line x1="0.85" y1="2.54" x2="1.93" y2="1.47" fill="#6c9160"/><path d="M.85,2.54a2.24,2.24,0,0,0-.14.58l1.8-1.8a1.84,1.84,0,0,0-.58.15" fill="#6c9160"/><path d="M4.47,2.35,1.74,5.08a1.38,1.38,0,0,0,.3.14L4.6,2.65A1.94,1.94,0,0,0,4.47,2.35Z" fill="#6c9160"/><path d="M4.63,3.92,3.31,5.24A2,2,0,0,0,4.63,3.92Z" fill="#6c9160"/><path d="M4.11,1.88,1.27,4.72a1.55,1.55,0,0,0,.23.21L4.31,2.11A2.2,2.2,0,0,0,4.11,1.88Z" fill="#6c9160"/><path d="M4.72,3.32a1.66,1.66,0,0,0,0-.32L2.38,5.31l.33,0h.08L4.72,3.4Z" fill="#6c9160"/><path d="M10.9,10.92l-.12-.24a4.52,4.52,0,0,1-.29-.7l0-.11L16.12,4.2l.12,0a4.52,4.52,0,0,1,.7.29l.24.12Zm0-.95c0,.1.07.19.11.29l5.51-5.51-.29-.11Z" fill="#8c9160"/><path d="M10.59,10.28l-.1-.3a5.68,5.68,0,0,1-.17-.82v-.1l5-5h.1a4.57,4.57,0,0,1,.82.16l.3.1Zm.13-1.08.06.34,5-5-.34-.06Z" fill="#8c9160"/><path d="M11.28,11.49l-.13-.19a4.23,4.23,0,0,1-.37-.62l-.06-.12,6.1-6.1.12.06a4.23,4.23,0,0,1,.62.37l.19.13Zm-.09-.86a2,2,0,0,0,.14.25l5.81-5.8a1.28,1.28,0,0,0-.25-.15Z" fill="#8c9160"/><path d="M10.26,8.71l.06-.53a4.63,4.63,0,0,1,.33-1.33l0-.06,2.42-2.4a4.63,4.63,0,0,1,1.33-.33L15,4ZM11,7a4.1,4.1,0,0,0-.2.59l3.09-3.09a4.69,4.69,0,0,0-.6.2Z" fill="#8c9160"/><path d="M10.27,7.76l.38-.91a4.7,4.7,0,0,1,2.46-2.46L14,4Z" fill="#8c9160"/><path d="M10.37,9.55l0-.39a5,5,0,0,1,0-.52,3.44,3.44,0,0,1,0-.46V8.11l4-4h.07a4,4,0,0,1,1,0l.39,0Zm.33-1.27c0,.12,0,.24,0,.36V8.7L15,4.42a2.88,2.88,0,0,0-.42,0Z" fill="#8c9160"/><path d="M11.73,12l-.13-.14a4.77,4.77,0,0,1-.45-.54l-.1-.13,6.38-6.38.13.1a5.85,5.85,0,0,1,.54.45l.14.13Zm-.17-.77.18.22,6-5.95-.22-.18Z" fill="#8c9160"/><path d="M13.48,13l-.12,0a4.79,4.79,0,0,1-.68-.3l-.23-.13L18.8,6.19l.13.23a5.35,5.35,0,0,1,.3.68l0,.12Zm-.38-.56.28.11,5.44-5.44a1.39,1.39,0,0,0-.12-.28Z" fill="#8c9160"/><path d="M14.59,13.25l4.92-4.92,0,.49a5,5,0,0,1-.2,1.19l0,.05L16.32,13l-.05,0a5,5,0,0,1-1.19.2Zm4.46-3.92-3.46,3.46a4.37,4.37,0,0,0,.52-.12l2.82-2.82A4.37,4.37,0,0,0,19.05,9.33Z" fill="#8c9160"/><path d="M12.26,12.4l-.14-.1a4.73,4.73,0,0,1-.52-.46l-.14-.14L18,5.2l.14.14a4.73,4.73,0,0,1,.46.52l.1.14ZM12,11.7l.21.19L18.15,6,18,5.75Z" fill="#8c9160"/><path d="M15.52,13.26l4-4-.23.75a4.61,4.61,0,0,1-3,3Zm3-2.42L17.1,12.23A4.2,4.2,0,0,0,18.49,10.84Z" fill="#8c9160"/><path d="M12.8,12.74l-.12-.07a4.89,4.89,0,0,1-.56-.37L12,12.17l6.48-6.48.13.17a4.89,4.89,0,0,1,.37.56l.07.12Zm-.26-.62.2.14,5.78-5.78-.14-.2Z" fill="#8c9160"/><path d="M14.9,13.24a4,4,0,0,1-.75-.07l-.37-.06,5.59-5.59.06.37a4,4,0,0,1,.07.75s0,.08,0,.12V8.9l-4.32,4.32H14.9Zm-.3-.4H15l4.12-4.12V8.64c0-.1,0-.2,0-.3Z" fill="#8c9160"/><path d="M14.25,13.19l-.1,0a4.36,4.36,0,0,1-.79-.2l-.29-.1,6.06-6.06.1.29a4.36,4.36,0,0,1,.2.79l0,.1Zm-.46-.49.33.07L19,7.86c0-.11,0-.22-.07-.33Z" fill="#8c9160"/></g></g></svg>