<svg id="Layer_1" data-name="Layer 1" xmlns="http://www.w3.org/2000/svg" viewBox="0 0 44 44"><title>Banheiro</title><rect x="0.14" y="0.16" width="43.67" height="43.55" rx="10.38" ry="10.38" style="fill:#896bff"/><path d="M24.91,12.15a.93.93,0,0,0,.68-.29,1,1,0,0,0,.28-.68,1,1,0,0,0-.28-.68,1,1,0,0,0-1.64.68,1,1,0,0,0,1,1Zm-.44-1.41a.63.63,0,0,1,.88,0,.65.65,0,0,1,.18.44.62.62,0,1,1-1.24,0A.65.65,0,0,1,24.47,10.74Z" style="fill:#fff"/><path d="M26.34,10.88A1,1,0,0,0,27,12.52a1,1,0,1,0,0-1.92A1,1,0,0,0,26.34,10.88Zm1.3.68a.61.61,0,0,1-.62.62.65.65,0,0,1-.44-.18.63.63,0,0,1,0-.88.65.65,0,0,1,.44-.18.61.61,0,0,1,.62.62Z" style="fill:#fff"/><path d="M32.64,11.67a3.36,3.36,0,1,0-3.35-3.36A3.35,3.35,0,0,0,32.64,11.67Z" style="fill:#fff"/><path d="M22.65,19.75V15.38h1.84a1.1,1.1,0,0,1,1,.92l0,.13h.63a2,2,0,0,0-.08-.35,1.69,1.69,0,0,0-1.62-1.38H22.65v-.76H20.84v5.81H18.12v1.43H19v4.91h3.92v.52h3.62v-.52h1.45A3.09,3.09,0,0,0,31,23V21.18h1V19.75H22.65Z" style="fill:#fff"/><path d="M24.27,31a1.18,1.18,0,0,1-.92,1.15,2.05,2.05,0,0,1-.7.11,2.46,2.46,0,0,1-.72-.11A1.25,1.25,0,0,1,21,31V28.31H17.67V29h2.6v2a1.89,1.89,0,0,0,1.45,1.8,3.16,3.16,0,0,0,.92.14,2.87,2.87,0,0,0,.93-.14A1.83,1.83,0,0,0,25,31V27.44h-.68Z" style="fill:#fff"/><path d="M38.24,21.55,37.15,14.2A2.86,2.86,0,0,0,31.5,15l0,.1-.76.66-2.64-3a.56.56,0,0,0-.77-.1l-.94.84a1,1,0,0,0,.07-.35,1,1,0,0,0-1-1,1,1,0,1,0,0,1.92.92.92,0,0,0,.68-.28l.07-.07a.59.59,0,0,0,.16.52l2.85,3.22a.6.6,0,0,0,.09.15l.84,1a.49.49,0,0,0,.46.15A.47.47,0,0,0,31,18.7l.94-.84h0l.67,4.53a2.39,2.39,0,0,0,.17.61V36.54a1.85,1.85,0,1,0,3.7,0V24.44A2.73,2.73,0,0,0,38.24,21.55ZM26,13.66a.63.63,0,0,1-.44.18.65.65,0,0,1-.44-.18.63.63,0,0,1,0-.88.65.65,0,0,1,.44-.18A.62.62,0,0,1,26,13.66Z" style="fill:#fff"/><path d="M26.19,10.49a1,1,0,0,0,1-1,1,1,0,0,0-1-1,1,1,0,0,0-1,1,1,1,0,0,0,1,1Zm-.44-1.41a.65.65,0,0,1,.44-.18.63.63,0,0,1,.44.18.65.65,0,0,1,.18.44.61.61,0,0,1-.62.62.65.65,0,0,1-.44-.18.63.63,0,0,1-.18-.44A.65.65,0,0,1,25.75,9.08Z" style="fill:#fff"/><polygon points="12.3 29.73 11.32 29.73 11.32 28.95 7.83 28.95 7.83 29.73 15.79 29.73 15.79 28.95 12.3 28.95 12.3 29.73" style="fill:#fff"/><polygon points="16.09 13.76 15.65 13.76 15.65 19.12 15.37 19.12 15.37 22.47 15.65 22.47 16.09 22.47 16.37 22.47 16.37 19.12 16.09 19.12 16.09 13.76" style="fill:#fff"/><rect x="5.73" y="4.95" width="12.15" height="8.25" rx="1.34" ry="1.34" style="fill:#fff"/><path d="M11.81,34.39a3.18,3.18,0,0,1-1.67-.47L8.3,38.39h7l-1.83-4.47A3.18,3.18,0,0,1,11.81,34.39Z" style="fill:#fff"/><rect x="11.32" y="13.76" width="0.98" height="15.19" style="fill:#fff"/><path d="M8,30.14a3.77,3.77,0,0,0,7.54,0H8Z" style="fill:#fff"/></svg>