<svg id="Layer_1" data-name="Layer 1" xmlns="http://www.w3.org/2000/svg" viewBox="0 0 44 44"><title>Beira-Lago</title><rect x="0.14" y="0.16" width="43.67" height="43.55" rx="10.38" ry="10.38" style="fill:#896bff"/><path d="M33.57,37.6a2.58,2.58,0,0,0-2.53,0,2.58,2.58,0,0,1-2.53,0,2.58,2.58,0,0,0-2.53,0,2.58,2.58,0,0,1-2.53,0,2.58,2.58,0,0,0-2.53,0,2.58,2.58,0,0,1-2.53,0,2.58,2.58,0,0,0-2.53,0,2.58,2.58,0,0,1-2.53,0,2.58,2.58,0,0,0-2.53,0,2.58,2.58,0,0,1-2.53,0,2.58,2.58,0,0,0-2.53,0v1a2.58,2.58,0,0,1,2.53,0,2.61,2.61,0,0,0,2.53,0,2.58,2.58,0,0,1,2.53,0,2.61,2.61,0,0,0,2.53,0,2.58,2.58,0,0,1,2.53,0,2.58,2.58,0,0,0,2.53,0,2.58,2.58,0,0,1,2.53,0,2.58,2.58,0,0,0,2.53,0,2.58,2.58,0,0,1,2.53,0,2.58,2.58,0,0,0,2.53,0,2.58,2.58,0,0,1,2.53,0,2.58,2.58,0,0,0,2.53,0v-1A2.58,2.58,0,0,1,33.57,37.6Z" style="fill:#fff"/><path d="M12.4,33.1a1.75,1.75,0,0,0-1.7,0v.65a1.75,1.75,0,0,1,1.7,0,1.76,1.76,0,0,0,1.71,0,1.75,1.75,0,0,1,1.7,0,1.76,1.76,0,0,0,1.71,0,1.74,1.74,0,0,1,1.7,0,1.75,1.75,0,0,0,1.7,0,1.76,1.76,0,0,1,1.71,0,1.75,1.75,0,0,0,1.7,0,1.75,1.75,0,0,1,1.7,0,1.76,1.76,0,0,0,1.71,0,1.75,1.75,0,0,1,1.7,0,1.75,1.75,0,0,0,1.7,0V33.1a1.72,1.72,0,0,1-1.7,0,1.75,1.75,0,0,0-1.7,0,1.73,1.73,0,0,1-1.71,0,1.75,1.75,0,0,0-1.7,0,1.72,1.72,0,0,1-1.7,0,1.76,1.76,0,0,0-1.71,0,1.72,1.72,0,0,1-1.7,0,1.74,1.74,0,0,0-1.7,0,1.73,1.73,0,0,1-1.71,0,1.75,1.75,0,0,0-1.7,0A1.73,1.73,0,0,1,12.4,33.1Z" style="fill:#fff"/><path d="M15.71,29a1.05,1.05,0,0,0,1,0,1.08,1.08,0,0,1,1,0,1.07,1.07,0,0,0,1.05,0,1.08,1.08,0,0,1,1,0,1.05,1.05,0,0,0,1,0,1.1,1.1,0,0,1,1,0,1,1,0,0,0,1,0,1.08,1.08,0,0,1,1,0,1.05,1.05,0,0,0,1,0,1.1,1.1,0,0,1,1.05,0,1,1,0,0,0,1,0v-.39a1,1,0,0,1-1,0,1.07,1.07,0,0,0-1.05,0,1.05,1.05,0,0,1-1,0,1.05,1.05,0,0,0-1,0,1,1,0,0,1-1,0,1.07,1.07,0,0,0-1,0,1.05,1.05,0,0,1-1,0,1.05,1.05,0,0,0-1,0,1.07,1.07,0,0,1-1.05,0,1.05,1.05,0,0,0-1,0,1.05,1.05,0,0,1-1,0,1.05,1.05,0,0,0-1,0V29A1.08,1.08,0,0,1,15.71,29Z" style="fill:#fff"/><path d="M40.17,24.86H33.61a12.1,12.1,0,0,0-24.19,0H3.83a.15.15,0,0,0-.16.15.16.16,0,0,0,.16.15H40.17a.16.16,0,0,0,.16-.15A.15.15,0,0,0,40.17,24.86Z" style="fill:#fff"/></svg>