<svg id="Layer_1" data-name="Layer 1" xmlns="http://www.w3.org/2000/svg" viewBox="0 0 44 44"><title>Cachoeira</title><rect x="0.14" y="0.16" width="43.67" height="43.55" rx="10.38" ry="10.38" style="fill:#896bff"/><path d="M26.94,7.11l-.08,0-.16.06-.16,0-.17.07-.17.07L26,7.47a.91.91,0,0,0-.17.09,1,1,0,0,0-.17.1l-.35.23L25.17,8,25,8.16a5.65,5.65,0,0,0-1.16,1.48,8.14,8.14,0,0,0-.44.94c-.12.34-.24.68-.33,1s-.17.74-.23,1.12c0,.19-.06.38-.08.58a2.89,2.89,0,0,0,0,.29l0,.3c0,.39-.06.79-.06,1.2v1.22c0,.83,0,1.66,0,2.48v.61c0,.2,0,.4,0,.6,0,.4,0,.8,0,1.18,0,.78,0,1.53-.06,2.25,0,.35,0,.7,0,1s0,.66,0,1c0,.63-.06,1.2-.09,1.7s-.06,1-.08,1.31c0,.1,0,.19,0,.28a6.18,6.18,0,0,1,2.12-.36,5.79,5.79,0,0,1,2.5.51l.11-.05a.51.51,0,0,1,0-.13,1.08,1.08,0,0,1,.27-.67c0-2.34,0-7,0-11.71,0-.41,0-.82,0-1.24s0-.82.08-1.23.09-.81.16-1.21.16-.78.27-1.15a8.36,8.36,0,0,1,.87-2.07,8,8,0,0,1,.61-.85,1.54,1.54,0,0,0,.17-.19l.18-.17c.11-.12.24-.21.36-.32a5.36,5.36,0,0,1,1.49-.81,6.43,6.43,0,0,1,.84-.21H28.06c-.13,0-.29,0-.47.07l-.27,0-.3.08Z" style="fill:#fff"/><path d="M32,7.11l-.07,0-.16.06-.17,0-.17.07-.17.07-.17.09L31,7.56l-.17.1-.35.23L30.28,8l-.17.14a5.67,5.67,0,0,0-1.17,1.48,6.73,6.73,0,0,0-.43.94,9,9,0,0,0-.34,1c-.09.37-.17.74-.23,1.12,0,.19-.06.38-.08.58l0,.29c0,.1,0,.2,0,.3,0,.39-.06.79-.07,1.2s0,.81,0,1.22c0,.83,0,1.66,0,2.48v.61c0,.2,0,.4,0,.6,0,.4,0,.8,0,1.19,0,.77,0,1.52-.06,2.24,0,.35,0,.7,0,1s0,.66,0,1c0,.63-.06,1.2-.09,1.7,0,.25,0,.48,0,.7a4.85,4.85,0,0,1,3.19-1,6.35,6.35,0,0,1,1.76.24l.05-11.81c-.24-8.54,5.64-8.44,5.64-8.44H33.17c-.14,0-.3,0-.47.07l-.28,0-.3.08Z" style="fill:#fff"/><path d="M21.92,7.16l-.08,0-.08,0-.16,0-.17.06-.16.07-.17.07-.17.08-.18.09-.17.11a4,4,0,0,0-.34.22l-.17.13-.17.14a5.67,5.67,0,0,0-1.17,1.48,6.86,6.86,0,0,0-.43.95,10.54,10.54,0,0,0-.33,1c-.1.36-.17.74-.24,1.12,0,.19-.05.38-.07.58a2.54,2.54,0,0,0,0,.29l0,.29c0,.4-.06.8-.07,1.2s0,.82,0,1.23c0,.83,0,1.66,0,2.48,0,.2,0,.4,0,.6v.61c0,.4,0,.79,0,1.18,0,.78,0,1.53-.06,2.24,0,.36,0,.71,0,1s0,.66-.05,1c0,.62-.05,1.19-.08,1.7s-.06.94-.08,1.31l0,.31.44.09a6.58,6.58,0,0,1,1.72-.22,6.31,6.31,0,0,1,2.19.37,3.69,3.69,0,0,1,.63-.31c0-2,0-7.2,0-12.45V15.09c0-.41,0-.82.08-1.23s.1-.81.17-1.21a10.7,10.7,0,0,1,.27-1.15,8.36,8.36,0,0,1,.87-2.07,5.93,5.93,0,0,1,.61-.85l.17-.19.17-.17c.12-.12.24-.21.36-.32a5.11,5.11,0,0,1,2.29-1H23.61v0l-.29,0h-.17L23,7,22.49,7l-.28.06Z" style="fill:#fff"/><path d="M13.39,27.15c1.89,0,3.45.73,3.62,1.67h0c0-2,0-7.19,0-12.41V15.17c0-.42,0-.83.08-1.24s.1-.81.17-1.2.16-.78.26-1.16a9,9,0,0,1,.88-2.07A6.44,6.44,0,0,1,19,8.66l.17-.19c0-.06.11-.11.17-.17A3.59,3.59,0,0,1,19.7,8a4.88,4.88,0,0,1,1.49-.81,5.94,5.94,0,0,1,1.26-.28h-.66s-9.48-.69-9.48,8.45v11.9A6.21,6.21,0,0,1,13.39,27.15Z" style="fill:#fff"/><path d="M39.94,39.79l-7-9.3c-.26.88-1.76,1.57-3.58,1.57a6,6,0,0,1-2.51-.51,5.94,5.94,0,0,1-2.5.51,6.31,6.31,0,0,1-2.19-.37,5.51,5.51,0,0,1-2.88.71,6.58,6.58,0,0,1-1.72-.22,6.6,6.6,0,0,1-1.73.22c-1.89,0-3.45-.74-3.62-1.67l-.72-.17L3.3,39.79h7.19l6.6-7.3-5.95,7.3H21.91l.23-7.32.25,7.32h11.2l-6-7.3,6.61,7.3Z" style="fill:#fff"/></svg>