<svg id="Layer_1" data-name="Layer 1" xmlns="http://www.w3.org/2000/svg" viewBox="0 0 44 44"><title>Centro de Educação Ambiental</title><rect x="0.14" y="0.16" width="43.67" height="43.55" rx="10.38" style="fill:#896bff"/><g id="yLAojW"><path d="M24.82,16.2a3,3,0,0,0,1.87-1,9.06,9.06,0,0,1,5.38-2.64,21.67,21.67,0,0,1,2.27-.29c.3,0,.7-.18.76.36s-.15.59-.59.67a33.5,33.5,0,0,0-3.74.77,25.48,25.48,0,0,0-3.49,1.36c2.16-.32,4.31-.67,6.47-.95.88-.11,1.78-.07,2.67-.13.59,0,.77.2.71.76-.19,1.83-.36,3.65-.54,5.48-.33,3.44-.66,6.89-1,10.33-.15,1.55-.29,3.1-.48,4.64a.7.7,0,0,1-.5.46c-4.3-.07-8.13,1.42-11.81,3.47a1.17,1.17,0,0,1-.95,0,26.35,26.35,0,0,0-10-3.3A11.26,11.26,0,0,0,10,36.07c-.65,0-.92-.18-1-.83-.08-1.53-.21-3.05-.32-4.57q-.45-6-.89-12c-.1-1.37-.17-2.74-.26-4.21a38.52,38.52,0,0,1,8.72.52A8.91,8.91,0,0,0,15,14.35c-1.53-.38-3.07-.74-4.62-1-.68-.12-.78-.41-.55-1.11.93.11,1.89.17,2.82.34a9.71,9.71,0,0,1,5.71,2.84c.34.39,1,.48,1.52.71l.16-.23a14.86,14.86,0,0,0-1.18-1.2,15.51,15.51,0,0,0-6.45-2.82c-1.25-.29-1.29-.34-1.52-1.79.88.15,1.73.24,2.54.46a15.46,15.46,0,0,1,7.88,5.26,1,1,0,0,1,.14.7c.69.65,1.46.47,2.35,0l-.5-.23c1.16-2.81,7.76-6.57,10.6-6-.11,1.21-.18,1.3-1.32,1.57a16.15,16.15,0,0,0-6.48,2.78A16,16,0,0,0,24.63,16Zm-1.4,21A4.48,4.48,0,0,0,23.9,37a20.2,20.2,0,0,1,9.68-2.45.78.78,0,0,0,.54-.52c.18-1.56.31-3.14.45-4.71.29-3.32.58-6.65.86-10,.1-1.13.17-2.26.25-3.36l-.26-.09c-.18,0-.36,0-.54,0a26.57,26.57,0,0,0-10.79,2.8,1.22,1.22,0,0,0-.73,1.26c0,5.45,0,10.91,0,16.36C23.37,36.55,23.4,36.8,23.42,37.15Zm-2.13,0a2.23,2.23,0,0,0,.09-.41c0-5.73,0-11.46,0-17.19a1,1,0,0,0-.45-.7,23.1,23.1,0,0,0-10.31-3c-1,0-1.06,0-1,1.07q.32,5.68.64,11.36c.11,1.85.25,3.71.35,5.56,0,.54.23.72.79.75a24.13,24.13,0,0,1,7.87,1.67C19.92,36.53,20.56,36.84,21.29,37.16Z" style="fill:#fff"/></g></svg>