<svg id="Layer_1" data-name="Layer 1" xmlns="http://www.w3.org/2000/svg" viewBox="0 0 44 44"><title>Deck</title><rect x="0.14" y="0.16" width="43.67" height="43.55" rx="10.38" ry="10.38" style="fill:#896bff"/><path d="M40.48,19.65H26l-2.38-1.34h0l-19.84,0V20h.6v3.42a.72.72,0,0,0-.37.16v.5a.73.73,0,0,1,.93,0,.74.74,0,0,0,.94,0,.74.74,0,0,1,.94,0,.73.73,0,0,0,.93,0v-.5a.71.71,0,0,1-.93,0,.74.74,0,0,0-.94,0,.76.76,0,0,1-.49.16V20H14v3.38a.7.7,0,0,0-.64.13.73.73,0,0,1-.93,0,.74.74,0,0,0-.94,0V24a.72.72,0,0,1,.94,0,.73.73,0,0,0,.93,0,.73.73,0,0,1,.94,0,.72.72,0,0,0,.86,0v0a.73.73,0,0,1,.93,0,.74.74,0,0,0,.94,0,.74.74,0,0,1,.94,0,.73.73,0,0,0,.93,0v-.5a.71.71,0,0,1-.93,0,.74.74,0,0,0-.94,0,.73.73,0,0,1-.94,0,.75.75,0,0,0-.85-.06h0a1,1,0,0,1-.23.11V20h.34l5.56,3.34v4a2.6,2.6,0,0,1-.51-.16,3.67,3.67,0,0,0-2.64,0,3.7,3.7,0,0,1-2.65,0,3.67,3.67,0,0,0-2.64,0V28a3.67,3.67,0,0,1,2.64,0,3.7,3.7,0,0,0,2.65,0,3.67,3.67,0,0,1,2.64,0A3.7,3.7,0,0,0,23,28v-.71a4,4,0,0,1-1.13.23V24l5.25,3.16h.36v3.92a4.29,4.29,0,0,0-1.26.25v.79a5,5,0,0,1,3.27,0,5.06,5.06,0,0,0,3.28,0,5.06,5.06,0,0,1,3.28,0,5.06,5.06,0,0,0,3.28,0V31.3a5.7,5.7,0,0,1-1.52.26V27.13h1.52L26.52,20h14a.15.15,0,0,0,.14-.15A.14.14,0,0,0,40.48,19.65ZM36.8,31.5a3.63,3.63,0,0,1-.75-.2,5.06,5.06,0,0,0-3.28,0,5,5,0,0,1-3.28,0,5.59,5.59,0,0,0-1-.21v-4H36.8Z" style="fill:#fff"/><path d="M15.64,35.81a3.56,3.56,0,0,0-2.84,0,3.51,3.51,0,0,1-2.84,0,3.55,3.55,0,0,0-2.84,0v.86a3.55,3.55,0,0,1,2.84,0,3.51,3.51,0,0,0,2.84,0,3.56,3.56,0,0,1,2.84,0,3.5,3.5,0,0,0,2.84,0v-.86A3.5,3.5,0,0,1,15.64,35.81Z" style="fill:#fff"/></svg>