<svg id="Layer_1" data-name="Layer 1" xmlns="http://www.w3.org/2000/svg" viewBox="0 0 44 44"><title>Lagoa</title><rect x="0.14" y="0.16" width="43.67" height="43.55" rx="10.38" ry="10.38" style="fill:#896bff"/><path d="M8.63,17.63V20h1.2V17.63A3.17,3.17,0,0,0,12,16.27a2.54,2.54,0,0,0,1,.39v1.85h.92V16.66a2.46,2.46,0,0,0,1.54-.89,2.14,2.14,0,0,0,1.27.7v1.68h.81V16.47a2,2,0,0,0,1.73-1.86,2,2,0,0,0-2.14-1.89,2.27,2.27,0,0,0-1.62.67,2.52,2.52,0,0,0-2-1,2.61,2.61,0,0,0-1.8.71,3.26,3.26,0,0,0-2.37-1A3,3,0,0,0,6.09,14.9,2.89,2.89,0,0,0,8.63,17.63Z" style="fill:#fff"/><path d="M15.75,22v.32l.05,0V22Z" style="fill:#fff"/><path d="M39.68,27.29c-.51-1-.45-3.57-4.18-4.77-2.82-.91-7.75-.82-12.66-1.95A24,24,0,0,0,7.92,22c-3.93,1.7-4,4.62-4,5.64s1.29,2.34,5.65,3c3.93.57,9.29,3.06,14.18,3.06s6.37-2.36,10.06-2.52C40,30.89,40.71,29.31,39.68,27.29ZM15,26.3a.88.88,0,0,1-.87,0,.86.86,0,0,0-.86,0,.88.88,0,0,1-.87,0,.88.88,0,0,0-.87,0h0a.86.86,0,0,1-.86,0,.88.88,0,0,0-.87,0,.88.88,0,0,1-.87,0,.88.88,0,0,0-.87,0V26a.88.88,0,0,1,.87,0,.88.88,0,0,0,.87,0,.88.88,0,0,1,.87,0,.86.86,0,0,0,.86,0h0a.88.88,0,0,1,.87,0,.88.88,0,0,0,.87,0,.86.86,0,0,1,.86,0A.88.88,0,0,0,15,26Zm3.47,0a.88.88,0,0,1-.87,0,.86.86,0,0,0-.86,0,.88.88,0,0,1-.87,0,.88.88,0,0,0-.87,0V26a.88.88,0,0,1,.87,0,.88.88,0,0,0,.87,0,.86.86,0,0,1,.86,0,.88.88,0,0,0,.87,0Zm.76-4a.91.91,0,0,1-.87,0,.88.88,0,0,0-.87,0,.89.89,0,0,1-.86,0,.93.93,0,0,0-.82,0v0a.89.89,0,0,1-.86,0,.88.88,0,0,0-.87,0,.91.91,0,0,1-.87,0,.88.88,0,0,0-.87,0V22a.88.88,0,0,1,.87,0,.91.91,0,0,0,.87,0,.88.88,0,0,1,.87,0,.91.91,0,0,0,.81,0h0a.88.88,0,0,1,.87,0,.89.89,0,0,0,.86,0,.88.88,0,0,1,.87,0,.91.91,0,0,0,.87,0ZM26.46,31a1.53,1.53,0,0,1-1.52,0,1.56,1.56,0,0,0-1.52,0,1.53,1.53,0,0,1-1.52,0,1.56,1.56,0,0,0-1.52,0V30.4a1.56,1.56,0,0,1,1.52,0,1.56,1.56,0,0,0,1.52,0,1.56,1.56,0,0,1,1.52,0,1.56,1.56,0,0,0,1.52,0Zm7.3-2.66a1.31,1.31,0,0,1-1.26,0,1.28,1.28,0,0,0-1.26,0,1.31,1.31,0,0,1-1.26,0,1.28,1.28,0,0,0-1.26,0v-.48a1.28,1.28,0,0,1,1.26,0,1.28,1.28,0,0,0,1.26,0,1.28,1.28,0,0,1,1.26,0,1.28,1.28,0,0,0,1.26,0Z" style="fill:#fff"/><polygon points="11.52 25.97 11.52 26.3 11.52 26.3 11.52 25.97 11.52 25.97" style="fill:#fff"/></svg>