<svg id="Layer_1" data-name="Layer 1" xmlns="http://www.w3.org/2000/svg" viewBox="0 0 44 44"><title>Parque Infantil</title><rect x="0.14" y="0.16" width="43.67" height="43.55" rx="10.38" ry="10.38" style="fill:#896bff"/><path d="M24.74,18.12a.57.57,0,0,0-.8.06l-1.09,1.08a.57.57,0,0,0-.06.81l3.75,3.78-4.91,4.88-5.46-5.49a.61.61,0,0,0-.5-.17.47.47,0,0,0-.4.13L8.7,29.69a.56.56,0,0,0,.06.8l1.08,1.09a.57.57,0,0,0,.8.07l4.56-4.5,6.67,6.71a.72.72,0,0,0,1-.07l1.36-1.36,0,0,5.83-5.8h0L31.2,25.5a.6.6,0,0,0,.05-.83Z" style="fill:#fff"/><path d="M33.53,17.88a2.54,2.54,0,1,0,2.53,2.54A2.54,2.54,0,0,0,33.53,17.88Z" style="fill:#fff"/><path d="M15.71,28.83a.3.3,0,0,0-.43.43l5,4.95a.31.31,0,0,0,.22.09.3.3,0,0,0,.21-.09.3.3,0,0,0,0-.43Z" style="fill:#fff"/><path d="M20.53,26.6a.24.24,0,0,0,.13-.05l3.66-3.46a.19.19,0,0,0-.27-.28l-3.66,3.46a.19.19,0,0,0,0,.27A.17.17,0,0,0,20.53,26.6Z" style="fill:#fff"/><path d="M40.88,7a.19.19,0,0,0-.27,0L27.5,19.47a.2.2,0,0,0,0,.27.2.2,0,0,0,.14.06.19.19,0,0,0,.13-.05L40.88,7.29A.2.2,0,0,0,40.88,7Z" style="fill:#fff"/></svg>