<svg id="Layer_1" data-name="Layer 1" xmlns="http://www.w3.org/2000/svg" viewBox="0 0 44 44"><title>Pista de Skate</title><rect x="0.14" y="0.16" width="43.67" height="43.55" rx="10.38" ry="10.38" style="fill:#896bff"/><path d="M26.65,17.84a2.07,2.07,0,0,0,1.56-2.52A2.2,2.2,0,0,0,25.46,14a2.05,2.05,0,0,0-1.55,2.52A2.19,2.19,0,0,0,26.65,17.84Z" style="fill:#fff"/><path d="M20.55,34.23a.77.77,0,1,0,1,.6A.82.82,0,0,0,20.55,34.23Z" style="fill:#fff"/><path d="M13.5,33.72a.73.73,0,0,0,.64-.83.79.79,0,1,0-.64.83Z" style="fill:#fff"/><path d="M15.55,31.24a.51.51,0,0,0,.63-.14l4.36-4.66a.94.94,0,0,0,.09-.12l1.59,1.18-1.79,4.57a.38.38,0,0,0,.2.53l1.43.41a.47.47,0,0,0,.53-.32l1.78-4.54h0l.37-.93a.66.66,0,0,0-.3-.93l-2.23-1.57,4.13-4.44,5.93,1.2c.17,0,.37-.16.45-.44l.18-.64c.09-.28,0-.53-.15-.56L17.62,16.76c-.16,0-.36.16-.44.44l-.19.64c-.08.28,0,.53.15.57l5.95,1.21-4.34,4.63a.46.46,0,0,0,0,.69l.16.12-.11.09-4.36,4.66c-.19.2-.21.46,0,.58Z" style="fill:#fff"/><path d="M12.81,31.6,22,34.13H22a.22.22,0,0,0,.22-.16.24.24,0,0,0-.16-.29l-9.14-2.53a.22.22,0,0,0-.28.16A.24.24,0,0,0,12.81,31.6Z" style="fill:#fff"/><rect x="5.73" y="37.78" width="32.25" height="1.5" style="fill:#fff"/></svg>