<?xml version="1.0" encoding="UTF-8" standalone="no"?><!DOCTYPE svg PUBLIC "-//W3C//DTD SVG 1.1//EN" "http://www.w3.org/Graphics/SVG/1.1/DTD/svg11.dtd"><svg width="100%" height="100%" viewBox="0 0 36 43" version="1.1" xmlns="http://www.w3.org/2000/svg" xmlns:xlink="http://www.w3.org/1999/xlink" xml:space="preserve" style="fill-rule:evenodd;clip-rule:evenodd;stroke-linejoin:round;stroke-miterlimit:1.41421;"><rect id="sitio-map" x="0.522" y="0.708" width="34.092" height="42" style="fill:none;"/><rect x="6.71" y="7.083" width="21.938" height="14.625" style="fill:#fff;"/><g><g><path d="M13.248,26.624l-5.09,0l-6.225,-0.076l0,-21.991c0,-0.856 0.3,-1.587 0.9,-2.191c0.6,-0.605 1.325,-0.907 2.175,-0.907l25.047,0c0.85,0 1.575,0.302 2.175,0.907c0.6,0.604 0.899,1.335 0.899,2.191l0,18.893c0,0.857 -0.299,1.6 -0.899,2.23c-0.6,0.63 -1.325,0.944 -2.175,0.944l-9.764,0c0,0 -3.269,16.084 -3.269,16.084l-3.774,-16.084Z" style="fill:#cd621f;"/></g></g><path d="M20.261,8.217l-0.794,0l0,2.147l1.6,0l0,1.35l0.361,0l0,1.347l1.427,0l0,1.285l1.531,0l0,1.292l1.145,0l0,1.376l1.552,0l0,1.452l1.422,0l0,1.472l-22.182,0l0,-1.472l1.422,0l0,-1.452l1.551,0l0,-1.376l1.145,0l0,-1.292l1.532,0l0,-1.285l1.427,0l0,-1.347l0.361,0l0,-1.35l1.734,0l0,-2.147l-0.794,0l0,-0.483l5.56,0l0,0.483Z" style="fill:#fff;"/><rect x="16.108" y="13.842" width="3.348" height="6.182" style="fill:#cd621f;"/></svg>