<?xml version="1.0" encoding="UTF-8" standalone="no"?><!DOCTYPE svg PUBLIC "-//W3C//DTD SVG 1.1//EN" "http://www.w3.org/Graphics/SVG/1.1/DTD/svg11.dtd"><svg width="100%" height="100%" viewBox="0 0 36 43" version="1.1" xmlns="http://www.w3.org/2000/svg" xmlns:xlink="http://www.w3.org/1999/xlink" xml:space="preserve" xmlns:serif="http://www.serif.com/" style="fill-rule:evenodd;clip-rule:evenodd;stroke-linejoin:round;stroke-miterlimit:1.41421;"><rect id="relatos-map" x="0.495" y="0.63" width="34.092" height="42" style="fill:none;"/><rect x="6.682" y="7.005" width="21.938" height="14.625" style="fill:#fff;"/><g><g><path d="M13.22,26.546l-5.09,0l-6.224,-0.076l0,-21.991c0,-0.856 0.299,-1.587 0.899,-2.191c0.6,-0.605 1.325,-0.907 2.175,-0.907l25.047,0c0.85,0 1.575,0.302 2.175,0.907c0.6,0.604 0.9,1.335 0.9,2.191l0,18.893c0,0.857 -0.3,1.6 -0.9,2.23c-0.6,0.63 -1.325,0.944 -2.175,0.944l-9.764,0c0,0 -3.268,16.084 -3.268,16.084l-3.775,-16.084Z" style="fill:#fb0154;"/></g></g><path d="M21.685,18.062l0.379,4.974l-7.24,-4.974l-3.427,0c-1.642,0 -2.975,-1.333 -2.975,-2.975l0,-5.95c0,-1.642 1.333,-2.975 2.975,-2.975l10.808,0c1.642,0 2.975,1.333 2.975,2.975l0,5.95c0,1.642 -1.333,2.975 -2.975,2.975l-0.52,0Zm-5.21,-5.942c0.511,0 0.926,0.415 0.926,0.926c0,0.511 -0.415,0.926 -0.926,0.926c-0.511,0 -0.926,-0.415 -0.926,-0.926c0,-0.511 0.415,-0.926 0.926,-0.926Zm-3.543,-0.068c0.512,0 0.927,0.416 0.927,0.927c0,0.511 -0.415,0.926 -0.927,0.926c-0.511,0 -0.926,-0.415 -0.926,-0.926c0,-0.511 0.415,-0.927 0.926,-0.927Zm7.096,0c0.511,0 0.926,0.416 0.926,0.927c0,0.511 -0.415,0.926 -0.926,0.926c-0.511,0 -0.927,-0.415 -0.927,-0.926c0,-0.511 0.416,-0.927 0.927,-0.927Z" style="fill:#fff;"/></svg>