<?xml version="1.0" encoding="UTF-8" standalone="no"?><!DOCTYPE svg PUBLIC "-//W3C//DTD SVG 1.1//EN" "http://www.w3.org/Graphics/SVG/1.1/DTD/svg11.dtd"><svg width="100%" height="100%" viewBox="0 0 36 43" version="1.1" xmlns="http://www.w3.org/2000/svg" xmlns:xlink="http://www.w3.org/1999/xlink" xml:space="preserve" xmlns:serif="http://www.serif.com/" style="fill-rule:evenodd;clip-rule:evenodd;stroke-linejoin:round;stroke-miterlimit:1.41421;"><rect id="bape-map" x="0.031" y="-0.39" width="34.092" height="42" style="fill:none;"/><rect x="6.218" y="5.985" width="21.938" height="14.625" style="fill:#fff;"/><g><g><path d="M12.756,25.527l-5.09,0l-6.224,-0.076l0,-21.991c0,-0.857 0.3,-1.587 0.9,-2.192c0.6,-0.604 1.324,-0.906 2.174,-0.906l25.047,0c0.85,0 1.575,0.302 2.175,0.906c0.6,0.605 0.9,1.335 0.9,2.192l0,18.893c0,0.856 -0.3,1.6 -0.9,2.229c-0.6,0.63 -1.325,0.945 -2.175,0.945l-9.764,0c0,0 -3.268,16.083 -3.268,16.083l-3.775,-16.083Z" style="fill:#8d2386;"/></g></g><path d="M14.753,4.995c0.535,-0.525 1.404,-0.524 1.937,0l7.616,7.474c0.535,0.525 0.407,0.95 -0.285,0.95l-16.599,0c-0.692,0 -0.818,-0.427 -0.285,-0.95l7.616,-7.474Z" style="fill:#fff;"/><path d="M17.001,19.925l4.974,0c0.348,0 0.636,-0.346 0.636,-0.772l0,-3.845c0,-0.419 -0.285,-0.773 -0.636,-0.773l-11.905,0c-0.348,0 -0.636,0.346 -0.636,0.773l0,3.845c0,0.419 0.285,0.772 0.636,0.772l4.409,0l0,-3.057c0,-0.43 0.28,-0.778 0.637,-0.778l1.249,0c0.351,0 0.636,0.354 0.636,0.778l0,3.057Z" style="fill:#fff;"/><path d="M27.522,73.504c0,0 11.447,-11.534 12.943,-16.242c1.495,-4.708 0.993,-21.712 -16.592,-20.957c-17.585,0.755 -26.178,15.517 -25.98,25.871c0.198,10.354 2.05,18.589 2.591,22.528c1.527,11.106 30.525,12.899 26.666,-3.208c-1.256,-5.242 0.196,-6.949 0.372,-7.992Z" style="fill:none;"/></svg>