<?xml version="1.0" encoding="UTF-8" standalone="no"?><!DOCTYPE svg PUBLIC "-//W3C//DTD SVG 1.1//EN" "http://www.w3.org/Graphics/SVG/1.1/DTD/svg11.dtd"><svg width="100%" height="100%" viewBox="0 0 160 106" version="1.1" xmlns="http://www.w3.org/2000/svg" xmlns:xlink="http://www.w3.org/1999/xlink" xml:space="preserve" style="fill-rule:evenodd;clip-rule:evenodd;stroke-linejoin:round;stroke-miterlimit:1.41421;"><g><path d="M64.527,46.626c0.045,0.003 0.044,0.002 0.09,0.007c0.038,-0.008 0.076,-0.016 0.115,-0.024c2.488,-0.415 4.762,4.226 5.727,5.691c0.104,0.154 0.212,0.306 0.317,0.459c1.703,2.536 2.463,5.396 3.195,8.301c0.022,0.085 0.044,0.169 0.069,0.253c0.036,0.112 0.092,0.216 0.136,0.325c0.045,0.113 0.089,0.227 0.132,0.341c0.956,2.64 1.064,5.568 1.044,8.335l-0.003,0.26c0,0 0.067,0.499 0.116,0.746c0.029,0.144 0.06,0.288 0.088,0.433c0.021,0.12 0.04,0.241 0.058,0.361c0.279,2.005 0.492,4.556 -0.377,6.47l-0.009,0.018c-0.015,0.387 -0.026,0.774 -0.033,1.161l-0.001,0.085c-0.048,0.729 -0.748,1.266 -1.464,1.124c-0.163,-0.041 -0.326,-0.085 -0.488,-0.13c-0.105,-0.03 -0.21,-0.06 -0.315,-0.091c-0.042,0.012 -0.042,0.011 -0.084,0.022c-1.166,0.255 -2.615,-0.398 -3.583,-0.843l-0.057,0.028c-0.561,0.206 -1.224,-0.029 -1.515,-0.555l-0.051,-0.046c-0.411,-0.444 -0.454,-1.134 -0.067,-1.613l0.037,-0.075c0.168,-0.29 0.342,-0.443 0.647,-0.59l0.01,-0.004c0.865,-2.112 1.351,-4.202 1.602,-6.411l0.013,-0.12c0.189,-5.217 -0.946,-9.724 -3.492,-14.22c-0.118,-0.172 -0.239,-0.342 -0.36,-0.512c-0.764,-1.061 -1.571,-2.088 -2.38,-3.114c-0.046,-0.045 -0.095,-0.087 -0.143,-0.13c-0.323,-0.277 -0.656,-0.544 -0.981,-0.819c-0.09,-0.077 -0.179,-0.154 -0.267,-0.232c-0.206,-0.186 -0.413,-0.377 -0.58,-0.6c-0.041,-0.011 -0.078,-0.03 -0.117,-0.045l-0.004,-0.002l-0.084,-0.041c-0.08,-0.049 -0.08,-0.049 -0.156,-0.103l-0.003,-0.002c-1.962,-1.648 1.486,-4.048 3.044,-4.101c0.058,-0.001 0.116,0 0.174,0.003m6.967,29.235c-0.108,0.38 -0.228,0.756 -0.361,1.128c-0.02,0.025 -0.051,0.064 -0.033,0.09c0.02,0.029 0.07,0.009 0.105,0.014l0.016,0.002c0.062,-0.008 0.124,-0.018 0.185,-0.031c0.028,-0.006 0.028,-0.006 0.055,-0.013l0.022,-0.005c0.014,-0.044 0.026,-0.088 0.037,-0.133c0.069,-0.29 0.107,-0.586 0.137,-0.883l0,-0.01l-0.067,-0.089c-0.029,-0.044 -0.053,-0.087 -0.078,-0.133l-0.001,-0.001c-0.006,0.021 -0.012,0.042 -0.017,0.064" style="fill-rule:nonzero;"/><path d="M52.563,26.328c0.575,0.037 0.91,0.586 1.218,0.998c0,0 0.13,0.247 0.146,0.383c0.31,0.309 0.619,0.618 0.927,0.929c2.001,2.031 3.865,4.12 5.159,6.668c0.391,0.771 0.28,2.614 -1.102,2.155c-0.673,-0.224 -1.044,-0.642 -1.503,-1.186l-0.025,-0.031c-0.423,-0.285 -0.855,-0.557 -1.279,-0.839c-0.112,-0.076 -0.224,-0.152 -0.335,-0.23c-0.579,-0.411 -1.026,-0.775 -1.509,-1.302c-0.185,-0.203 -0.371,-0.406 -0.555,-0.611c-1.129,-1.264 -1.542,-2.11 -1.908,-3.774c-0.127,-0.575 -0.294,-1.342 -0.113,-1.938l0.012,-0.035c-0.012,-0.032 -0.02,-0.066 -0.029,-0.1c-0.006,-0.029 -0.006,-0.028 -0.011,-0.057c-0.078,-0.512 0.28,-0.991 0.813,-1.031c0.047,-0.001 0.047,-0.001 0.094,0.001m1.383,4.503c0.002,0.005 0.004,0.011 0.007,0.016c0.051,0.076 0.103,0.152 0.156,0.227c0.101,0.141 0.206,0.279 0.315,0.415l0.008,0.01c-0.155,-0.236 -0.318,-0.466 -0.494,-0.687c0.003,0.006 0.005,0.013 0.008,0.019" style="fill-rule:nonzero;"/><path d="M58.374,36.507c2.277,0.053 4.007,1.973 4.545,4.085c0.411,1.612 0.031,3.163 -1.468,3.895l-0.036,0.031c-0.089,0.069 -0.139,0.096 -0.245,0.133c-0.062,0.017 -0.125,0.032 -0.187,0.048c-0.108,0.03 -0.208,0.08 -0.313,0.119c-0.069,0.024 -0.139,0.047 -0.209,0.069c-0.05,0.016 -0.101,0.03 -0.152,0.044l-0.05,0.012c-0.162,0.06 -0.323,0.121 -0.485,0.181c-0.117,0.041 -0.117,0.041 -0.234,0.082c-0.798,0.266 -1.167,0.329 -2.08,0.234c-0.984,-0.102 -1.871,-0.946 -2.474,-1.664c-1.787,-2.124 -1.544,-5.41 1.119,-6.676c0.758,-0.36 1.236,-0.542 1.995,-0.588c0.091,-0.004 0.182,-0.005 0.274,-0.005m-2.793,2.919c-0.548,0.88 -0.315,2.012 0.161,2.866c-0.255,-0.72 -0.284,-1.507 -0.162,-2.256l0.004,-0.021l-0.007,-0.079c-0.005,-0.09 -0.005,-0.089 -0.008,-0.179c-0.001,-0.111 0.003,-0.221 0.012,-0.331"/><path d="M47.953,47.638c3.659,-1.339 3.799,1.979 2.251,4.299c-0.841,1.26 -2.995,1.451 -4.232,1.766c-0.107,0.028 -0.214,0.057 -0.32,0.087c-1.578,0.469 -2.753,2.849 -3.333,4.18c0.122,0.77 0.588,1.434 1.16,1.946c0.725,0.128 1.385,0.447 2.062,0.719c0.085,0.033 0.17,0.065 0.256,0.097c0.524,0.181 1.087,0.246 1.632,0.328c0.756,0.109 1.512,0.211 2.268,0.322c0.483,0.073 0.966,0.149 1.447,0.237c0.148,-0.005 0.297,-0.009 0.446,-0.011c6.611,-0.072 11.342,7.077 9.056,13.413c-0.2,4.581 -4.374,6.807 -8.624,7.468c-2.737,0.86 -5.518,1.039 -8.167,-0.011c-0.07,-0.027 -0.14,-0.052 -0.211,-0.076c-0.049,-0.016 -0.098,-0.031 -0.147,-0.046c-0.286,-0.076 -0.573,-0.145 -0.859,-0.219c-1.342,-0.354 -2.405,-0.806 -2.611,-2.318c-0.868,-0.589 -1.259,-2.011 -0.035,-2.417c0.007,-0.693 0.006,-1.709 0.686,-2.107l0.003,-0.002c0.168,-0.073 0.214,-0.084 0.396,-0.092c0,0 0.545,0.179 0.75,0.366c0.097,0.092 0.193,0.185 0.288,0.278l0.027,0.027c1.26,-0.342 2.621,0.48 3.699,1.006c0,0 0.346,0.048 0.52,0.065c0.157,0.015 0.313,0.032 0.47,0.051c0.657,0.08 1.309,0.187 1.962,0.293l0.122,0.02c0.069,-0.004 0.139,-0.008 0.208,-0.013c0,0 0.37,0.021 0.536,0.096c1.139,-0.083 2.28,-0.412 3.298,-0.93c0.75,-0.383 1.321,-1.06 1.867,-1.701c2.423,-2.845 1.176,-5.721 -1.604,-7.662c-0.606,-0.144 -1.212,-0.29 -1.819,-0.434c-1.548,-0.361 -3.144,-0.79 -4.738,-0.952c-0.139,-0.016 -0.277,-0.032 -0.415,-0.05c-0.516,-0.071 -0.861,-0.135 -1.346,-0.257c-0.084,-0.023 -0.188,-0.018 -0.273,-0.025c-0.362,-0.026 -0.723,-0.047 -1.085,-0.074c-0.179,-0.014 -0.178,-0.014 -0.357,-0.029c-1.787,-0.17 -3.07,-0.544 -3.978,-2.05l-0.008,-0.013c-0.054,-0.041 -0.108,-0.083 -0.161,-0.126c-0.054,-0.044 -0.107,-0.089 -0.159,-0.135c-0.554,-0.507 -0.78,-0.904 -1.049,-1.676c-0.09,-0.259 -0.114,-0.813 -0.114,-0.813c-3.166,-4.154 2.451,-9.936 5.852,-11.835c1.192,-0.666 2.086,-1.068 3.317,-1.104c0.11,0 0.11,0 0.219,0.002c0.304,0.013 0.556,0.042 0.847,0.112"/><path d="M82.969,57.131c0.005,-0.02 0.012,-0.043 0.023,-0.074c0.041,-0.113 0.106,-0.216 0.189,-0.302c0.021,-0.021 0.044,-0.04 0.066,-0.061l0.001,0c0.063,-0.047 0.077,-0.062 0.147,-0.099c0.105,-0.056 0.221,-0.088 0.34,-0.096c0.023,-0.002 0.047,-0.001 0.07,-0.002c0.055,-0.018 0.055,-0.015 0.112,-0.028l0.002,0l0.079,-0.01c0.079,-0.003 0.079,-0.003 0.158,0.002l0.006,0c0.087,0.014 0.086,0.014 0.171,0.036l0.007,0.002c0.071,0.027 0.071,0.027 0.139,0.059c0.075,0.036 0.14,0.089 0.201,0.144l0.006,0.006l0.024,0.026c0.065,0.043 0.13,0.086 0.195,0.129c0.148,0.094 0.147,0.094 0.296,0.186c0.037,0.023 0.076,0.05 0.115,0.069c0.112,0.055 0.23,0.099 0.347,0.14c0.277,0.099 0.563,0.168 0.855,0.208c0.259,0.036 0.521,0.047 0.783,0.049c0.289,0.002 0.578,-0.006 0.867,-0.022c0.815,-0.045 1.63,-0.152 2.428,-0.326c0.243,-0.053 0.484,-0.112 0.723,-0.179c0.1,-0.028 0.199,-0.057 0.298,-0.087c0.038,-0.012 0.076,-0.022 0.113,-0.036c0.495,-0.188 0.974,-0.412 1.451,-0.639l0.051,-0.024c0.37,-0.23 0.73,-0.477 1.096,-0.714c0.12,-0.076 0.12,-0.076 0.241,-0.151c0.186,-0.112 0.373,-0.226 0.568,-0.321c0.168,-0.081 0.345,-0.144 0.52,-0.207l0.016,-0.006c0.036,-0.027 0.072,-0.052 0.109,-0.077c0.052,-0.034 0.052,-0.034 0.105,-0.066c0.134,-0.075 0.273,-0.138 0.424,-0.168c0.096,-0.019 0.193,-0.024 0.291,-0.019c0.087,0.004 0.167,0.023 0.251,0.046c0.023,0.006 0.044,0.025 0.069,0.025l0.006,0c0.087,0.006 0.087,0.006 0.172,0.022l0.006,0.001c0.07,0.02 0.088,0.022 0.155,0.052c0.025,0.011 0.049,0.025 0.073,0.037l0.005,0.002c0.057,0.037 0.073,0.044 0.126,0.088c0.052,0.044 0.062,0.058 0.108,0.109l0.003,0.004c0.041,0.053 0.076,0.105 0.107,0.164l0.027,0.011c0.063,0.03 0.063,0.03 0.123,0.065l0.004,0.002c0.023,0.017 0.047,0.032 0.069,0.049c0.059,0.047 0.07,0.063 0.122,0.118l0.003,0.004c0.048,0.062 0.048,0.062 0.089,0.127l0.003,0.005c0.037,0.073 0.037,0.073 0.067,0.149l0.002,0.005c0.02,0.071 0.02,0.07 0.035,0.143l0.001,0.005c0.002,0.024 0.006,0.047 0.008,0.071c0.004,0.059 0,0.116 -0.006,0.174c0.755,0.889 0.742,2.975 0.219,3.842c-0.075,0.107 -0.075,0.107 -0.152,0.213c-0.318,0.427 -0.669,0.927 -1.213,1.074l-0.007,0.002c-0.1,0.019 -0.1,0.019 -0.201,0.029l-0.006,0c-0.153,0.002 -0.142,0 -0.26,-0.017l-0.006,-0.001c-0.09,-0.019 -0.176,-0.043 -0.26,-0.081c-0.086,0.056 -0.173,0.111 -0.261,0.164c-1.258,0.755 -2.296,0.706 -3.649,0.033l-0.05,-0.026c-0.085,0.004 -0.169,0.007 -0.254,0.01c-0.175,0.004 -0.175,0.003 -0.35,0.005c-0.446,-0.002 -0.891,-0.021 -1.336,-0.055c-0.427,0.092 -0.859,0.159 -1.294,0.194c-0.256,0.02 -0.511,0.026 -0.768,0.023c-0.417,-0.006 -0.833,-0.039 -1.246,-0.106c-0.058,0.011 -0.057,0.011 -0.116,0.021c-0.1,0.012 -0.2,0.017 -0.301,0.011c-0.241,-0.016 -0.469,-0.09 -0.692,-0.178l-0.025,-0.011c0.002,0.542 0.067,1.082 0.14,1.618c0.105,0.773 0.245,1.54 0.365,2.311c0.015,0.106 0.03,0.213 0.043,0.32c0.006,0.057 0.006,0.057 0.011,0.114c0.009,0.154 0.014,0.308 0.02,0.462c0.029,0.99 0.019,1.98 -0.001,2.97c0.023,0.172 0.045,0.344 0.066,0.516c0.155,1.339 0.241,2.684 0.24,4.032c0,0.391 -0.007,0.782 -0.021,1.173c-0.01,0.269 -0.019,0.538 -0.042,0.807c-0.001,0.104 -0.004,0.207 -0.007,0.311c-0.017,0.369 -0.046,0.743 -0.166,1.094c-0.021,0.133 -0.044,0.266 -0.068,0.399c-0.026,0.141 -0.054,0.282 -0.083,0.422c0.247,0.06 0.477,0.188 0.658,0.388c0,0 0.153,0.217 0.198,0.34c0,0 0.408,0.811 0.176,1.101c-0.427,0.532 -0.788,0.904 -1.452,0.653c-0.106,0.095 -0.21,0.19 -0.318,0.283c-1.086,0.899 -2.72,0.533 -4.006,0.375c-0.105,-0.012 -0.21,-0.023 -0.316,-0.033c-0.141,-0.011 -0.282,-0.016 -0.423,-0.018c-0.054,-0.003 -0.106,-0.009 -0.159,-0.016c-0.074,-0.013 -0.145,-0.033 -0.216,-0.057l-0.003,-0.001c-0.151,-0.064 -0.188,-0.085 -0.319,-0.184l-0.002,-0.001c-0.198,-0.177 -0.329,-0.396 -0.391,-0.655l-0.001,-0.002c-0.041,-0.275 0.004,-0.538 0.134,-0.784l0.001,-0.002c0.11,-0.172 0.182,-0.248 0.348,-0.368l0.006,-0.003c0.045,-0.028 0.074,-0.046 0.103,-0.062c0.022,-0.098 0.062,-0.192 0.117,-0.276c0.016,-0.024 0.034,-0.046 0.051,-0.069l0.001,-0.002c0.046,-0.051 0.055,-0.066 0.108,-0.111c0.048,-0.041 0.057,-0.044 0.104,-0.075c0.029,-0.077 0.06,-0.154 0.092,-0.23c0.079,-0.18 0.164,-0.356 0.254,-0.53l0.009,-0.017l-0.062,-0.037l-0.071,-0.054c-0.057,-0.054 -0.074,-0.065 -0.123,-0.128c-0.11,-0.141 -0.173,-0.316 -0.179,-0.494c-0.002,-0.06 0.003,-0.119 0.013,-0.178c0.005,-0.029 0.014,-0.058 0.02,-0.087c0.062,-0.214 0.123,-0.428 0.183,-0.643c0.317,-1.156 0.595,-2.322 0.813,-3.501c0.231,-1.244 0.395,-2.498 0.499,-3.758c-0.007,-0.222 -0.016,-0.444 -0.026,-0.666c-0.04,-0.842 -0.103,-1.683 -0.193,-2.521c-0.057,-0.54 -0.13,-1.077 -0.197,-1.615c-0.027,-0.223 -0.053,-0.447 -0.077,-0.67c-0.039,-0.372 -0.076,-0.744 -0.107,-1.117c-0.023,-0.286 -0.044,-0.572 -0.059,-0.859c-0.011,-0.202 -0.02,-0.405 -0.024,-0.608c-0.004,-0.154 -0.006,-0.309 -0.004,-0.464c0.001,-0.146 0.005,-0.291 0.014,-0.436c0.006,-0.103 0.014,-0.205 0.026,-0.307c0.037,-0.311 0.104,-0.639 0.283,-0.902c0.059,-0.303 0.185,-0.579 0.404,-0.809l0.003,-0.003c0.141,-0.127 0.22,-0.181 0.417,-0.258l0.006,-0.002c0.062,-0.018 0.11,-0.032 0.157,-0.042Z"/><path d="M119.555,75.397c0.927,0.103 1.438,1.057 1.011,1.869c0,0 0.006,0.042 0.018,0.058l0.049,0.067l0.044,0.071c0,0 0.057,0.114 0.082,0.173c0,0 0.04,0.131 0.056,0.198c0,0 0.017,0.131 0.021,0.197l0,0.012c-0.002,0.089 -0.002,0.089 -0.01,0.176l-0.002,0.013c-0.297,1.705 -3.394,1.806 -4.659,2.013c-0.177,0.03 -0.353,0.061 -0.529,0.093c-0.337,0.064 -0.672,0.136 -1.007,0.21c-0.628,0.143 -1.253,0.295 -1.88,0.44c-1.209,0.276 -3.789,0.796 -5.454,0.56c-4.874,-0.691 -7.32,-5.44 -8.247,-9.841c-0.034,-0.109 -0.067,-0.219 -0.099,-0.329c-0.382,-1.382 -0.483,-2.694 -0.329,-4.125c0.017,-0.145 0.009,-0.298 0.014,-0.444c0.216,-4.523 2.492,-8.509 6.998,-9.843c0.101,-0.061 0.203,-0.119 0.305,-0.177c2.521,-1.405 5.353,-1.932 8.198,-1.62c0.047,0.004 0.095,0.006 0.142,0.006c0.433,-0.004 1.031,-0.182 1.444,-0.282c0.091,-0.021 0.182,-0.041 0.273,-0.06c2.516,-0.498 3.197,0.887 3.163,3.104c-0.015,0.96 -0.165,2.401 -1.244,2.746l-0.012,0.003c-0.083,0.02 -0.083,0.02 -0.168,0.034l-0.011,0.001c-0.094,0.008 -0.093,0.008 -0.188,0.008l-0.011,0c-0.098,-0.009 -0.098,-0.009 -0.196,-0.027l-0.01,-0.002c-0.094,-0.025 -0.094,-0.025 -0.186,-0.059l-0.009,-0.004c-0.08,-0.037 -0.08,-0.036 -0.157,-0.08l-0.009,-0.005c-0.476,-0.317 -0.589,-0.789 -0.666,-1.321l-0.014,-0.094l-0.056,0.031c-0.028,0.013 -0.055,0.027 -0.083,0.039c-0.683,0.271 -1.957,0.001 -2.582,-0.087c-0.116,-0.014 -0.116,-0.014 -0.232,-0.026c-4.239,-0.386 -8.514,3.552 -10.124,7.228c-0.399,0.91 -0.83,2.767 -0.458,3.841c1.594,4.597 6.996,8.787 12.104,6.76c0.493,-0.198 0.986,-0.398 1.481,-0.594c0.808,-0.319 2.113,-0.929 3.099,-0.937c0.065,0.002 0.065,0.002 0.13,0.006" style="fill-rule:nonzero;"/><path d="M80.654,31.327c0.07,-0.063 0.139,-0.125 0.208,-0.188c0.214,-0.191 0.427,-0.382 0.642,-0.571c2.57,-2.258 5.006,-4.041 7.894,-5.67c0.11,-0.064 0.22,-0.129 0.33,-0.195c0.478,-0.295 0.938,-0.617 1.393,-0.948c0.559,-0.411 1.11,-0.833 1.669,-1.245c0.61,-0.446 1.211,-0.844 1.849,-1.236c0.215,-0.135 0.428,-0.271 0.644,-0.404c0.759,-0.457 2.065,-0.936 2.334,0.258l0.003,0.018l0.005,0.035c0.682,0.274 1.117,1.084 0.342,1.613c-0.437,0.264 -0.874,0.526 -1.313,0.788c-0.477,0.283 -0.957,0.564 -1.438,0.842c-0.196,0.115 -0.392,0.23 -0.587,0.347c-5.526,3.329 -10.549,7.483 -15.608,11.446c-0.466,0.364 -0.936,0.723 -1.398,1.091c-0.874,0.708 -1.559,1.408 -2.334,2.244c-0.542,0.589 -1.073,1.187 -1.614,1.777c-0.64,0.691 -0.618,0.648 -1.287,1.335c-0.047,0.049 -0.093,0.099 -0.138,0.15c-0.324,0.372 -0.864,1.115 -1.145,1.651c-0.007,0.015 -0.007,0.015 -0.013,0.029c0,0 0.007,0.066 0.017,0.097c0.153,0.576 -0.148,1.206 -0.717,1.39l-0.009,0.003c-0.076,0.018 -0.076,0.018 -0.153,0.029l-0.008,0.001c-0.091,0.004 -0.091,0.004 -0.183,-0.001l-0.007,-0.001c-0.097,-0.016 -0.096,-0.016 -0.191,-0.043l-0.006,-0.002c-0.065,-0.026 -0.123,-0.054 -0.183,-0.089l-0.006,-0.004c-0.072,-0.051 -0.071,-0.051 -0.137,-0.108l-0.006,-0.005c-0.232,-0.245 -0.302,-0.534 -0.287,-0.865l0.002,-0.017c-0.064,-0.065 -0.127,-0.132 -0.189,-0.199c-0.045,-0.052 -0.045,-0.051 -0.089,-0.104c-0.018,-0.022 -0.036,-0.044 -0.053,-0.067c-0.055,-0.042 -0.104,-0.091 -0.156,-0.137c-0.054,-0.045 -0.109,-0.088 -0.165,-0.131c-0.204,-0.152 -0.412,-0.298 -0.615,-0.45c-0.086,-0.066 -0.085,-0.066 -0.17,-0.133c-2.178,-1.795 1.103,-4.202 2.283,-5.425c0.13,-0.168 0.26,-0.337 0.393,-0.503c0.961,-1.171 2.065,-2 3.285,-2.986c0.305,-0.296 0.594,-0.609 0.894,-0.91c0.61,-0.605 1.984,-2.092 3.016,-1.407c0.153,-0.106 0.306,-0.211 0.46,-0.315c0.488,-0.324 0.985,-0.632 1.493,-0.923l0.058,-0.031c0.131,-0.056 0.183,-0.068 0.314,-0.083c0.065,-0.002 0.065,-0.002 0.13,0.001c0.205,0.024 0.4,0.105 0.547,0.251m15.236,-9.938l0.005,0.029c-0.002,-0.024 -0.006,-0.053 -0.005,-0.029"/><path d="M85.966,48.414c0.416,0.019 0.82,-0.023 1.371,-0.125l0.04,-0.007c0.072,-0.057 0.145,-0.115 0.218,-0.171l0.075,-0.056c0.16,-0.107 0.146,-0.096 0.296,-0.172l0.005,-0.002c0.292,-0.119 0.605,-0.187 0.921,-0.141c2.567,-2.929 1.723,-7.782 -1.24,-10.095c-1.037,-0.81 -3.275,-1.266 -4.498,-1.527l-0.072,-0.016c-0.394,-0.101 -0.744,-0.31 -0.993,-0.639c0,0 -0.368,-0.056 -0.553,-0.073c-0.032,-0.002 -0.063,-0.002 -0.095,-0.001c-0.643,0.029 -1.402,0.423 -1.95,0.636c-0.129,0.049 -0.129,0.049 -0.258,0.097c-0.233,0.083 -0.467,0.159 -0.705,0.223c-0.227,0.057 -0.455,0.111 -0.683,0.165l-0.364,0.086l-0.033,0.02c-0.606,0.338 -1.337,0.448 -1.997,0.196l-0.009,-0.004c-0.129,-0.059 -0.119,-0.051 -0.273,-0.146l-0.003,-0.002c-0.119,-0.084 -0.11,-0.074 -0.248,-0.198l-0.002,-0.002c-0.13,-0.137 -0.123,-0.121 -0.259,-0.32l-0.002,-0.002c-0.104,-0.179 -0.126,-0.227 -0.191,-0.423l-0.001,-0.002c-0.066,-0.255 -0.074,-0.352 -0.068,-0.593l0,-0.002c0.018,-0.195 0.028,-0.244 0.083,-0.432l0.001,-0.003c0.081,-0.216 0.107,-0.269 0.235,-0.461l0.004,-0.006c0.11,-0.141 0.096,-0.132 0.263,-0.289l0.006,-0.006c0.304,-0.248 0.471,-0.32 0.912,-0.451l0.011,-0.003c0.056,-0.063 0.11,-0.127 0.165,-0.192c0.167,-0.201 0.33,-0.405 0.497,-0.606c0.314,-0.367 0.539,-0.607 0.915,-0.863c0.093,-0.059 0.187,-0.116 0.279,-0.176c3.524,-2.407 0.492,-7.609 -2.275,-9.253c-2.5,-1.486 -5.447,0.382 -7.644,1.344c-0.137,0.059 -0.275,0.119 -0.412,0.177c-0.297,0.124 -0.6,0.236 -0.897,0.36c-0.062,0.027 -0.124,0.056 -0.186,0.086c-0.338,0.17 -0.665,0.348 -0.964,0.577c-0.089,0.066 -0.179,0.131 -0.269,0.195c-0.352,0.245 -0.714,0.474 -1.085,0.689l-0.063,0.036c-1.097,0.565 -3.056,-0.437 -2.527,-1.81c0.424,-1.1 1.125,-1.401 2.048,-1.987l0.058,-0.037c0.067,-0.061 0.124,-0.13 0.185,-0.197c0.064,-0.067 0.064,-0.067 0.13,-0.132c3.655,-3.523 9.351,-4.029 13.963,-2.371c3.643,1.31 6.71,5.026 6.176,9.069c-0.17,1.291 -0.553,2.568 -1.11,3.744c0.223,0.032 0.445,0.065 0.668,0.1c2.469,0.393 5.681,1.445 7.547,3.241c4.001,3.848 4.907,12.005 -0.317,15.214c-0.953,0.849 -2.125,1.322 -3.393,1.467c-0.796,0.239 -1.628,0.321 -2.458,0.295c-0.018,0.001 -0.039,0.002 -0.067,0.004c-0.17,0 -0.34,0 -0.509,0.002c-0.516,0.012 -0.52,0.032 -0.996,0.136c-0.156,0.032 -0.156,0.032 -0.311,0.061c-1.505,0.265 -3.211,0.325 -4.712,-0.056c-0.093,-0.008 -0.187,-0.018 -0.281,-0.028c-0.661,-0.079 -1.315,-0.213 -1.956,-0.392l-0.036,-0.011c-1.303,-0.421 -1.635,-2.244 -0.503,-3.045l-0.008,-0.091l0,-0.005l-0.002,-0.102c0.003,-0.102 0.003,-0.101 0.013,-0.202l0.001,-0.005c0.033,-0.212 0.064,-0.341 0.158,-0.532c0.156,0.008 0.312,0.018 0.468,0.028c0.677,0.048 1.352,0.106 2.029,0.153c0.374,0.024 0.748,0.044 1.122,0.04c0.092,-0.002 0.092,-0.002 0.183,-0.005c0.47,-0.022 0.94,-0.064 1.411,-0.074c0.28,-0.005 0.566,-0.007 0.842,0.048c0.032,0.007 0.063,0.015 0.093,0.025c0.038,0.013 0.073,0.033 0.109,0.05c0.057,0.026 0.11,0.048 0.169,0.071c0.196,0.076 0.399,0.132 0.606,0.172c0.617,0.119 1.256,0.102 1.876,0.019c0.407,-0.054 0.81,-0.139 1.205,-0.249c0.04,-0.012 0.08,-0.023 0.121,-0.035Z"/></g></svg>