<?xml version="1.0" encoding="utf-8"?>
<!-- Generator: Adobe Illustrator 16.0.0, SVG Export Plug-In . SVG Version: 6.00 Build 0)  -->
<!DOCTYPE svg PUBLIC "-//W3C//DTD SVG 1.1//EN" "http://www.w3.org/Graphics/SVG/1.1/DTD/svg11.dtd">
<svg version="1.1" id="barco" xmlns="http://www.w3.org/2000/svg" xmlns:xlink="http://www.w3.org/1999/xlink" x="0px" y="0px"
	 width="250px" height="225px" viewBox="395.8 428.7 250 225" enable-background="new 395.8 428.7 250 225" xml:space="preserve">
<g id="FRAME_0">
	<polygon fill="#1D4F63" fill-opacity="0.3" points="529.5,711.5 515.5,711.5 395.8,615.2 645.8,615.2 	"/>
	<path fill="#DAEDFF" d="M514,436.5v-3.8h5.2l94.2,151.5l9.8,15.8l2,4.5l-2.8,0.8l-112,10l0.2-24.5v-4l0.2-1V575l0.2-1.8v-10
		l0.2-2.5v-9.2l0.2-3V540l0.2-4v-7.8l0.2-4.8v-7l0.2-5.5v-6l0.2-6.2v-5.5l0.2-7v-4.5l0.2-8V470l0.2-8.8v-3l0.2-9.2v-2.5L514,436.5
		 M401.2,602.8L502,432.5h5.2l-0.5,158.2l-0.2,22v2H398.2H395l0.5-2l4.2-7.8L401.2,602.8"/>
	<path fill="#7F7F7F" d="M510.7,590.8l-0.2,24.5l112-10L635,610c7.8,3.5,11.7,6.2,11.5,8.2c-61,42.5-144.4,46.9-250.2,13.2l2-16.8
		h108.2v-2l0.2-22H510.7 M399.7,603.2l1.5-0.5l-1.5,2.2V603.2"/>
</g>
<g id="FRAME_1">
	<polygon fill="#1D4F63" fill-opacity="0.3" points="527.8,725.5 513.8,725.5 395.8,615.2 645.8,615.2 	"/>
	<path fill="#DAEDFF" d="M514,439.2V436l5-0.2l86.2,136l19.2,30.5l0.8,3l-2.8,0.2l-112,10V599l0.2-8v-3.5l0.2-1v-10.2l0.2-1.8v-9.8
		l0.2-2.5v-9l0.2-3.2v-8.2l0.2-4v-7.5l0.2-4.5v-7l0.2-5.2v-5.8l0.2-6.5v-5l0.2-7.2v-4.2l0.2-7.8v-3.8l0.2-8.5v-3l0.2-9.2v-2.2
		l0.2-10V439.2 M502,435.8h5.2L506.7,591l-0.2,22v2.2H398.2H395l0.5-2.2l4-7.2l1.8-2.8L502,435.8"/>
	<path fill="#7F7F7F" d="M510.7,591l-0.2,8v16.5l112-10l11,3.8c8.7,4.3,13.1,7.4,13.2,9.2C586.2,661,502.7,665.4,396,631.8l2.2-16.5
		h108.2V613l0.2-22H510.7 M399.5,605.8l0.2-2.5l1.5-0.2L399.5,605.8"/>
</g>
<g id="FRAME_2">
	<polygon fill="#1D4F63" fill-opacity="0.3" points="527.8,722.5 513.8,722.5 395.8,615.2 645.8,615.2 	"/>
	<path fill="#DAEDFF" d="M514,445.2l5.2-0.2l90,135l15.8,23.8l0.5,2.2l-2,0.5l-113,10V601l0.2-0.5v-9v-1.2l0.2-1.2v-9.8l0.2-1.8v-9
		l0.2-2.5v-8.2l0.2-3.2V547l0.2-4v-7l0.2-4.5v-6l0.2-5.5v-5.2l0.2-6.5V504l0.2-7.2V493l0.2-7.8v-3l0.2-8.5v-2.2l0.2-9.2v-1.5l0.2-10
		v-1V448V445.2 M501.7,444.8h5.5l-0.5,146.8l-0.2,22.5l-0.2,2.2H398h-3.2l0.5-2.2l4-6.8l2.5-3.8L501.7,444.8"/>
	<path fill="#7F7F7F" d="M510.7,591.5v9l-0.2,0.5v15.5l113-10l11,4c8,4,12.1,6.9,12.2,8.8c-60.2,42.5-143.8,47-250.8,13.5l2-16.5
		h108.2l0.2-2.2l0.2-22.5H510.7 M399.2,607.2l0.2-2.8l2.2-1L399.2,607.2"/>
</g>
<g id="FRAME_3">
	<polygon fill="#1D4F63" fill-opacity="0.3" points="527.8,720.5 513.8,720.5 395.8,615.2 645.8,615.2 	"/>
	<path fill="#DAEDFF" d="M514,459l5.2-0.5l94.8,131l10.2,14.2l1.5,3.5l-1.5,0.5L510.5,618v-14.2l0.2-0.5V594v-1.5l0.2-8.5l0.2-2
		v-7.8l0.2-2.8v-7.2l0.2-3.2v-6.5l0.2-4v-5.8l0.2-4.8v-5l0.2-5.8v-4l0.2-6.5v-3.5l0.2-7v-2.8l0.2-7.8v-2.2l0.2-8.2v-1.5l0.2-9v-1
		l0.2-9.5v-4.8V459 M501.5,458.8h5.5l-0.2,133.8l-0.2,23l-0.2,2.2H398h-3.2l0.2-2.2l4-6.2l3.5-5L501.5,458.8"/>
	<path fill="#7F7F7F" d="M510.7,592.5v1.5v9.2l-0.2,0.5V618l113.8-10.2l9.5,3.2c8.7,4.5,13.1,7.7,13.2,9.5
		c-61.7,42.3-145.3,46.9-251,13.8l2-16.5h108.2l0.2-2.2l0.2-23H510.7 M399,609.2l0.5-4.2l3-0.8L399,609.2"/>
</g>
<g id="FRAME_4">
	<polygon fill="#1D4F63" fill-opacity="0.3" points="527.8,727.5 513.8,727.5 395.8,615.2 645.8,615.2 	"/>
	<path fill="#DAEDFF" d="M514,476.2l5.2-0.2l86.2,106l20,24.8l0.5,2.2l-0.2,0.5l-112.5,10.2c-2.7,1.2-3.7-0.1-3-3.8l0.2-8.8l0.2-1
		v-7.8l0.2-1.5v-3.2v-1v-3l0.2-2V581l0.2-2.8v-6l0.2-3.2v-5.2l0.2-4.2V555l0.2-4.8v-3.8l0.2-5.5v-3.2l0.2-6.2V529l0.2-6.8v-2
		l0.2-7.2v-1.2l0.2-8.2l0.5-25V476.2 M506.7,592.8v1v23.5l-0.2,2.2H397.7h-3.2l0.5-2.2l3.5-5.2l5.2-6.8L501.2,476h5.8L506.7,592.8"
		/>
	<path fill="#7F7F7F" d="M511,592.8v1v3.2l-0.2,1.5v7.8l-0.2,1l-0.2,8.8c-0.7,3.7,0.3,4.9,3,3.8l112.5-10.2l7.5,2.5
		c9,4.7,13.6,8,13.8,10c-61,42-144.7,46.6-251,13.8l1.8-16.2h108.8l0.2-2.2v-23.5v-1H511 M399.2,606.2l4.5-1l-5.2,6.8L399.2,606.2"
		/>
</g>
<g id="FRAME_5">
	<polygon fill="#1D4F63" fill-opacity="0.3" points="520.8,736.5 506.8,736.5 395.8,615.2 645.8,615.2 	"/>
	<path fill="#DAEDFF" d="M514.2,495.8l5.2-0.2l91.5,97.2l13.5,14.5c1.3,1,1.9,2.2,1.8,3.5l0.2,0.5l-113.8,10.5c-2.2,1-3-0.2-2.5-3.5
		l0.2-0.5V611l0.2-1.2v-6.2l0.2-1.8V596v-1l0.2-1.2v-5.2l0.2-3V581l0.2-3.5v-4l0.2-4V566l0.2-4.5v-2.8l0.2-5.5v-2l0.2-6V544l0.2-6.8
		v-0.8l0.2-7.2l0.8-31.8L514.2,495.8 M506.7,593.5v1.5v24.2l-0.8,2.2H397.5h-3.2l0.2-2.2l3.8-4.5l7.5-8.8L501,495.5
		C509,501.5,510.9,534.2,506.7,593.5"/>
	<path fill="#7F7F7F" d="M511.2,593.8L511,595v1v5.8l-0.2,1.8v6.2l-0.2,1.2v6.8l-0.2,0.5c-0.5,3.3,0.3,4.5,2.5,3.5l113.8-10.5l6.8,2
		c9.3,4.7,14,8.1,14,10.2c-63,42-146.8,46.7-251.2,14l1.5-16H506l0.8-2.2V595v-1.5L511.2,593.8 M405.7,606l-7.5,8.8l0.5-6.2l0.2-0.8
		l1.8-0.5l0.5-0.2l1-0.2l1-0.2l1.5-0.2L405.7,606"/>
</g>
<g id="FRAME_6">
	<polyline fill="#1D4F63" fill-opacity="0.3" points="645.8,615.2 520.8,748.5 506.8,748.5 395.8,615.2 	"/>
	<path fill="#DAEDFF" d="M514.2,515.5l5.8-0.2l101.5,91c3.7,2.8,5.3,5,5,6.5l-113.2,10.8c-2.7,0.8-3.7-0.1-3-2.8l0.2-1.2v-5l0.2-1.5
		v-4.8l0.2-2V602l0.2-2.5V596v-1.8l0.2-1.5v-3.5l0.2-3.5V583l0.2-4v-2l0.2-4.8v-1.5l0.2-5.2v-1l0.2-5.8l1.5-41V515.5 M506.7,594.2
		v1.8l-0.5,25l-0.2,2.2H397.2H394l0.5-2.2l3.5-3.8l10.8-10.8l0.5-0.5l91.8-91C509,519.7,510.9,546.1,506.7,594.2"/>
	<path fill="#7F7F7F" d="M511.2,594.2v1.8v3.5L511,602v4.2l-0.2,2v4.8l-0.2,1.5v5l-0.2,1.2c-0.7,2.7,0.3,3.6,3,2.8l113.2-10.8l7.2,2
		c9,4.8,13.6,8.2,13.8,10c-63.2,41.8-147.1,46.6-251.8,14.2l1.5-15.8H506l0.2-2.2l0.5-25v-1.8H511.2 M409.2,606l-0.5,0.5L398,617.2
		l1-8.2L409.2,606"/>
</g>
<g id="FRAME_7">
	<polyline fill="#1D4F63" fill-opacity="0.3" points="645.8,615.2 513.5,767.5 499.5,767.5 395.8,615.2 	"/>
	<path fill="#DAEDFF" d="M514.2,532.8l5.8-0.5l95.8,71.8c7.3,4.7,11,7.8,11,9.5l-0.2,0.8l-115,11l-1-0.5l-0.2-2l0.2-1.5v-3.8
		l0.2-1.8v-3.5l0.2-2V607l0.2-2.5v-2.8l0.2-3v-1.5v-0.8V595l0.2-2v-1.8l0.2-4v-1l0.2-4.8l0.2-5.5l1.8-40.2V532.8 M506.7,595v2.2
		l-0.5,25.2l-0.2,2.2H397.2H394l0.5-2.2l3.2-3l15.2-13l1.2-1l86.5-73.2C508.9,535.6,510.9,556.5,506.7,595"/>
	<path fill="#7F7F7F" d="M511.5,595v1.5v0.8v1.5l-0.2,3v2.8L511,607v3.2l-0.2,2v3.5l-0.2,1.8v3.8l-0.2,1.5l0.2,2l1,0.5l115-11
		l0.2-0.8l7.5,2.5l11.8,7.5l1.5,1l0.2,1.5c-63,41.5-147,46.3-252,14.5l1.5-15.8H506l0.2-2.2l0.5-25.2V595H511.5 M414.2,605.5l-1.2,1
		l-15.2,13l0.5-7.8l0.8-1.8l0.8-0.8L414.2,605.5"/>
</g>
<g id="FRAME_8">
	<polyline fill="#1D4F63" fill-opacity="0.3" points="645.8,615.2 510.5,783.5 496.5,783.5 395.8,615.2 	"/>
	<path fill="#DAEDFF" d="M514.2,545.2l5.5-0.5l101.8,65c3.7,1.8,5.4,3.3,5.2,4.5l0.2,1l-114.8,11h-1.8l-0.2-2l0.2-1.8v-3l0.2-1.8
		V615l0.2-2v-2.5l0.2-2.5v-2l0.2-3v-1.5V598l0.2-1v-1.5l0.2-2.5l2.2-44.8V545.2 M506.5,595.5v2.5l-0.2,25.8l-0.2,2H397h-3.2l0.2-2
		l3.5-2.8l20-14.8l2.2-1.8l80.8-59.8C508.7,547.1,510.7,564,506.5,595.5"/>
	<path fill="#7F7F7F" d="M511.7,595.5v1.5l-0.2,1v3.5v1.5l-0.2,3v2l-0.2,2.5v2.5l-0.2,2v2.8l-0.2,1.8v3l-0.2,1.8l0.2,2h1.8l114.8-11
		l-0.2-1l0.8,0.2l0.5,0.2l0.8,0.2l5.5,1.8c9,4.7,13.4,8.1,13.2,10.2c-63.5,41.2-147.4,45.9-251.8,14.2l1.2-15.5h109l0.2-2l0.2-25.8
		v-2.5H511.7 M417.5,606.2l-20,14.8l1-10l2-1.5l19.2-5L417.5,606.2"/>
</g>
<g id="FRAME_9">
	<polyline fill="#1D4F63" fill-opacity="0.3" points="645.8,615.2 510.5,783.5 496.5,783.5 395.8,615.2 	"/>
	<path fill="#DAEDFF" d="M514.2,549.8l6-0.2L611,604l15.8,9.5v1v1.2l-115.5,11l-0.8-0.2l-0.2-1.8l0.2-1.8v-2.5l0.2-2v-2.2l0.2-2.5
		V612l0.2-2.8v-1.5l0.2-3.2v-1l0.2-3.5v-1.8v-2.8l2.5-42.5V549.8 M506.5,595.5v2.8l-0.2,25.8l-0.2,2.2H397h-3.2l0.5-2.2l3.2-2.5
		l22.2-15.8l2.8-1.8l78-54.5C508.7,551.5,510.7,566.8,506.5,595.5"/>
	<path fill="#7F7F7F" d="M511.7,595.5v2.8v1.8l-0.2,3.5v1l-0.2,3.2v1.5L511,612v1.8l-0.2,2.5v2.2l-0.2,2v2.5l-0.2,1.8l0.2,1.8
		l0.8,0.2l115.5-11v-1.2l0.8,0.2l0.5,0.2l0.8,0.2l0.8,0.2l1,0.2l0.8,0.2c10.7,5.3,16.2,9.1,16.5,11.2c-63.3,41.2-147.3,46-252,14.5
		l1.2-15.5h109l0.2-2.2l0.2-25.8v-2.8H511.7 M422.5,604l-2.8,1.8l-22.2,15.8l1-10.2l1.2-1.2L422.5,604"/>
</g>
</svg>
