<?xml version="1.0" encoding="utf-8"?>
<!-- Generator: Adobe Illustrator 16.0.0, SVG Export Plug-In . SVG Version: 6.00 Build 0)  -->
<!DOCTYPE svg PUBLIC "-//W3C//DTD SVG 1.1//EN" "http://www.w3.org/Graphics/SVG/1.1/DTD/svg11.dtd">
<svg version="1.1" id="pi" xmlns="http://www.w3.org/2000/svg" xmlns:xlink="http://www.w3.org/1999/xlink" x="0px" y="0px"
	 width="29.2px" height="51.4px" viewBox="0 0 29.2 51.4" enable-background="new 0 0 29.2 51.4" xml:space="preserve">
<rect x="26.6" y="0" fill="#AEAFB2" width="2.6" height="46.4"/>
<polygon fill="#68666B" points="25.5,0 26.6,0 26.6,46.4 25.5,45.4 "/>
<polygon fill="#860315" points="26.2,21.4 20.3,24.1 9,23.3 3,24.9 3.4,8.9 8.6,7.5 19.7,8.3 26.2,5.5 "/>
<polygon fill="#E3562D" points="26.2,20.9 20.3,23.6 9,22.8 3,24.4 3.8,8.3 8.6,7 19.7,7.8 26.2,5 "/>
<circle fill="#57565B" cx="3.8" cy="48" r="2.4"/>
<rect x="3.1" y="1.6" fill="#AEAFB2" width="2.7" height="47"/>
<rect x="3.1" y="2.4" fill="#FFFFFF" width="0" height="46.1"/>
<polygon fill="#68666B" points="2,1.6 3.1,1.6 3.1,48.6 2,47.9 "/>
</svg>
