<?xml version="1.0" encoding="utf-8"?>
<!-- Generator: Adobe Illustrator 16.0.0, SVG Export Plug-In . SVG Version: 6.00 Build 0)  -->
<!DOCTYPE svg PUBLIC "-//W3C//DTD SVG 1.1//EN" "http://www.w3.org/Graphics/SVG/1.1/DTD/svg11.dtd">
<svg version="1.1" id="Layer_1" xmlns="http://www.w3.org/2000/svg" xmlns:xlink="http://www.w3.org/1999/xlink" x="0px" y="0px"
	 width="29.2px" height="75.2px" viewBox="0 0 29.2 75.2" enable-background="new 0 0 29.2 75.2" xml:space="preserve">
<g id="FRAME_0">
	<polygon fill="#6C207D" points="28.34,24.32 21.89,21.97 9.55,24.03 3,24.9 3.44,6.23 9.12,5.59 21.24,3.53 28.34,5.76 	"/>
	<polygon fill="#83498F" points="28.34,23.73 21.89,21.38 9.55,23.45 3,24.32 3.87,5.53 9.12,5.01 21.24,2.94 28.34,5.18 	"/>
	<circle fill="#57565B" cx="3.8" cy="72.8" r="2.4"/>
</g>
<g id="FRAME_1">
	<polygon fill="#6C207D" points="28.34,20.82 21.89,23.97 9.55,23.03 3,24.9 3.44,6.23 9.12,4.59 21.24,5.53 28.34,2.26 	"/>
	<polygon fill="#83498F" points="28.34,20.23 21.89,23.38 9.55,22.45 3,24.32 3.87,5.53 9.12,4.01 21.24,4.94 28.34,1.68 	"/>
	<circle fill="#57565B" cx="3.8" cy="72.8" r="2.4"/>
</g>
<g id="Layer_3">
	<rect x="3.1" y="1.6" fill="#AEAFB2" width="2.7" height="71.77"/>
	<circle fill="#7B318F" cx="16.14" cy="11.222" r="7.24"/>
	<rect x="3.1" y="2.82" fill="#FFFFFF" width="0" height="70.4"/>
	<polygon fill="#68666B" points="2,1.6 3.1,1.6 3.1,73.37 2,72.299 	"/>
	<rect x="26.5" y="1.6" fill="#AEAFB2" width="2.699" height="67.37"/>
	<rect x="26.5" y="2.75" fill="#FFFFFF" width="0" height="66.081"/>
	<polygon fill="#68666B" points="25.4,1.6 26.5,1.6 26.5,68.97 25.4,67.969 	"/>
	<g>
		<path fill="#FFFFFF" d="M15.432,8.457l-1.459,0.161c-0.036-0.3-0.128-0.522-0.279-0.665c-0.15-0.143-0.345-0.214-0.584-0.214
			c-0.318,0-0.587,0.143-0.807,0.429c-0.22,0.286-0.358,0.881-0.416,1.786c0.375-0.443,0.842-0.665,1.399-0.665
			c0.629,0,1.168,0.239,1.617,0.719c0.448,0.479,0.673,1.098,0.673,1.855c0,0.804-0.236,1.45-0.708,1.936s-1.078,0.729-1.818,0.729
			c-0.793,0-1.446-0.309-1.958-0.925s-0.767-1.627-0.767-3.033c0-1.441,0.266-2.479,0.799-3.116
			c0.533-0.637,1.225-0.955,2.076-0.955c0.597,0,1.091,0.167,1.483,0.501C15.075,7.335,15.325,7.82,15.432,8.457z M12.016,11.744
			c0,0.49,0.113,0.868,0.338,1.134c0.226,0.267,0.483,0.399,0.772,0.399c0.279,0,0.511-0.109,0.697-0.327
			c0.186-0.218,0.279-0.575,0.279-1.072c0-0.511-0.1-0.886-0.3-1.124s-0.451-0.357-0.751-0.357c-0.29,0-0.535,0.114-0.735,0.341
			S12.016,11.301,12.016,11.744z"/>
		<path fill="#FFFFFF" d="M18.982,6.499c0.762,0,1.357,0.272,1.786,0.815c0.512,0.644,0.767,1.711,0.767,3.202
			c0,1.487-0.257,2.556-0.771,3.207c-0.426,0.536-1.02,0.805-1.781,0.805c-0.765,0-1.382-0.294-1.85-0.882
			c-0.469-0.588-0.703-1.637-0.703-3.146c0-1.48,0.258-2.545,0.772-3.196C17.627,6.768,18.221,6.499,18.982,6.499z M18.982,7.749
			c-0.182,0-0.345,0.058-0.487,0.174c-0.144,0.116-0.254,0.324-0.333,0.625c-0.104,0.39-0.155,1.046-0.155,1.968
			s0.046,1.556,0.14,1.901c0.093,0.345,0.21,0.575,0.351,0.689c0.142,0.114,0.304,0.171,0.485,0.171
			c0.183,0,0.346-0.058,0.488-0.174s0.254-0.325,0.333-0.625c0.104-0.386,0.155-1.041,0.155-1.963s-0.047-1.556-0.14-1.901
			c-0.093-0.345-0.21-0.575-0.352-0.691C19.327,7.807,19.165,7.749,18.982,7.749z"/>
	</g>
	<g>
		<path fill="#FFFFFF" d="M14.019,17.12v-2.358h0.452v1.251L15,15.412h0.557l-0.584,0.624l0.625,1.084h-0.486l-0.43-0.767
			l-0.211,0.22v0.547H14.019z"/>
		<path fill="#FFFFFF" d="M15.834,15.412h0.416v0.233c0.149-0.181,0.326-0.272,0.532-0.272c0.109,0,0.205,0.023,0.285,0.068
			s0.146,0.113,0.197,0.204c0.075-0.091,0.156-0.159,0.243-0.204s0.18-0.068,0.278-0.068c0.126,0,0.231,0.026,0.318,0.077
			s0.152,0.125,0.195,0.225c0.03,0.073,0.046,0.19,0.046,0.354v1.092h-0.452v-0.977c0-0.169-0.015-0.279-0.046-0.328
			c-0.042-0.064-0.106-0.096-0.193-0.096c-0.063,0-0.123,0.019-0.179,0.058s-0.096,0.095-0.12,0.17
			c-0.025,0.075-0.037,0.192-0.037,0.353v0.82h-0.452v-0.936c0-0.167-0.008-0.273-0.024-0.322c-0.016-0.048-0.041-0.084-0.074-0.108
			c-0.034-0.023-0.08-0.035-0.138-0.035c-0.07,0-0.133,0.019-0.188,0.056s-0.096,0.092-0.12,0.163
			c-0.023,0.071-0.036,0.188-0.036,0.352v0.83h-0.451V15.412z"/>
	</g>
	<g>
		<path fill="#FFFFFF" d="M7.445,21.271v-2.509h0.511v2.083h1.271v0.426H7.445z"/>
		<path fill="#FFFFFF" d="M11.872,21.271h-0.556l-0.221-0.575h-1.011l-0.209,0.575H9.333l0.985-2.53h0.541L11.872,21.271z
			 M10.931,20.271l-0.349-0.939l-0.342,0.939H10.931z"/>
		<path fill="#FFFFFF" d="M12.144,21.271v-2.53h1.075c0.271,0,0.467,0.023,0.589,0.068s0.221,0.126,0.294,0.243
			s0.11,0.249,0.11,0.398c0,0.19-0.056,0.347-0.167,0.47c-0.111,0.124-0.278,0.202-0.5,0.234c0.11,0.064,0.202,0.135,0.273,0.212
			c0.072,0.077,0.169,0.214,0.291,0.411l0.309,0.494h-0.611l-0.369-0.551c-0.131-0.196-0.221-0.32-0.269-0.372
			s-0.1-0.086-0.154-0.105s-0.14-0.028-0.257-0.028h-0.104v1.056H12.144z M12.655,19.812h0.378c0.245,0,0.398-0.01,0.459-0.031
			c0.061-0.021,0.108-0.056,0.143-0.107s0.052-0.114,0.052-0.19c0-0.085-0.023-0.154-0.068-0.206s-0.109-0.085-0.192-0.099
			c-0.041-0.006-0.166-0.009-0.373-0.009h-0.399V19.812z"/>
		<path fill="#FFFFFF" d="M15.873,20.341v-0.426h1.101v1.008c-0.106,0.104-0.262,0.195-0.465,0.273
			c-0.203,0.079-0.409,0.118-0.617,0.118c-0.265,0-0.495-0.055-0.691-0.167c-0.197-0.111-0.346-0.27-0.444-0.476
			s-0.148-0.431-0.148-0.674c0-0.264,0.056-0.498,0.166-0.703s0.272-0.362,0.485-0.471c0.162-0.084,0.363-0.126,0.605-0.126
			c0.313,0,0.56,0.066,0.735,0.198c0.177,0.132,0.291,0.313,0.342,0.546l-0.508,0.095c-0.036-0.125-0.103-0.223-0.201-0.294
			s-0.221-0.108-0.368-0.108c-0.224,0-0.401,0.071-0.533,0.212c-0.131,0.142-0.197,0.352-0.197,0.63c0,0.3,0.066,0.525,0.2,0.676
			c0.134,0.15,0.309,0.225,0.524,0.225c0.107,0,0.215-0.021,0.322-0.063s0.2-0.093,0.277-0.153v-0.321H15.873z"/>
		<path fill="#FFFFFF" d="M19.726,21.271H19.17l-0.222-0.575h-1.011l-0.209,0.575h-0.542l0.985-2.53h0.54L19.726,21.271z
			 M18.785,20.271l-0.349-0.939l-0.341,0.939H18.785z"/>
		<path fill="#FFFFFF" d="M19.996,18.741h0.934c0.21,0,0.371,0.016,0.481,0.048c0.148,0.044,0.275,0.122,0.381,0.233
			c0.106,0.111,0.187,0.248,0.242,0.41c0.055,0.162,0.083,0.361,0.083,0.598c0,0.208-0.026,0.388-0.078,0.538
			c-0.063,0.184-0.153,0.333-0.271,0.447c-0.089,0.086-0.209,0.153-0.359,0.202c-0.113,0.036-0.264,0.054-0.452,0.054h-0.961V18.741
			z M20.506,19.169v1.676h0.381c0.143,0,0.246-0.008,0.31-0.024c0.082-0.021,0.151-0.056,0.206-0.105s0.099-0.131,0.134-0.244
			c0.034-0.113,0.052-0.268,0.052-0.463c0-0.196-0.018-0.346-0.052-0.451c-0.035-0.104-0.083-0.187-0.146-0.245
			c-0.062-0.059-0.141-0.098-0.236-0.119c-0.071-0.016-0.211-0.024-0.419-0.024H20.506z"/>
		<path fill="#FFFFFF" d="M24.832,21.271h-0.556l-0.222-0.575h-1.011l-0.209,0.575h-0.542l0.985-2.53h0.54L24.832,21.271z
			 M23.89,20.271l-0.349-0.939l-0.341,0.939H23.89z"/>
	</g>
</g>
</svg>
