<?xml version="1.0" encoding="utf-8"?>
<!-- Generator: Adobe Illustrator 16.0.0, SVG Export Plug-In . SVG Version: 6.00 Build 0)  -->
<!DOCTYPE svg PUBLIC "-//W3C//DTD SVG 1.1//EN" "http://www.w3.org/Graphics/SVG/1.1/DTD/svg11.dtd">
<svg version="1.1" id="Layer_1" xmlns="http://www.w3.org/2000/svg" xmlns:xlink="http://www.w3.org/1999/xlink" x="0px" y="0px"
	 width="29.2px" height="75.2px" viewBox="0 0 29.2 75.2" enable-background="new 0 0 29.2 75.2" xml:space="preserve">
<g id="FRAME_0">
	<polygon fill="#6C207D" points="28.34,24.32 21.89,21.97 9.55,24.03 3,24.9 3.44,6.23 9.12,5.59 21.24,3.53 28.34,5.76 	"/>
	<polygon fill="#83498F" points="28.34,23.73 21.89,21.38 9.55,23.45 3,24.32 3.87,5.53 9.12,5.01 21.24,2.94 28.34,5.18 	"/>
	<circle fill="#57565B" cx="3.8" cy="72.8" r="2.4"/>
</g>
<g id="FRAME_1">
	<polygon fill="#6C207D" points="28.34,20.82 21.89,23.97 9.55,23.03 3,24.9 3.44,6.23 9.12,4.59 21.24,5.53 28.34,2.26 	"/>
	<polygon fill="#83498F" points="28.34,20.23 21.89,23.38 9.55,22.45 3,24.32 3.87,5.53 9.12,4.01 21.24,4.94 28.34,1.68 	"/>
	<circle fill="#57565B" cx="3.8" cy="72.8" r="2.4"/>
</g>
<g id="Layer_3">
	<rect x="3.1" y="1.6" fill="#AEAFB2" width="2.7" height="71.77"/>
	<circle fill="#7E318F" cx="16.14" cy="12.12" r="6.69"/>
	<rect x="3.1" y="2.82" fill="#FFFFFF" width="0" height="70.4"/>
	<polygon fill="#68666B" points="2,1.6 3.1,1.6 3.1,73.37 2,72.299 	"/>
	<rect x="26.5" y="1.6" fill="#AEAFB2" width="2.699" height="67.37"/>
	<rect x="26.5" y="2.75" fill="#FFFFFF" width="0" height="66.081"/>
	<polygon fill="#68666B" points="25.4,1.6 26.5,1.6 26.5,68.97 25.4,67.969 	"/>
	<path fill="#FFFFFF" d="M14.3,8.26c0,0-0.57,0.11-0.78-0.3s-0.13-1.06-1.06-1.1s-1.09,1.28-0.61,1.68s1.07,0.03,1.45,0.47
		c0.39,0.43-0.07,0.771-0.21,0.88c-0.14,0.11-0.47,0.57-0.61,0.94s-0.72,0.72-0.92,0.21c-0.2-0.52-0.33-0.75-0.53-0.46
		c-0.2,0.29-0.3,2.41,0.76,2.22c1.06-0.19,0.84-2.16,1.63-2.36c0.79-0.2,2.04,1.7,1.42,2.42c-0.62,0.71-3.78,2.88-4.7,2.73
		c-0.92-0.15-1.15-0.76-1.54-0.53c-0.4,0.23-0.52,1.6,0.34,2.1c0.87,0.49,1.92,0.13,2.39-0.31c0.47-0.44,0.59-0.51,0.56-0.36
		c-0.03,0.15,0.03,0.42,0.34,0.31c0.31-0.11,0.3-0.16,0.53-0.22c0.229-0.07,0.29-0.53,0.05-0.54c-0.25-0.02-0.77,0.26-0.57-0.2
		c0.2-0.46,1.87-1.8,3-2.21c1-0.36,1.271-0.43,1.66-0.04c0.39,0.39,2.101,1.95,2.87,2.13c0.77,0.18,2.35-0.49,2.63-0.36
		c0.28,0.13,0.351,0.41,0.511,0.57c0.17,0.17,0.319,0.24,0.659,0.21c0.41-0.03,0.49-0.58,0.31-0.9c-0.18-0.33-0.439-0.28-0.59-0.56
		c-0.149-0.28-0.149-0.33,0.03-0.36c0.181-0.03,0.56-0.08,0.41-0.34s-0.8-0.33-0.95,0.02c0,0-0.14,0.14-0.33,0.02
		c-0.189-0.12-0.49-0.1-0.51,0.03c-0.02,0.13,0.12,0.25,0.41,0.29c0.29,0.03,0.04,0.24-0.141,0.25c-0.189,0.01-0.739-0.33-1.5-0.1
		c-0.75,0.229-1.319,0.28-1.699-0.33c-0.381-0.61-1.061-2.76-1.961-3.15c-0.989-0.43-1.399-0.39-1.719-0.94
		c-0.32-0.55-0.491-1.16,0.209-1.05c0.7,0.11,1.631-0.65,1.881-0.17S16.77,9.69,16.799,10c0.031,0.31,0.291,0.66,0.641,0.33
		c0.34-0.33,0.13-0.41,0.23-0.54c0.1-0.13,0.67-1.51,0.789-1.66c0.121-0.15-0.109-0.2-0.489-0.26C17.6,7.78,16.15,7.55,14.3,8.26z"
		/>
	<g>
		<path fill="#FFFFFF" d="M7.566,21.445v-2.509h0.511v2.083h1.271v0.426H7.566z"/>
		<path fill="#FFFFFF" d="M11.993,21.445h-0.556l-0.221-0.575h-1.011l-0.209,0.575H9.454l0.985-2.53h0.541L11.993,21.445z
			 M11.052,20.444l-0.349-0.939l-0.342,0.939H11.052z"/>
		<path fill="#FFFFFF" d="M12.265,21.445v-2.53h1.075c0.271,0,0.467,0.023,0.589,0.068s0.221,0.126,0.294,0.243
			s0.11,0.249,0.11,0.398c0,0.19-0.056,0.347-0.167,0.47c-0.111,0.124-0.278,0.202-0.5,0.234c0.11,0.064,0.202,0.135,0.273,0.212
			c0.072,0.077,0.169,0.214,0.291,0.411l0.309,0.494h-0.611l-0.369-0.551c-0.131-0.196-0.221-0.32-0.269-0.372
			s-0.1-0.086-0.154-0.105s-0.14-0.028-0.257-0.028h-0.104v1.056H12.265z M12.776,19.985h0.378c0.245,0,0.398-0.01,0.459-0.031
			c0.061-0.021,0.108-0.056,0.143-0.107s0.052-0.114,0.052-0.19c0-0.085-0.023-0.154-0.068-0.206s-0.109-0.085-0.192-0.099
			c-0.041-0.006-0.166-0.009-0.373-0.009h-0.399V19.985z"/>
		<path fill="#FFFFFF" d="M15.994,20.515v-0.426h1.101v1.008c-0.106,0.104-0.262,0.195-0.465,0.273
			c-0.203,0.079-0.409,0.118-0.617,0.118c-0.265,0-0.495-0.055-0.691-0.167c-0.197-0.111-0.346-0.27-0.444-0.476
			s-0.148-0.431-0.148-0.674c0-0.264,0.056-0.498,0.166-0.703s0.272-0.362,0.485-0.471c0.162-0.084,0.363-0.126,0.605-0.126
			c0.313,0,0.56,0.066,0.735,0.198c0.177,0.132,0.291,0.313,0.342,0.546l-0.508,0.095c-0.036-0.125-0.103-0.223-0.201-0.294
			s-0.221-0.108-0.368-0.108c-0.224,0-0.401,0.071-0.533,0.212c-0.131,0.142-0.197,0.352-0.197,0.63c0,0.3,0.066,0.525,0.2,0.676
			c0.134,0.15,0.309,0.225,0.524,0.225c0.107,0,0.215-0.021,0.322-0.063s0.2-0.093,0.277-0.153v-0.321H15.994z"/>
		<path fill="#FFFFFF" d="M19.847,21.445h-0.556L19.07,20.87h-1.011l-0.209,0.575h-0.542l0.985-2.53h0.54L19.847,21.445z
			 M18.906,20.444l-0.349-0.939l-0.341,0.939H18.906z"/>
		<path fill="#FFFFFF" d="M20.117,18.915h0.934c0.21,0,0.371,0.016,0.481,0.048c0.148,0.044,0.275,0.122,0.381,0.233
			c0.106,0.111,0.187,0.248,0.242,0.41c0.055,0.162,0.083,0.361,0.083,0.598c0,0.208-0.026,0.388-0.078,0.538
			c-0.063,0.184-0.153,0.333-0.271,0.447c-0.089,0.086-0.209,0.153-0.359,0.202c-0.113,0.036-0.264,0.054-0.452,0.054h-0.961V18.915
			z M20.627,19.343v1.676h0.381c0.143,0,0.246-0.008,0.31-0.024c0.082-0.021,0.151-0.056,0.206-0.105s0.099-0.131,0.134-0.244
			c0.034-0.113,0.052-0.268,0.052-0.463c0-0.196-0.018-0.346-0.052-0.451c-0.035-0.104-0.083-0.187-0.146-0.245
			c-0.062-0.059-0.141-0.098-0.236-0.119c-0.071-0.016-0.211-0.024-0.419-0.024H20.627z"/>
		<path fill="#FFFFFF" d="M24.953,21.445h-0.556l-0.222-0.575h-1.011l-0.209,0.575h-0.542l0.985-2.53h0.54L24.953,21.445z
			 M24.011,20.444l-0.349-0.939l-0.341,0.939H24.011z"/>
	</g>
</g>
</svg>
