<?xml version="1.0" encoding="utf-8"?>
<!-- Generator: Adobe Illustrator 17.1.0, SVG Export Plug-In . SVG Version: 6.00 Build 0)  -->
<!DOCTYPE svg PUBLIC "-//W3C//DTD SVG 1.1//EN" "http://www.w3.org/Graphics/SVG/1.1/DTD/svg11.dtd">
<svg version="1.1" id="Layer_1" xmlns="http://www.w3.org/2000/svg" xmlns:xlink="http://www.w3.org/1999/xlink" x="0px" y="0px"
	 width="29.2px" height="75.2px" viewBox="0 0 29.2 75.2" enable-background="new 0 0 29.2 75.2" xml:space="preserve">
<g id="FRAME_0">
	<polygon fill="#2B687D" points="28.3,41.7 21.9,39.3 9.6,41.4 3,42.2 3.4,23.6 9.1,22.9 21.2,20.9 28.3,23.1 	"/>
	<polygon fill="#517E8F" points="28.3,41.1 21.9,38.7 9.6,40.8 3,41.7 3.9,22.9 9.1,22.3 21.2,20.3 28.3,22.5 	"/>
	<circle fill="#57565B" cx="3.8" cy="72.8" r="2.4"/>
</g>
<g id="FRAME_1">
	<polygon fill="#2B687D" points="28.3,38.2 21.9,41.3 9.6,40.4 3,42.2 3.4,23.6 9.1,21.9 21.2,22.9 28.3,19.6 	"/>
	<polygon fill="#517E8F" points="28.3,37.6 21.9,40.7 9.6,39.8 3,41.7 3.9,22.9 9.1,21.3 21.2,22.3 28.3,19 	"/>
	<circle fill="#57565B" cx="3.8" cy="72.8" r="2.4"/>
</g>
<g id="Layer_3">
	<rect x="3.1" y="18.6" fill="#AEAFB2" width="2.7" height="54.8"/>
	<circle fill="#3C798F" cx="16.1" cy="29.5" r="6.7"/>
	<rect x="3.1" y="19.8" fill="#FFFFFF" width="0" height="53.4"/>
	<polygon fill="#68666B" points="2,18.6 3.1,18.6 3.1,73.4 2,72.3 	"/>
	<rect x="26.5" y="18.6" fill="#AEAFB2" width="2.7" height="50.4"/>
	<rect x="26.5" y="19.7" fill="#FFFFFF" width="0" height="49.1"/>
	<polygon fill="#68666B" points="25.4,18.6 26.5,18.6 26.5,69 25.4,68 	"/>
	<path fill="#FFFFFF" d="M14.3,25.6c0,0-0.6,0.1-0.8-0.3s-0.1-1.1-1.1-1.1c-0.9,0-1.1,1.3-0.6,1.7s1.1,0,1.4,0.5
		c0.4,0.4-0.1,0.8-0.2,0.9c-0.1,0.1-0.5,0.6-0.6,0.9c-0.1,0.4-0.7,0.7-0.9,0.2c-0.2-0.5-0.3-0.8-0.5-0.5c-0.2,0.3-0.3,2.4,0.8,2.2
		s0.8-2.2,1.6-2.4c0.8-0.2,2,1.7,1.4,2.4c-0.6,0.7-3.8,2.9-4.7,2.7c-0.9-0.1-1.1-0.8-1.5-0.5c-0.4,0.2-0.5,1.6,0.3,2.1
		c0.9,0.5,1.9,0.1,2.4-0.3c0.5-0.4,0.6-0.5,0.6-0.4c0,0.1,0,0.4,0.3,0.3s0.3-0.2,0.5-0.2c0.2-0.1,0.3-0.5,0.1-0.5
		c-0.2,0-0.8,0.3-0.6-0.2c0.2-0.5,1.9-1.8,3-2.2c1-0.4,1.3-0.4,1.7,0c0.4,0.4,2.1,2,2.9,2.1c0.8,0.2,2.4-0.5,2.6-0.4
		s0.4,0.4,0.5,0.6c0.2,0.2,0.3,0.2,0.7,0.2c0.4,0,0.5-0.6,0.3-0.9c-0.2-0.3-0.4-0.3-0.6-0.6c-0.1-0.3-0.1-0.3,0-0.4
		c0.2,0,0.6-0.1,0.4-0.3c-0.1-0.3-0.8-0.3-1,0c0,0-0.1,0.1-0.3,0c-0.2-0.1-0.5-0.1-0.5,0s0.1,0.2,0.4,0.3c0.3,0,0,0.2-0.1,0.2
		c-0.2,0-0.7-0.3-1.5-0.1c-0.8,0.2-1.3,0.3-1.7-0.3c-0.4-0.6-1.1-2.8-2-3.1c-1-0.4-1.4-0.4-1.7-0.9c-0.3-0.6-0.5-1.2,0.2-1.1
		c0.7,0.1,1.6-0.6,1.9-0.2s-0.7,0.8-0.6,1.1c0,0.3,0.3,0.7,0.6,0.3c0.3-0.3,0.1-0.4,0.2-0.5s0.7-1.5,0.8-1.7
		c0.1-0.1-0.1-0.2-0.5-0.3C17.6,25.1,16.1,24.9,14.3,25.6z"/>
</g>
<g>
	<path fill="#FFFFFF" d="M8.6,38.5c-0.1,0.1-0.4,0.1-0.8,0.1c-1,0-1.6-0.6-1.6-1.5c0-1,0.7-1.6,1.6-1.6c0.3,0,0.6,0.1,0.7,0.1
		l-0.1,0.5c-0.1-0.1-0.3-0.1-0.6-0.1c-0.5,0-0.9,0.3-0.9,1c0,0.6,0.4,1,0.9,1c0.2,0,0.4,0,0.6-0.1L8.6,38.5z"/>
	<path fill="#FFFFFF" d="M9.7,35.6v1.1h1.1v-1.1h0.7v3h-0.7v-1.2H9.7v1.2H9v-3H9.7z"/>
	<path fill="#FFFFFF" d="M13.8,37.3h-1.1V38H14v0.5h-1.9v-3h1.8v0.5h-1.2v0.6h1.1V37.3z"/>
	<path fill="#FFFFFF" d="M16.9,38.4c-0.2,0.1-0.6,0.2-1,0.2c-0.5,0-0.9-0.1-1.2-0.4c-0.3-0.3-0.4-0.6-0.4-1.1c0-1,0.7-1.5,1.7-1.5
		c0.4,0,0.7,0.1,0.8,0.1l-0.1,0.5c-0.2-0.1-0.4-0.1-0.7-0.1c-0.6,0-1,0.3-1,1c0,0.6,0.4,1,0.9,1c0.2,0,0.3,0,0.3,0v-0.6h-0.5v-0.5
		h1.1V38.4z"/>
	<path fill="#FFFFFF" d="M18.1,37.8l-0.2,0.8h-0.7l0.9-3H19l0.9,3h-0.7L19,37.8H18.1z M18.9,37.3l-0.2-0.6c-0.1-0.2-0.1-0.4-0.1-0.6
		h0c0,0.2-0.1,0.4-0.1,0.6l-0.2,0.6H18.9z"/>
	<path fill="#FFFFFF" d="M20.3,35.6c0.2,0,0.6-0.1,0.9-0.1c0.6,0,0.9,0.1,1.2,0.3c0.3,0.2,0.5,0.6,0.5,1.1c0,0.6-0.2,1-0.5,1.2
		c-0.3,0.3-0.8,0.4-1.4,0.4c-0.3,0-0.6,0-0.8,0V35.6z M21,38c0.1,0,0.1,0,0.2,0c0.6,0,1-0.3,1-1c0-0.6-0.4-0.9-0.9-0.9
		c-0.1,0-0.2,0-0.3,0V38z"/>
	<path fill="#FFFFFF" d="M24,37.8l-0.2,0.8h-0.7l0.9-3h0.9l0.9,3h-0.7l-0.2-0.8H24z M24.7,37.3l-0.2-0.6c-0.1-0.2-0.1-0.4-0.1-0.6h0
		c0,0.2-0.1,0.4-0.1,0.6l-0.2,0.6H24.7z"/>
</g>
</svg>
