<?xml version="1.0" encoding="UTF-8" standalone="no"?><!DOCTYPE svg PUBLIC "-//W3C//DTD SVG 1.1//EN" "http://www.w3.org/Graphics/SVG/1.1/DTD/svg11.dtd"><svg width="100%" height="100%" viewBox="0 0 173 129" version="1.1" xmlns="http://www.w3.org/2000/svg" xmlns:xlink="http://www.w3.org/1999/xlink" xml:space="preserve" style="fill-rule:evenodd;clip-rule:evenodd;stroke-linejoin:round;stroke-miterlimit:1.41421;"><rect id="logo-home" x="0.153" y="0.163" width="171.75" height="128.25" style="fill:none;"/><path d="M78.539,98.795c-0.171,0.597 -0.359,1.195 -0.564,1.793c-0.034,0.034 -0.085,0.102 -0.051,0.137c0.034,0.051 0.102,0.017 0.171,0.017l0.017,0c0.102,-0.017 0.205,-0.035 0.29,-0.052c0.051,-0.017 0.051,-0.017 0.086,-0.017l0.034,-0.017c0.017,-0.068 0.034,-0.136 0.051,-0.205c0.102,-0.461 0.171,-0.922 0.222,-1.4l0,-0.017l-0.102,-0.137c-0.052,-0.068 -0.086,-0.136 -0.12,-0.205c-0.017,0.034 -0.017,0.069 -0.034,0.103m-11.05,-46.368c0.069,0 0.069,0 0.137,0.018c0.068,-0.018 0.119,-0.018 0.188,-0.035c3.945,-0.666 7.548,6.695 9.085,9.018c0.171,0.239 0.342,0.478 0.496,0.734c2.698,4.013 3.91,8.556 5.072,13.167c0.034,0.137 0.068,0.274 0.102,0.393c0.052,0.171 0.137,0.342 0.222,0.512c0.069,0.188 0.137,0.359 0.205,0.547c1.52,4.184 1.691,8.829 1.657,13.218l0,0.41c0,0 0.102,0.786 0.188,1.179c0.051,0.222 0.102,0.461 0.136,0.683c0.034,0.188 0.069,0.376 0.086,0.581c0.444,3.176 0.785,7.224 -0.598,10.264l-0.017,0.034c-0.017,0.614 -0.034,1.229 -0.051,1.844l0,0.137c-0.069,1.161 -1.179,2.015 -2.323,1.776c-0.256,-0.068 -0.512,-0.137 -0.769,-0.205c-0.17,-0.051 -0.324,-0.103 -0.495,-0.137c-0.068,0.017 -0.068,0.017 -0.136,0.034c-1.845,0.41 -4.15,-0.631 -5.687,-1.332l-0.086,0.052c-0.888,0.324 -1.947,-0.052 -2.408,-0.888l-0.085,-0.069c-0.649,-0.7 -0.718,-1.793 -0.103,-2.562l0.052,-0.119c0.273,-0.461 0.546,-0.7 1.024,-0.939l0.017,0c1.367,-3.348 2.135,-6.661 2.545,-10.162l0.017,-0.188c0.307,-8.266 -1.503,-15.421 -5.533,-22.56c-0.188,-0.273 -0.376,-0.547 -0.564,-0.82c-1.212,-1.673 -2.493,-3.313 -3.774,-4.935c-0.068,-0.069 -0.154,-0.137 -0.222,-0.205c-0.513,-0.444 -1.042,-0.871 -1.554,-1.298c-0.137,-0.12 -0.291,-0.239 -0.427,-0.376c-0.325,-0.29 -0.649,-0.598 -0.922,-0.956c-0.069,-0.017 -0.12,-0.052 -0.188,-0.069l-0.137,-0.068c-0.12,-0.068 -0.12,-0.068 -0.256,-0.171c-3.108,-2.613 2.357,-6.421 4.833,-6.507c0.102,0 0.188,0 0.273,0" style="fill:#fff;fill-rule:nonzero;"/><path d="M50.718,27.391c0,0 0,0.017 0.018,0.017c0.085,0.119 0.17,0.239 0.239,0.359c0.153,0.222 0.324,0.444 0.495,0.666l0.017,0.017c-0.239,-0.376 -0.512,-0.735 -0.786,-1.093c0,0 0.017,0.017 0.017,0.034m-2.203,-7.156c0.906,0.051 1.435,0.922 1.93,1.588c0,0 0.205,0.393 0.239,0.615c0.496,0.495 0.974,0.974 1.469,1.469c3.177,3.228 6.131,6.541 8.18,10.571c0.615,1.23 0.445,4.15 -1.741,3.416c-1.076,-0.359 -1.657,-1.025 -2.391,-1.879l-0.035,-0.051c-0.666,-0.461 -1.349,-0.888 -2.032,-1.332c-0.171,-0.12 -0.359,-0.239 -0.529,-0.359c-0.923,-0.649 -1.623,-1.229 -2.391,-2.066c-0.291,-0.325 -0.581,-0.649 -0.888,-0.974c-1.794,-1.998 -2.443,-3.347 -3.023,-5.977c-0.205,-0.905 -0.461,-2.135 -0.188,-3.074l0.017,-0.051c-0.017,-0.051 -0.034,-0.103 -0.051,-0.154c-0.017,-0.051 -0.017,-0.051 -0.017,-0.085c-0.12,-0.803 0.444,-1.572 1.281,-1.64c0.102,-0.017 0.102,-0.017 0.17,-0.017" style="fill:#fff;fill-rule:nonzero;"/><path d="M53.314,41.019c-0.871,1.401 -0.495,3.194 0.257,4.543c-0.41,-1.144 -0.445,-2.391 -0.257,-3.586l0,-0.035l-0.017,-0.119c0,-0.137 0,-0.137 -0.017,-0.29c0,-0.171 0.017,-0.342 0.034,-0.513m4.424,-4.628c3.603,0.085 6.353,3.125 7.207,6.473c0.649,2.561 0.051,5.021 -2.323,6.182l-0.051,0.051c-0.137,0.103 -0.222,0.154 -0.393,0.205c-0.103,0.034 -0.205,0.051 -0.29,0.086c-0.171,0.051 -0.325,0.119 -0.496,0.187c-0.102,0.035 -0.222,0.069 -0.324,0.103c-0.086,0.017 -0.154,0.051 -0.239,0.068l-0.086,0.017c-0.256,0.103 -0.512,0.188 -0.768,0.291c-0.188,0.068 -0.188,0.068 -0.376,0.136c-1.264,0.427 -1.844,0.53 -3.296,0.376c-1.554,-0.154 -2.972,-1.503 -3.928,-2.63c-2.835,-3.364 -2.442,-8.573 1.776,-10.589c1.196,-0.563 1.964,-0.853 3.16,-0.939c0.136,-0.017 0.273,-0.017 0.427,-0.017" style="fill:#fff;"/><path d="M46.978,76.2c-0.239,0 -0.478,0.017 -0.7,0.017c-0.768,-0.136 -1.537,-0.256 -2.288,-0.375c-1.196,-0.171 -2.391,-0.342 -3.604,-0.513c-0.871,-0.136 -1.759,-0.239 -2.596,-0.512c-0.136,-0.051 -0.273,-0.103 -0.41,-0.154c-1.076,-0.427 -2.117,-0.939 -3.262,-1.144c-0.905,-0.82 -1.639,-1.861 -1.844,-3.091c0.922,-2.118 2.784,-5.892 5.294,-6.626c0.171,-0.052 0.342,-0.086 0.513,-0.137c1.964,-0.495 5.379,-0.803 6.711,-2.801c2.46,-3.672 2.238,-8.949 -3.569,-6.814c-0.461,-0.103 -0.854,-0.154 -1.349,-0.171c-0.171,0 -0.171,0 -0.342,0c-1.947,0.051 -3.364,0.7 -5.26,1.759c-5.414,2.989 -14.311,12.143 -9.29,18.735c0,0 0.034,0.888 0.188,1.298c0.426,1.23 0.785,1.861 1.656,2.664c0.085,0.068 0.171,0.137 0.256,0.222c0.086,0.068 0.171,0.137 0.256,0.205l0.018,0.017c1.434,2.391 3.466,2.989 6.301,3.245c0.291,0.017 0.291,0.017 0.564,0.051c0.581,0.034 1.144,0.069 1.725,0.12c0.136,0.017 0.307,0 0.427,0.034c0.768,0.188 1.315,0.29 2.135,0.41c0.222,0.034 0.444,0.051 0.649,0.085c2.527,0.256 5.055,0.939 7.514,1.503c0.956,0.222 1.93,0.461 2.886,0.683c4.406,3.074 6.387,7.634 2.545,12.143c-0.871,1.024 -1.776,2.083 -2.955,2.698c-1.622,0.82 -3.415,1.349 -5.226,1.469c-0.256,-0.12 -0.854,-0.154 -0.854,-0.154c-0.102,0 -0.222,0.017 -0.324,0.017l-0.188,-0.034c-1.042,-0.171 -2.066,-0.342 -3.108,-0.461c-0.256,-0.034 -0.495,-0.051 -0.752,-0.085c-0.273,-0.018 -0.819,-0.103 -0.819,-0.103c-1.708,-0.837 -3.877,-2.135 -5.875,-1.588l-0.034,-0.034c-0.035,-0.035 -0.052,-0.052 -0.086,-0.086c-0.136,0.137 -0.307,0.274 -0.478,0.359c-0.256,0.376 -0.495,0.768 -0.717,1.161c-0.239,0.444 -0.461,0.888 -0.683,1.349c-0.017,0.035 -0.035,0.086 -0.052,0.12c-0.034,0.068 -0.068,0.154 -0.085,0.222c-0.085,0.239 -0.188,0.478 -0.256,0.717c-0.171,0.478 -0.308,0.974 -0.427,1.469c-0.068,0.256 -0.12,0.529 -0.171,0.786c-0.017,0.119 -0.051,0.239 -0.068,0.341c0,0.034 -0.017,0.086 -0.017,0.154c-0.017,0.102 -0.034,0.222 -0.034,0.256c-0.018,0.102 -0.018,0.205 -0.035,0.307c0.581,1.708 2.101,2.306 3.928,2.801c0.461,0.12 0.906,0.222 1.367,0.342c0.085,0.017 0.153,0.051 0.239,0.068c0.119,0.034 0.222,0.085 0.341,0.12c4.202,1.656 8.608,1.383 12.946,0.017c6.745,-1.042 13.355,-4.577 13.679,-11.835c3.604,-10.025 -3.894,-21.365 -14.38,-21.246Z" style="fill:#fff;"/><path d="M120.944,67.217c0.017,-0.085 0.017,-0.188 0.017,-0.273c0,-0.034 0,-0.068 -0.017,-0.12c-0.017,-0.119 -0.017,-0.119 -0.051,-0.222c-0.052,-0.119 -0.052,-0.119 -0.103,-0.239c-0.068,-0.102 -0.068,-0.102 -0.136,-0.205c-0.086,-0.085 -0.103,-0.119 -0.188,-0.188c-0.034,-0.034 -0.069,-0.051 -0.103,-0.085c-0.102,-0.051 -0.102,-0.051 -0.188,-0.102l-0.051,-0.017c-0.051,-0.103 -0.102,-0.171 -0.171,-0.257c-0.068,-0.085 -0.085,-0.102 -0.17,-0.17c-0.086,-0.069 -0.103,-0.086 -0.205,-0.137c-0.034,-0.017 -0.069,-0.034 -0.12,-0.051c-0.102,-0.052 -0.136,-0.052 -0.239,-0.086l-0.017,0c-0.137,-0.017 -0.137,-0.017 -0.273,-0.034l-0.017,0c-0.035,0 -0.069,-0.034 -0.103,-0.034c-0.136,-0.034 -0.256,-0.068 -0.393,-0.068c-0.153,0 -0.307,0 -0.461,0.034c-0.239,0.051 -0.461,0.154 -0.666,0.273c-0.085,0.051 -0.085,0.051 -0.171,0.103c-0.051,0.034 -0.119,0.085 -0.17,0.119l-0.017,0.017c-0.274,0.103 -0.564,0.205 -0.82,0.325c-0.308,0.153 -0.615,0.324 -0.905,0.512c-0.188,0.12 -0.188,0.12 -0.376,0.239c-0.581,0.376 -1.144,0.769 -1.742,1.127l-0.085,0.034c-0.752,0.359 -1.52,0.718 -2.306,1.008c-0.051,0.017 -0.12,0.034 -0.171,0.051c-0.153,0.052 -0.307,0.103 -0.478,0.137c-0.376,0.102 -0.768,0.205 -1.144,0.29c-1.264,0.273 -2.562,0.444 -3.86,0.513c-0.461,0.017 -0.922,0.034 -1.366,0.034c-0.41,0 -0.837,-0.017 -1.247,-0.086c-0.461,-0.068 -0.922,-0.17 -1.349,-0.324c-0.188,-0.068 -0.376,-0.137 -0.546,-0.222c-0.069,-0.034 -0.12,-0.068 -0.188,-0.103c-0.239,-0.153 -0.239,-0.153 -0.461,-0.29c-0.103,-0.068 -0.205,-0.137 -0.308,-0.205l-0.034,-0.034l-0.017,-0.017c-0.103,-0.086 -0.205,-0.171 -0.325,-0.222c-0.102,-0.051 -0.102,-0.051 -0.222,-0.086l-0.017,0c-0.136,-0.034 -0.136,-0.034 -0.273,-0.051l-0.017,0c-0.12,0 -0.12,0 -0.256,0l-0.12,0.017c-0.085,0.017 -0.085,0.017 -0.171,0.052c-0.034,0 -0.068,0 -0.119,0c-0.188,0.017 -0.376,0.068 -0.547,0.153c-0.119,0.051 -0.136,0.086 -0.239,0.154c-0.034,0.034 -0.068,0.068 -0.102,0.102c-0.137,0.137 -0.239,0.308 -0.308,0.479c-0.017,0.051 -0.034,0.085 -0.034,0.119c-0.068,0.017 -0.153,0.034 -0.256,0.068l-0.017,0c-0.307,0.12 -0.444,0.205 -0.666,0.41c-0.342,0.359 -0.546,0.803 -0.632,1.281c-0.29,0.41 -0.393,0.94 -0.444,1.435c-0.017,0.153 -0.034,0.324 -0.034,0.478c-0.017,0.222 -0.017,0.461 -0.017,0.683c0,0.239 0,0.495 0,0.734c0,0.325 0.017,0.649 0.034,0.957c0.017,0.461 0.051,0.905 0.102,1.366c0.052,0.598 0.103,1.178 0.171,1.776c0.034,0.359 0.086,0.7 0.12,1.059c0.102,0.854 0.222,1.708 0.307,2.562c0.137,1.332 0.239,2.664 0.308,3.996c0.017,0.359 0.034,0.7 0.034,1.059c-0.171,1.998 -0.427,3.996 -0.786,5.96c-0.341,1.862 -0.785,3.723 -1.281,5.551c-0.102,0.341 -0.188,0.683 -0.29,1.024c-0.017,0.052 -0.017,0.086 -0.034,0.137c-0.017,0.085 -0.017,0.188 -0.017,0.273c0.017,0.291 0.102,0.564 0.29,0.786c0.085,0.102 0.103,0.119 0.188,0.205l0.119,0.085l0.103,0.051l-0.017,0.035c-0.137,0.273 -0.273,0.563 -0.41,0.836c-0.051,0.12 -0.102,0.239 -0.154,0.359c-0.068,0.051 -0.085,0.051 -0.17,0.12c-0.086,0.068 -0.103,0.102 -0.171,0.17c-0.034,0.034 -0.051,0.069 -0.086,0.103c-0.085,0.136 -0.153,0.29 -0.188,0.444c-0.051,0.017 -0.085,0.051 -0.17,0.102l-0.017,0c-0.257,0.188 -0.376,0.308 -0.547,0.581c-0.205,0.393 -0.273,0.803 -0.205,1.247c0.103,0.41 0.308,0.751 0.615,1.041c0.205,0.154 0.273,0.188 0.512,0.291c0.12,0.034 0.222,0.068 0.342,0.085c0.085,0.017 0.171,0.017 0.256,0.034c0.222,0 0.444,0.017 0.666,0.034c0.171,0.018 0.342,0.035 0.495,0.052c2.033,0.256 4.629,0.837 6.353,-0.598c0.018,-0.085 0.018,-0.154 0.035,-0.239c0.444,-3.655 0.905,-7.344 1.759,-10.947c0,-2.101 -0.137,-4.184 -0.376,-6.268c-0.034,-0.273 -0.068,-0.546 -0.102,-0.82c0.034,-1.571 0.051,-3.142 0,-4.713c-0.018,-0.239 -0.018,-0.496 -0.035,-0.735c0,-0.085 0,-0.085 -0.017,-0.187c-0.017,-0.171 -0.051,-0.342 -0.068,-0.513c-0.188,-1.229 -0.41,-2.442 -0.581,-3.672c-0.119,-0.854 -0.222,-1.707 -0.222,-2.561l0.034,0.017c0.359,0.136 0.718,0.256 1.093,0.29c0.154,0.017 0.325,0 0.479,-0.017c0.085,-0.017 0.085,-0.017 0.187,-0.034c0.649,0.102 1.316,0.153 1.982,0.171c0.409,0 0.819,0 1.212,-0.035c0.683,-0.051 1.383,-0.153 2.049,-0.307c0.701,0.051 1.418,0.085 2.118,0.085c0.273,0 0.273,0 0.564,0c0.136,0 0.273,-0.017 0.41,-0.017l0.085,0.034c2.152,1.059 3.791,1.145 5.79,-0.051c0.136,-0.085 0.273,-0.171 0.409,-0.256c0.137,0.068 0.274,0.103 0.41,0.137l0.017,0c0.188,0.034 0.171,0.034 0.41,0.034l0.017,0c0.154,-0.017 0.154,-0.017 0.325,-0.051l0.017,0c0.854,-0.239 1.417,-1.025 1.93,-1.708c0.119,-0.171 0.119,-0.171 0.239,-0.342c0.768,-1.4 0.785,-4.713 -0.41,-6.131Z" style="fill:#fff;"/><path d="M154.759,98.06c1.468,0.171 2.288,1.674 1.605,2.972c0,0 0.017,0.068 0.034,0.085l0.086,0.103l0.068,0.119c0,0 0.085,0.188 0.137,0.274c0,0 0.068,0.205 0.085,0.307c0,0 0.034,0.205 0.034,0.307l0,0.018c0,0.136 0,0.136 -0.017,0.273l0,0.017c-0.478,2.698 -5.38,2.869 -7.395,3.193c-0.273,0.052 -0.563,0.103 -0.837,0.154c-0.529,0.103 -1.058,0.222 -1.605,0.342c-0.991,0.222 -1.981,0.461 -2.989,0.7c-1.912,0.444 -6.011,1.264 -8.641,0.888c-7.737,-1.093 -11.613,-8.624 -13.082,-15.609c-0.051,-0.171 -0.103,-0.342 -0.154,-0.53c-0.615,-2.186 -0.768,-4.269 -0.529,-6.541c0.034,-0.222 0.017,-0.478 0.017,-0.7c0.341,-7.173 3.945,-13.492 11.101,-15.609c0.153,-0.103 0.324,-0.188 0.478,-0.274c3.996,-2.22 8.488,-3.057 12.996,-2.561c0.069,0 0.154,0.017 0.222,0.017c0.683,0 1.64,-0.291 2.289,-0.444c0.136,-0.035 0.29,-0.069 0.427,-0.103c3.996,-0.785 5.072,1.401 5.021,4.919c-0.017,1.52 -0.256,3.808 -1.981,4.355l-0.017,0c-0.137,0.034 -0.137,0.034 -0.274,0.051l-0.017,0c-0.153,0.017 -0.153,0.017 -0.307,0.017l-0.017,0c-0.154,-0.017 -0.154,-0.017 -0.308,-0.034l-0.017,0c-0.153,-0.034 -0.153,-0.034 -0.29,-0.086l-0.017,0c-0.12,-0.051 -0.12,-0.051 -0.256,-0.119l-0.017,-0.017c-0.752,-0.496 -0.94,-1.247 -1.059,-2.101l-0.017,-0.154l-0.086,0.052c-0.051,0.017 -0.085,0.034 -0.136,0.068c-1.076,0.427 -3.109,0 -4.099,-0.137c-0.188,-0.017 -0.188,-0.017 -0.376,-0.034c-6.729,-0.615 -13.509,5.636 -16.053,11.46c-0.632,1.451 -1.315,4.389 -0.735,6.097c2.528,7.292 11.101,13.935 19.196,10.725c0.786,-0.308 1.571,-0.632 2.357,-0.94c1.281,-0.512 3.347,-1.468 4.919,-1.485c0.153,-0.035 0.153,-0.035 0.256,-0.035" style="fill:#fff;fill-rule:nonzero;"/><path d="M120.88,13.956l0,-0.047l0,-0.031c-0.389,-1.729 -2.274,-1.028 -3.38,-0.374c-0.311,0.187 -0.623,0.389 -0.934,0.592c-0.919,0.561 -1.792,1.137 -2.68,1.791c-0.81,0.592 -1.604,1.2 -2.414,1.807c-0.654,0.483 -1.324,0.95 -2.009,1.371c-0.156,0.093 -0.312,0.187 -0.483,0.28c-4.175,2.337 -7.695,4.907 -11.418,8.178c-0.312,0.28 -0.623,0.545 -0.935,0.826c-0.093,0.093 -0.202,0.186 -0.296,0.264c-0.218,-0.218 -0.498,-0.327 -0.794,-0.358c-0.093,0 -0.093,0 -0.187,0c-0.187,0.016 -0.265,0.031 -0.452,0.125l-0.078,0.046c-0.732,0.421 -1.448,0.873 -2.165,1.34c-0.218,0.156 -0.451,0.296 -0.669,0.452c-0.25,-0.172 -0.514,-0.249 -0.779,-0.249c-1.324,1.464 -2.695,2.881 -4.113,4.252c-1.059,1.012 -2.211,1.947 -3.317,2.944c-1.215,1.09 -2.415,2.196 -3.614,3.318c-1.106,1.043 -2.212,2.103 -3.271,3.193c-0.047,0.047 -0.094,0.093 -0.14,0.14c-0.25,0.919 -0.032,1.838 0.965,2.664c0.125,0.093 0.125,0.093 0.25,0.187c0.295,0.218 0.591,0.436 0.887,0.654c0.078,0.062 0.156,0.125 0.234,0.187c0.078,0.062 0.14,0.14 0.218,0.202c0.031,0.032 0.047,0.063 0.078,0.094c0.062,0.078 0.062,0.078 0.125,0.156c0.093,0.093 0.187,0.187 0.264,0.296l0,0.046c0.032,0 0.078,0.016 0.109,0.016c0.125,-0.125 0.25,-0.234 0.374,-0.358c1.683,-1.87 3.505,-3.63 5.405,-5.296c1.184,-1.044 2.399,-2.041 3.63,-3.022c0.374,-0.343 0.763,-0.686 1.137,-1.028c0.389,-0.374 0.81,-0.748 1.246,-1.106c1.885,-1.683 3.785,-3.334 5.717,-4.969c3.38,-2.851 6.822,-5.624 10.374,-8.256c3.458,-2.57 6.994,-5 10.67,-7.259c1.137,-0.701 2.29,-1.386 3.458,-2.04c-0.125,-0.452 -0.53,-0.841 -1.013,-1.028Z" style="fill:#fff;"/><path d="M117.238,12.413l0,0.052c0,-0.052 0,-0.086 0,-0.052" style="fill:#fff;"/><path d="M108.867,41.915c-0.402,-1.143 -0.925,-2.246 -1.498,-3.307c-0.211,-0.391 -0.43,-0.776 -0.655,-1.159c-0.238,-0.404 -0.485,-0.804 -0.733,-1.202l-0.053,-0.093l-0.025,-0.056c-0.215,-0.114 -0.435,-0.221 -0.662,-0.319c-1.651,-0.717 -3.38,-1.075 -5.171,-1.262c-1.636,-0.171 -3.287,-0.14 -4.907,0.062c-1.573,0.203 -3.162,0.499 -4.642,1.106c-0.405,0.156 -0.794,0.327 -1.184,0.53c-0.171,0.078 -0.311,0.202 -0.436,0.358c-0.031,-0.016 -0.062,-0.016 -0.093,-0.031l-0.016,0c-0.187,-0.094 -0.171,-0.078 -0.389,-0.218c-0.171,-0.109 -0.156,-0.094 -0.358,-0.281c-0.187,-0.202 -0.172,-0.187 -0.374,-0.467c-0.156,-0.249 -0.187,-0.327 -0.281,-0.607c-0.093,-0.374 -0.109,-0.514 -0.093,-0.857c0.031,-0.28 0.047,-0.358 0.125,-0.623c0.124,-0.312 0.155,-0.39 0.342,-0.67c0.156,-0.202 0.14,-0.187 0.374,-0.421l0.016,-0.015c0.451,-0.358 0.685,-0.467 1.324,-0.654l0.015,0l0.234,-0.281c0.234,-0.28 0.467,-0.576 0.716,-0.872c0.452,-0.53 0.779,-0.872 1.324,-1.246c0.141,-0.078 0.265,-0.156 0.405,-0.249c0.448,-0.309 0.823,-0.649 1.13,-1.014c0.009,-0.183 0.02,-0.367 0.029,-0.551c0.002,-0.062 -0.008,-0.124 -0.014,-0.186c-0.006,-0.062 -0.011,-0.125 -0.018,-0.187c-0.025,-0.252 -0.054,-0.504 -0.085,-0.756c-0.09,-0.719 -0.198,-1.436 -0.297,-2.154c-0.022,-0.149 -0.047,-0.298 -0.073,-0.447c-0.133,-0.699 -0.327,-1.384 -0.595,-2.044c-0.422,-1.041 -1.015,-2.003 -1.715,-2.878c-0.424,-0.531 -0.885,-1.029 -1.369,-1.503c-0.023,-0.015 -0.047,-0.03 -0.07,-0.044c-0.254,-0.155 -0.519,-0.289 -0.794,-0.402c-1.384,-0.568 -2.928,-0.548 -4.379,-0.284c-0.249,0.046 -0.498,0.099 -0.744,0.158c-0.306,0.073 -0.609,0.156 -0.91,0.247c-0.361,0.108 -0.72,0.229 -1.074,0.358c-0.469,0.17 -0.931,0.355 -1.388,0.552c-0.567,0.243 -1.126,0.504 -1.679,0.777c-0.693,0.342 -1.377,0.702 -2.056,1.072c-0.975,0.532 -1.939,1.085 -2.909,1.627l-0.09,0.047c-0.084,0.035 -0.104,0.046 -0.191,0.072c-0.131,0.038 -0.267,0.057 -0.403,0.055c-0.17,-0.003 -0.339,-0.037 -0.497,-0.101c-0.282,-0.115 -0.512,-0.323 -0.661,-0.579c-1.553,0.079 -3.395,-1.208 -2.762,-2.848c0.608,-1.604 1.62,-2.041 2.96,-2.882l0.078,-0.047c0.093,-0.077 0.171,-0.186 0.264,-0.28c0.094,-0.093 0.094,-0.093 0.187,-0.187c5.281,-5.109 13.521,-5.841 20.188,-3.427c5.28,1.901 9.72,7.275 8.941,13.116c-0.145,1.082 -0.388,2.16 -0.725,3.205l0.008,0c0.566,0.023 1.131,0.072 1.697,0.095c0.2,0.006 0.401,0.006 0.601,0.01c0.436,0.017 0.871,0.046 1.304,0.102c1.015,0.131 2.015,0.387 2.955,0.792c0.514,0.221 1.009,0.486 1.476,0.793c0.461,0.303 0.895,0.648 1.31,1.01c0.728,0.633 1.389,1.342 1.967,2.115c0.538,0.72 1.002,1.493 1.397,2.299c0.767,1.566 1.267,3.238 1.702,4.922c0.635,1.515 1.062,3.139 1.247,4.774c0.028,0.092 0.056,0.184 0.081,0.277c0.019,0.08 0.036,0.16 0.052,0.241c0.089,0.515 0.093,1.038 0.048,1.558c-0.024,0.271 -0.061,0.541 -0.11,0.809c-0.25,3.706 -1.869,7.172 -5.244,9.226c-1.37,1.231 -3.068,1.9 -4.906,2.119c-1.153,0.342 -2.352,0.451 -3.552,0.42l-0.825,0c-0.732,0.016 -0.748,0.047 -1.433,0.203c-0.234,0.046 -0.234,0.046 -0.452,0.093c-2.165,0.389 -4.642,0.467 -6.807,-0.078c-0.14,-0.015 -0.265,-0.031 -0.405,-0.047c-0.966,-0.109 -1.9,-0.296 -2.835,-0.56l-0.047,-0.016c-1.885,-0.607 -2.367,-3.255 -0.732,-4.408l-0.015,-0.125l0,-0.14c0,-0.156 0,-0.156 0.015,-0.296c0.047,-0.296 0.094,-0.483 0.234,-0.763c0.233,0.015 0.451,0.031 0.685,0.047c0.966,0.062 1.947,0.155 2.929,0.218c0.218,0.015 0.451,0.015 0.669,0.031c0.156,0.015 0.327,0.047 0.483,0.062c0.153,0.019 0.306,0.035 0.458,0.05c0.019,-0.017 0.038,-0.033 0.058,-0.048c0.223,-0.177 0.491,-0.27 0.77,-0.307c0.144,-0.019 0.287,-0.031 0.432,-0.014c0.108,0.012 0.209,0.041 0.312,0.074l0.013,0.005c0.544,0.009 1.089,0.001 1.633,-0.02c0.382,-0.016 0.765,-0.034 1.144,-0.086c0.131,-0.019 0.26,-0.052 0.39,-0.077c0.151,-0.026 0.151,-0.026 0.302,-0.048c0.379,-0.051 0.759,-0.087 1.14,-0.116c0.801,-0.057 1.603,-0.097 2.404,-0.151c0.459,-0.034 0.918,-0.072 1.376,-0.125c0.233,-0.166 0.456,-0.346 0.666,-0.539c1.269,-1.165 2.035,-2.758 2.56,-4.373c0.097,-0.3 0.187,-0.603 0.271,-0.907c0.129,-0.471 0.244,-0.946 0.35,-1.423c0.145,-0.654 0.272,-1.312 0.394,-1.971c0.083,-0.453 0.165,-0.905 0.246,-1.358Z" style="fill:#fff;"/></svg>