<?xml version="1.0" encoding="UTF-8" standalone="no"?><!DOCTYPE svg PUBLIC "-//W3C//DTD SVG 1.1//EN" "http://www.w3.org/Graphics/SVG/1.1/DTD/svg11.dtd"><svg width="100%" height="100%" viewBox="0 0 35 43" version="1.1" xmlns="http://www.w3.org/2000/svg" xmlns:xlink="http://www.w3.org/1999/xlink" xml:space="preserve" style="fill-rule:evenodd;clip-rule:evenodd;stroke-linejoin:round;stroke-miterlimit:1.41421;"><rect id="fpe-map" x="0.323" y="0.36" width="34.092" height="42" style="fill:none;"/><rect x="6.511" y="6.735" width="21.938" height="14.625" style="fill:#fff;"/><g><g><path d="M13.048,26.277l-5.09,0l-6.224,-0.076l0,-21.991c0,-0.857 0.3,-1.587 0.9,-2.192c0.6,-0.604 1.325,-0.906 2.175,-0.906l25.047,0c0.85,0 1.574,0.302 2.174,0.906c0.6,0.605 0.9,1.335 0.9,2.192l0,18.893c0,0.856 -0.3,1.6 -0.9,2.229c-0.6,0.63 -1.324,0.945 -2.174,0.945l-9.764,0c0,0 -3.269,16.083 -3.269,16.083l-3.775,-16.083Z" style="fill:#317f2f;"/></g></g><path d="M11.555,11.835c-0.38,0 -0.697,-0.126 -0.95,-0.378c-0.254,-0.253 -0.381,-0.569 -0.381,-0.948c0,-0.379 0.127,-0.691 0.381,-0.937c0.253,-0.245 0.57,-0.368 0.95,-0.368c0.381,0 0.694,0.126 0.941,0.379c0.246,0.252 0.369,0.561 0.369,0.926c0,0.365 -0.127,0.677 -0.38,0.937c-0.254,0.26 -0.563,0.389 -0.93,0.389Zm15.55,-1.6c0,1.039 -0.247,2.007 -0.74,2.906c-0.465,0.856 -1.112,1.568 -1.943,2.137c-0.831,0.568 -1.754,0.915 -2.768,1.042l0,3.41l2.641,0l0,1.727l-14.071,0l0,-4.358l-0.866,0l0,-3.537c0,-0.239 0.085,-0.442 0.254,-0.611c0.169,-0.168 0.373,-0.252 0.612,-0.252l2.641,0c0.24,0 0.444,0.084 0.613,0.252c0.169,0.169 0.253,0.372 0.253,0.611l0,3.537l-0.866,0l0,2.631l7.057,0l0,-3.452c-0.972,-0.169 -1.849,-0.541 -2.631,-1.116c-0.781,-0.576 -1.398,-1.284 -1.848,-2.127c-0.451,-0.87 -0.676,-1.803 -0.676,-2.8c0,-1.122 0.281,-2.161 0.845,-3.115c0.549,-0.927 1.288,-1.663 2.218,-2.211c0.958,-0.561 2,-0.842 3.127,-0.842c1.127,0 2.162,0.281 3.105,0.842c0.93,0.548 1.669,1.291 2.219,2.232c0.549,0.94 0.824,1.972 0.824,3.094Z" style="fill:#fff;"/></svg>