<?xml version="1.0" encoding="UTF-8" standalone="no"?><!DOCTYPE svg PUBLIC "-//W3C//DTD SVG 1.1//EN" "http://www.w3.org/Graphics/SVG/1.1/DTD/svg11.dtd"><svg width="100%" height="100%" viewBox="0 0 36 43" version="1.1" xmlns="http://www.w3.org/2000/svg" xmlns:xlink="http://www.w3.org/1999/xlink" xml:space="preserve" style="fill-rule:evenodd;clip-rule:evenodd;stroke-linejoin:round;stroke-miterlimit:1.41421;"><rect id="avistamento-map" x="0.522" y="0.108" width="34.092" height="42" style="fill:none;"/><rect x="6.71" y="6.483" width="21.938" height="14.625" style="fill:#fff;"/><g><g><path d="M13.248,26.024l-5.09,0l-6.225,-0.076l0,-21.991c0,-0.856 0.3,-1.587 0.9,-2.191c0.6,-0.605 1.325,-0.907 2.175,-0.907l25.047,0c0.85,0 1.575,0.302 2.175,0.907c0.6,0.604 0.899,1.335 0.899,2.191l0,18.893c0,0.857 -0.299,1.6 -0.899,2.23c-0.6,0.629 -1.325,0.944 -2.175,0.944l-9.764,0c0,0 -3.269,16.084 -3.269,16.084l-3.774,-16.084Z" style="fill:#968029;"/></g></g><g><path d="M16.758,10.604c-0.681,0 -1.249,-0.226 -1.703,-0.678c-0.454,-0.453 -0.681,-1.019 -0.681,-1.697c0,-0.679 0.227,-1.239 0.681,-1.678c0.454,-0.44 1.022,-0.66 1.703,-0.66c0.681,0 1.243,0.226 1.684,0.678c0.442,0.453 0.663,1.006 0.663,1.66c0,0.653 -0.227,1.213 -0.682,1.678c-0.454,0.465 -1.009,0.697 -1.665,0.697Zm3.015,11.342l-4.73,0.045l0,-2.239l-1.552,0l0,-6.335c0,-0.428 0.152,-0.792 0.454,-1.094c0.303,-0.302 0.669,-0.453 1.098,-0.453l4.73,0c0.429,0 -0.174,1.081 -0.174,1.081l0.174,6.801l0,2.194Z" style="fill:#fff;"/><path d="M24.827,9.679c-0.084,-0.189 -0.306,-0.274 -0.495,-0.19l-5.121,2.281c-0.189,0.084 -0.274,0.306 -0.19,0.495l0.306,0.686c0.084,0.189 -0.37,1.679 0.258,0.671l5.357,-2.761c0.19,-0.085 0.275,-0.307 0.19,-0.496l-0.305,-0.686Z" style="fill:#fff;"/><path d="M23.903,5.358c-0.051,-0.205 -0.259,-0.329 -0.464,-0.277l-0.741,0.186c-0.204,0.052 -0.328,0.26 -0.277,0.464l1.264,5.014c0.051,0.204 0.259,0.328 0.464,0.277l0.741,-0.187c0.204,-0.051 0.328,-0.259 0.277,-0.464l-1.264,-5.013Z" style="fill:#fff;"/></g></svg>