<?xml version="1.0" encoding="UTF-8" standalone="no"?><!DOCTYPE svg PUBLIC "-//W3C//DTD SVG 1.1//EN" "http://www.w3.org/Graphics/SVG/1.1/DTD/svg11.dtd"><svg width="100%" height="100%" viewBox="0 0 27 27" version="1.1" xmlns="http://www.w3.org/2000/svg" xmlns:xlink="http://www.w3.org/1999/xlink" xml:space="preserve" style="fill-rule:evenodd;clip-rule:evenodd;stroke-linejoin:round;stroke-miterlimit:1.41421;"><rect id="relatos-map" x="-0.282" y="0" width="27" height="27" style="fill:none;"/><rect x="6.093" y="5.986" width="16.125" height="11.25" style="fill:#fff;"/><g><g><path d="M20.285,9.027l0,-2.277l-8.984,0l0,2.277l8.984,0Zm0,3.388l0,-2.277l-8.984,0l0,2.277l8.984,0Zm-3.362,3.388l0,-2.276l-5.622,0l0,2.276l5.622,0Zm-7.828,-6.776l0,-2.277l-2.259,0l0,2.277l2.259,0Zm0,3.388l0,-2.277l-2.259,0l0,2.277l2.259,0Zm0,3.388l0,-2.276l-2.259,0l0,2.276l2.259,0Zm13.449,-13.553c0.61,0 1.13,0.217 1.56,0.651c0.431,0.433 0.646,0.957 0.646,1.572l0,13.553c0,0.615 -0.215,1.148 -0.646,1.6c-0.43,0.451 -0.95,0.677 -1.56,0.677l-15.708,0l-4.466,-0.054l0,-15.776c0,-0.615 0.216,-1.139 0.646,-1.572c0.43,-0.434 0.95,-0.651 1.56,-0.651l17.968,0Z" style="fill:#006582;"/><path d="M10.477,20.249l1.241,6.75l3.822,-6.696" style="fill:#006682;"/></g></g></svg>