<svg xmlns="http://www.w3.org/2000/svg" viewBox="0 0 254 248"><title>AIRE</title><g id="Layer_2" data-name="Layer 2"><g id="Layer_1-2" data-name="Layer 1"><g id="dYI44z.tif"><path d="M0,86V0H254V248H0V97a27.45,27.45,0,0,1,1.12,4.81c1,17.85,4.39,35.28,9.19,52.44,6.79,24.22,16.09,47.3,32.3,67C59.5,241.7,81.17,250,107.4,245.6a55.49,55.49,0,0,0,25.78-11.25,11.55,11.55,0,0,0-1.52-1.27c-25.73-13.7-47.59-32.33-67.54-53.33C51.93,166.92,40.8,153.22,33,137.18c-1.7-3.47-2.84-7.22-4.4-11.27,1.26.2,1.7.14,1.86.32,1.67,1.84,3.33,3.7,4.94,5.6,15.16,18,31.22,35.08,49.44,50.06,18,14.84,37.78,26.6,60.15,33.79,4,1.28,5.92.36,7.81-3.29,5.31-10.29,8.39-21.23,7.69-32.67-1.66-27.08-14.68-47.29-39.72-58.08-11.46-4.94-24-7.79-36.39-10.1-28.77-5.37-55.85-14-77.57-34.81-2.63-2.52-4.15-1.22-5,1.59C1.07,80.84.59,83.44,0,86ZM169.72.46c-.73,5.59-1.16,9.71-1.83,13.78C165.5,28.74,158.21,41,150.23,53c-4,6.08-8.18,12.25-11.15,18.88-10.19,22.77,1,48.71,23.73,56.36,3.4,1.14,5.63.94,7-2.82s3.46-7.58,4.85-11.49c6-17,7.41-34.73,7-52.63-.21-8.39-.81-16.78-1.24-25.16l1.38-.2c7.09,14.51,7.61,30.22,7.74,46.08a171.84,171.84,0,0,1-6.17,47.36,15.08,15.08,0,0,0,2.63,0c20.43-4.64,34.53-25.22,31.43-45.87C212.82,53,197.51,28.06,176.83,6,175.08,4.14,172.77,2.81,169.72.46Zm55.63,152.17,1.33,1.39c-4.66,4.19-9.41,8.28-14,12.58-13.34,12.57-24.81,26.45-31.28,44-1.45,3.93-.44,5.69,3.21,7.17q17.33,7.07,32.78-3.23c10.25-6.82,14.09-17.44,16.1-28.8,2.87-16.26,7-31.87,18.67-44.4.25-.27.1-.91.2-2a37.34,37.34,0,0,0-6.3-.9,122.82,122.82,0,0,0-12.43.9c-18.85,2.41-36.86,7.36-52.71,18.36-7,4.86-12.4,11-14.91,19.43-3,10.14-1.64,19.5,4.58,28.84C185,183.45,201.47,164.09,225.35,152.63Z" style="fill:#fff"/><path d="M0,86c.59-2.56,1.07-5.16,1.81-7.68.82-2.81,2.34-4.11,5-1.59,21.72,20.83,48.8,29.44,77.57,34.81,12.35,2.31,24.93,5.16,36.39,10.1,25,10.79,38.06,31,39.72,58.08.7,11.44-2.38,22.38-7.69,32.67C150.88,216,149,217,145,215.68c-22.37-7.19-42.1-19-60.15-33.79-18.22-15-34.28-32.08-49.44-50.06-1.61-1.9-3.27-3.76-4.94-5.6-.16-.18-.6-.12-1.86-.32,1.56,4.05,2.7,7.8,4.4,11.27,7.83,16,19,29.74,31.15,42.57,19.95,21,41.81,39.63,67.54,53.33a11.55,11.55,0,0,1,1.52,1.27A55.49,55.49,0,0,1,107.4,245.6c-26.23,4.38-47.9-3.9-64.79-24.39-16.21-19.66-25.51-42.74-32.3-67-4.8-17.16-8.23-34.59-9.19-52.44A27.45,27.45,0,0,0,0,97Z"/><path d="M169.72.46c3.05,2.35,5.36,3.68,7.11,5.55,20.68,22,36,47,40.56,77.46,3.1,20.65-11,41.23-31.43,45.87a15.08,15.08,0,0,1-2.63,0A171.84,171.84,0,0,0,189.5,82c-.13-15.86-.65-31.57-7.74-46.08l-1.38.2c.43,8.38,1,16.77,1.24,25.16.44,17.9-1,35.59-7,52.63-1.39,3.91-3.43,7.59-4.85,11.49s-3.59,4-7,2.82c-22.75-7.65-33.92-33.59-23.73-56.36,3-6.63,7.1-12.8,11.15-18.88,8-12,15.27-24.24,17.66-38.74C168.56,10.17,169,6.05,169.72.46Z"/><path d="M225.35,152.63C201.47,164.09,185,183.45,170.62,206c-6.22-9.34-7.62-18.7-4.58-28.84,2.51-8.39,7.91-14.57,14.91-19.43,15.85-11,33.86-16,52.71-18.36a122.82,122.82,0,0,1,12.43-.9,37.34,37.34,0,0,1,6.3.9c-.1,1,.05,1.68-.2,2-11.66,12.53-15.8,28.14-18.67,44.4-2,11.36-5.85,22-16.1,28.8s-21.23,7.94-32.78,3.23c-3.65-1.48-4.66-3.24-3.21-7.17,6.47-17.51,17.94-31.39,31.28-44,4.56-4.3,9.31-8.39,14-12.58Z"/></g></g></g></svg>