<svg id="Layer_1" data-name="Layer 1" xmlns="http://www.w3.org/2000/svg" viewBox="0 0 38.1 38.1"><defs><style>.cls-1{fill:#231f20;}</style></defs><title>Avistamento de Aves</title><polygon class="cls-1" points="34.47 27.71 34.47 27.71 34.47 24.09 34.47 24.09 34.47 20.33 30.25 20.33 30.25 18.2 28.22 18.2 28.22 20.33 26.94 20.33 26.94 24.45 30.25 24.45 30.25 27.71 28.59 31.34 28.59 35.46 36.12 35.46 36.12 31.34 34.47 27.71"/><polygon class="cls-1" points="24.48 18.2 22.45 18.2 22.45 20.33 18.23 20.33 18.23 24.09 18.22 24.09 18.22 27.71 16.57 31.34 16.57 35.46 24.1 35.46 24.1 31.34 22.45 27.71 22.45 27.71 22.45 24.45 25.75 24.45 25.75 20.33 24.48 20.33 24.48 18.2"/><path class="cls-1" d="M15,20.19l-1.6.06h0L12.08,18.6,14,16.82c2.56-.44,5.32-2.11,6.78-6.1C21.27,9,23.93,7.94,25,8.07l2.74-.32L26,6.55s-2.41-3.7-6.14-.22-5.62,4.14-7,4.3c-4.29.5-8.41,5.15-9.76,7.64,0,0,4.43-1.68,7.48-1.49L8.79,18.7l2,2.36L10,22.57a.15.15,0,0,0,.06.2l.07,0a.15.15,0,0,0,.14-.09l.63-1.27.68,1.23a.16.16,0,0,0,.13.08l.07,0a.15.15,0,0,0,.06-.21l-.66-1.21,1.47.6h.06a.14.14,0,0,0,.14-.09.15.15,0,0,0-.08-.2l-1.75-.71-1.86-2.2,1.73-1.89a2.13,2.13,0,0,1,.25,0,9,9,0,0,0,2.27,0l-1.77,1.67,1.5,1.88v1.14a.15.15,0,0,0,.3,0v-.91l1,.64a.11.11,0,0,0,.08,0,.17.17,0,0,0,.13-.07.16.16,0,0,0,0-.21l-.82-.53L15,20.49a.16.16,0,0,0,.15-.16A.15.15,0,0,0,15,20.19Z"/></svg>