<svg id="Layer_1" data-name="Layer 1" xmlns="http://www.w3.org/2000/svg" viewBox="0 0 38.1 38.1"><defs><style>.cls-1{fill:#231f20;}</style></defs><title>Beira-Lago</title><path class="cls-1" d="M30.62,34.65a2.58,2.58,0,0,0-2.53,0,2.58,2.58,0,0,1-2.53,0,2.58,2.58,0,0,0-2.53,0,2.58,2.58,0,0,1-2.53,0,2.58,2.58,0,0,0-2.53,0,2.58,2.58,0,0,1-2.53,0,2.58,2.58,0,0,0-2.53,0,2.58,2.58,0,0,1-2.53,0,2.58,2.58,0,0,0-2.53,0,2.58,2.58,0,0,1-2.53,0,2.58,2.58,0,0,0-2.53,0v1a2.58,2.58,0,0,1,2.53,0,2.61,2.61,0,0,0,2.53,0,2.58,2.58,0,0,1,2.53,0,2.61,2.61,0,0,0,2.53,0,2.58,2.58,0,0,1,2.53,0,2.58,2.58,0,0,0,2.53,0,2.58,2.58,0,0,1,2.53,0,2.58,2.58,0,0,0,2.53,0,2.58,2.58,0,0,1,2.53,0,2.58,2.58,0,0,0,2.53,0,2.58,2.58,0,0,1,2.53,0,2.58,2.58,0,0,0,2.53,0v-1A2.58,2.58,0,0,1,30.62,34.65Z"/><path class="cls-1" d="M9.45,30.15a1.75,1.75,0,0,0-1.7,0v.65a1.72,1.72,0,0,1,1.7,0,1.76,1.76,0,0,0,1.71,0,1.72,1.72,0,0,1,1.7,0,1.75,1.75,0,0,0,1.7,0,1.73,1.73,0,0,1,1.71,0,1.75,1.75,0,0,0,1.7,0,1.73,1.73,0,0,1,1.71,0,1.74,1.74,0,0,0,1.7,0,1.72,1.72,0,0,1,1.7,0,1.76,1.76,0,0,0,1.71,0,1.72,1.72,0,0,1,1.7,0,1.75,1.75,0,0,0,1.7,0v-.65a1.72,1.72,0,0,1-1.7,0,1.75,1.75,0,0,0-1.7,0,1.73,1.73,0,0,1-1.71,0,1.75,1.75,0,0,0-1.7,0,1.71,1.71,0,0,1-1.7,0,1.76,1.76,0,0,0-1.71,0,1.72,1.72,0,0,1-1.7,0,1.76,1.76,0,0,0-1.71,0,1.72,1.72,0,0,1-1.7,0,1.75,1.75,0,0,0-1.7,0A1.73,1.73,0,0,1,9.45,30.15Z"/><path class="cls-1" d="M12.76,26a1.05,1.05,0,0,0,1,0,1.08,1.08,0,0,1,1,0,1.07,1.07,0,0,0,1.05,0,1.07,1.07,0,0,1,1,0,1.05,1.05,0,0,0,1,0,1.08,1.08,0,0,1,1,0,1.07,1.07,0,0,0,1,0,1.08,1.08,0,0,1,1,0,1.05,1.05,0,0,0,1,0,1.08,1.08,0,0,1,1,0,1.07,1.07,0,0,0,1.05,0v-.39a1.07,1.07,0,0,1-1.05,0,1.05,1.05,0,0,0-1,0,1.05,1.05,0,0,1-1,0,1.05,1.05,0,0,0-1,0,1.07,1.07,0,0,1-1,0,1.05,1.05,0,0,0-1,0,1.05,1.05,0,0,1-1,0,1,1,0,0,0-1,0,1.07,1.07,0,0,1-1.05,0,1.05,1.05,0,0,0-1,0,1.05,1.05,0,0,1-1,0,1,1,0,0,0-1,0V26A1.07,1.07,0,0,1,12.76,26Z"/><path class="cls-1" d="M37.22,21.91H30.66a12.1,12.1,0,0,0-24.2,0H.88a.15.15,0,0,0-.16.15.16.16,0,0,0,.16.15H37.22a.15.15,0,0,0,.15-.15A.14.14,0,0,0,37.22,21.91Z"/></svg>