<svg id="Layer_1" data-name="Layer 1" xmlns="http://www.w3.org/2000/svg" viewBox="0 0 38.1 38.1"><defs><style>.cls-1{fill:#231f20;}</style></defs><title>Cachoeira</title><path class="cls-1" d="M24,4.16l-.08,0-.16.06-.16,0-.17.07-.17.07-.17.09a.91.91,0,0,0-.17.09l-.18.1c-.11.06-.22.15-.34.23a1,1,0,0,0-.17.13l-.17.14a5.55,5.55,0,0,0-1.16,1.47,5.89,5.89,0,0,0-.44,1c-.12.34-.24.68-.33,1s-.17.74-.23,1.12c0,.19-.06.38-.08.58a2.89,2.89,0,0,0,0,.29l0,.3c0,.39-.06.79-.06,1.19v1.23c0,.83,0,1.66,0,2.48,0,.2,0,.4,0,.61s0,.4,0,.6c0,.4,0,.8,0,1.18,0,.78,0,1.53-.06,2.25,0,.35,0,.7,0,1s0,.66-.05,1c0,.62,0,1.2-.08,1.7s-.06.95-.08,1.31c0,.1,0,.19,0,.28a6.18,6.18,0,0,1,2.12-.36,5.94,5.94,0,0,1,2.5.5l.1,0s0-.09,0-.13a1.13,1.13,0,0,1,.26-.67c0-2.35,0-7,0-11.71,0-.41,0-.82,0-1.24s0-.83.07-1.23.1-.81.17-1.21a10.7,10.7,0,0,1,.27-1.15,8.36,8.36,0,0,1,.87-2.07,6.82,6.82,0,0,1,.61-.85,1.54,1.54,0,0,0,.17-.19l.18-.17c.11-.12.24-.21.36-.32a5.11,5.11,0,0,1,1.49-.81,6.43,6.43,0,0,1,.84-.21H25.11c-.14,0-.29,0-.47.07l-.27,0-.3.08Z"/><path class="cls-1" d="M29.09,4.16l-.07,0-.17.06-.16,0-.17.07-.17.07-.17.09L28,4.61l-.17.1a3.5,3.5,0,0,0-.35.23,1,1,0,0,0-.17.13l-.16.14A5.79,5.79,0,0,0,26,6.68a6.86,6.86,0,0,0-.43,1,9,9,0,0,0-.34,1c-.09.36-.17.74-.23,1.12,0,.19-.06.38-.08.58l0,.29c0,.1,0,.2,0,.3,0,.39-.06.79-.07,1.19s0,.82,0,1.23c0,.83,0,1.66,0,2.48v.61c0,.2,0,.4,0,.6,0,.4,0,.8,0,1.18q0,1.17-.06,2.25c0,.35,0,.7,0,1s0,.66,0,1c0,.62-.06,1.2-.09,1.7,0,.25,0,.48,0,.7a4.85,4.85,0,0,1,3.19-1,6.4,6.4,0,0,1,1.76.24l0-11.81c-.23-8.54,5.65-8.44,5.65-8.44H30.22c-.14,0-.3,0-.48.07l-.27,0-.3.08Z"/><path class="cls-1" d="M19,4.21l-.07,0-.08,0-.16,0-.17.06-.16.07-.17.07L18,4.59l-.18.09-.17.11a4,4,0,0,0-.34.22l-.17.13L17,5.28a5.67,5.67,0,0,0-1.17,1.48,6.86,6.86,0,0,0-.43,1,10.54,10.54,0,0,0-.33,1,9.64,9.64,0,0,0-.24,1.12c0,.19,0,.38-.08.58l0,.29,0,.29c0,.4-.06.8-.07,1.2s0,.82,0,1.23c0,.83,0,1.66,0,2.47,0,.21,0,.41,0,.61v.61c0,.4,0,.79,0,1.18,0,.78,0,1.53-.06,2.24,0,.36,0,.7,0,1s0,.66,0,1c0,.62-.05,1.19-.08,1.7s-.06.94-.09,1.31a3,3,0,0,1,0,.31c.15,0,.3.05.44.09a6.58,6.58,0,0,1,1.72-.22,6.31,6.31,0,0,1,2.19.37,3.36,3.36,0,0,1,.63-.31c0-2,0-7.2,0-12.45V12.14c0-.41,0-.83.08-1.23s.1-.81.17-1.21a10.7,10.7,0,0,1,.27-1.15,8.36,8.36,0,0,1,.87-2.07,5.93,5.93,0,0,1,.61-.85l.17-.19.17-.17c.12-.12.24-.21.36-.32a5.11,5.11,0,0,1,1.49-.81,4.67,4.67,0,0,1,.8-.2H20.66V4l-.29,0H20.2L20,4l-.47.07-.28.06Z"/><path class="cls-1" d="M10.43,24.2c1.9,0,3.46.73,3.63,1.67h0c0-2,0-7.19,0-12.41V12.22c0-.42,0-.83.08-1.24a12,12,0,0,1,.17-1.2c.07-.4.16-.78.26-1.16a9,9,0,0,1,.88-2.07,5.32,5.32,0,0,1,.61-.84c.05-.07.11-.13.16-.19l.18-.17A3.59,3.59,0,0,1,16.75,5a4.88,4.88,0,0,1,1.49-.81,5.94,5.94,0,0,1,1.26-.28h-.66s-9.48-.69-9.48,8.45v11.9A6.18,6.18,0,0,1,10.43,24.2Z"/><path class="cls-1" d="M37,36.84l-7-9.3c-.26.88-1.76,1.56-3.58,1.56a6,6,0,0,1-2.51-.5,5.94,5.94,0,0,1-2.5.5,6.09,6.09,0,0,1-2.19-.37,5.41,5.41,0,0,1-2.88.72,6.58,6.58,0,0,1-1.72-.22,6.65,6.65,0,0,1-1.73.22c-1.89,0-3.45-.74-3.62-1.67q-.37-.08-.72-.18L.35,36.84H7.54l6.6-7.31-6,7.31H19l.23-7.32.25,7.32h11.2l-6-7.31,6.61,7.31Z"/></svg>