<svg id="Layer_1" data-name="Layer 1" xmlns="http://www.w3.org/2000/svg" viewBox="0 0 38.07 38.07"><defs><style>.cls-1{fill:#231f20;}</style></defs><title>Esportes Aquáticos</title><path class="cls-1" d="M19.18,28.4s3.67-2.54,8.93,0c0,0,3.67,2.53,8.93,0V25c-5.26,2.54-8.93,0-8.93,0a11.17,11.17,0,0,0-3.17-1h9.74a.12.12,0,0,0,.12-.12.12.12,0,0,0-.12-.13H26.84a.58.58,0,0,0,.31-.14l1-.88a.48.48,0,0,0,.1-.67l-3.89-4.28,2.07-3.46h.3a.58.58,0,0,0,.55-.59V12.9l.93-1.55a.75.75,0,0,0-.19-1,.65.65,0,0,0-.93.2l-.66,1.11H17.84l0,0H14.35a.82.82,0,0,0-.71.89v10.2a.81.81,0,0,0,.71.88h3.44a.53.53,0,0,0,.18,0,.36.36,0,0,0,.22-.09l2.38-2.1-1.4,2.35H2.5a.13.13,0,0,0-.13.13A.12.12,0,0,0,2.5,24H4.13a7.62,7.62,0,0,0-2.81,1V28.4s3.67-2.54,8.93,0a8.39,8.39,0,0,0,5.53,1l-1.12,1.89a8.16,8.16,0,0,1-4.41-1.13c-5.26-2.53-8.93,0-8.93,0v3.39S5,31,10.25,33.58c0,0,3.67,2.53,8.93,0,0,0,3.67-2.54,8.93,0,0,0,3.67,2.53,8.93,0V30.19c-5.26,2.54-8.93,0-8.93,0-5.26-2.53-8.93,0-8.93,0a11.47,11.47,0,0,1-2.84,1L17.61,29A13.07,13.07,0,0,0,19.18,28.4Zm1.16-3.95L20.6,24H22A8.44,8.44,0,0,0,20.34,24.45Zm6.37-.69h-6l2.31-3.87,3.41,3.76A.36.36,0,0,0,26.71,23.76Zm-3.34-7-.29-.33a.42.42,0,0,0-.36-.11.35.35,0,0,0-.28.08l-3.93,3.46v-5.5h6.3ZM10.25,25a11.17,11.17,0,0,0-3.17-1H19l-.86,1.44A8.9,8.9,0,0,1,10.25,25Z"/><path class="cls-1" d="M17.68,10.1a2.77,2.77,0,1,0-3.89-.47A2.78,2.78,0,0,0,17.68,10.1Z"/></svg>