<?xml version="1.0" encoding="UTF-8"?>
<svg width="370px" height="370px" viewBox="0 0 370 370" version="1.1" xmlns="http://www.w3.org/2000/svg" xmlns:xlink="http://www.w3.org/1999/xlink">
    <!-- Generator: Sketch 60.1 (88133) - https://sketch.com -->
    <title>river</title>
    <desc>Created with Sketch.</desc>
    <g id="Page-1" stroke="none" stroke-width="1" fill="none" fill-rule="evenodd">
        <g id="river" fill="#000000" fill-rule="nonzero">
            <path d="M11.0770054,204.954437 C13.2192488,204.954437 15.4766061,204.962981 17.8322316,204.974371 C20.3647398,204.985762 23.0376305,205 25.83125,205 C41.1357957,205 60.006067,204.621262 78.213731,201.696718 C105.021253,197.385365 124.638361,188.643057 138.188121,174.962911 C151.678919,161.342566 158.521182,143.208684 158.521182,121.062454 C158.521182,99.9072081 165.798632,82.5706706 180.771874,68.0703997 C193.771332,55.480907 212.579836,45.2293408 236.669544,37.6033142 C277.70347,24.6123021 325.029359,21.884246 357.50835,21.884246 C363.466201,21.884246 368.295373,16.9862755 368.295373,10.9406989 C368.295373,4.89797053 363.466201,0 357.50835,0 C323.530069,0 273.868209,2.89891475 230.240006,16.7129004 C202.952375,25.352693 181.294099,37.3071579 165.871632,52.2431202 C146.675671,70.8326269 136.944328,93.9897767 136.944328,121.062454 C136.944328,137.399464 132.370653,149.957633 122.964997,159.45457 C99.1757084,183.471711 48.3121703,183.235355 17.9333073,183.090125 C15.5411824,183.078735 13.2501333,183.070191 11.0770054,183.070191 C5.11915478,183.070191 0.289982472,187.968162 0.289982472,194.01089 C0.289982472,200.053619 5.11915478,204.954437 11.0770054,204.954437 L11.0770054,204.954437 Z" id="Path"></path>
            <path d="M358.505655,41 C332.922272,41 295.976296,43.905203 265.240861,57.7561858 C229.010838,74.0822875 209.862608,102.197247 209.862608,139.064843 C209.862608,140.383577 209.901916,141.764973 209.966491,143.206181 C191.399447,147.227894 177.425732,163.989776 177.425732,184.007194 C177.425732,189.475812 178.456142,194.790625 180.446772,199.738014 C171.72057,208.932127 166.7089,221.276391 166.7089,234.281448 C166.7089,251.510441 175.387371,267.22702 189.377933,276.270176 C189.38074,280.496961 190.001233,285.427262 191.590368,290.482885 C160.352362,319.586184 100.029822,334.337209 12.0743099,334.337209 C6.11645936,334.337209 1.28728705,339.236179 1.28728705,345.280141 C1.28728705,351.324102 6.11645936,356.225921 12.0743099,356.225921 C104.269387,356.225921 167.017742,340.845434 203.228111,309.284105 C213.928097,319.47795 228.654265,323.192053 241.718299,324.168999 L241.718299,359.054221 C241.718299,365.10103 246.547471,370 252.505323,370 C258.465981,370 263.295154,365.10103 263.295154,359.054221 L263.295154,323.596503 C288.137314,320.329574 300.976736,308.321401 307.510157,297.996537 C311.963103,290.961389 314.366458,283.168609 315.02345,276.660385 C329.370584,267.682738 338.301745,251.763934 338.301745,234.281448 C338.301745,221.276391 333.292883,208.932127 324.566681,199.738014 C326.557311,194.787776 327.587721,189.475812 327.587721,184.007194 C327.587721,163.189421 312.479712,145.880677 292.800835,142.776097 C288.350696,124.61573 272.139277,111.11793 252.881548,111.11793 C246.665393,111.11793 240.772118,112.530656 235.485298,115.04565 C241.496494,98.9644968 254.243263,86.6601076 273.997947,77.7593632 C289.055419,70.9748594 315.938747,62.8858627 358.502847,62.8858627 C364.460698,62.8858627 369.292678,57.9868929 369.292678,51.9429317 C369.292678,45.8989698 364.463506,41 358.505655,41 L358.505655,41 Z M252.881548,133.00664 C263.637688,133.00664 272.394774,141.867509 272.436889,152.770566 L272.42285,153.194953 C272.36389,156.333711 273.638567,159.349996 275.921193,161.471933 C278.203819,163.593871 281.278205,164.619237 284.352591,164.285993 C285.062928,164.209091 285.770458,164.172063 286.455527,164.172063 C297.236935,164.172063 306.010867,173.069959 306.010867,184.007194 C306.010867,188.271007 304.696883,192.335443 302.209298,195.759026 C300.474165,198.143001 299.769443,201.142195 300.25236,204.064488 C300.738085,206.98678 302.369334,209.587222 304.775497,211.267683 C312.257907,216.491351 316.724891,225.09588 316.724891,234.284296 C316.724891,245.537685 310.121279,255.637538 299.901402,260.01528 C297.214474,261.168817 295.100307,263.373354 294.044628,266.130448 C293.216368,268.286564 293.090024,270.636361 293.654363,272.843746 C293.69367,275.133729 292.657644,283.088858 286.46395,289.984443 C278.967502,298.338326 266.566075,302.573656 249.610627,302.573656 C233.533976,302.573656 221.885001,298.588971 215.921535,291.049684 C210.564522,284.276574 210.738597,275.862878 211.109208,273.672583 C211.940275,271.231642 211.89816,268.557146 210.968825,266.130448 C209.910338,263.373354 207.796172,261.168817 205.109243,260.01528 C194.889366,255.637538 188.285754,245.534837 188.285754,234.281448 C188.285754,225.093031 192.752738,216.488503 200.235148,211.267683 C202.644118,209.584374 204.275368,206.98678 204.761093,204.06164 C205.24401,201.139347 204.53648,198.143001 202.804155,195.756177 C200.31657,192.332595 199.002586,188.271007 199.002586,184.007194 C199.002586,173.069959 207.77371,164.169215 218.557926,164.169215 C219.3918,164.169215 220.236906,164.229028 221.143779,164.351502 C224.257472,164.764497 227.40205,163.784703 229.746444,161.659917 C232.090839,159.532283 233.402015,156.476124 233.340247,153.286097 L233.326208,152.793352 C233.354285,141.878903 242.116987,133.00664 252.881548,133.00664 L252.881548,133.00664 Z" id="Shape"></path>
            <path d="M36.3516733,139 L84.9021461,139 C104.236976,139 119.966532,123.142453 119.966532,103.653773 C119.966532,84.5896226 104.913667,69.0009434 86.1572529,68.3330189 C79.8339835,58.305661 68.796339,52 56.5822066,52 C43.8373915,52 32.2690642,58.9594341 26.1170732,69.8415093 C11.5948915,74.2792451 1.28728705,87.8386791 1.28728705,103.653773 C1.28728705,123.142453 17.0168424,139 36.3516733,139 Z M34.8326285,90.1509431 C38.9713938,89.6867929 42.4755862,86.8650942 43.8373915,82.8971701 C45.7158413,77.4264149 50.8373532,73.7500004 56.5822066,73.7500004 C62.4393747,73.7500004 67.5945807,77.5198117 69.4056415,83.1292452 C71.1240435,88.4499999 76.5712656,91.5858489 81.9847935,90.3858489 C82.9506927,90.1707546 83.9334385,90.060377 84.9049538,90.060377 C92.3401311,90.060377 98.3910404,96.1594338 98.3910404,103.653773 C98.3910404,111.150944 92.3401311,117.25 84.9049538,117.25 L36.3516733,117.25 C28.9164959,117.25 22.8655867,111.150944 22.8655867,103.653773 C22.8655867,96.7198115 28.0095614,90.9150944 34.8326285,90.1509431 Z" id="Shape"></path>
        </g>
    </g>
</svg>