<?xml version="1.0" encoding="utf-8"?>
<!-- Generator: Adobe Illustrator 23.0.1, SVG Export Plug-In . SVG Version: 6.00 Build 0)  -->
<svg version="1.1" id="Layer_1" xmlns="http://www.w3.org/2000/svg" xmlns:xlink="http://www.w3.org/1999/xlink" x="0px" y="0px"
	 viewBox="0 0 371.4 446.2" style="enable-background:new 0 0 371.4 446.2;" xml:space="preserve">
<g transform="translate(0.000000,1280.000000) scale(0.100000,-0.100000)">
	<path d="M1710.8,12453.1v-65l-212-1c-117,0-255-4-306-7l-92-7l-58-64c-227-255-817-930-829-948c-13-20-13-111-3-714
		c6-381,15-701,20-713c4-12,135-165,290-341s352-400,438-497c109-124,165-181,187-187c16-5,127-15,245-21c118-5,239-13,268-16l52-5
		v-189.7c0-125.2,3-228,6-228.5c27-3.8,244-3.4,258,0.4c3,0.7,10,103.1,16,227.8c6,124.6,13,168,16,170c2,2,95-1,206-6
		c169-9,208-8,233,3c17,8,243,227,502,487l471,472l6,55c3,30,11,365,17,744l11,688l-23,32c-58,78-944,1049-966,1057
		c-13,5-121,9-239,9h-214v65v65h-150h-150V12453.1z"/>
</g>
</svg>
