<svg id="Layer_1" data-name="Layer 1" xmlns="http://www.w3.org/2000/svg" viewBox="0 0 38.1 38.1"><defs><style>.cls-1{fill:#231f20;}</style></defs><title>Ponto de Pesca</title><path class="cls-1" d="M16.1,23.58l3.13,3.89L13.73,29A29.51,29.51,0,0,0,33,37.29h3.93V21.56S26,16.13,16.1,23.58Zm5.31,1.75a1.51,1.51,0,1,1,1.5-1.5A1.5,1.5,0,0,1,21.41,25.33Z"/><path class="cls-1" d="M37.09,6.08a11.14,11.14,0,0,0-9.2-1.19A24,24,0,0,0,19,10.06c-.28.24-.55.5-.82.74C17.19,10,16.25,9.66,16,10s.2,1.09,1,1.93a82,82,0,0,0-11.18,14,2.82,2.82,0,0,1-2.41.76,1.48,1.48,0,0,1-1.25-.95c-.24-.69-.19-2.18,1.77-5.1l1.92,2.16L7.4,16.3a.34.34,0,0,0,0-.46.35.35,0,0,0-.49,0C2.68,20.51.82,24,1.52,26a2.12,2.12,0,0,0,1.78,1.4,4.55,4.55,0,0,0,.52,0,3.37,3.37,0,0,0,2.55-1.07v0a81.37,81.37,0,0,1,11.12-14l0,0c1.15,1,2.32,1.5,2.62,1.16s-.34-1.35-1.41-2.3c.25-.22.49-.46.73-.67C26,5,31.84,3.64,36.73,6.67a.35.35,0,0,0,.48-.12A.35.35,0,0,0,37.09,6.08Z"/></svg>