<svg id="Layer_1" data-name="Layer 1" xmlns="http://www.w3.org/2000/svg" viewBox="0 0 38.1 38.1"><defs><style>.cls-1{fill:#231f20;}</style></defs><title>Praia para Banho</title><path class="cls-1" d="M30.72,18.19a2.76,2.76,0,1,0,2.75-2.76A2.75,2.75,0,0,0,30.72,18.19Z"/><path class="cls-1" d="M33.47,25.59l-2.11-2.36,0-.06-3.51-3.89-.21-.23h0l-1.24-1.38,6.1-5.7a.67.67,0,0,0,.08-.94L31.27,9.66a.67.67,0,0,0-.94,0l-6.4,6-.11.06L22.5,16.92a.66.66,0,0,0,0,.92l2.91,3.23L22.9,23.41a7.93,7.93,0,0,0-3.7,1.11A10.65,10.65,0,0,1,15,25.63s0,0,0,0l-9.4-7.4a.81.81,0,0,0-1.14.07L3,20.06a.8.8,0,0,0,.2,1.12L6,23.41a8.19,8.19,0,0,0-4.69,1.11V27.9s3.68-2.53,8.94,0c0,0,3.67,2.54,8.94,0,0,0,3.67-2.53,8.93,0,0,0,3.68,2.54,8.94,0V24.52A11.13,11.13,0,0,1,33.47,25.59Z"/><path class="cls-1" d="M28.13,29.7c-5.26-2.54-8.93,0-8.93,0-5.27,2.54-8.94,0-8.94,0-5.26-2.54-8.94,0-8.94,0v3.39s3.68-2.54,8.94,0c0,0,3.67,2.54,8.94,0,0,0,3.67-2.54,8.93,0,0,0,3.68,2.54,8.94,0V29.7C31.81,32.24,28.13,29.7,28.13,29.7Z"/></svg>