<?xml version="1.0" encoding="UTF-8"?>
<svg width="271px" height="124px" viewBox="0 0 271 124" version="1.1" xmlns="http://www.w3.org/2000/svg" xmlns:xlink="http://www.w3.org/1999/xlink">
    <!-- Generator: Sketch 60.1 (88133) - https://sketch.com -->
    <title>sea</title>
    <desc>Created with Sketch.</desc>
    <g id="Page-1" stroke="none" stroke-width="1" fill="none" fill-rule="evenodd">
        <g id="sea" fill="#3BA7E5" fill-rule="nonzero">
            <path d="M8.87025211,46 C19.1883265,46 29.1318791,41.5107215 37.4807575,33.354145 C38.5205481,32.3382613 39.5396416,31.2746044 40.5281819,30.1463132 C41.5157366,31.2746044 42.5358156,32.3382613 43.5756063,33.354145 C51.9234991,41.5107215 61.8680373,55.3046875 72.1851261,55.3046875 C82.5022148,55.3046875 92.446753,41.5107215 100.795631,33.354145 C101.835422,32.3382613 102.854516,31.2746044 103.843056,30.1463132 C104.830611,31.2746044 105.85069,32.3382613 106.89048,33.354145 C115.238373,41.5107215 125.182911,55.3046875 135.5,55.3046875 C145.817089,55.3046875 155.761627,41.5107215 164.10952,33.354145 C165.14931,32.3382613 166.168404,31.2746044 167.156944,30.1463132 C168.144499,31.2746044 169.164578,32.3382613 170.204369,33.354145 C178.553247,41.5107215 188.4968,55.3046875 198.814874,55.3046875 C209.132948,55.3046875 219.076501,41.5107215 227.424394,33.354145 C228.464184,32.3382613 229.483278,31.2746044 230.471818,30.1463132 C231.459373,31.2746044 232.479452,32.3382613 233.519243,33.354145 C241.868121,41.5107215 251.811674,46 262.129748,46 C267.029084,46 271,40.3388723 271,33.354145 C271,26.3694178 267.029084,20.7082901 262.129748,20.7082901 C252.552832,20.7082901 243.462795,14.7605229 237.189556,4.38951677 C235.505193,1.60461849 233.052076,0.001405095 230.471818,0.001405095 C227.89156,0.001405095 225.439428,1.60321339 223.754081,4.38951677 C217.482812,14.7591178 208.392775,33.354145 198.814874,33.354145 C189.236973,33.354145 180.147921,14.7591178 173.874682,4.38811167 C172.190319,1.60321339 169.737202,0 167.156944,0 C164.576686,0 162.124554,1.6018083 160.439207,4.38811167 C154.167938,14.7577127 145.077901,33.354145 135.5,33.354145 C125.922099,33.354145 116.833047,14.7577127 110.560793,4.38811167 C108.875446,1.6018083 106.423314,0 103.843056,0 C101.262798,0 98.8106661,1.6018083 97.1253182,4.38811167 C90.8530644,14.7591178 81.7630272,33.354145 72.1851261,33.354145 C62.6072249,33.354145 53.5171877,14.7605229 47.2459195,4.39092186 C45.5605716,1.60461849 43.1084397,0.00281018999 40.5281819,0.00281018999 C37.9479241,0.00281018999 35.4957922,1.60461849 33.8104443,4.39092186 C27.5372049,14.761928 18.4471676,20.7082901 8.87025211,20.7082901 C3.97091619,20.7082901 0,26.3694178 0,33.354145 C0,40.3388723 3.97091619,46 8.87025211,46 Z" id="Path"></path>
            <path d="M8.87025211,114 C19.1883265,114 29.1318791,109.510721 37.4807575,101.354145 C38.5205481,100.338261 39.5396416,99.2746044 40.5281819,98.1463132 C41.5157366,99.2746044 42.5358156,100.338261 43.5756063,101.354145 C51.9234991,109.510721 61.8680373,123.304688 72.1851261,123.304688 C82.5022148,123.304688 92.446753,109.510721 100.795631,101.354145 C101.835422,100.338261 102.854516,99.2746044 103.843056,98.1463132 C104.830611,99.2746044 105.85069,100.338261 106.89048,101.354145 C115.238373,109.510721 125.182911,123.304688 135.5,123.304688 C145.817089,123.304688 155.761627,109.510721 164.10952,101.354145 C165.14931,100.338261 166.168404,99.2746044 167.156944,98.1463132 C168.144499,99.2746044 169.164578,100.338261 170.204369,101.354145 C178.553247,109.510721 188.4968,123.304688 198.814874,123.304688 C209.132948,123.304688 219.076501,109.510721 227.424394,101.354145 C228.464184,100.338261 229.483278,99.2746044 230.471818,98.1463132 C231.459373,99.2746044 232.479452,100.338261 233.519243,101.354145 C241.868121,109.510721 251.811674,114 262.129748,114 C267.029084,114 271,108.338872 271,101.354145 C271,94.3694178 267.029084,88.7082901 262.129748,88.7082901 C252.552832,88.7082901 243.462795,82.7605229 237.189556,72.3895168 C235.505193,69.6046185 233.052076,68.0014051 230.471818,68.0014051 C227.89156,68.0014051 225.439428,69.6032134 223.754081,72.3895168 C217.482812,82.7591178 208.392775,101.354145 198.814874,101.354145 C189.236973,101.354145 180.147921,82.7591178 173.874682,72.3881117 C172.190319,69.6032134 169.737202,68 167.156944,68 C164.576686,68 162.124554,69.6018083 160.439207,72.3881117 C154.167938,82.7577127 145.077901,101.354145 135.5,101.354145 C125.922099,101.354145 116.833047,82.7577127 110.560793,72.3881117 C108.875446,69.6018083 106.423314,68 103.843056,68 C101.262798,68 98.8106661,69.6018083 97.1253182,72.3881117 C90.8530644,82.7591178 81.7630272,101.354145 72.1851261,101.354145 C62.6072249,101.354145 53.5171877,82.7605229 47.2459195,72.3909219 C45.5605716,69.6046185 43.1084397,68.0028102 40.5281819,68.0028102 C37.9479241,68.0028102 35.4957922,69.6046185 33.8104443,72.3909219 C27.5372049,82.761928 18.4471676,88.7082901 8.87025211,88.7082901 C3.97091619,88.7082901 0,94.3694178 0,101.354145 C0,108.338872 3.97091619,114 8.87025211,114 Z" id="Path"></path>
        </g>
    </g>
</svg>