<svg id="Layer_1" data-name="Layer 1" xmlns="http://www.w3.org/2000/svg" viewBox="0 0 38.1 38.1"><defs><style>.cls-1{fill:#231f20;}</style></defs><title>Vista Panorâmica</title><path class="cls-1" d="M13.83,14.52A5.22,5.22,0,1,0,8.61,9.3,5.22,5.22,0,0,0,13.83,14.52Z"/><rect class="cls-1" x="20.3" y="7.06" width="1.06" height="1.15"/><path class="cls-1" d="M21.62,8.21l2.3.36V17H9.6a.39.39,0,0,0-.38.41V35.67a.39.39,0,0,0,.38.41h9.45a.39.39,0,0,0,.38-.41V21.07h7.85a.44.44,0,0,0,.4-.48V19.25h0V9.15l2.93.46V6.05l-9,1Z"/><rect class="cls-1" x="30.95" y="6.05" width="0.88" height="3.56"/></svg>