<?xml version="1.0" encoding="UTF-8" standalone="no"?><!DOCTYPE svg PUBLIC "-//W3C//DTD SVG 1.1//EN" "http://www.w3.org/Graphics/SVG/1.1/DTD/svg11.dtd"><svg width="100%" height="100%" viewBox="0 0 34 34" version="1.1" xmlns="http://www.w3.org/2000/svg" xmlns:xlink="http://www.w3.org/1999/xlink" xml:space="preserve" style="fill-rule:evenodd;clip-rule:evenodd;stroke-linecap:round;stroke-linejoin:round;stroke-miterlimit:1.5;"><rect id="draw-raio" x="0.75" y="0.79" width="32.758" height="32.758" style="fill:none;"/><ellipse cx="17.42" cy="23.004" rx="13.828" ry="9.045" style="fill:none;stroke:#434343;stroke-width:1px;stroke-dasharray:1,3,0,0;"/><path d="M17.22,21.244l8.447,8.447" style="fill:none;stroke:#434343;stroke-width:1px;stroke-dasharray:1,3,0,0;"/><path d="M19.681,9.026c0,-0.78 -0.276,-1.445 -0.828,-1.997c-0.551,-0.552 -1.217,-0.827 -1.996,-0.827c-0.78,0 -1.446,0.275 -1.997,0.827c-0.552,0.552 -0.828,1.217 -0.828,1.997c0,0.779 0.276,1.445 0.828,1.997c0.551,0.551 1.217,0.827 1.997,0.827c0.779,0 1.445,-0.276 1.996,-0.827c0.552,-0.552 0.828,-1.218 0.828,-1.997Zm2.824,0c0,0.802 -0.121,1.46 -0.364,1.975l-4.016,8.539c-0.117,0.242 -0.292,0.434 -0.524,0.573c-0.231,0.14 -0.48,0.21 -0.744,0.21c-0.265,0 -0.513,-0.07 -0.745,-0.21c-0.232,-0.139 -0.403,-0.331 -0.513,-0.573l-4.027,-8.539c-0.243,-0.515 -0.364,-1.173 -0.364,-1.975c0,-1.559 0.552,-2.891 1.655,-3.994c1.103,-1.103 2.434,-1.655 3.994,-1.655c1.559,0 2.89,0.552 3.993,1.655c1.104,1.103 1.655,2.435 1.655,3.994Z" style="fill:#7b7b7b;fill-rule:nonzero;"/></svg>