<?xml version="1.0" encoding="UTF-8" standalone="no"?><!DOCTYPE svg PUBLIC "-//W3C//DTD SVG 1.1//EN" "http://www.w3.org/Graphics/SVG/1.1/DTD/svg11.dtd"><svg width="100%" height="100%" viewBox="0 0 41 41" version="1.1" xmlns="http://www.w3.org/2000/svg" xmlns:xlink="http://www.w3.org/1999/xlink" xml:space="preserve" style="fill-rule:evenodd;clip-rule:evenodd;stroke-linejoin:round;stroke-miterlimit:1.41421;"><rect id="icone-mapabase" x="0.918" y="0.328" width="39.893" height="39.893" style="fill:none;"/><path d="M15.179,9.342c0.12,0 0.224,0.038 0.312,0.113c0.088,0.076 0.132,0.166 0.132,0.269l0,17.58c0,0.159 -0.079,0.271 -0.236,0.334l-6.657,3.058c-0.065,0.031 -0.134,0.047 -0.208,0.047c-0.121,0 -0.225,-0.037 -0.312,-0.113c-0.088,-0.076 -0.132,-0.165 -0.132,-0.269l0,-17.58c0,-0.159 0.078,-0.27 0.236,-0.334l6.657,-3.057c0.065,-0.032 0.134,-0.048 0.208,-0.048Zm17.309,0c0.121,0 0.225,0.038 0.312,0.113c0.088,0.076 0.132,0.166 0.132,0.269l0,17.58c0,0.159 -0.078,0.271 -0.236,0.334l-6.657,3.058c-0.065,0.031 -0.134,0.047 -0.208,0.047c-0.12,0 -0.224,-0.037 -0.312,-0.113c-0.088,-0.076 -0.132,-0.165 -0.132,-0.269l0,-17.58c0,-0.159 0.079,-0.27 0.236,-0.334l6.657,-3.057c0.065,-0.032 0.134,-0.048 0.208,-0.048Zm-15.534,0c0.074,0 0.139,0.012 0.195,0.036l7.101,3.057c0.166,0.08 0.249,0.195 0.249,0.346l0,17.58c0,0.104 -0.043,0.193 -0.131,0.269c-0.088,0.076 -0.192,0.113 -0.312,0.113c-0.074,0 -0.139,-0.012 -0.195,-0.035l-7.101,-3.058c-0.166,-0.079 -0.249,-0.195 -0.249,-0.346l0,-17.58c0,-0.103 0.043,-0.193 0.131,-0.269c0.088,-0.075 0.192,-0.113 0.312,-0.113Z" style="fill-rule:nonzero;"/></svg>