<?xml version="1.0" encoding="UTF-8" standalone="no"?><!DOCTYPE svg PUBLIC "-//W3C//DTD SVG 1.1//EN" "http://www.w3.org/Graphics/SVG/1.1/DTD/svg11.dtd"><svg width="100%" height="100%" viewBox="0 0 41 40" version="1.1" xmlns="http://www.w3.org/2000/svg" xmlns:xlink="http://www.w3.org/1999/xlink" xml:space="preserve" style="fill-rule:evenodd;clip-rule:evenodd;stroke-linejoin:round;stroke-miterlimit:1.41421;"><rect id="icone-regiaoanalise" x="0.918" y="0.042" width="39.893" height="39.893" style="fill:none;"/><clipPath id="_clip1"><rect id="icone-regiaoanalise1" x="0.918" y="0.042" width="39.893" height="39.893"/></clipPath><g clip-path="url(#_clip1)"><path d="M35.387,18.403l-1.634,0l0,8.172l1.634,0l0,4.903l-4.903,0l0,-1.634l-11.44,0l0,1.634l-4.904,0l0,-4.903l1.635,0l0,-1.634l-4.903,0l0,1.634l-4.904,0l0,-4.903l1.635,0l0,-8.172l-1.635,0l0,-4.903l4.904,0l0,1.634l11.44,0l0,-1.634l4.904,0l0,4.903l-1.635,0l0,1.634l4.903,0l0,-1.634l4.903,0l0,4.903Zm-3.268,-3.269l0,1.635l1.634,0l0,-1.635l-1.634,0Zm-8.172,-4.903l0,1.635l1.634,0l0,-1.635l-1.634,0Zm-16.344,0l0,1.635l1.634,0l0,-1.635l-1.634,0Zm1.634,14.71l0,-1.635l-1.634,0l0,1.635l1.634,0Zm16.344,-1.635l-1.634,0l0,1.635l1.634,0l0,-1.635Zm-14.709,0l11.44,0l0,-1.634l1.635,0l0,-8.172l-1.635,0l0,-1.634l-11.44,0l0,1.634l-1.635,0l0,8.172l1.635,0l0,1.634Zm6.537,6.538l0,-1.635l-1.634,0l0,1.635l1.634,0Zm16.344,0l0,-1.635l-1.634,0l0,1.635l1.634,0Zm-1.634,-3.269l0,-8.172l-1.635,0l0,-1.634l-4.903,0l0,4.903l1.635,0l0,4.903l-4.904,0l0,-1.634l-4.903,0l0,1.634l1.635,0l0,1.634l11.44,0l0,-1.634l1.635,0Z" style="fill-rule:nonzero;"/></g></svg>