<?xml version="1.0" encoding="UTF-8" standalone="no"?><!DOCTYPE svg PUBLIC "-//W3C//DTD SVG 1.1//EN" "http://www.w3.org/Graphics/SVG/1.1/DTD/svg11.dtd"><svg width="100%" height="100%" viewBox="0 0 41 41" version="1.1" xmlns="http://www.w3.org/2000/svg" xmlns:xlink="http://www.w3.org/1999/xlink" xml:space="preserve" style="fill-rule:evenodd;clip-rule:evenodd;stroke-linejoin:round;stroke-miterlimit:1.41421;"><rect id="icone-idsus" x="0.363" y="0.906" width="39.893" height="39.893" style="fill:none;"/><clipPath id="_clip1"><rect x="0.363" y="0.906" width="39.893" height="39.893"/></clipPath><g clip-path="url(#_clip1)"><g transform="matrix(1,0,0,1,-4450.01,-5202.77)"><text x="0px" y="20.01px" style="font-family:'ProximaNova-Regular', 'Proxima Nova';font-size:12px;fill:#393f47;">asdﬀdaasdfvx<tspan x="78.444px " y="20.01px ">c</tspan>vb<tspan x="96.732px 102.132px " y="20.01px 20.01px ">xc</tspan>vb</text><text x="120.864px" y="20.01px" style="font-family:'ProximaNova-Regular', 'Proxima Nova';font-size:30px;fill:#393f47;">x<tspan x="134.364px " y="20.01px ">c</tspan>vb<tspan x="180.084px 193.584px " y="20.01px 20.01px ">xc</tspan>vb</text></g><path d="M34.351,30.575l0,1.757l-28.111,0l0,-21.083l1.757,0l0,19.326l26.354,0Zm-1.757,-17.13l0,5.971c0,0.192 -0.089,0.327 -0.267,0.405c-0.179,0.078 -0.341,0.043 -0.488,-0.103l-1.66,-1.661l-8.689,8.689c-0.091,0.091 -0.197,0.137 -0.316,0.137c-0.119,0 -0.224,-0.046 -0.315,-0.137l-3.199,-3.198l-5.71,5.71l-2.635,-2.636l8.03,-8.03c0.091,-0.091 0.197,-0.137 0.315,-0.137c0.119,0 0.225,0.046 0.316,0.137l3.198,3.199l6.369,-6.369l-1.661,-1.661c-0.146,-0.147 -0.18,-0.309 -0.103,-0.487c0.078,-0.179 0.213,-0.268 0.405,-0.268l5.971,0c0.128,0 0.234,0.041 0.316,0.123c0.082,0.083 0.123,0.188 0.123,0.316Z" style="fill-rule:nonzero;"/></g></svg>