<?xml version="1.0" encoding="UTF-8" standalone="no"?><!DOCTYPE svg PUBLIC "-//W3C//DTD SVG 1.1//EN" "http://www.w3.org/Graphics/SVG/1.1/DTD/svg11.dtd"><svg width="100%" height="100%" viewBox="0 0 64 53" version="1.1" xmlns="http://www.w3.org/2000/svg" xmlns:xlink="http://www.w3.org/1999/xlink" xml:space="preserve" style="fill-rule:evenodd;clip-rule:evenodd;stroke-linejoin:round;stroke-miterlimit:1.41421;"><rect id="logovertical" x="0.462" y="0.594" width="63.206" height="52.24" style="fill:none;"/><g><path d="M19.834,22.397c1.599,0.188 3.448,0.377 5.361,0.533l0.219,0.032l10.503,10.502l12.446,0l0,-11.067l-28.529,0Zm11.568,13.105c-1.912,0 -4.075,-0.125 -6.207,-0.282c0.439,4.922 1.066,9.342 1.066,9.342l11.066,0c0,0 -0.627,-4.451 -1.065,-9.374c-1.881,0.251 -3.512,0.314 -4.86,0.314m-6.239,-11.976c-5.173,-0.439 -9.969,-1.129 -9.969,-1.129l0,11.067c0,0 9.562,1.442 16.208,1.442c1.411,0 3.01,-0.062 4.828,-0.345l-11.067,-11.035Zm12.164,-12.196l-11.066,0l0,10.472l11.066,0l0,-10.472l0,0Zm-0.815,22.73l0.251,0.251l0.032,0.219c0,0.188 0.031,0.376 0.031,0.533c0.157,1.724 0.313,3.386 0.501,4.797l0,-5.8l-0.815,0Z" style="fill:#fff;fill-rule:nonzero;"/></g></svg>