<?xml version="1.0" encoding="utf-8"?>
<!-- Generator: Adobe Illustrator 16.0.0, SVG Export Plug-In . SVG Version: 6.00 Build 0)  -->
<!DOCTYPE svg PUBLIC "-//W3C//DTD SVG 1.1//EN" "http://www.w3.org/Graphics/SVG/1.1/DTD/svg11.dtd">
<svg version="1.1" id="Layer_1" xmlns="http://www.w3.org/2000/svg" xmlns:xlink="http://www.w3.org/1999/xlink" x="0px" y="0px"
	 width="59.5px" height="64.5px" viewBox="0 0 59.5 64.5" enable-background="new 0 0 59.5 64.5" xml:space="preserve">
<g id="catedral">
	<path fill="#6F9DCA" d="M49.6,14.5c0,0,0.6,0.7,3.4,1.9c1.5,1.2,3.5,2.3,4.5,4.4c0.9,2.1,2.7,5.6,1.2,8.8
		C57.2,32.9,53.1,42,39.2,40h-0.1c0,0-9.1-1.6-11.9-7.5c-2.8-5.9,0.1-11.6,2.1-13.3c0,0,2.3-1.9,4.6-3.1c2.3-1.2,1.3-0.8,1.3-0.8"/>
	<g>
		<polygon fill="#FFFFFF" points="43.3,6.8 42.4,6.6 42.4,6.6 42.4,6.8 43.4,6.9 		"/>
		<polygon fill="#FFFFFF" points="43.6,0 42.6,5.7 43.9,6 		"/>
		<polygon fill="#FFFFFF" points="46.5,7.7 46.8,5.2 47.5,0.7 46.4,3.7 46.3,3.9 45.1,7.2 45.8,7.3 		"/>
		<polygon fill="#FFFFFF" points="39.7,5.9 39.7,7 40.9,6.9 40.9,6.2 40.9,6.2 		"/>
		<polygon fill="#FFFFFF" points="48.5,8.9 49.3,6.5 50.5,3.5 50.5,3.5 50.6,3.2 50.6,3.2 50.6,3.2 50.6,3.2 50.6,3.1 50.6,3.1 
			50.6,3.1 50.6,3 50.7,3 50.7,3 50.7,2.9 50.7,2.9 50.7,2.9 50.7,2.8 50.7,2.8 50.7,2.8 50.8,2.7 50.8,2.7 50.8,2.7 50.8,2.7 
			50.9,2.3 47.4,8.1 		"/>
		<polygon fill="#FFFFFF" points="37.1,7.8 37.8,7.5 38.6,7.3 35.5,0.9 36.7,5.5 		"/>
		<polygon fill="#FFFFFF" points="33.3,13.6 33.4,13.5 33.3,13.4 33.3,13.4 33.3,13.1 33.3,13.1 33.3,12.8 33.3,12.7 33.3,12.2 
			33.3,12.1 33.4,11.7 32,10.5 28.1,7.6 32,11.9 		"/>
		<path fill="#FFFFFF" d="M56.4,26.4l-2-2.2l-0.1-0.1l-0.5-0.5l-3.1-3.9l-0.2-0.2l-0.8-1.1c-0.2-0.3-0.2-0.5-0.2-0.7l2.4,2.2
			l1.9,1.6l2.6,1.9L59,25h0.1l0.2-0.2l-0.5-0.4l-2.3-1.6l-2.7-2.2l-3-2.9l-0.4-0.4l-0.3-0.7l2.8,2l2.2,1.2l2,0.8l0.2,0.1l0.1-0.3
			L56.6,20l-3.2-1.7l0,0l-0.1-0.1l0,0l0,0l0,0l0,0l0,0l0,0l-0.6-0.4l0,0l-0.3-0.2l0,0L52,17.3l0,0l-0.3-0.2l0,0l-0.9-0.7l-0.6-0.7
			l0.9,0.6l1.6,0.7l1.2,0.3l0.4,0.1v-0.3l-1.2-0.5l-2-0.8l-0.8-0.4l0.1-0.1l2.1-2.2l0,0l-0.3,0.2l0,0L51.1,14l3.3-3.6l0.1-0.1
			l-0.1,0.1l0,0l-3.1,2.2l-0.8,0.7l1-1.7l3.2-4.2l0.1-0.1l0,0l-3.3,3l-1.3,1.3l-0.1-0.3l0,0L50,11l0,0l0.6-1.2l2.9-5V4.7l-3.2,3.8
			l-1,1.3h-0.1l0.6,0.8l0.1,0.2l-0.2-0.3l-0.1-0.1h-0.1l-0.7-0.9l-1.5-1.1l-1.7-0.8l-1.3-0.3l-0.1,0.1l-0.8-0.2l0,0l-1.8-0.1
			l0.3,5.3l-0.1,0.1v0.1l-0.2,0.2l-0.4-0.1l-0.4-5.4l0,0l-1.1,0.1l-2,0.5l-1.8,0.9l-1.4,1.1l-0.9,1.3l-0.5,1.4l0.1,1.4l0.1,0.2
			L33.2,14l-1.6-1.1l-3.3-2l0,0l0.1,0.2l4,3.6l0.2,0.2l-2.3-1.1l0.1,0.1l3.1,2.5l-2.8,1.4V18l0.4-0.1l1-0.4l1.3-0.7l0.3-0.2l0,0l0,0
			l-0.2,0.3l-0.6,0.6v0.1l-0.3,0.3l0,0L32.5,18l0,0l-1.2,1l-2.9,1.8l0,0l0,0l-0.9,0.6l0.1,0.1v0.1h0.1l0.3-0.1l1.7-0.9l1.9-1.2
			l2.3-2v0.1L33.7,18l-0.3,0.5l-0.1,0.1l-2.6,2.9l-0.2,0.2l-0.1,0.1l-1.7,1.6l-2,1.7l0,0l-0.4,0.3v0.1l0,0l-0.5,0.4l0.3,0.2h0.1
			l2.3-1.7l2.2-1.9l2.9-2.9l1-1.1l0,0v0.2l-0.2,0.6v0.1l0,0l-0.5,0.7v0.1L32,23v0.1L31.4,24l-0.2,0.2L31,24.5l-1.7,2.3L29,27.1
			l-0.2,0.4l-2.3,2.7l-0.4,0.5l0.4,0.1l0.2-0.2l2.4-2.4l2.4-2.7l3.1-3.9l0.1-0.1l0.2-0.2l0.9-1.3l0.4-0.7l0,0v0.3v0.1L35.3,22
			l-0.1,0.2l-1.1,2.4v0.1l0,0l-0.2,0.4l-1.1,2.3v0.1l-0.1,0.1l-0.3,0.6l0,0l-0.2,0.4l-1.4,2.7L30,32.6v0.1l-1.1,1.9
			c-0.1,0.2-0.2,0.4-0.2,0.7h0.4l0.1-0.2l2.2-3.3l2.2-3.5v-0.1l1.4-2.5l0,0l0.2-0.4l0.2-0.3l0.9-1.6v-0.1l0.9-1.8l0.5-1.4v0.1
			l-0.3,1.7V22l-0.1,0.3L37,24l-0.1,0.1v0.1l-0.6,2.5l-0.1,0.1v0.3l-1.9,7.2l-1.2,3.9L33,38.3v0.1l-0.1,0.2v0.1l0.1,0.4l0.4-0.1
			l0.1-0.1l1.6-4l0.1-0.3l1.2-3.3l0.1-0.1v-0.1l2.7-8.3l0.1-0.2l0.4-1.7v2l-0.4,13l-0.2,4.6v0.2h0.1l0.3,0.3l0.4-0.3v-0.2l0.7-4.6
			l1.5-12.3l0.2-2.5l1.8,10l0.1,0.2v0.1l0.2,1v0.4l1.6,7.8v0.1l0.4,0.2l0.2-0.3v-0.1l-1-9.3l-0.8-8.6v-0.1l-0.1-1.7l0.5,1.6l0,0
			l0.6,1.7l0.2,0.4l0,0l2.1,5.1l2,4.5l1.9,4.1l0.1,0.1l0.5,0.1l0.1-0.3v-0.2l-1.5-4l-0.1-0.2l-3.3-10.1l-0.6-2l-0.1-0.3l-0.3-1.5
			l0.6,1.2l1.1,1.8l0.1,0.2l0.3,0.5l0,0l1,1.5l0.1,0.2l1.6,2.4l2.5,3.4l2.5,3.3l0.1,0.1l0.4-0.1L57,33.9l-0.1-0.2l-2.1-3.3l-2.1-3.6
			l-0.1-0.1l-1.4-2.6L51.1,24l-1.2-2.2l-0.1-0.2l-0.7-1.5V20l-0.2-0.4l-0.4-0.9v-0.2l0.4,0.8l2.6,3.1l2,2.1l2.9,2.8l2.6,2.3l0.2,0.1
			l0.3-0.2L59.1,29L56.4,26.4z M50.3,11.8V12V11.8L50.3,11.8z M33.8,14.6l-0.1-0.3l0,0l0,0l-0.1-0.2V14L33.8,14.6L33.8,14.6z
			 M34.7,15.8L34.7,15.8L34.7,15.8L34.7,15.8z M35,16.1l-0.2-0.2L35,16.1L35,16.1z M38.8,18.3l-1-0.7l0,0l0,0h0.1l0,0l0.2,0.1
			l1.1,0.3l0.2,0.5l0.1,0.6L38.8,18.3z M42.1,18.7l-0.2,0.7l0,0l-0.3-0.7l-0.5-0.4H41h0.5h0.2h0.1h-0.2h0.3h0.6L42.1,18.7z
			 M44.9,18.2L44.9,18.2L44.9,18.2l-0.1,0.2l-0.4,0.7v-0.6L44.3,18l0,0l0.5-0.1l0.9-0.3L44.9,18.2z M48.5,15.9l-0.3,0.3l0.1-0.1
			l0.3-0.3L48.5,15.9z"/>
		<polygon fill="#FFFFFF" points="29.6,5 29.6,5 32.8,9.5 33.7,11 33.7,10.9 33.7,10.8 33.7,10.8 34.4,9.9 34.4,9.8 29.5,4.8 
			29.5,4.9 		"/>
		<polygon fill="#FFFFFF" points="40.8,5.2 39.5,0.1 39.6,4.9 		"/>
		<polygon fill="#FFFFFF" points="35.1,9.1 36,8.4 36.2,8.3 34.9,6.5 34.8,6.4 32.1,2.5 34.2,7 		"/>
	</g>
	<g>
		<path fill="#040504" d="M54.2,17.5L54.2,17.5l-1.6-0.6L51,16.2l-0.7-0.5h-0.1C50.3,16.1,51.6,16.7,54.2,17.5z"/>
		<polygon fill="#040504" points="50.3,16.7 50.3,16.7 50.6,17.3 50.8,17.6 51.1,17.9 57.4,20.8 57.5,20.8 57.4,20.7 55.2,19.8 
			53.3,18.8 		"/>
		<polygon fill="#040504" points="52.8,28.5 52.7,28.3 52.6,28.3 		"/>
		<path opacity="0.4" fill="#040504" enable-background="new    " d="M58.8,24.7c-0.9-0.6-1.8-1.1-2.7-1.7c-1.4-1-2.8-2-4.1-3.2
			c-0.8-0.7-1.6-1.3-2.3-2.1c-0.1-0.1-0.1-0.1-0.2-0.2c-0.1-0.3-0.1-0.7,0-1l0,0l0,0c0.1-0.2,0.2-0.3,0.3-0.5
			c0.4-0.3,1.5-1.9,1.5-1.9c0.4-0.2,0.7-0.5,0.9-0.9l0,0l0.1-0.1c0-0.1-0.1,0-0.2,0l0,0c-0.2,0-0.4,0.1-0.6,0.4l-0.1,0.1l3-3.3
			c0,0-2.7,2-3.8,2.8l4-5.6V7.4l-4.4,4.1v1.9c0,0-0.1,0.2-0.2,0.5c-0.1,0-0.2,0.1-0.2,0.2c-0.2,0.5-0.5,1-0.9,1.3
			c-0.1,0-0.1,0.1-0.1,0c-0.1-0.1-0.2-0.1-0.2,0l0,0c-0.3,0.1-0.9,0.5-1.4,0.9c-0.4,0.3-0.9,0.6-1.2,0.9l0,0
			c-0.1,0.1-0.2,0.2-0.3,0.2c-0.4,0.1-0.7,0.2-1.1,0.3c-0.1,0-0.2-0.1-0.3-0.2c-0.1-0.3-0.1-0.5-0.1-0.8c0-0.1,0-0.2-0.1-0.2
			s-0.1,0-0.2,0.1c-0.3,0.1-0.8,0.7-0.9,0.9l0,0c-0.3,0.4-0.6,0.5-1.1,0.5c-0.1,0-0.3,0-0.4,0c-0.3-0.1-0.6-0.2-0.9-0.4
			c-0.5-0.4-1-0.7-1.5-1c0,0,0,0-0.1,0l0,0h-0.1l0,0c-0.1,0.1,0,0.1,0,0.2c0.1,0.3,0.3,0.7,0.3,0.5c0.1,0.1,0.2,0.3,0.1,0.4
			s-0.3,0-0.4-0.1c-0.3-0.1-0.7-0.2-1.2-0.4c-0.3-0.1-0.5-0.3-0.8-0.4c-0.4-0.3-0.8-0.5-1.2-0.7c-0.2-0.1-0.3-0.1-0.5-0.2
			s-0.3-0.3-0.5-0.4c-0.1-0.1-0.3-0.3-0.4-0.4c-0.1-0.1-0.2-0.2-0.3-0.2c-0.1-0.1-0.1-0.2-0.2-0.3c-0.3-0.6-0.3-0.9-0.3-0.9h-0.3
			L33.1,14l-4.5-3.5h-0.1l4.4,4l0.6,0.3l0,0c-0.1,0-0.2-0.1-0.3-0.1c-0.9-0.5-1.7-1-2.6-1.5c-0.1,0-0.2-0.1-0.3-0.1
			c0.1,0.2,0.2,0.2,0.3,0.3c0.3,0.2,0.6,0.4,0.8,0.7c0.7,0.5,1.4,1.2,1.9,1.5c0,0.1,0.2,0.1,0.2,0.2c-0.2,0.1-0.6,0.3-0.8,0.4
			c-0.6,0.3-1.1,0.6-1.8,0.9c-0.2,0.1-0.3,0.1-0.3,0.1v0.2c0,0,0.7-0.2,1-0.3c0.1,0,0.2,0.2,0.3,0.1H32c0.1,0,0.2,0,0.2,0
			c-1.5,1.1-3,2.1-4.6,3.1c-0.4,0.2-0.6,0.4-0.6,0.9c0,0.2,0,0.3,0.2,0.2c1.7-0.7,3.3-0.6,1.3,1.1c-0.8,0.7-1.8,1.5-2.6,2.2
			c-0.6,0.5-0.6,0.5-0.7,1c-0.2,1,0.1,2.1,0,3.1c0,0.1,0,0.1,0,0.2c-0.1,0.5-0.2,0.7-0.7,0.8c-1.8,0.4-3.6,0.8-5.4,1.2
			c-0.1,0-0.2,0-0.3,0.2c0.4,0,0.8-0.1,1.2,0c-2.2,0.5-4.4,1-6.5,1.5v0.1c2.3-0.3,4.6-0.4,6.8-0.7c-3.9,1.5-8,2.5-11.9,3.8
			c3.3-0.6,6.7-1.1,10-1.8c-0.2,0.2-0.4,0.4-0.6,0.6c-0.1,0.1-0.2,0.2-0.3,0.3c-0.9,0.4-1.7,0.8-2.6,1.1c-3.5,1.4-7.1,2.7-10.6,4.1
			c-0.1,0-0.2,0-0.2,0.1c0.1,0,0.2,0,0.3,0c0.4-0.1,0.9-0.2,1.3-0.4c1.7-0.5,3.4-0.9,5.1-1.4s3.4-0.9,5.1-1.5c0.1,0,0.2-0.1,0.3,0
			c0,0,0.1,0.1,0.1,0.2c-0.1,0.2-0.2,0.5-0.3,0.7c0,0.1-0.1,0.2-0.3,0.3c-3.2,1.7-6.4,3.4-9.7,5c-1.6,0.8-3.2,1.6-4.8,2.4
			c-0.1,0-0.2,0.1-0.2,0.2c0.1,0,0.2-0.1,0.2-0.1c1.6-0.6,3.2-1.3,4.8-1.9c2.1-0.9,4.3-1.7,6.5-2.6c0.9-0.4,1.7-0.7,2.6-1.1
			c0.1-0.1,0.2,0,0.2,0.2c0,0.3-0.1,0.6-0.1,0.9l0,0c-0.1,0.1-0.1,0.3-0.2,0.3c-4.9,3.4-9.9,6.7-14.8,10C0.1,51.6,0,51.6,0,51.7
			c0.1,0.1,0.2,0,0.3-0.1c1.4-0.8,2.8-1.5,4.2-2.3C5.3,48.9,6,48.5,6.8,48c2.5-1.4,5-2.7,7.5-4.1c0.3-0.2,0.6-0.3,0.9-0.5
			c0.2-0.1,0.3-0.1,0.3,0.2c0,0.3,0.1,0.5,0.3,0.7c0,0.1,0,0.2,0,0.3c-0.4,0.4-0.9,0.8-1.3,1.2c-0.1,0.1-0.2,0.1-0.3,0
			c-0.5-0.2-1-0.4-1.4-0.7c-0.2-0.1-0.3-0.1-0.5,0c-0.9,0.3-1.3,0.7-1.2,1.2l0,0c-0.1,0.2-0.1,0.2,0.1,0.3c0.4,0.2,0.8,0.4,1.2,0.6
			c0.1,0.1,0.2,0.1,0,0.2c-2.2,1.9-4.5,3.9-6.7,5.8c-1.5,1.3-3,2.6-4.5,3.9c0,0-0.2,0.1-0.1,0.2l0,0l0,0c0.1,0.1,0.1,0,0.2-0.1
			c0.4-0.3,0.8-0.6,1.2-0.9c1.4-1,2.7-2,4.1-2.9c1.3-0.9,2.6-1.9,3.9-2.8c1-0.7,2-1.5,3.1-2.2c0,0,0,0,0,0.1h-0.1
			c-1.6,1.3-3.1,2.6-4.7,3.9c-0.7,0.6-1.5,1.1-2,2c-0.2,0.4-0.3,0.4,0.1,0.6c0.2,0.1,0.3,0.1,0.5-0.1c2.4-2.1,4.9-4.2,7.3-6.3
			c0,0,0,0,0.1,0c0.2,0,0.3-0.1,0.4,0c0.3,0.1,0.5,0.2,0.7,0.4c0.2,0.1,0.1,0.1,0,0.3c-0.7,0.8-1.4,1.5-2.1,2.3
			c-1.3,1.5-2.6,3-3.9,4.4C9,57,8,58.1,7.1,59.1c-0.8,0.9-1.5,1.7-2.3,2.6c-0.1,0.1-0.2,0.1-0.1,0.2l0,0l0,0
			c0.1,0.1,0.2-0.1,0.2-0.1s0,0,0.1-0.1c0.8-0.8,1.6-1.5,2.4-2.3c3.3-3.1,6.6-6.1,9.8-9.2c0.4-0.4,0.4-0.4,0.9-0.2
			c0.1,0.1,0.2,0.1,0.3,0c0.5-0.4,0.9-0.8,1.2-1.4c0.1-0.2,0.1-0.2-0.1-0.3c-0.1,0-0.1-0.1-0.1-0.1l0,0c0-0.1,0.3-0.1,0.4-0.1
			c0.3,0.1,0.6,0.3,0.9,0.4c0.2,0.1,0.2,0.1,0.1,0.3c-0.9,1.3-1.8,2.7-2.7,4c-0.6,0.9-1.2,1.8-1.9,2.8c-0.3,0.4-0.5,0.8-0.8,1.1
			c-1.1,1.6-2.2,3.2-3.2,4.8c-0.5,0.7-1,1.5-1.5,2.2c-0.2,0.3-0.4,0.5-0.5,0.8c0.2-0.1,0.2-0.2,0.3-0.3c0.8-0.9,1.6-1.9,2.3-2.8
			c0.6-0.7,1.1-1.4,1.7-2.1c1.2-1.5,2.4-3,3.6-4.4c0.6-0.7,1.2-1.4,1.8-2.2c1-1.2,2-2.4,3-3.6c0.1-0.1,0.2-0.2,0.4-0.2
			c0.3,0,0.6,0,1,0c0.1,0,0.1,0,0.2,0c0.1,0.1,0.1,0.2,0,0.4c-0.5,1-1.1,2-1.6,3.1c-0.8,1.5-1.5,3.1-2.2,4.6
			c-0.8,1.6-1.6,3.2-2.4,4.9c-0.5,0.6-0.9,1.3-1,2.1l0,0c0,0.1-0.1,0.2,0,0.3c0.1,0.1,0.1-0.1,0.2-0.2l0,0l0,0V64c1.2-2,2.4-4,3.6-6
			c0.6-1,1.2-2,1.9-3c1.2-2,2.5-4,3.8-6c0.2-0.3,0.4-0.5,0.7-0.6s0.6-0.2,0.8-0.3h0.1c0.1,0,0.2,0.1,0.1,0.2
			c-0.4,1.2-0.9,2.5-1.3,3.7c-0.5,1.5-1,3-1.5,4.5c-0.5,1.6-1,3.1-1.6,4.7c0,0.1-0.1,0.1-0.1,0.2l0,0v0.1c0.1,0,0.1,0,0.1-0.1l0,0
			c0,0,0-0.1,0.1-0.1c0.7-1.6,1.5-3.2,2.2-4.8c0.7-1.5,1.3-2.9,2-4.4c0.8-1.8,1.7-3.6,2.6-5.4c0.1-0.1,0.1-0.2,0.2-0.3
			s0.2-0.3,0.3-0.3l0,0c0.1-0.1,0.2-0.1,0.3-0.1l0,0l0,0c0,0.1,0,0.2,0,0.3c-0.7,3.3-1.4,6.5-2,9.8c0,0.2-0.1,0.4,0,0.6
			c0.3-0.8,0.5-1.6,0.8-2.3c0.3-0.8,0.5-1.5,0.8-2.3c0.3-0.8,0.5-1.5,0.8-2.3c0.3-0.8,0.5-1.5,0.8-2.3c0.3-0.8,0.6-1.5,0.9-2.2
			c0,0,0,0,0.1,0c-0.2,1.8-0.3,3.7-0.5,5.5c0.1-0.1,0.2-0.2,0.2-0.3c0.1-0.6,0.3-1.1,0.4-1.7c0.3-1.3,0.7-2.5,1-3.8
			c0.4-1.5,0.9-3,1.5-4.4c0.1-0.2,0.2-0.2,0.3-0.2c0.5,0,1,0.1,1.5,0.1c0.3,0,0.3,0,0.3-0.1c0.6-0.6,0.3-3.1,0.4-3.9
			c0.1,0.5,0.2,1,0.2,1.5c-0.1,0.6-0.2,1.3-0.3,1.9c0,0.1,0,0.2,0.1,0.2c0.6,0.1,1.2,0.2,1.8,0.2c0.9,0,1.8,0,2.6,0
			c0.6,0,1.2,0,1.8,0c0.2,0,0.3,0,0.2-0.3c-0.1-0.3-0.1-0.6-0.2-0.9c0.7-1.9-0.9-5.8-1.3-8.2c0-0.1,0-0.2,0-0.3
			c-0.1-1.2-0.2-2.4-0.3-3.6c0.1-0.1,0.1-0.2,0.2-0.2c0.1,0,0.1,0,0.2,0s0.1,0.1,0.2,0.2c0.1,0.2,0.2,0.1,0.3,0l0,0
			c0.4,0,0.7-0.3,1-0.9c0.3-0.2,0.3-0.2,0.5,0.1c0.4,0.9,0.7,1.8,1.1,2.6c0.1,0.2,0.2,0.5,0.3,0.8c0,0-0.1,0-0.1-0.1
			c-0.1-0.1-0.1-0.1-0.2-0.2c-0.7-0.8-1.5-1.4-2.3-2c0,0-0.1-0.1-0.2-0.1c-0.2-0.1-0.3-0.1-0.3,0.2l0,0c-0.7,0.6-0.6,1.5,0.3,2.7
			c0,0.1,0.1,0.2,0.2,0.3l0,0c0.4,0.6,1.1,1.1,1.9,1.3c0.1,0.1,0.2,0.1,0.3,0.2s0.2,0.2,0.2,0.3c1.1,1.7,2.2,3.4,3.2,5.2
			c0.3,0.6,0.1,0.6,0.9,0.5h0.1l0,0h0.1c0.2,0,0.2-0.1,0.1-0.2c-0.1-0.2-0.1-0.3-0.2-0.4c-0.4-1.2-1.5-3.6-1.5-3.7
			c-0.5-1.1-1.1-2.1-1.5-3.2c0-0.1-0.1-0.2,0-0.2c0.2-0.1,0.1-0.2,0-0.3c-0.2-0.5-0.5-1-0.7-1.5c-0.2-0.3-0.4-0.6-0.4-1
			c0-0.1,0-0.1,0-0.2c0.1-0.1,0.1-0.1,0.1-0.2c-0.1-0.3-0.2-0.5-0.3-0.8c-0.4-1.3-1-3.3-1-3.4c-0.1-0.2-0.1-0.4-0.1-0.7
			c0.4,0.2,0.6,0.5,0.9,0.8c0.4,1.3,0.8,2.7,1.2,4c0.1,0.2,0.1,0.3,0.3,0.4c0.3,0.1,0.5,0.3,0.7,0.5c1.6,1,2.9,2.2,4.1,3.6
			c0.7,0.9,1.4,1.8,2.1,2.6c0.1,0.2,0.2,0.3,0.5,0.2l0,0c0.1,0,0.2,0,0.3,0c0.2,0,0.2-0.1,0.1-0.2c-0.8-1.1-1.5-2.3-2.3-3.4
			c-0.5-0.7-1-1.3-1.5-2c-0.1-0.1-0.1-0.2-0.2-0.1c-0.1,0.1-0.1,0-0.2,0c-0.2-0.2-0.4-0.4-0.6-0.6c0,0,0,0-0.1-0.1
			c-0.1-0.1-0.2-0.2-0.2-0.2c-0.2-0.2-0.4-0.4-0.5-0.6c-1-1-2-2-2.7-3.2c0-0.1-0.1-0.1-0.1-0.2c-0.4-0.4-0.7-0.9-0.9-1.4
			c0-0.1,0-0.2,0-0.3l0,0c0.1,0,0.2,0,0.3,0.1c0.1,0.2,0.3,0.4,0.4,0.7c0,0.1,0.1,0.2,0.2,0.2c0.4,0,0.7,0.3,1.2,0.3
			c0.3,0,0.2-0.1,0.1-0.2c-0.5-1-1-2-1.3-3.1c-0.1-0.2-0.1-0.4-0.1-0.6l0.1,0.1c0.7,1.5,1.5,2.9,2.3,4.4c0.1,0.2,0.2,0.3,0.4,0.4
			c0.9,0.6,1.9,1.1,2.7,1.8c0.8,0.6,1.7,1.1,2.5,1.8c0.8,0.6,1.5,1.3,2.2,1.9c0.1,0.1,0.3,0.2,0.4,0c0.1-0.1-0.1-0.2-0.1-0.2
			c-2.1-1.8-4.2-3.7-6.1-5.7c-0.9-0.9-1.8-1.8-2.7-2.7c-0.4-0.4-0.6-0.8-0.9-1.3c-0.1-0.1,0-0.2,0.1-0.2c0.2,0,0.3,0,0.4,0
			c0.5,0.2,0.8,0.2,0.5-0.6c0,0,0-0.1-0.1-0.1c0.5,0.7,1,1.3,1.5,2c1.3,1.7,5.4,2.9,7.2,4.1c0.1,0.1,0.2,0.2,0.3,0.1
			C59.1,24.8,58.9,24.8,58.8,24.7z"/>
		<polygon fill="#040504" points="34.4,10 29.7,5.2 29.6,5.2 33.8,10.8 		"/>
		<polygon fill="#040504" points="36.2,8.5 32.1,2.7 35.3,9.1 		"/>
		<path fill="#040504" d="M38.6,7.5l-2.9-6.1h-0.1L37.4,8L38.6,7.5z"/>
		<polygon fill="#040504" points="41.3,7.3 39.6,0.5 39.5,0.5 39.6,7.2 39.3,7.4 		"/>
		<path fill="#040504" d="M43.7,0.3L43.7,0.3c-0.1,0-1.2,6.4-1.3,6.9l0,0H44L43.7,0.3z"/>
		<polygon fill="#040504" points="46.5,7.9 47.5,1.3 47.4,1.2 45.1,7.4 43.2,8.3 		"/>
		<polygon fill="#040504" points="46.7,10 48.6,9.1 50.9,2.5 50.9,2.5 47.5,8.2 		"/>
		<polygon fill="#040504" points="49.2,12.6 49.9,11.1 53.4,4.6 49.2,9.7 		"/>
		<path fill="#040504" d="M33.2,12.1l-0.3,0.4c0,0-3.9-4.1-3.9-4.2c-0.1,0-0.8-0.6-0.8-0.6l5.2,5.8C33.4,13.6,33.3,12.2,33.2,12.1z"
			/>
	</g>
	<polyline fill="#C0C0C0" points="41.8,17.4 36.7,21.9 37.5,22.3 42.2,17.5 	"/>
	<polygon fill="#797979" points="44,12 43.8,11.9 43.7,11.9 42.9,11.7 42.8,11.7 42.2,11.5 42.2,11.5 42.2,11.8 42.5,17.1 
		42.4,17.2 42.4,17.3 42.2,17.5 41.8,17.4 41.4,11.9 41.4,11.9 41.3,11.9 41.3,11.2 41.3,11.2 40.1,10.9 40.1,10.9 38.5,10.5 
		38.5,10 38.8,9.6 40,9.9 41.2,10.3 41,7.1 41.3,6.7 41.8,6.8 42.1,10.5 43,10.7 44.3,11.1 45.1,11.3 45.1,11.8 44.9,12.1 
		44.8,12.2 	"/>
	<polygon fill="#656363" points="44.8,12.2 44.8,11.5 41.8,10.7 41.5,7.2 41,7.2 41.2,10.6 38.5,10 38.5,10.5 41.3,11.2 41.8,17.4 
		42.2,17.5 41.8,11.7 41.8,11.5 	"/>
</g>
</svg>
