<?xml version="1.0" encoding="utf-8"?>
<!-- Generator: Adobe Illustrator 16.0.0, SVG Export Plug-In . SVG Version: 6.00 Build 0)  -->
<!DOCTYPE svg PUBLIC "-//W3C//DTD SVG 1.1//EN" "http://www.w3.org/Graphics/SVG/1.1/DTD/svg11.dtd">
<svg version="1.1" xmlns="http://www.w3.org/2000/svg" xmlns:xlink="http://www.w3.org/1999/xlink" x="0px" y="0px" width="35px"
	 height="40px" viewBox="-267 203.5 35 40" enable-background="new -267 203.5 35 40" xml:space="preserve">
<g id="preenchimento_1_">
	<path id="preenchimento" fill="#00C2F4" d="M-245.9,230.2l6,9l-2.2,1.5l-9.5-15.4l-0.2-7.2l-3,1.1l-0.3,7.4h-2.5v-8l6.6-3.4h4.9
		L-245.9,230.2z M-252.6,227.6l-2.5,4.3h-7.4v2.4h8.7l2.7-4.4 M-244.7,221.7l1.6,1.3h5.4v-2.3l-4.8-0.3l-2.2-1.8 M-247.7,207.4
		c-1.7,0-3,1.3-3,3c0,1.7,1.3,3,3,3c1.7,0,3-1.3,3-3C-244.7,208.8-246,207.4-247.7,207.4z"/>
</g>
<g id="pi">
	<g id="sombra_1_" opacity="0.2">
		<path fill="#001223" d="M-241.5,240.3l-9.4-15.3l-0.2-7.2l-3,1.1l0,0.1l-0.7,0.2l-0.3,7h-1.8v-8l5.9-3h4.9l0.1,14.9l6,9
			L-241.5,240.3z M-251,229.9l-1.3-2l-2,3.5h-0.5l-0.2,0.4h-6.7v2h8.3L-251,229.9z M-244,219.2v2.1l1.6,1.3h4.7v-1.9l-4.8-0.3
			L-244,219.2z M-247.7,207.4c-0.4,0-0.8,0.1-1.1,0.2c-0.7,0.5-1.2,1.4-1.2,2.4c0,1.7,1.3,3,3,3c0.4,0,0.8-0.1,1.1-0.2
			c0.7-0.5,1.2-1.4,1.2-2.4C-244.7,208.8-246,207.4-247.7,207.4z"/>
	</g>
</g>
</svg>
