<?xml version="1.0" encoding="utf-8"?>
<!-- Generator: Adobe Illustrator 16.0.0, SVG Export Plug-In . SVG Version: 6.00 Build 0)  -->
<!DOCTYPE svg PUBLIC "-//W3C//DTD SVG 1.1//EN" "http://www.w3.org/Graphics/SVG/1.1/DTD/svg11.dtd">
<svg version="1.1" id="Layer_1" xmlns="http://www.w3.org/2000/svg" xmlns:xlink="http://www.w3.org/1999/xlink" x="0px" y="0px"
	 width="35px" height="15px" viewBox="-1.128 20.262 35 15" enable-background="new -1.128 20.262 35 15" xml:space="preserve">
<path id="preenchimento_1_" fill="#000000" fill-opacity="0.4" d="M20.352,25.168l12.391-2.232l-2.967-0.463l-18.313,4.295
	l-5.135,2.419l-2.305-0.374l4.832-2.5l-2.523-0.015l-5.609,2.725l4.44,1.167l5.096,0.011L20.352,25.168z M12.005,26.017l0.519-1.474
	L5.275,24.49l1.726-0.826l8.512,0.068l-0.342,1.493 M15.985,28.033l2.488-0.444l5.454,0.024l-1.49,0.772l-5.088,0.071l-3.4,0.607
	 M3.318,32.844c-1.749,0-2.25-0.455-1.117-1.018c1.132-0.562,3.446-1.016,5.168-1.013c1.72,0.003,2.221,0.458,1.116,1.018
	C7.38,32.391,5.066,32.844,3.318,32.844z"/>
</svg>
