<?xml version="1.0" encoding="utf-8"?>
<!-- Generator: Adobe Illustrator 16.0.0, SVG Export Plug-In . SVG Version: 6.00 Build 0)  -->
<!DOCTYPE svg PUBLIC "-//W3C//DTD SVG 1.1//EN" "http://www.w3.org/Graphics/SVG/1.1/DTD/svg11.dtd">
<svg version="1.1" xmlns="http://www.w3.org/2000/svg" xmlns:xlink="http://www.w3.org/1999/xlink" x="0px" y="0px" width="30px"
	 height="75px" viewBox="-850.9 271.7 30 75" enable-background="new -850.9 271.7 30 75" xml:space="preserve">
<g id="FRAME_0">
	<polygon fill="#6F309A" points="-821.9,295.45 -828.41,298.5 -840.88,297.6 -847.5,299.41 -847.06,281.31 -841.32,279.72 
		-829.07,280.63 -821.9,277.46 	"/>
	<polygon fill="#8A56AC" points="-821.9,294.88 -828.41,297.94 -840.88,297.03 -847.5,298.84 -846.62,280.63 -841.32,279.16 
		-829.07,280.06 -821.9,276.9 	"/>
	<circle fill="#57565B" cx="-846.69" cy="343.5" r="2.36"/>
	<rect x="-847.4" y="274.3" fill="#AEAFB2" width="2.7" height="69.73"/>
	<rect x="-847.4" y="288.14" fill="#FFFFFF" width="0" height="55.89"/>
	<polygon fill="#68666B" points="-848.5,274.3 -847.35,274.3 -847.35,344.03 -848.5,343.05 	"/>
</g>
<g id="FRAME_1">
	<polygon fill="#6F309A" points="-821.9,297.98 -828.77,296.7 -838.89,299.95 -847.5,299.41 -847.06,281.31 -839.33,282.08 
		-829.44,278.83 -821.9,279.99 	"/>
	<polygon fill="#8A56AC" points="-821.9,297.42 -828.77,296.14 -838.89,299.39 -847.5,298.84 -846.62,280.63 -839.33,281.51 
		-829.44,278.26 -821.9,279.43 	"/>
	<circle fill="#57565B" cx="-846.69" cy="343.5" r="2.36"/>
	<rect x="-847.4" y="274.3" fill="#AEAFB2" width="2.7" height="69.73"/>
	<rect x="-847.4" y="288.14" fill="#FFFFFF" width="0" height="55.89"/>
	<polygon fill="#68666B" points="-848.5,274.3 -847.35,274.3 -847.35,344.03 -848.5,343.05 	"/>
</g>
<g id="FRAME_2">
	<polygon fill="#6F309A" points="-821.9,294.88 -828.27,297.66 -840.88,298.84 -847.5,299.41 -847.06,281.31 -841.32,280.97 
		-828.94,279.78 -821.9,276.89 	"/>
	<polygon fill="#8A56AC" points="-821.9,294.32 -828.27,297.09 -840.88,298.28 -847.5,298.84 -846.62,280.63 -841.32,280.4 
		-828.94,279.21 -821.9,276.33 	"/>
	<circle fill="#57565B" cx="-846.69" cy="343.5" r="2.36"/>
	<rect x="-847.4" y="274.3" fill="#AEAFB2" width="2.7" height="69.73"/>
	<rect x="-847.4" y="288.14" fill="#FFFFFF" width="0" height="55.89"/>
	<polygon fill="#68666B" points="-848.5,274.3 -847.35,274.3 -847.35,344.03 -848.5,343.05 	"/>
</g>
</svg>
