<svg xmlns="http://www.w3.org/2000/svg" viewBox="0 0 45.33 34.88"><title>prova</title><g id="Layer_2" data-name="Layer 2"><g id="Layer_1-2" data-name="Layer 1"><path d="M40.54,22.48c.41.05.89.38,1,.27a3.8,3.8,0,0,1,1.13-.88,1.84,1.84,0,0,1,2.34,1,1.45,1.45,0,0,1-1.38,1.71s-.54-.27.22.78c.49.65,1.2,1,1.41,1.77.3,1.17-.77,2.83-2.11,2.23-.7-.31-.82-1.29-1.39-1.65s-1.38.12-2,.31c-2.2.69-4.67,1.34-6.63.45C29.65,26.89,27.7,23,25,20.62c-1.59-1.42-4.39.6-6.37,1.92a25.24,25.24,0,0,0-6.16,5.91A3.53,3.53,0,0,0,12,29.92c.51,0,1-.3,1.37-.25.85.12.28,1.94-.17,2.31-.28.23-.63-.1-1.1.22-.66.44-1.38.18-1.48-.9a.63.63,0,0,1-.71-.48A8.54,8.54,0,0,0,8,32.39a4.78,4.78,0,0,1-1,.73,6.38,6.38,0,0,1-3.12.69s.69,2.09-1.68.43c-.74-.52.18-1.81,0-2.06A4.39,4.39,0,0,1,.67,30.06s-1.1.63-.48-2.2a.58.58,0,0,1,.15-.3c.37-.36.62.51.88,0,.65-1.13,2.5,2,4.82,1.05a47.18,47.18,0,0,0,5.12-2.77l.18-.1c2.78-1.84,5.85-3.63,7.6-6.35,1.31-2,.48-5.59-1.84-7.69a1.8,1.8,0,0,0-2.68.58A9.21,9.21,0,0,0,13.2,16a.54.54,0,0,1-.4.46,2.39,2.39,0,0,0-.82.73,1.93,1.93,0,0,1-1.6.93c-2.25-.11-3-3.16-2.79-5.66a.88.88,0,0,1,.5-.74c.2,0,0-.15.32.09s0,.36.93.67c.44.16.47.81.81,1.3.55.8,1.57,1.6,1.83.55a12.06,12.06,0,0,1,3.18-5.64,1.76,1.76,0,0,0-.81-2.89c-1.87-.56-3.3-1.49-3.29-3.25C11.07,1,12.71-.5,14,.16c.65.33.9,1.21,1,1.43a3.43,3.43,0,0,0,1,1.6,2.66,2.66,0,0,0,2.68-.33,22.62,22.62,0,0,1,2.55-.73A16.62,16.62,0,0,1,23,1.86c.46-.05.93-.08,1.39-.1a15.31,15.31,0,0,1,4.22.33,1.31,1.31,0,0,1,1,.74c.29.9-.39,1.6-.77,2.47a20.77,20.77,0,0,0-1.31,4.09,1.49,1.49,0,0,1-1.78.94l-.55-.15c-.56.06-.83-.47-.67-1.3.15-.67.92-.9,1.32-1.54a2.67,2.67,0,0,0,.45-2c-.44-1.39-2.4-1.3-3.37-.48C21.46,6,19.17,5.7,18.73,6.69c-.87,1.92,1.46,4.19,3.4,5,.44.18.57.21,1.4.55,3.41,1.45,4.76,5.5,6.11,8.81.91,2.16,2.74,4.36,4.92,4.19,1.13-.1,2.16-.55,3.43-.63s2.6.07,2.16-.16a1.57,1.57,0,0,1-.65-.72A1,1,0,0,1,40.54,22.48Z" fill="#372a3d" fill-rule="evenodd"/></g></g></svg>