<svg id="Layer_1" data-name="Layer 1" xmlns="http://www.w3.org/2000/svg" viewBox="0 0 44 44"><title>ave</title><rect x="0.14" y="0.16" width="43.67" height="43.55" rx="21.78" ry="21.78" style="fill:#9ed8ff"/><path d="M41,28.72C40.21,27.92,21.39,9,20.26,7.87A6.77,6.77,0,0,0,8.93,11.21L6.34,12.5a.7.7,0,0,0,0,1.25l2.8,1.4.08,0a6.44,6.44,0,0,0,.9,1.62,6.87,6.87,0,0,0,2.71,2.13,9.55,9.55,0,0,0,8.78,13.28l.44,0v4h-3.5a.7.7,0,1,0,0,1.4h5.6a.7.7,0,0,0,0-1.4h-.7V32a9.54,9.54,0,0,0,4.36-2.1h12.7a.7.7,0,0,0,.5-1.2ZM8.22,13.12l.54-.26a5.07,5.07,0,0,0,0,.55Zm19.6,15.4H24.06a6.38,6.38,0,0,1-5.25-2.76.7.7,0,1,0-1.15.8,7.79,7.79,0,0,0,6.4,3.36h1.26a8.13,8.13,0,0,1-11.85-7.25,8.06,8.06,0,0,1,.94-3.79.67.67,0,0,0,0-.6.7.7,0,0,0-.44-.4A5.38,5.38,0,0,1,15.53,7.34a5.34,5.34,0,0,1,3.76,1.53c.95.93,15.28,15.36,19.54,19.65Z" style="stroke:#000;stroke-miterlimit:10"/><path d="M13.65,10.32a1.4,1.4,0,1,0,1.4,1.4A1.4,1.4,0,0,0,13.65,10.32Z" style="stroke:#000;stroke-miterlimit:10"/><path d="M17.68,22.13a.7.7,0,0,0-1.4,0,7.77,7.77,0,0,0,.19,1.73.7.7,0,0,0,.68.54.44.44,0,0,0,.16,0,.7.7,0,0,0,.53-.83A6.18,6.18,0,0,1,17.68,22.13Z" style="stroke:#000;stroke-miterlimit:10"/></svg>