<svg id="Layer_1" data-name="Layer 1" xmlns="http://www.w3.org/2000/svg" viewBox="0 0 44 44"><title>Avistamento de Aves</title><rect x="0.14" y="0.16" width="43.67" height="43.55" rx="10.38" ry="10.38" style="fill:#896bff"/><polygon points="37.42 30.66 37.42 30.66 37.42 27.04 37.42 27.04 37.42 23.28 33.2 23.28 33.2 21.15 31.17 21.15 31.17 23.28 29.89 23.28 29.89 27.4 33.2 27.4 33.2 30.66 31.55 34.29 31.55 38.41 39.07 38.41 39.07 34.29 37.42 30.66" style="fill:#fff"/><polygon points="27.43 21.15 25.4 21.15 25.4 23.28 21.18 23.28 21.18 27.04 21.18 27.04 21.18 30.66 19.52 34.29 19.52 38.41 27.05 38.41 27.05 34.29 25.4 30.66 25.4 30.66 25.4 27.4 28.7 27.4 28.7 23.28 27.43 23.28 27.43 21.15" style="fill:#fff"/><path d="M18,23.14l-1.6.06h0L15,21.55l1.88-1.78c2.56-.44,5.32-2.11,6.78-6.1.53-1.73,3.19-2.78,4.24-2.65l2.74-.32L29,9.5s-2.41-3.7-6.14-.22-5.62,4.14-7,4.3c-4.3.5-8.42,5.15-9.77,7.64,0,0,4.43-1.68,7.48-1.49l-1.76,1.92,2,2.36L13,25.52a.14.14,0,0,0,.07.2l.06,0a.15.15,0,0,0,.14-.09l.63-1.27.68,1.23a.16.16,0,0,0,.13.08l.08,0a.16.16,0,0,0,.06-.21l-.67-1.21,1.47.6h.06a.14.14,0,0,0,.14-.09.15.15,0,0,0-.08-.2L14,23.86l-1.87-2.2,1.73-1.89a2.13,2.13,0,0,1,.25,0,9,9,0,0,0,2.27.05l-1.77,1.67,1.5,1.88v1.14a.15.15,0,0,0,.3,0v-.91l1,.64a.11.11,0,0,0,.08,0,.17.17,0,0,0,.13-.07.16.16,0,0,0-.05-.21l-.82-.53,1.21,0a.16.16,0,0,0,.15-.16A.15.15,0,0,0,18,23.14Z" style="fill:#fff"/></svg>