<svg id="Layer_1" data-name="Layer 1" xmlns="http://www.w3.org/2000/svg" viewBox="0 0 44 44"><title>Campo de Futebol</title><rect x="0.14" y="0.16" width="43.67" height="43.55" rx="10.38" ry="10.38" style="fill:#896bff"/><path d="M24.57,13.16a3.51,3.51,0,1,0-3.51-3.51A3.51,3.51,0,0,0,24.57,13.16Z" style="fill:#fff"/><circle cx="31.21" cy="36.16" r="2.3" style="fill:#fff"/><path d="M33.87,14.34,20.6,14.29h0a.69.69,0,0,0-.24.05l-.06,0h0L11,19.94a.7.7,0,0,0-.15,1l1,1.6a.69.69,0,0,0,.92.32l7.35-4.42-7.25,8.88L7.56,22.91a.69.69,0,0,0-1,.17L5.41,24.53a.69.69,0,0,0,0,1L14,32.59a.7.7,0,0,0,1-.17L16.18,31l.05-.09,2.48-3,3.12,3.85V38c0,.25.33.46.75.46h1.87c.41,0,.75-.2.75-.45V29.93a.37.37,0,0,0-.07-.2h0l-4-4.88L26.75,18a.77.77,0,0,0,.16-.31l6.94,0a.74.74,0,0,0,.76-.74V15.09A.76.76,0,0,0,33.87,14.34Z" style="fill:#fff"/></svg>