<svg id="Layer_1" data-name="Layer 1" xmlns="http://www.w3.org/2000/svg" viewBox="0 0 44 44"><title>Chuveiros</title><rect x="0.14" y="0.16" width="43.67" height="43.55" rx="10.38" ry="10.38" style="fill:#896bff"/><path d="M37.21,19.24,36,17.91a.7.7,0,0,0-1-.09l-7.6,7h-7a.29.29,0,0,0-.1,0A.51.51,0,0,0,20,25L14,32.4a.34.34,0,0,0,.21.58c.16,0,4.11,0,5.67,0v5.4a.58.58,0,0,0,.54.61h8.12a.57.57,0,0,0,.53-.61V27.76l8.14-7.54A.7.7,0,0,0,37.21,19.24ZM25.79,33H22.33a1.67,1.67,0,1,0,0-3.33h3.46Z" style="fill:#fff"/><polygon points="14.21 6.52 10.57 7.1 10.57 7.1 8.05 4.74 6.4 6.5 8.93 8.87 8.55 12.66 14.21 6.52" style="fill:#fff"/><path d="M9.92,13a.11.11,0,0,0-.16,0,.11.11,0,0,0,0,.16l2.09,2.74a.14.14,0,0,0,.1.05.11.11,0,0,0,.07,0,.11.11,0,0,0,0-.16Z" style="fill:#fff"/><path d="M14.69,19.55a.09.09,0,0,0,.07,0,.11.11,0,0,0,0-.16l-2.09-2.75a.11.11,0,0,0-.18.14L14.6,19.5A.12.12,0,0,0,14.69,19.55Z" style="fill:#fff"/><path d="M17.73,23.54a.1.1,0,0,0,.09,0l.07,0a.11.11,0,0,0,0-.16l-2.09-2.75a.12.12,0,0,0-.17,0,.11.11,0,0,0,0,.16Z" style="fill:#fff"/><path d="M11,12a.14.14,0,0,0,0,.17l2.48,2.41a.11.11,0,0,0,.08,0,.09.09,0,0,0,.08,0,.1.1,0,0,0,0-.16L11.15,12A.12.12,0,0,0,11,12Z" style="fill:#fff"/><path d="M16.75,17.82a.11.11,0,0,0,.08,0,.09.09,0,0,0,.08,0,.12.12,0,0,0,0-.16l-2.48-2.41a.12.12,0,0,0-.16,0,.12.12,0,0,0,0,.17Z" style="fill:#fff"/><path d="M20.43,21.35l.08,0a.16.16,0,0,0,.09,0,.12.12,0,0,0,0-.17l-2.47-2.4a.12.12,0,0,0-.17,0,.11.11,0,0,0,0,.16Z" style="fill:#fff"/><path d="M15.18,13a.11.11,0,0,0,.09,0,.11.11,0,0,0,0-.16l-2.71-2.14a.11.11,0,1,0-.14.17L15.11,13Z" style="fill:#fff"/><path d="M16,13.56a.11.11,0,0,0,0,.16l2.71,2.14a.11.11,0,0,0,.07,0,.12.12,0,0,0,.09-.05.11.11,0,0,0,0-.16l-2.71-2.14A.11.11,0,0,0,16,13.56Z" style="fill:#fff"/><path d="M13.65,8.78a.12.12,0,0,0-.16,0,.12.12,0,0,0,0,.16l2.87,1.93.06,0a.12.12,0,0,0,.07-.21Z" style="fill:#fff"/><path d="M20.25,13.52a.11.11,0,0,0,.09-.06.1.1,0,0,0,0-.15l-2.86-1.94a.12.12,0,0,0-.16,0,.11.11,0,0,0,0,.16l2.86,1.94Z" style="fill:#fff"/><path d="M21.57,14.39l2.78,1.87A3.41,3.41,0,0,0,21.81,18l-1.65-1.3a.11.11,0,0,0-.14.18l1.68,1.33a3.46,3.46,0,0,0-.33,1.44,3.41,3.41,0,1,0,3.41-3.41l-.18,0a.1.1,0,0,0,0-.11L21.7,14.2a.12.12,0,0,0-.13.19Z" style="fill:#fff"/><path d="M17.48,9.42l.05,0a.13.13,0,0,0,.1-.06.12.12,0,0,0,0-.16l-3-1.73a.12.12,0,0,0-.16,0,.11.11,0,0,0,0,.15Z" style="fill:#fff"/><path d="M21.44,11.74h.06a.11.11,0,0,0,.1-.05.12.12,0,0,0-.05-.16l-3-1.73a.11.11,0,0,0-.15,0,.1.1,0,0,0,0,.15Z" style="fill:#fff"/><path d="M25.88,14.26l.06,0a.13.13,0,0,0,.1-.06.12.12,0,0,0-.05-.16l-3-1.73a.11.11,0,0,0-.15.05.1.1,0,0,0,0,.15Z" style="fill:#fff"/><path d="M30,16.61l.06,0a.11.11,0,0,0,.1-.06.11.11,0,0,0,0-.15l-3-1.73a.11.11,0,0,0-.16,0,.11.11,0,0,0,0,.15Z" style="fill:#fff"/></svg>