<svg id="Layer_1" data-name="Layer 1" xmlns="http://www.w3.org/2000/svg" viewBox="0 0 44 44"><title>Coopervia</title><rect x="0.14" y="0.16" width="43.67" height="43.55" rx="10.38" ry="10.38" style="fill:#896bff"/><path d="M27.6,11.49a3,3,0,1,0-1.82-3.8A3,3,0,0,0,27.6,11.49Z" style="fill:#fff"/><path d="M38.46,13.78l-1.29-1.24a.41.41,0,0,0-.57,0L32.76,16.5,30,13.43h0a.39.39,0,0,0-.23-.24L24.37,11.3a.36.36,0,0,0-.36.06v0l-7,2.11h0a.4.4,0,0,0-.29.2l-3.74,7.24a.39.39,0,0,0,.17.53l1.59.82a.39.39,0,0,0,.53-.17l3.29-6.36,3.8-1.11L18.2,22.67l-4.6,4.15-7,0a.46.46,0,0,0-.39.5v2.25a.46.46,0,0,0,.4.5l8.15,0A.36.36,0,0,0,15,30l0,0,5.85-5.28,1.81,2.26h0l3.08,4.44a.47.47,0,0,0,.64.05l1.84-1.29a.46.46,0,0,0,.19-.61l-3.78-5.44,4.11-8,2.72,3.13.85,1a.4.4,0,0,0,.56,0l5.62-5.9A.4.4,0,0,0,38.46,13.78Z" style="fill:#fff"/></svg>