<svg id="Layer_1" data-name="Layer 1" xmlns="http://www.w3.org/2000/svg" viewBox="0 0 44 44"><title>mamifero</title><rect x="0.14" y="0.16" width="43.67" height="43.55" rx="21.78" ry="21.78" style="fill:#d9aa74"/><path d="M38.81,31.8A2.07,2.07,0,0,0,39.19,30c-.12-.45-.27-.95-.43-1.48A12.77,12.77,0,0,1,38.13,26a13.07,13.07,0,0,0-1.27-5.05l0,0a7,7,0,0,0,.64-4.31A10.54,10.54,0,0,0,37.19,15c-.22-.71-.36-1-.67-1.14a1,1,0,0,0-1.42.29c-.6.86-1.21,1.78-1.64,2.44a8.24,8.24,0,0,0-2.52-2.73,1.06,1.06,0,0,0-1.44.3l-.08.13a20.73,20.73,0,0,0-3.28-3A22.78,22.78,0,0,0,12.48,7,19.45,19.45,0,0,0,4.7,8.61a22.31,22.31,0,0,0-2.3,3.66,18.89,18.89,0,0,1,3.19-1.76C5,13.66,4,20.06,6.89,26.06a12.42,12.42,0,0,1-5.58,1.09h0a3.19,3.19,0,0,1-.54-.06,22,22,0,0,0,1.93,5.07,1.07,1.07,0,0,0,.83.44,29.62,29.62,0,0,1,7.48,1,1.15,1.15,0,0,0,.36.07,1.07,1.07,0,0,0,1-.69,1,1,0,0,0-.63-1.35,19.9,19.9,0,0,0-4-.87l-.64-2.58L7.7,28a10.56,10.56,0,0,1,4.78-1,7.54,7.54,0,0,1,5.07,2,18,18,0,0,0,2,1.39L20.43,33a1.06,1.06,0,0,0,.85.7,25.25,25.25,0,0,1,4.25,1.06,1,1,0,0,0,.37.07,1,1,0,0,0,1-.67,1.06,1.06,0,0,0-.61-1.36,24,24,0,0,0-4.05-1.06l-.13-.4a8.57,8.57,0,0,0,1.57.14c2.51,0,4.59-1.35,6-3.92.64.45,1.51,1,2.38,1.54a13.64,13.64,0,0,1,3.06,2.69,2.08,2.08,0,0,0,1.64.81h.39A2,2,0,0,0,38.81,31.8ZM4.11,30.52,3.2,29.16a16.22,16.22,0,0,0,1.91-.29l.43,1.72C5,30.55,4.46,30.53,4.11,30.52Zm5.44-5.34-.67.16C6,19.59,7.23,13.17,7.74,10.42l.13-.7A16.32,16.32,0,0,1,9.93,9.3C9,12.38,7.72,19.07,9.55,25.18Zm2.76-.27-.64,0c-2-6.29-.26-13.59.52-15.81h.29c.65,0,1.28,0,1.91.08A34.45,34.45,0,0,0,12.31,24.91Zm2.15.2a29.42,29.42,0,0,1,.43-10.18,28.28,28.28,0,0,1,1.67-5.46,20.12,20.12,0,0,1,2.6.63,37,37,0,0,0-4.39,15.09Zm14,.14-.06.08a1,1,0,0,0-.21.55c-.87,1.84-2.31,3.5-4.55,3.5a7.22,7.22,0,0,1-4.84-2,17.48,17.48,0,0,0-2-1.37,34.63,34.63,0,0,1,4.34-15.17A19.64,19.64,0,0,1,24.82,13a17.74,17.74,0,0,1,3.72,3.6,8.88,8.88,0,0,0,.78,5.16A12,12,0,0,1,28.48,25.25Zm7-7.91A5.57,5.57,0,0,1,35.38,19a5.4,5.4,0,0,0-.68-.46ZM36.79,30.5h0a15.85,15.85,0,0,0-3.65-3.21c-1-.56-1.93-1.22-2.56-1.67a13.45,13.45,0,0,0,.84-4.14,1,1,0,0,0-.13-.5,6.67,6.67,0,0,1-.56-4.55l.33.37a3.59,3.59,0,0,1,1,2.8,1.06,1.06,0,0,0,.91,1.18,1,1,0,0,0,.88-.31C35.61,21.66,36,25.28,36,26a13.07,13.07,0,0,0,.72,3.2c.15.49.3.95.4,1.34Z" style="stroke:#000;stroke-miterlimit:10"/></svg>