<?xml version="1.0" encoding="UTF-8"?>
<svg width="412px" height="411px" viewBox="0 0 412 411" version="1.1" xmlns="http://www.w3.org/2000/svg" xmlns:xlink="http://www.w3.org/1999/xlink">
    <!-- Generator: Sketch 60.1 (88133) - https://sketch.com -->
    <title>river</title>
    <desc>Created with Sketch.</desc>
    <g id="Page-1" stroke="none" stroke-width="1" fill="none" fill-rule="evenodd">
        <g id="river">
            <rect id="Rectangle" fill="#896BFF" x="0" y="0" width="412" height="411" rx="7"></rect>
            <path d="M32.0770054,225.954437 C34.2192488,225.954437 36.4766061,225.962981 38.8322316,225.974371 C41.3647398,225.985762 44.0376305,226 46.83125,226 C62.1357957,226 81.006067,225.621262 99.213731,222.696718 C126.021253,218.385365 145.638361,209.643057 159.188121,195.962911 C172.678919,182.342566 179.521182,164.208684 179.521182,142.062454 C179.521182,120.907208 186.798632,103.570671 201.771874,89.0703997 C214.771332,76.480907 233.579836,66.2293408 257.669544,58.6033142 C298.70347,45.6123021 346.029359,42.884246 378.50835,42.884246 C384.466201,42.884246 389.295373,37.9862755 389.295373,31.9406989 C389.295373,25.8979705 384.466201,21 378.50835,21 C344.530069,21 294.868209,23.8989148 251.240006,37.7129004 C223.952375,46.352693 202.294099,58.3071579 186.871632,73.2431202 C167.675671,91.8326269 157.944328,114.989777 157.944328,142.062454 C157.944328,158.399464 153.370653,170.957633 143.964997,180.45457 C120.175708,204.471711 69.3121703,204.235355 38.9333073,204.090125 C36.5411824,204.078735 34.2501333,204.070191 32.0770054,204.070191 C26.1191548,204.070191 21.2899825,208.968162 21.2899825,215.01089 C21.2899825,221.053619 26.1191548,225.954437 32.0770054,225.954437 L32.0770054,225.954437 Z" id="Path" fill="#FFFFFF" fill-rule="nonzero"></path>
            <path d="M379.505655,62 C353.922272,62 316.976296,64.905203 286.240861,78.7561858 C250.010838,95.0822875 230.862608,123.197247 230.862608,160.064843 C230.862608,161.383577 230.901916,162.764973 230.966491,164.206181 C212.399447,168.227894 198.425732,184.989776 198.425732,205.007194 C198.425732,210.475812 199.456142,215.790625 201.446772,220.738014 C192.72057,229.932127 187.7089,242.276391 187.7089,255.281448 C187.7089,272.510441 196.387371,288.22702 210.377933,297.270176 C210.38074,301.496961 211.001233,306.427262 212.590368,311.482885 C181.352362,340.586184 121.029822,355.337209 33.0743099,355.337209 C27.1164594,355.337209 22.2872871,360.236179 22.2872871,366.280141 C22.2872871,372.324102 27.1164594,377.225921 33.0743099,377.225921 C125.269387,377.225921 188.017742,361.845434 224.228111,330.284105 C234.928097,340.47795 249.654265,344.192053 262.718299,345.168999 L262.718299,380.054221 C262.718299,386.10103 267.547471,391 273.505323,391 C279.465981,391 284.295154,386.10103 284.295154,380.054221 L284.295154,344.596503 C309.137314,341.329574 321.976736,329.321401 328.510157,318.996537 C332.963103,311.961389 335.366458,304.168609 336.02345,297.660385 C350.370584,288.682738 359.301745,272.763934 359.301745,255.281448 C359.301745,242.276391 354.292883,229.932127 345.566681,220.738014 C347.557311,215.787776 348.587721,210.475812 348.587721,205.007194 C348.587721,184.189421 333.479712,166.880677 313.800835,163.776097 C309.350696,145.61573 293.139277,132.11793 273.881548,132.11793 C267.665393,132.11793 261.772118,133.530656 256.485298,136.04565 C262.496494,119.964497 275.243263,107.660108 294.997947,98.7593632 C310.055419,91.9748594 336.938747,83.8858627 379.502847,83.8858627 C385.460698,83.8858627 390.292678,78.9868929 390.292678,72.9429317 C390.292678,66.8989698 385.463506,62 379.505655,62 L379.505655,62 Z M273.881548,154.00664 C284.637688,154.00664 293.394774,162.867509 293.436889,173.770566 L293.42285,174.194953 C293.36389,177.333711 294.638567,180.349996 296.921193,182.471933 C299.203819,184.593871 302.278205,185.619237 305.352591,185.285993 C306.062928,185.209091 306.770458,185.172063 307.455527,185.172063 C318.236935,185.172063 327.010867,194.069959 327.010867,205.007194 C327.010867,209.271007 325.696883,213.335443 323.209298,216.759026 C321.474165,219.143001 320.769443,222.142195 321.25236,225.064488 C321.738085,227.98678 323.369334,230.587222 325.775497,232.267683 C333.257907,237.491351 337.724891,246.09588 337.724891,255.284296 C337.724891,266.537685 331.121279,276.637538 320.901402,281.01528 C318.214474,282.168817 316.100307,284.373354 315.044628,287.130448 C314.216368,289.286564 314.090024,291.636361 314.654363,293.843746 C314.69367,296.133729 313.657644,304.088858 307.46395,310.984443 C299.967502,319.338326 287.566075,323.573656 270.610627,323.573656 C254.533976,323.573656 242.885001,319.588971 236.921535,312.049684 C231.564522,305.276574 231.738597,296.862878 232.109208,294.672583 C232.940275,292.231642 232.89816,289.557146 231.968825,287.130448 C230.910338,284.373354 228.796172,282.168817 226.109243,281.01528 C215.889366,276.637538 209.285754,266.534837 209.285754,255.281448 C209.285754,246.093031 213.752738,237.488503 221.235148,232.267683 C223.644118,230.584374 225.275368,227.98678 225.761093,225.06164 C226.24401,222.139347 225.53648,219.143001 223.804155,216.756177 C221.31657,213.332595 220.002586,209.271007 220.002586,205.007194 C220.002586,194.069959 228.77371,185.169215 239.557926,185.169215 C240.3918,185.169215 241.236906,185.229028 242.143779,185.351502 C245.257472,185.764497 248.40205,184.784703 250.746444,182.659917 C253.090839,180.532283 254.402015,177.476124 254.340247,174.286097 L254.326208,173.793352 C254.354285,162.878903 263.116987,154.00664 273.881548,154.00664 L273.881548,154.00664 Z" id="Shape" fill="#FFFFFF" fill-rule="nonzero"></path>
            <path d="M57.3516733,160 L105.902146,160 C125.236976,160 140.966532,144.142453 140.966532,124.653773 C140.966532,105.589623 125.913667,90.0009434 107.157253,89.3330189 C100.833983,79.305661 89.796339,73 77.5822066,73 C64.8373915,73 53.2690642,79.9594341 47.1170732,90.8415093 C32.5948915,95.2792451 22.2872871,108.838679 22.2872871,124.653773 C22.2872871,144.142453 38.0168424,160 57.3516733,160 Z M55.8326285,111.150943 C59.9713938,110.686793 63.4755862,107.865094 64.8373915,103.89717 C66.7158413,98.4264149 71.8373532,94.7500004 77.5822066,94.7500004 C83.4393747,94.7500004 88.5945807,98.5198117 90.4056415,104.129245 C92.1240435,109.45 97.5712656,112.585849 102.984793,111.385849 C103.950693,111.170755 104.933439,111.060377 105.904954,111.060377 C113.340131,111.060377 119.39104,117.159434 119.39104,124.653773 C119.39104,132.150944 113.340131,138.25 105.904954,138.25 L57.3516733,138.25 C49.9164959,138.25 43.8655867,132.150944 43.8655867,124.653773 C43.8655867,117.719811 49.0095614,111.915094 55.8326285,111.150943 Z" id="Shape" fill="#FFFFFF" fill-rule="nonzero"></path>
        </g>
    </g>
</svg>