<svg xmlns="http://www.w3.org/2000/svg" viewBox="0 0 40.16 18.01"><title>peixe</title><g id="Layer_2" data-name="Layer 2"><g id="Layer_1-2" data-name="Layer 1"><path d="M16.46,18a19.79,19.79,0,0,1-16-8.19L0,9.19l.49-.57C.79,8.28,7.82.28,16.42,0c5-.18,10.87,3.52,15.87,7.73a71.36,71.36,0,0,0,6.35-6.32l1.52,1.3a71.08,71.08,0,0,1-6.33,6.35c2.44,2.16,4.61,4.37,6.3,6.19l-1.46,1.37a88.56,88.56,0,0,0-6.38-6.24C27.71,14.21,21.79,18,16.46,18ZM2.55,9.34A18.11,18.11,0,0,0,16.46,16c4.65,0,10-3.42,14.28-7C26.29,5.36,21.07,2,16.75,2h-.26C10,2.21,4.3,7.54,2.55,9.34Z"/><circle cx="8.99" cy="8.21" r="1.87"/></g></g></svg>