<svg id="Layer_1" data-name="Layer 1" xmlns="http://www.w3.org/2000/svg" viewBox="0 0 44 44"><title>Piscina PuÌblica</title><rect x="0.14" y="0.16" width="43.67" height="43.55" rx="10.38" ry="10.38" style="fill:#896bff"/><path d="M31.23,29.57c-5.32-2.56-9,0-9,0-5.32,2.57-9,0-9,0-5.32-2.56-9,0-9,0V33s3.71-2.57,9,0c0,0,3.71,2.56,9,0,0,0,3.71-2.57,9,0,0,0,3.71,2.56,9,0V29.57C34.94,32.14,31.23,29.57,31.23,29.57Z" style="fill:#fff"/><path d="M31.23,34.8c-5.32-2.56-9,0-9,0-5.32,2.57-9,0-9,0-5.32-2.56-9,0-9,0v3.42s3.71-2.56,9,0c0,0,3.71,2.57,9,0,0,0,3.71-2.56,9,0,0,0,3.71,2.57,9,0V34.8C34.94,37.37,31.23,34.8,31.23,34.8Z" style="fill:#fff"/><path d="M12.53,27.67h9.33a.45.45,0,0,0,.45-.47s-.07-4.12,0-6.95h0a3,3,0,0,1,2.78-2.94c1.43-.06,2.36,1.05,2.5,3a.46.46,0,1,0,.91-.06,4.43,4.43,0,0,0-1.16-2.94,3,3,0,0,0-2.29-.88,3.85,3.85,0,0,0-3.65,3.85c-.06,2.28,0,5.36,0,6.51h-8c0-1.14,0-4.23,0-6.5h0a3,3,0,0,1,2.77-2.94c1.43-.06,2.36,1.05,2.5,3a.46.46,0,0,0,.49.43.47.47,0,0,0,.43-.49,4.53,4.53,0,0,0-1.16-2.94,3,3,0,0,0-2.29-.88,3.85,3.85,0,0,0-3.66,3.85c-.07,2.84,0,6.94,0,7Z" style="fill:#fff"/></svg>