<svg id="Layer_1" data-name="Layer 1" xmlns="http://www.w3.org/2000/svg" viewBox="0 0 44 44"><title>Quadra Poliesportiva</title><g id="_Group_" data-name="&lt;Group&gt;"><rect x="0.14" y="0.21" width="43.67" height="43.55" rx="10.38" ry="10.38" style="fill:#896bff"/></g><path d="M7,10.75v22.5H37V10.75Zm1,6.8a4.51,4.51,0,0,1,0,9Zm0,10a5.51,5.51,0,0,0,0-11v-4.8H21.5v6.7a3.64,3.64,0,0,0,0,7.22v6.58H8ZM22.5,32.25V25.67a3.64,3.64,0,0,0,0-7.22v-6.7H36v4.83a5.51,5.51,0,0,0,0,11v4.7ZM36,17.6v8.92a4.49,4.49,0,0,1,0-8.92Z" style="fill:#fff"/></svg>