<svg id="Layer_1" data-name="Layer 1" xmlns="http://www.w3.org/2000/svg" viewBox="0 0 44 44"><title>Sede Administrativa</title><rect x="0.14" y="0.16" width="43.67" height="43.55" rx="10.38" ry="10.38" style="fill:#896bff"/><rect x="3.84" y="35.64" width="21.81" height="1.31" style="fill:#fff"/><path d="M12.61,22.84a1.49,1.49,0,1,0-.35-2.08A1.5,1.5,0,0,0,12.61,22.84Z" style="fill:#fff;fill-rule:evenodd"/><path d="M36.26,34.78V31.16H34.32v-3.6h1.94V16.93h3L21.67,8.57,4.28,16.93h3V34.78h18.3V19.06h7.29V34.78ZM17.84,28.19l-.15-.32a.28.28,0,0,0,.13,0h1.63v.33H17.84S17.85,28.2,17.84,28.19Zm-6.66,0h-.62l.62-1.3Zm4.54,0V26.8l.68,1.43Zm7.43,0H20.79V27.9h1.63a.44.44,0,0,0,.44-.44V25a.44.44,0,0,0-.44-.44h-4.6a.44.44,0,0,0-.44.44v2.24l-1.66-3.46a.18.18,0,0,0,0-.09v0a.3.3,0,0,0-.31-.16,1.48,1.48,0,0,0-.31,0H11.86a1.36,1.36,0,0,0-.3,0,.24.24,0,0,0-.21.08.27.27,0,0,0-.17.22v.08l-1.44,3V19.06H23.15Z" style="fill:#fff;fill-rule:evenodd"/><polygon points="40.16 30.92 40.16 27.8 34.65 27.8 34.65 30.92 37.09 30.92 37.09 35.64 33.94 35.64 32.86 35.64 32.86 36.95 33.94 36.95 39.08 36.95 40.16 36.95 40.16 35.64 39.08 35.64 37.72 35.64 37.72 30.92 40.16 30.92" style="fill:#fff;fill-rule:evenodd"/><polygon points="39.33 16.68 39.33 15.72 21.68 7.05 4.03 15.72 4.03 16.68 21.68 8.01 39.33 16.68" style="fill:#fff;fill-rule:evenodd"/></svg>