<svg id="Layer_1" data-name="Layer 1" xmlns="http://www.w3.org/2000/svg" viewBox="0 0 44 44"><title>Trilha</title><rect x="0.01" y="0.55" width="43.67" height="43.55" rx="10.38" ry="10.38" style="fill:#896bff"/><path d="M31.68,19.38h-.76V17a.61.61,0,0,0-.61-.61.61.61,0,0,0-.61.61v2.42H26V13.62a.44.44,0,0,0-.44-.44H21.18a.47.47,0,0,0-.54.29L17.07,25.12l0,.07L13.33,37.31c-.07.23,0,.45.15.5l2.35.72c.15,0,.33-.11.4-.34l3.71-12.12v0h0L22.16,38.5c.05.32.23.55.39.52l2.55-.45c.16,0,.24-.3.19-.61L22.74,23.34l.8-2.79v.86a.44.44,0,0,0,.44.44H29.7V37a.61.61,0,0,0,.61.61.61.61,0,0,0,.61-.61V21.85h.76a.42.42,0,0,0,.4-.44V19.82A.42.42,0,0,0,31.68,19.38Z" style="fill:#fff"/><path d="M15.15,21.32l1.72.51a.47.47,0,0,0,.56-.33l2.49-8.31a.46.46,0,0,0-.28-.59l-1.72-.51a.47.47,0,0,0-.56.33l-2.5,8.31A.47.47,0,0,0,15.15,21.32Z" style="fill:#fff"/><path d="M23.38,12.59a3.16,3.16,0,1,0-3.17-3.16A3.16,3.16,0,0,0,23.38,12.59Z" style="fill:#fff"/></svg>