<svg xmlns="http://www.w3.org/2000/svg" viewBox="0 0 30.42 35.58"><title>ajr</title><g id="Layer_2" data-name="Layer 2"><g id="Layer_3" data-name="Layer 3"><circle cx="15.21" cy="15.21" r="14.41" fill="#ea4f54"/><polyline points="11.28 29.76 14.77 35.58 19.14 29.92" fill="#ea4f54"/><circle cx="15.21" cy="15.21" r="14.74" fill="none" stroke="#ea4f54" stroke-miterlimit="10" stroke-width="0.95"/><path d="M18.8,12a.18.18,0,0,1,.21-.14c.71.14,3.38.79,3.38,2.48a2.15,2.15,0,0,1-1.11,1.87,6.7,6.7,0,0,1-2.28.64,22.18,22.18,0,0,0,4.8,5c.28.2.54.43.82.64a.2.2,0,0,1,0,.28l-.83.94a.19.19,0,0,1-.25,0,23.33,23.33,0,0,1-5.83-6.86,1,1,0,0,1-.15-.33c0-.25.07-.52.37-.52.64,0,3.11-.54,3.11-1.71,0-1-1.69-1.49-2.25-1.63a.18.18,0,0,1-.13-.23Z" fill="#fff9ff" fill-rule="evenodd"/><path d="M23.94,13.17A.9.9,0,0,1,22.68,13a.94.94,0,0,1-.14-1.28.88.88,0,0,1,1.25.15.93.93,0,0,1,.15,1.27" fill="#fff9ff" fill-rule="evenodd"/><path d="M17.22,8.21a.91.91,0,0,1-1,.8.91.91,0,0,1-1-.8.91.91,0,0,1,1-.8.91.91,0,0,1,1,.8" fill="#fff9ff" fill-rule="evenodd"/><path d="M12.39,15.05c0-1.14.06-2.71,0-3.88a5.56,5.56,0,0,0-3.18,1.07.18.18,0,0,1-.25,0l-.32-.39a.19.19,0,0,1,0-.26,6,6,0,0,1,2.11-1.19,5.44,5.44,0,0,1,2.09-.27.69.69,0,0,1,.6.63c0,.39,0,4.39,0,4.95" fill="#fff9ff" fill-rule="evenodd"/><path d="M9.34,9.27a1,1,0,0,1-.44,1.21.89.89,0,0,1-1.25-.16.93.93,0,0,1,.43-1.21.91.91,0,0,1,1.26.16" fill="#fff9ff" fill-rule="evenodd"/><path d="M10.91,20.32a.18.18,0,0,0-.2-.08l-.13,0a3,3,0,0,1-3.67-3,3,3,0,0,1,5.58-1.58h.95a4.08,4.08,0,0,0-2.87-2.52,4,4,0,0,0-4.92,4,4,4,0,0,0,4.92,4,3.53,3.53,0,0,0,.65-.21.09.09,0,0,0,0-.14Z" fill="#fff9ff" fill-rule="evenodd"/><path d="M18.08,10.13a7.64,7.64,0,0,0-3.75-.32.19.19,0,0,0-.16.23l.26,1.13a.18.18,0,0,0,.23.13,7.79,7.79,0,0,1,.89-.24c0,.07,0,.07,0,0s1,5.09-.76,6.88c-1.49,1.49-3.24.16-3.73-.28a.18.18,0,0,0-.26,0l-.35.4a.11.11,0,0,0,0,.13c.6.76,3.24,2.33,5.1.59s1.6-6,1.5-7.85v-.07a5.81,5.81,0,0,1,.79,0,.09.09,0,0,0,.1-.07l.19-.64a.11.11,0,0,0-.05-.12" fill="#fff9ff" fill-rule="evenodd"/></g></g></svg>