<svg id="Layer_1" data-name="Layer 1" xmlns="http://www.w3.org/2000/svg" viewBox="0 0 44 44"><title>Anfiteatro</title><rect x="0.14" y="0.16" width="43.67" height="43.55" rx="10.38" style="fill:#896bff"/><g id="NlY9tB.tif"><path d="M35.72,26.49c2.79.81,3,1,3,3.83a14,14,0,0,1,0,2c0,.27-.45.49-.7.73-.2-.23-.56-.45-.59-.7-.08-1-.08-1.94-.08-2.92S36.89,28.2,36,28.21a15.74,15.74,0,0,0-2.48,0c-.46.09-1.14.54-1.19.89s.38,1,.65,1.5A9.61,9.61,0,0,1,34.35,33c.19.89.43,1.23,1.35,1.26,2.28.07,2.91.75,2.92,3,0,4,.24,3.61-3.49,3.61-9.61,0-19.22,0-28.83,0-1.42,0-1.84-.41-1.82-1.82.06-4.34,0-4.34,4.32-5-.05-1.55.1-3.09,1.93-3.78.2-.08.26-.92.13-1.34a1.26,1.26,0,0,0-.91-.71,9.78,9.78,0,0,0-2.91,0A1.82,1.82,0,0,0,6,29.51a25.17,25.17,0,0,0-.1,2.62c0,.35-.38.66-.58,1-.24-.3-.67-.58-.7-.9A17.21,17.21,0,0,1,4.6,29c.17-1.72,1.32-2.4,3.09-2.33V7.12c0-2.57.76-3.35,3.28-3.34l21.66,0c2.19,0,3,.8,3,3,0,6,.05,12,.07,18Zm-4.09-5.64c.05-.69.37-1.54.08-2a30,30,0,0,1-4.28-9.73c-3.86,2.48-7.64,2.43-11,.21-1.49,3.07-2.85,6.08-4.41,9-.6,1.1-.64,1.85.18,2.56C18.54,18.58,24.82,18.68,31.63,20.85Zm-1.3,1.52c-2.82-2.33-14.7-2.29-17,.06C16.38,24.68,27.59,24.64,30.33,22.37Zm-.26,8,.54,0L32.51,23l-.68-.16c-.24,1.15-.44,2.32-.73,3.45a4.21,4.21,0,0,1-.68,1.09,3.89,3.89,0,0,1-.73-1.08,7,7,0,0,1,0-1.68,34,34,0,0,1-15.87,0,5.25,5.25,0,0,1,0,1.45,7.39,7.39,0,0,1-.82,1.32,7.84,7.84,0,0,1-.62-1.27c-.28-1-.49-2-.73-3l-.63.16,1.64,7.17.48.08c.15-1.77.16-3.68,2.53-3.71,1.35,0,2.94-.3,4,.29S21,29.14,21.75,30.3c.2-.76.18-1.86.72-2.46A4.56,4.56,0,0,1,25,26.77a9.54,9.54,0,0,1,2.92,0C30,27.08,29.84,28.89,30.07,30.41ZM32,5.3a32.7,32.7,0,0,0,2.06,12c.15-.27.22-.34.22-.41q0-4.9,0-9.8C34.32,5.3,34.06,5.1,32,5.3ZM11.17,39.47c-.26-1.31-.13-3.18-.79-3.52a5,5,0,0,0-4,0c-.63.33-.45,2.24-.65,3.53Zm20.73,0h5.58c-.25-1.33-.1-3.16-.77-3.54a4.54,4.54,0,0,0-3.88,0C32.13,36.32,32.21,38.11,31.9,39.45Zm-12.09,0c-.23-1.3-.12-3.16-.71-3.42a5.4,5.4,0,0,0-4,0c-.57.26-.4,2.15-.57,3.4Zm3.42,0h5.42c-.27-1.3-.15-3.11-.83-3.49a4.69,4.69,0,0,0-3.88,0C23.31,36.28,23.46,38.1,23.23,39.43ZM9.17,16.79C10.78,13.71,11.65,7.47,11,5.3c-1-.15-1.83-.08-1.84,1.18C9.15,9.92,9.17,13.36,9.17,16.79ZM21.1,39.41l.75.05c0-.85.1-1.7.1-2.55a2.75,2.75,0,0,1,1.34-2.57,1.74,1.74,0,0,0,.7-1.41c0-.36-.73-.82-1.19-.9a8.78,8.78,0,0,0-2.61,0,1.42,1.42,0,0,0-1,.84c-.1.42,0,1.2.33,1.36,1.4.76,1.58,2,1.55,3.36C21.09,38.2,21.1,38.8,21.1,39.41Zm8.8.07.59.09a9.51,9.51,0,0,0,.29-1.72c0-1.39-.13-2.71,1.37-3.55a1.75,1.75,0,0,0,.63-1.44c0-.32-.68-.76-1.1-.83a7.81,7.81,0,0,0-2.46,0c-.44.06-1.11.45-1.16.77a1.84,1.84,0,0,0,.49,1.54,3.07,3.07,0,0,1,1.34,2.74C29.9,37.88,29.9,38.68,29.9,39.48Zm-17.52,0,.76,0c0-.8,0-1.6,0-2.4a2.82,2.82,0,0,1,1.43-2.81A1.54,1.54,0,0,0,15.22,33a1.69,1.69,0,0,0-1.15-1,7.88,7.88,0,0,0-2.61,0A1.53,1.53,0,0,0,10.4,33,1.6,1.6,0,0,0,11,34.3a2.72,2.72,0,0,1,1.41,2.52C12.37,37.71,12.38,38.59,12.38,39.48Zm16-34.23A23.84,23.84,0,0,0,32,16.53L30.41,5.25Zm-11.32,29h.58c-.14-1.66.07-3.09,1.77-3.84.22-.09.28-.9.17-1.31a1.29,1.29,0,0,0-.87-.77,10.63,10.63,0,0,0-2.76,0c-.45.07-1.14.54-1.18.89s.37,1,.65,1.5c.43.75,1,1.46,1.34,2.23A5.16,5.16,0,0,1,17.06,34.2Zm8.8,0h.54c-.09-1.63.1-3.07,1.8-3.82.23-.1.27-1,.14-1.44a1.3,1.3,0,0,0-1-.66,9.51,9.51,0,0,0-2.61,0c-.46.08-1.14.52-1.19.87s.35,1,.63,1.5c.43.76,1,1.45,1.37,2.22A5.23,5.23,0,0,1,25.86,34.18ZM11.64,16A20.71,20.71,0,0,0,14.86,5.33H13Zm4.51-9.53c.91,2.27,4.53,3.47,7.33,2.84,2.05-.47,3.48-1.53,3.4-2.67C23.41,8.63,19.92,8.63,16.15,6.47Zm1.25-1.2c2.78,1.89,6.42,1.8,8.42,0Zm16.65,17-.13,0-.5,4.3.63.06Zm-24.46.22-.25,0v4.15l.59,0Z" style="fill:#fff"/></g></svg>