<svg xmlns="http://www.w3.org/2000/svg" viewBox="0 0 252.39 246.28"><title>ARIE</title><g id="Layer_2" data-name="Layer 2"><g id="Layer_1-2" data-name="Layer 1"><g id="dYI44z.tif"><path d="M169.72,0c-.73,5.6-1.16,9.71-1.83,13.78-2.39,14.5-9.68,26.75-17.66,38.74-4,6.09-8.18,12.25-11.15,18.88-10.19,22.78,1,48.71,23.73,56.37,3.4,1.14,5.63.93,7-2.83s3.46-7.57,4.85-11.48c6-17,7.41-34.74,7-52.64-.21-8.39-.81-16.77-1.24-25.16l1.38-.2c7.09,14.51,7.61,30.22,7.74,46.09a171.81,171.81,0,0,1-6.17,47.35,16.54,16.54,0,0,0,2.63,0c20.43-4.65,34.53-25.22,31.43-45.87-4.57-30.51-19.88-55.41-40.56-77.47C175.08,3.69,172.77,2.35,169.72,0Zm55.63,152.17,1.33,1.39c-4.66,4.19-9.41,8.29-14,12.59-13.34,12.56-24.81,26.44-31.28,43.95-1.45,3.94-.44,5.69,3.21,7.18q17.33,7,32.78-3.24c10.25-6.82,14.09-17.44,16.1-28.8,2.87-16.26,7-31.87,18.67-44.39.25-.27.1-.91.2-2a37.34,37.34,0,0,0-6.3-.9,120,120,0,0,0-12.43.91c-18.85,2.4-36.86,7.35-52.71,18.35-7,4.86-12.4,11-14.91,19.43-3,10.15-1.64,19.5,4.58,28.84C185,183,201.47,163.63,225.35,152.17Z" style="fill:#fff"/><path d="M0,85.54C.59,83,1.07,80.38,1.81,77.87c.82-2.81,2.34-4.12,5-1.6,21.72,20.84,48.8,29.45,77.57,34.81,12.35,2.31,24.93,5.16,36.39,10.1,25,10.8,38.06,31,39.72,58.09.7,11.43-2.38,22.37-7.69,32.66-1.89,3.65-3.81,4.58-7.81,3.29-22.37-7.19-42.1-18.95-60.15-33.79-18.22-15-34.28-32.07-49.44-50.05-1.61-1.91-3.27-3.77-4.94-5.61-.16-.18-.6-.12-1.86-.32,1.56,4.06,2.7,7.8,4.4,11.27,7.83,16,19,29.75,31.15,42.58,19.95,21,41.81,39.63,67.54,53.32a12.45,12.45,0,0,1,1.52,1.27,55.49,55.49,0,0,1-25.78,11.25c-26.23,4.38-47.9-3.9-64.79-24.39C26.4,201.09,17.1,178,10.31,153.8c-4.8-17.17-8.23-34.6-9.19-52.45A27.45,27.45,0,0,0,0,96.54Z"/><path d="M169.72,0c3.05,2.35,5.36,3.69,7.11,5.55,20.68,22.06,36,47,40.56,77.47,3.1,20.65-11,41.22-31.43,45.87a16.54,16.54,0,0,1-2.63,0,171.81,171.81,0,0,0,6.17-47.35c-.13-15.87-.65-31.58-7.74-46.09l-1.38.2c.43,8.39,1,16.77,1.24,25.16.44,17.9-1,35.6-7,52.64-1.39,3.91-3.43,7.58-4.85,11.48s-3.59,4-7,2.83c-22.75-7.66-33.92-33.59-23.73-56.37,3-6.63,7.1-12.79,11.15-18.88,8-12,15.27-24.24,17.66-38.74C168.56,9.71,169,5.6,169.72,0Z"/><path d="M225.35,152.17C201.47,163.63,185,183,170.62,205.52c-6.22-9.34-7.62-18.69-4.58-28.84,2.51-8.39,7.91-14.57,14.91-19.43,15.85-11,33.86-15.95,52.71-18.35a120,120,0,0,1,12.43-.91,37.34,37.34,0,0,1,6.3.9c-.1,1.05.05,1.69-.2,2-11.66,12.52-15.8,28.13-18.67,44.39-2,11.36-5.85,22-16.1,28.8s-21.23,7.94-32.78,3.24c-3.65-1.49-4.66-3.24-3.21-7.18,6.47-17.51,17.94-31.39,31.28-43.95,4.56-4.3,9.31-8.4,14-12.59Z"/></g></g></g></svg>