<svg id="Layer_1" data-name="Layer 1" xmlns="http://www.w3.org/2000/svg" viewBox="0 0 44 44"><title>arvore</title><rect x="0.14" y="0.16" width="43.67" height="43.55" rx="21.78" ry="21.78" style="fill:#89ff8f"/><path d="M31.29,12.49a9.44,9.44,0,0,0-18.68,0,9.43,9.43,0,0,0,3.77,18.08,9.31,9.31,0,0,0,4.55-1.17V39h2V29.4a9.44,9.44,0,0,0,14-8.26A9.46,9.46,0,0,0,31.29,12.49ZM27.51,28.55A7.42,7.42,0,0,1,23,27v-6.2l4.55-2.39-.94-1.79L23,18.49v-4h-2V23l-3.6-1.89-.94,1.79,4.54,2.4V27a7.41,7.41,0,1,1-7-12.82l.62-.22.05-.66a7.41,7.41,0,0,1,14.77,0l.05.66.62.22a7.41,7.41,0,0,1-2.49,14.39Z" style="stroke:#000;stroke-miterlimit:10"/></svg>