<svg id="Layer_1" data-name="Layer 1" xmlns="http://www.w3.org/2000/svg" viewBox="0 0 44 44"><title>Ciclovia</title><rect x="0.14" y="0.16" width="43.67" height="43.55" rx="10.38" ry="10.38" style="fill:#896bff"/><path d="M12.56,26.85a5.78,5.78,0,1,0,5.78,5.78A5.78,5.78,0,0,0,12.56,26.85Z" style="fill:#fff"/><circle cx="32.79" cy="32.63" r="5.78" style="fill:#fff"/><path d="M27.82,14.8a2.72,2.72,0,1,0-2.71-2.72A2.71,2.71,0,0,0,27.82,14.8Z" style="fill:#fff"/><path d="M31.63,22.87V21.39c0-.32-.17-.59-.39-.59H26.66V16.23A.33.33,0,0,0,26.5,16a.21.21,0,0,0,0-.06l-2.54-2c-.29-.23-.8-.07-1.14.36l-7.09,9h0l-.21.27a.57.57,0,0,0,0,.81l.09.08s0,0,0,0l2.54,2h0l3.6,2.83v7.34a.54.54,0,0,0,.59.49h1.47a.54.54,0,0,0,.59-.49V28.09a.14.14,0,0,0,0-.06.46.46,0,0,0-.16-.39l-3.79-3L24,20.13v2.94a.33.33,0,0,0,.17.28.29.29,0,0,0,.22.11h6.84C31.46,23.46,31.63,23.19,31.63,22.87Z" style="fill:#fff"/></svg>