<svg xmlns="http://www.w3.org/2000/svg" viewBox="0 0 384.14 274.08"><title>circuito-das-aguas</title><g id="Layer_2" data-name="Layer 2"><g id="Layer_1-2" data-name="Layer 1"><g id="_5boFaU" data-name="5boFaU"><path d="M304.58,273.77c-18.9-.91-37.55-9.64-50.94-28.26-2.68-3.72-3.88-3.17-6.36.11C222,279.16,175.9,283.5,144.76,255.29a55.66,55.66,0,0,1-8.43-9.82c-2.29-3.36-3.75-3.5-6.09-.16-11.15,15.9-26.81,24.51-45.65,27.84-38.48,6.82-77.78-25-77.72-63,0-6.91,3.14-10.84,8.81-11s9,3.45,9.53,10.43c1.85,22.46,16.06,39.25,37.61,44.41a50.15,50.15,0,0,0,54.43-22.38,45.34,45.34,0,0,0,6.6-22.26c.27-6.31,3.58-10.25,9-10.62,4.83-.34,8.85,3.45,9.75,9.37.53,3.45.45,7,1.24,10.4,8.32,35.73,54.59,49.18,81.8,23.81,9.56-8.92,15.07-19.7,15.34-33,.13-6.52,4.17-10.67,9.63-10.59,5.07.07,9.45,4.44,9.37,10.41-.42,30.21,33.27,55.1,65.43,43.38,19-6.92,30.5-20.22,32.63-40.82.06-.66.13-1.33.23-2,1.21-7.84,4.6-11.11,10.69-10.32,5.66.73,8.38,5.68,7.66,13-2.79,28.44-18.13,47.21-44.3,57.53C324.69,272.85,316.54,273.76,304.58,273.77Z"/><path d="M118.44,117.42c6.83,0,13.67.19,20.49-.07,4.93-.18,5.21,2.65,5.25,6.38,0,3.91-.68,6.27-5.44,6.18-11.83-.24-23.67.13-35.49-.17-4.92-.13-6.36,1.65-6.16,6.35.31,7.65.21,15.33,0,23-.09,3.76,1.07,5.47,5.1,5.37,8.33-.21,16.66-.19,25,0,4,.09,4.63-2,4.59-5.34s-.29-5.63-4.44-5.49c-4.83.17-9.67-.14-14.49.06-5.11.21-4.92-3.06-5-6.6-.09-3.75.76-6,5.22-5.85,9,.22,18,.14,27,0,3.17-.06,4.08,1.34,4,4.18-.08,6.33.17,12.67-.12,19-.36,7.63-5.27,12.3-12.9,12.39q-16.74.19-33.48,0c-8.46-.11-12.78-4.6-12.86-13.2q-.13-16.25,0-32.49c.06-8.58,4.63-13.23,13.19-13.64h20.49Z"/><path d="M231.28,58.78c-4.92,4.32-8.9,3.2-10.47-3-.52-2.08-.78-4.23-1.24-6.82-2.41,1.63-3.29,4.41-5.65,5.68-3.87,2.07-6.39.83-7.06-3.47-.24-1.54,1-4.53-1.75-4.18-2.34.3-5.2,1.5-5.45,4.93a26.65,26.65,0,0,1-.91,6.4,7.26,7.26,0,0,1-7.2,5.2c-3.21,0-4.7-2.09-4.84-5.42-2.47,1.61-3.13,6.12-6.72,4.32-4.87-2.44-3.66-7.69-4.4-12.5-2.76,1.93-4.32,5.35-7.84,5.13s-4.52-3.44-5.91-6.45c-2.61,2.85-4.8,5.51-7.28,7.86-1.7,1.61-3.88,2.9-6.35,1.67-2.3-1.14-1.91-3.56-2.38-5.66-.59-2.6,3-6-1.44-7.82-3.23-1.29-11.8.74-13.88,3.45-3.1,4-6.57,7.52-11.36,9.48-3.19,1.3-6.42,1.66-8.35-1.78s-.22-6.37,2.72-8.59c2.61-2,5.74-2.55,8.84-3.24,6.09-1.36,10-10.14,6.84-15.5a3.89,3.89,0,0,0-3.7-2.1,18.27,18.27,0,0,0-4.38.86c-2,.61-4.49,2.61-5.89.33-1.6-2.62,1.83-3.37,3.27-4.61A27.81,27.81,0,0,0,127,10.82c.64-1.86,1.64-4.09-.58-5.41s-3.76.43-5.12,1.92c-7.18,7.88-11.54,17-12.18,27.78-.39,6.65-1.24,13.26-1,19.94,0,1.37.35,3.38-1.87,3.4-1.71,0-2.49-1.52-2.91-3a9.78,9.78,0,0,1-.31-3c.54-16.18,1.85-32.26,7.43-47.64.71-2,.78-5.66,3.91-4.68s2.24,4.31,1.39,6.9C115,9.24,114.2,11.4,113,14.88c3.13-3.78,5.2-6.68,7.69-9.17s5.43-4.51,8.92-2.59,2.58,5.36,2,8.52a22.07,22.07,0,0,1-6.83,12c8.88,3,11.61,8.83,9.25,17.22-.38,1.35.07,2.34,1.6,2.46s2.86-.19,2.69-2a13.37,13.37,0,0,1,1.28-6.78c.63-1.42,1.42-2.87,3.33-2.12a3,3,0,0,1,2,3.64c-2.06,5.95-.15,7.29,5.49,5.3,2.61-.91,3.8.37,3.19,3.14-.5,2.27-1.06,4.54-1.41,6.83-.17,1.09-.4,2.51.89,3.12s2.14-.6,2.87-1.42a38.8,38.8,0,0,0,8-13.73,14.41,14.41,0,0,1,5.43-7.59c.67-.47,1.5-1.12,2.21-1.06,4.2.3,8.15,1.24,10.53-4.22.76-1.74,3.37.72,3.9,2.76.62,2.38-.45,4.58-1.17,6.79a62.51,62.51,0,0,0-3.54,19.57c0,1.22-.38,3,1.51,3.18,1.39.14,1.88-1.29,2.26-2.34,2.1-5.9,5-11.54,2.84-18.29a9.18,9.18,0,0,1,6.37-11.4c4.69-1.1,7.21,1.62,6.12,6.92-1.35-1.48-.22-5.18-3.48-4.38-2.53.61-3.37,3.08-3.58,5.5-.41,5,3.35,8.17,5.3,12.13.66,1.34,2,.47,3.08,0,3.26-1.64,5.82-3.79,6.49-7.68a30,30,0,0,1,1.62-5.25c.63-1.73,1.29-3.76,3.8-2.76,2.15.86,2.27,2.74,1.6,4.63-1.44,4.09-3.08,8.13-3.1,12.55,0,1.42-.65,3.39,1,4s2.34-1.37,3.29-2.41c4.06-4.47,4.7-10.15,5.52-15.76A104.11,104.11,0,0,1,229,8.74a19,19,0,0,1,4.57-6.47C235.19.78,237,0,239.08.88c2.3,1,2.83,3.16,2.61,5.45A43.3,43.3,0,0,1,238,19.26c-1.88,4.45-3.57,9.16-6.72,12.78-5,5.78-5.62,12.63-5.72,19.61,0,3.19,0,7.14,5.17,6.65Zm-3.5-25A65.14,65.14,0,0,0,239.58,9c.33-1.4,1-3.43-.48-4.14-2-1-2.79,1.28-3.55,2.58C230.77,15.55,229.55,24.76,227.78,33.83ZM177,38c-.09-1.63.33-3.73-1.52-4.4-2.18-.79-3.22,1.26-4.14,2.77C169.2,39.89,169,44,168.46,47.89A2.64,2.64,0,0,0,170,50.81c1.58.66,2.5-.5,3.21-1.63C175.32,45.77,177,42.16,177,38Z"/><path d="M343.59,176.8c-7,0-14-.18-21,0-4.83.16-4.8-2.82-4.8-6.2s-.09-6.35,4.74-6.29c12.16.15,24.32-.09,36.47.11,4.24.07,5.93-1.16,5.89-5.65s-2-5.31-5.81-5.24c-8.66.17-17.32.11-26,0-10.6-.09-15.2-4.74-15.29-15.27-.15-18.15,2.57-20.92,20.61-20.93,11.16,0,22.32.16,33.48-.06,4.78-.1,5.44,2.34,5.38,6.23-.06,3.7-.27,6.42-5.23,6.32-12.16-.25-24.32.07-36.47-.15-4.21-.07-5.48,1.47-5.46,5.52s.62,6.24,5.41,6.09c9.48-.3,19-.13,28.47-.08,8.3.06,13,4.63,13.18,12.93.1,3.49.15,7,0,10.49-.37,7.19-4.91,11.7-12.1,12-3.66.17-7.33.06-11,.06Z"/><path d="M6.76,150.83c0-6.66-.08-13.32,0-20,.1-8,4.57-13.1,12.44-13.3q17.24-.44,34.48,0c7.22.18,12.19,5.25,12.32,12.55.24,14,0,28,.14,42,0,4.8-2.87,4.76-6.26,4.76s-6.43.09-6.18-4.77c.24-4.65-.06-9.33.06-14,.09-3.2-1.27-4.49-4.45-4.45-8.66.09-17.32.07-26,0-3,0-4.21,1.31-4.17,4.24.06,4.82-.12,9.66,0,14.49.12,5-3.36,4.37-6.52,4.44s-6.05.08-5.93-4.49C6.9,165.16,6.76,158,6.76,150.83Zm29.41-9.59c4.48,0,9-.05,13.44,0,4.72.06,4-3.31,4.15-6.26s-.14-5.27-4.09-5.2q-13.19.22-26.38,0c-4.38-.06-4.14,2.8-4.12,5.71s-.33,5.88,4.06,5.76S31.86,141.25,36.17,141.24Z"/><path d="M299.28,150.85c0,7.16-.14,14.33.05,21.49.11,4.58-2.77,4.53-5.94,4.47s-6.63.54-6.51-4.46c.12-4.83-.06-9.66,0-14.49,0-2.94-1.24-4.24-4.19-4.22-8.66.05-17.33.07-26,0-3.18,0-4.53,1.25-4.45,4.46.12,4.82-.1,9.66,0,14.48s-3.17,4.2-6.15,4.24-6.23.36-6.2-4.26c.07-14.16-.21-28.32.17-42.47.22-8,5.31-12.48,13.31-12.6,10.82-.16,21.65-.18,32.47,0,8.83.15,13.32,5,13.39,13.89,0,6.5,0,13,0,19.49Zm-29.6-21c-4.32,0-8.64.17-12.95-.05-4.12-.21-4.6,2.13-4.47,5.35.12,3-.36,6.2,4.3,6.14q13.2-.15,26.4,0c4.47,0,3.85-3.09,3.93-5.88.09-3,0-5.75-4.26-5.58S274,129.85,269.68,129.84Z"/><path d="M222,142.8c0,6.33.15,12.66,0,19-.32,10.82-4.67,15-15.42,15-10,0-20,.05-30,0-9.06,0-13.8-3.7-14.14-12.53-.56-14.29-.35-28.62-.25-42.93,0-5.47,4.52-3.56,7.49-3.88,3.29-.35,5.44.62,5.4,4.56-.09,12,0,24,0,36,0,6.27.15,6.41,6.48,6.43,7.33,0,14.65-.15,22,.06,4.08.12,5.63-1.33,5.57-5.48-.18-11.81.11-23.64-.15-35.45-.11-4.92,1.84-6.27,6.48-6.22,4.41,0,6.92.88,6.66,6C221.73,129.81,222,136.31,222,142.8Z"/><path d="M230.74,58.3C236.05,50.8,241,43.16,243,34c.36-1.7,1.16-3.91,3.7-2.8,2.29,1,2.29,3,1.48,5.1-1.68,4.37-3.22,8.77-3.07,13.55,0,1-.15,2.17,1,2.61s1.82-.54,2.42-1.3a33.5,33.5,0,0,0,5.75-9.88c3.22-9.28,4.49-10.06,14.46-9.39,2.05.13,1.66-1.71,2.34-2.66,1-1.4,1.37-4,3.84-2.91s3.35,3.19,2.3,5.81a78,78,0,0,0-4.64,19.38,17.77,17.77,0,0,0-.33,3c.06,1.56-.61,3.76,1.63,4.13,1.92.32,2.18-1.81,2.65-3.11a107,107,0,0,1,4.51-11.55c-.92,6.27-1.59,12.69-6.37,17.59-2.43,2.5-4.53,1.29-5.91-1.43-1.54-3-2-6.32-1.88-10.48-3,2.34-4.64,5.74-8.18,5.38-3.74-.39-4.32-3.65-5.28-7.22-2.78,2.68-4.11,6.59-7.79,7.57-5.13,1.37-5.37-2.82-6.28-6.68-3.09,3.59-4.66,7.64-8.08,10.12ZM260,46.38c.61,1.11-1.07,3.87,1.76,4.42,2.11.4,2.86-1.87,3.7-3.42a30.34,30.34,0,0,0,3-9.37c.3-1.69.06-3.52-1.69-4.26-1.94-.82-3,.77-3.89,2.19A20.68,20.68,0,0,0,260,46.38Z"/><path d="M70,87c-.06-10.67-.06-10.67,10.23-10.64,1.5,0,3,0,4.5,0,3.19-.08,6.08.26,6.81,4.2s.23,7-3.94,8.57c-.86.32-2.3.25-2.09,1.62.18,1.2,1.33,1.84,2.45,2.28,1.56.6,4.42.41,3.3,3.11s-3.92,1.88-5.66.86c-2.24-1.31-4-3.44-6-5.21-1.11-1-2.2-2.37-3.86-1.75-1.83.67-1.37,2.42-1.29,3.89s.41,3.25-1.77,3.43C70.3,97.58,70,95.76,70,94,69.91,91.7,70,89.36,70,87Z"/><path d="M326,87.5c-.08-11.29-.08-11.29,11-11.12,1.66,0,3.32,0,5,.07,3.16.08,5.06,1.64,5.15,4.85.12,4.32.07,8.64,0,13,0,1.33-.2,2.82-2,2.93S342.9,95.8,343,94.48c.24-4.53-2.47-5-6.08-5s-7.19,0-6.86,5.23c.07,1.16-.36,2.44-1.87,2.5-1.82.07-2.12-1.37-2.18-2.72C325.89,92.16,326,89.83,326,87.5Z"/><path d="M369.19,97.68c-2,0-4,.08-6,0-1.6-.08-3.75.16-3.64-2.28.09-2,2-1.91,3.47-1.95,3-.09,6,0,9-.1,1.41,0,3.4.2,3.31-2-.08-1.72-1.81-1.69-3.12-1.75-2.33-.1-4.67,0-7-.17C360.76,89,358.81,86.48,359,82s2.61-5.76,6.56-5.66,7.66,0,11.49.05c1.46,0,3.33-.05,3.41,2s-1.79,2.1-3.26,2.15c-3.33.1-6.66,0-10,.15-1.16,0-2.51.23-2.53,1.79s1.33,1.78,2.5,1.83c2.49.11,5,.1,7.49.14,4.34.06,6.37,2.38,6.33,6.61s-1.78,6.68-6.3,6.56C372.86,97.64,371,97.68,369.19,97.68Z"/><path d="M302.32,76.16c1.34,0,2.67,0,4,0,6.16-.09,7.65,1.34,7.8,7.51.33,14,.29,14.07-13.83,14.06-8.44,0-8.38,0-7.62-8.73a29.08,29.08,0,0,0-.1-7.46c-.77-4.5.58-6.37,5.28-5.41A23,23,0,0,0,302.32,76.16Zm6.6,10.49c1.89-5.63-1.3-6.3-5.94-6-5.63.31-5.63.51-6,7.08-.26,5.4,2.61,5.65,6.78,5.81C309.14,93.7,310.2,91.29,308.92,86.65Z"/><path d="M248.07,76.41c1.66,0,3.32,0,5,0,1,0,2.23,0,2.9.5,5.47,4.37,2.7,10.42,2.81,15.77.08,3.93-3,5.13-6.62,5-2.66-.09-5.32,0-8,0-5.5-.12-6.93-1.57-7.17-7.2-.05-1,0-2,0-3C236.94,76.44,237,76.39,248.07,76.41Zm-5.91,10.52c-.81,4.36.5,6.62,5.65,6.59,4.72,0,6.42-1.52,6.31-6.29-.11-4.27-.67-6.83-5.9-6.69C243.63,80.66,241.15,81.8,242.16,86.93Z"/><path d="M0,49.57c7.92-8,17.64-8.06,27.45-6.57,13.63,2.07,27.09,5.26,41.05,4.45C77,47,85.4,46.26,93.67,44.19c1.32-.33,2.74-1.34,4.69.68a142.25,142.25,0,0,1-25.89,5.81c-13.24,1.52-26.12-.41-39-3.57C22.21,44.33,10.71,41.1,0,49.57Z"/><path d="M384.14,49.16c-4-.8-7.28-3.49-11.31-4.39-8.2-1.82-15.91.73-23.53,2.73A106,106,0,0,1,289.36,46c-.79-.24-1.59-.46-2.36-.77-.25-.11-.41-.47-.72-.85,1.06-1.32,2.34-.62,3.49-.34a127.19,127.19,0,0,0,55.86.85c7.5-1.54,15.05-2.86,22.75-2.41C374.42,42.81,379.86,44.67,384.14,49.16Z"/><path d="M136.92,86c0-2-.07-4,0-6,.08-1.62-.05-3.71,2.34-3.63,2.11.08,1.82,2,1.87,3.47.09,3.15,0,6.31.09,9.47.09,5,3.89,4,6.89,4.08s5.88.27,5.79-4.07c-.08-3.49,0-7,.09-10.47,0-1.43.52-2.7,2.23-2.74a2.4,2.4,0,0,1,2.51,2.56c.27,4.8,1.23,9.87-.36,14.36-3,8.34-10.49,3.83-16,4.52-4.28.53-5.56-2.76-5.47-6.58,0-1.66,0-3.33,0-5Z"/><path d="M14.91,97.63C3,97.7,2.93,97.6,3,85.77c0-8.74.65-9.35,9.33-9.4,2.82,0,5.64-.15,8.46-.27,1.69-.08,3.62-.37,3.85,2s-1.72,2.48-3.41,2.54c-2.16.08-4.32,0-6.48,0-6.4,0-6.66.29-6.68,6.25,0,6.15.24,6.42,6.44,6.48,2.49,0,5,0,7.48.1,1.19,0,2.43.37,2.55,1.84.15,1.79-1.21,2.22-2.61,2.27C19.56,97.69,17.24,97.63,14.91,97.63Z"/><path d="M47.31,76.3c2.49,0,5,0,7.49,0,1.35,0,2.82,0,3,1.81s-1,2.24-2.5,2.46c-1.87.28-4.41-.39-4.95,2.27a16.33,16.33,0,0,0,.21,8.88c.78,2.17,3.09,1.46,4.82,1.77,1.22.23,2.33.59,2.28,2.11s-1.19,2-2.42,2c-5.32.07-10.65.07-16,.05-1.27,0-2.36-.44-2.23-2,.12-1.41,1.11-1.88,2.37-2.1,1.86-.33,4.43.52,5.16-2a17.07,17.07,0,0,0,0-8.89c-.59-2.32-2.9-1.76-4.64-2s-3-.75-2.76-2.75,1.81-1.57,3.13-1.57h7Z"/><path d="M180.44,76.46c3.2,0,5.7,0,8.19,0,1.33,0,2.85.17,3,2s-1.37,2.21-2.72,2.14c-5.81-.3-5.77,3.58-5.68,7.65.07,3.09,1.05,5.12,4.57,5.19,1.55,0,3.86-.27,3.79,2.11-.08,2.68-2.58,2.1-4.26,2.14-4.49.09-9,0-13.47,0-1.5,0-3.24-.12-3.16-2.25.06-1.76,1.62-2.06,3-1.93,5.31.52,5.29-2.86,5.35-6.67s-.51-6.64-5.32-6.21c-1.56.14-3.21-.32-3.13-2.33.09-2.34,1.91-2.3,3.67-2.18C176.5,76.25,178.82,76.36,180.44,76.46Z"/><path d="M114.54,76.31c3.53,0,5.69,0,7.85,0,1.25,0,2.36.38,2.4,1.92a2,2,0,0,1-2.15,2.24c-3.32.15-6.66.31-10,.16-5-.22-4.59,3.13-4.58,6.37s-.43,6.63,4.55,6.39c3-.15,6,0,9,.06,1.33,0,2.85.17,3,1.94s-1.32,2.18-2.69,2.2c-4.49.05-9,0-13.47,0a4.83,4.83,0,0,1-1.92-.49c-3.35-1.61-4.64-9.12-3.09-16.22,1-4.63,4.37-4.88,8-4.84A23.06,23.06,0,0,1,114.54,76.31Z"/><path d="M36.27,115.59c-2.07-.61-5.78,1.45-6.82-1.25-.76-2,3-3.49,4.37-5.51,4.76-7.21,12-6.54,19.14-6.16,1.76.09,2.95.6,1.66,2.78A21.67,21.67,0,0,1,36.27,115.59Z"/><path d="M214.84,76.46c2.33,0,4.66-.06,7,0,1.34,0,2.79.29,2.82,2.09,0,1.52-1.21,2-2.38,2-5.25-.33-5.39,3-5.23,6.83.1,2.32,0,4.65-.08,7-.07,1.6-.55,3.09-2.52,3s-2.3-1.65-2.35-3.2c-.09-2.82-.16-5.65-.07-8.46.1-3.13-.74-5.19-4.39-5.1-1.45,0-3.32,0-3.19-2.18s2-1.92,3.44-2c2.32-.09,4.65,0,7,0Z"/></g></g></g></svg>