<svg id="Layer_1" data-name="Layer 1" xmlns="http://www.w3.org/2000/svg" viewBox="0 0 44 44"><title>fruto</title><rect x="0.14" y="0.16" width="43.67" height="43.55" rx="21.78" ry="21.78" style="fill:#f7a3ce"/><path d="M20,27.47a5.62,5.62,0,1,0,7.68-2A5.62,5.62,0,0,0,20,27.47Zm1.62.94A3.75,3.75,0,1,1,23,33.53,3.75,3.75,0,0,1,21.66,28.41Z" style="stroke:#000;stroke-miterlimit:10"/><path d="M7.88,31.88a9.42,9.42,0,0,0,13.17,6.93A9.35,9.35,0,0,0,33,35a9.25,9.25,0,0,0,1.18-5.8,9.44,9.44,0,0,1,1.19-5.81,5.61,5.61,0,0,0-1.28-7.14,3.79,3.79,0,0,1,4.41-1.81,1,1,0,0,0,1.16-.65A.93.93,0,0,0,39,12.61a5.66,5.66,0,0,0-6.54,2.68,5.62,5.62,0,0,0-6.83,2.45,9.19,9.19,0,0,1-2.71,3,9.35,9.35,0,0,1-.16-1.67,5.68,5.68,0,0,0-4.68-5.6,4.1,4.1,0,0,1,3-3.92.94.94,0,0,0-.46-1.82,5.88,5.88,0,0,0-3.21,2.13,5.26,5.26,0,0,0-.57.9,5.25,5.25,0,0,0-.51-.89,5.17,5.17,0,0,0-4.21-2.16H10.62a.93.93,0,0,0-.89.64,5.28,5.28,0,0,0,.74,4.74,5.1,5.1,0,0,0,2.75,2l0,0a5.66,5.66,0,0,0-1.64,4,9.45,9.45,0,0,1-1.94,5.62A9.34,9.34,0,0,0,7.88,31.88ZM27.26,18.71l0,0a3.75,3.75,0,0,1,6.49,3.75,11.3,11.3,0,0,0-1.42,7A7.5,7.5,0,1,1,22,23.4,11,11,0,0,0,27.26,18.71ZM12,12a3.38,3.38,0,0,1-.63-2.42h.83A3.28,3.28,0,0,1,14.88,11a3.41,3.41,0,0,1,.62,2.42h-.83A3.27,3.27,0,0,1,12,12ZM11.12,25.8a11.38,11.38,0,0,0,2.31-6.75,3.75,3.75,0,1,1,7.49,0,11.58,11.58,0,0,0,.31,2.62,9.38,9.38,0,0,0-2.64,15.54l.41.34a7.56,7.56,0,0,1-9.27-6A7.49,7.49,0,0,1,11.12,25.8Z" style="stroke:#000;stroke-miterlimit:10"/></svg>