<svg xmlns="http://www.w3.org/2000/svg" viewBox="0 0 124.35 160.89"><title>parque-educador</title><g id="Layer_2" data-name="Layer 2"><g id="Layer_1-2" data-name="Layer 1"><path d="M72.93,72.35c6.95,5.16,7.21,5.91,4.43,15.38l22.79-22.55,1.14.95c-1.05,1.26-2.05,2.57-3.15,3.8a84.43,84.43,0,0,0-16.7,28.15c-4.28,11.86-2.34,23.7.14,35.44,1.37,6.47,3.84,12.71,5.79,19.06.32,1,.5,2.12,1.11,4.77-5-3.58-8.8-6.37-12.66-9-6.65-4.63-7.08-4.65-13.1.89-2.81,2.59-5.27,5.56-8,8.27-1.25,1.25-2.7,2.29-4.06,3.43l-1.3-.58c.42-2.27.7-4.58,1.28-6.81,2.77-10.77,6.64-21.38,8.21-32.31,2.69-18.83-1.6-25.13-18.45-37-.79,5.71-3.5,10.26-8.62,12.61-2.45,1.13-6.59,2.13-8.1.9-2-1.6-2.55-5.43-2.82-8.39-.19-2.12,1.13-4.38,1.53-5.75-2.71-1-7.18-1.92-7.22-3-.16-4.1,1.07-8.27,1.85-12.79-1.06,0-3.44.09-5.82,0-4.14-.18-8-1.07-9.92-5.33S-.64,53.58,2.5,50.21c3.61-3.87,8.19-6.85,11.49-9.53-4.45-1-6.42-9.3-2.58-16.84C14.89,17,22.67,15,30.06,19.44c-.49-6.25,1.68-11.1,6.62-14.63A21.63,21.63,0,0,1,53.31,1.27c5.39.92,10.56,3.18,13.16,3.51,2.54-1.27,5-2.85,7.65-3.71C76.47.3,79.08.32,81.58,0c.24,2.51.56,5,.67,7.52a5.47,5.47,0,0,1-.72,2l5.16,5.52c.59-.91,1.4-2.34,2.35-3.66,2.34-3.25,7.71-4.8,11.11-3,4.31,2.27,3.28,6.28,2.34,9.7-1.72,6.28-1.27,6.91,5.2,8.1,2.25.41,4.24,2.45,6.24,3.9,1,.72,1.56,2.1,2.61,2.66,8.19,4.36,10.48,12.08,4.29,19.06-3.77,4.25-9.57,6.71-14.46,10l.12-.12a12,12,0,0,0-10.36,4.17c-2.51,2.67-6.65,4.08-10.32,5.26-2.85.91-2.81,1.78-1.63,4,.57,1.11.26,2.68.34,4-1.54-.63-3.56-.85-4.52-2a8.92,8.92,0,0,1-1.74-5.51V62.79l-5.48,9.69c-.36-1.52-.71-3-1.29-5.53-5.26,6.82-16.95,3.33-18,14.64-.87-5.54,0-9,3.09-14,.11-.17.55-.15,1.1-.28.13,1.34.26,2.62.45,4.56l5.53-3.55c-8-5.09-13.8-2.63-14.82,5.6-.58,4.69-3,6.47-8.54,5.87C39,79.6,37.78,78.61,36.52,78l2.41-4.44,2,4.59,1.62.37L46.24,70c-7,1.26-12.63,1.65-12.25,9.27-1.24-.61-2.15-1.46-2.72-1.27-4.35,1.43-8.12,8.38-7.3,13.07.47,2.72,1.86,3.66,4.57,2.78,6-1.94,8.31-6.46,6.4-13.38,10.12.2,17.12,8.22,26.22,10.12a55.74,55.74,0,0,0-1.88-5.25c-2.57-5.4-1.17-9.93,4.36-11.83C66.53,72.53,69.82,72.7,72.93,72.35ZM30.43,55l4.83,3.62.67-1.14c-.87-2.34-1.73-4.68-2.74-7.41l-2.83,5.12c-2.77-10.29-5.89-12.3-14.15-9.11,4.31,0,8.26,1.16,9.47,5.66,1.54,5.75-2.39,9.17-7.16,12.58l7.92-1.8V66l1.69-.23a28,28,0,0,0-.93-5C25.56,56.4,26.43,54.71,30.43,55Zm26.86-44.6c-.23-1.19-.45-2.37-.68-3.56L45,9.93l.57,2.54,11.93-2.25c-1.33,1.14-2.51,2.58-4,3.35a76.43,76.43,0,0,1-7.54,2.94l-1.54-3.05-.9.38c.67,2.36,1.34,4.72,2.15,7.54a23.65,23.65,0,0,1-2.87-1.08c-.93-.48-1.76-1.14-2.77-1.8-1.72,6.33-1.38,6.92,4.9,9.09l1.86.94,11.06,2.88c-2.93,1.16-5.66,1.1-8.39,1.17-2.4.06-5.13-3.5-7.68.63,4.4-.09,6.36,2.18,4.39,5.06-2.74,4,.12,5.25,3.31,7.52-2,2.59-4,5.14-6,7.68l-1.18-.92L45,57.32c3.68-5.85,7.55-12,12.11-19.28.25,2.92.39,4.71.68,8.14C60.53,43.55,64,41.67,63.9,40c-.25-3.84-4.3-3.87-7.08-3.25-3.16.7-6,2.59-9,3.94-.08-4.23,2.54-6.26,8.46-6.92,2.09-.23,4.1-1.25,6.15-1.91l.19-1.27c-5.3-1.84-6.63-5.41-5.07-10.23C68.3,20.2,68.3,20.2,64.44,30c0,.09.16.28-.15-.22h15v.51l-6.08,1.42.15,1.08,8.34,2.5V23C74.51,28,74.51,28,73.38,26.07l10.09-6.15c-7.59,1.55-7.59,1.55-8.14-1.51,5.92-.3,5.92-.3,7.45-4.15C76.45,12.71,72.25,16,68.63,20.51,63.91,13.67,63,13.31,59,16.43L55.24,18.1l-5.57,3.23c.47-3.26.47-3.26,10.62-9.81Zm50,30.87c-.18-1.38-.35-2.77-.65-5.09l8.92,7.75-6.83,7.69-4.56-2.49-.68,1.26c2.85,3.34,8.51,4.11,11.84,1.6,4.18-3.16,5.63-9.18,3.08-12.82-2.78-4-10.82-4.83-15.88-1.93l4.75,4c1.77,3.14-.83,3.84-2.77,4.36-2.89.79-5.29,1.6-5.82,5.15-.11.74-2.82,2-3.17,1.67-4-3.57-6.6.1-10.26,1.79,3.83,2.24,1.24,3.42-1.58,5.09h4.68l-2.29,5.35,1.47.61c1-1.23,2-2.45,3-3.67l1,.5c-.47,1.64-.93,3.28-1.78,6.26l7.69-6.46c-6.32-3.83-7-5.49-4.71-9.85,4.17,5.76,7,6.52,13.7,4.39-1.44-2-3.14-4.26-4.85-6.56l7.74-5.44C109.07,44.07,108.18,42.69,107.3,41.26ZM68.82,62.79c-8.12,2.13-9.6-5.9-14.39-8.7-.91,3.38-1.71,6.31-2.34,8.64l15.56,4c2.75-2,4-8.67,10.69-7.63a45.59,45.59,0,0,1,3.41-5.55,48.81,48.81,0,0,1,5-4.71L82.6,45c-2,10.58-4.65,13.35-14.78,15C69,54.6,70.17,49.6,71.3,44.61l-.61-.22c-.41.81-.83,1.62-1.25,2.43H68l-.66-9.64c2.1,9.22-5.53,9.83-12.42,12.33Zm-51.63-30,.18-1.1c1.37.14,2.75.25,4.11.44s3.56.69,3.58.61c.8-3.36,2.37-7,1.76-10.12-.59-3-4.49-4-7-2a22.82,22.82,0,0,0-6.95,8.65c-.85,2.12.2,6,1.84,7.77,1.14,1.24,4.71.24,7.19.24l.13-1.77ZM75.37,81.59a6.78,6.78,0,0,0-6.46-6.8c-3.87-.1-6.86,3.92-6.8,9.26,0,3.12.31,6.18,4.59,6.1S75.4,85.76,75.37,81.59ZM17.25,77.67c8.24,1.55,16.94-4.64,18-13.82-2.79,1.8-4.8,3.13-6.84,4.39-1,.63-2.13,1.63-3.19,1.62C20.46,69.82,18.13,71.89,17.25,77.67ZM70.52,42.43c2.37,0,5,.83,6.48-.15,5.45-3.68,11.1-4.06,18.18-1.88L85,25.39c-.67,5.42,3,14-8.53,11.65-.14,1.51-.23,2.63-.41,4.6l-3.65-3.37Zm-42,.75c2.42,1.73,4.09,3.9,5.73,3.87,3,0,3.6-2.56,3.37-5.47-.18-2.19.49-4.45.92-7.66L32,39.13,35.39,30c-3.79,0-7.48,2-7,5.17.44,2.67,4.43,4.75,6.95,7.19ZM89.89,21.33c2-.65,4.19-2.12,5.94-1.74,4.4.94,4.23-2.08,4.49-4.52.33-3-1.2-4.6-4.42-4.35C91.3,11.08,88,17.06,89.89,21.33ZM76.13,44.2,74.22,45Q72.6,50.3,71,55.6l1.44,1.28C75,54.55,78,52.47,80,49.71,80.4,49.12,77.49,46.1,76.13,44.2ZM72.84,12.9c4.43-1.7,8-3.83,7.29-9.45C73.49,2.77,71.77,5,72.84,12.9ZM12.38,49.68c2.73,1,5.8,1.56,8.19,3.16.64.43-.16,4.41-1.36,5.89-2.86,3.53-6.16,2-9.5.11,1.36,1.72,3,3.32,4.74,3.44a6.84,6.84,0,0,0,7.47-6c.32-2.22-1.2-5.33-2.89-7.07A4.21,4.21,0,0,0,12.38,49.68Zm87.45-9.15-1.59-1.42L91.55,46.8l5.19,2.51ZM16,50.77c-1.4,2.17-2.71,3.43-3,4.88-.18,1,1.1,2.25,1.72,3.39a24.72,24.72,0,0,0,4.09-4.16C19.14,54.45,17.46,52.79,16,50.77Zm69.7-4.56,2.6,1.28,2.86-5.18-3.34-1.46C87.14,42.64,86.43,44.42,85.73,46.21Zm-20-22.1C63.88,23,62.42,21.73,62,22a6.1,6.1,0,0,0-2.31,3.29c-.15.57,1.66,2.3,1.81,2.21A35.37,35.37,0,0,0,65.75,24.11ZM4.62,56.26,3.15,57.38,9,64.78l1.1-.89Z"/><path d="M106.37,61.82c5.35-.52,11.12,4.85,12.5,11.64,1.06,5.21-1.22,9.66-7,10.74-5.18,1-10.69.4-16,.25-1.69,0-3.35-.92-6.08-1.72,1.58-2.1,2.73-4.2,4.4-5.72,4-3.69,8.2-7.24,12.51-10.59,2.47-1.92,2.29-3.25-.18-4.73Zm-3.23,16.1.83,2c3.28-.73,6.7-1.16,9.73-2.47.5-.22-.67-4.3-1.25-7.62Z"/><path d="M44.87,27.59c-.34-.37-.84-.68-1-1.11a13.56,13.56,0,0,1-.74-3.19,3.26,3.26,0,0,1,1.58-.6,38.61,38.61,0,0,1,2.13,4.06l8.36-8.63L59,16.43l3.41-1L63,16.5l-5.28,4.05a78.43,78.43,0,0,1-6,5.65c-1.41,1.08-3.28,1.58-5,2.33Z"/><path d="M67.94,48.85l-1.36,7.66c-1.71-.42-4.51-.57-4.65-1.24-.4-2.05.24-4.3.46-6.47l1.55.25c-.23,1.49-.45,3-.68,4.47l.93.44,2.89-5.39Z"/></g></g></svg>