<svg id="Layer_1" data-name="Layer 1" xmlns="http://www.w3.org/2000/svg" viewBox="0 0 44 44"><title>Ponto de Encontro Comunitário - PEC</title><rect x="0.14" y="0.16" width="43.67" height="43.55" rx="10.38" ry="10.38" style="fill:#896bff"/><path d="M12.29,13.56a12.2,12.2,0,0,0-3.41-.4H4.51V30.84H7.43v-6.9H9a9.6,9.6,0,0,0,3.76-.56,4.35,4.35,0,0,0,1.95-1.81,6,6,0,0,0,.72-3,5.79,5.79,0,0,0-.89-3.25A4,4,0,0,0,12.29,13.56Zm-.72,7.31a3.87,3.87,0,0,1-2.69.72H7.43V15.43H8.88a7.46,7.46,0,0,1,1.86.17,2.09,2.09,0,0,1,1.08.94,3.53,3.53,0,0,1,.49,2A3.22,3.22,0,0,1,11.57,20.87Z" style="fill:#fff"/><polygon points="19.7 22.91 25.34 22.91 25.34 20.56 19.7 20.56 19.7 15.51 26.89 15.51 26.89 13.16 16.77 13.16 16.77 30.84 27.01 30.84 27.01 28.44 19.7 28.44 19.7 22.91" style="fill:#fff"/><path d="M36.13,27.75a2.27,2.27,0,0,1-2,1q-3.39,0-3.39-6.5,0-7,3.39-7,2.53,0,3,4l2.72-.4q-.84-6-5.7-6a5.53,5.53,0,0,0-4.82,2.38q-1.66,2.38-1.66,6.85a12.22,12.22,0,0,0,1.57,6.62A5.31,5.31,0,0,0,34,31.16q4.95,0,5.78-5.89l-2.69-.38A7.13,7.13,0,0,1,36.13,27.75Z" style="fill:#fff"/></svg>