<svg id="Layer_1" data-name="Layer 1" xmlns="http://www.w3.org/2000/svg" viewBox="0 0 44 44"><title>Praia para Banho</title><g id="_Group_" data-name="&lt;Group&gt;"><rect x="0.14" y="0.16" width="43.67" height="43.55" rx="10.38" ry="10.38" style="fill:#896bff"/></g><path d="M33.67,21.14a2.76,2.76,0,1,0,2.75-2.76A2.75,2.75,0,0,0,33.67,21.14Z" style="fill:#fff"/><path d="M36.42,28.54l-2.11-2.35,0-.07-3.51-3.89L30.56,22h0l-1.24-1.38,6.1-5.7A.67.67,0,0,0,35.5,14l-1.28-1.37a.67.67,0,0,0-.94,0l-6.39,6a.67.67,0,0,0-.12.06l-1.32,1.19a.65.65,0,0,0,0,.92L28.38,24l-2.53,2.34a7.93,7.93,0,0,0-3.7,1.11,10.65,10.65,0,0,1-4.23,1.11l0,0-9.4-7.4a.81.81,0,0,0-1.14.07L5.94,23a.8.8,0,0,0,.2,1.12L9,26.36a8.19,8.19,0,0,0-4.69,1.11v3.38s3.68-2.53,8.94,0c0,0,3.67,2.55,8.94,0,0,0,3.67-2.53,8.94,0,0,0,3.67,2.55,8.93,0V27.47A11.13,11.13,0,0,1,36.42,28.54Z" style="fill:#fff"/><path d="M31.09,32.65c-5.27-2.53-8.94,0-8.94,0-5.27,2.54-8.94,0-8.94,0-5.26-2.53-8.94,0-8.94,0V36S8,33.5,13.21,36c0,0,3.67,2.54,8.94,0,0,0,3.67-2.54,8.94,0,0,0,3.67,2.54,8.93,0V32.65C34.76,35.19,31.09,32.65,31.09,32.65Z" style="fill:#fff"/></svg>