<svg id="Layer_1" data-name="Layer 1" xmlns="http://www.w3.org/2000/svg" viewBox="0 0 44 44"><title>Quadra de Areia</title><rect x="0.14" y="0.16" width="43.67" height="43.55" rx="10.38" ry="10.38" style="fill:#896bff"/><path d="M27.8,20.39A2.42,2.42,0,1,0,25.39,18,2.42,2.42,0,0,0,27.8,20.39Z" style="fill:#fff"/><path d="M36.57,18.16A2.15,2.15,0,1,0,34.42,16,2.15,2.15,0,0,0,36.57,18.16Z" style="fill:#fff"/><path d="M6.93,31.05l10.59-4.16L8.21,33.83a.76.76,0,0,0-.26,1l1,1.33a.75.75,0,0,0,1.05,0L20.63,28.3s0,0,0,0l5-3.76,10-3.16a.57.57,0,0,0,.42-.69l-.4-1.27a.57.57,0,0,0-.74-.32l-8.22,2.6a.53.53,0,0,0-.06-.1L24.28,18.7a1.27,1.27,0,0,0-.25-.22.74.74,0,0,0-.22-.1.44.44,0,0,0-.16,0,.21.21,0,0,0-.11,0l-11.75.49c-.37,0-.66.25-.65.53l.06,1.25c0,.27.32.48.69.47l8.75-.37L16.75,24,5.84,28.27a.76.76,0,0,0-.52.92l.6,1.54A.77.77,0,0,0,6.93,31.05Z" style="fill:#fff"/><path d="M28.37,36.68a2.11,2.11,0,0,0-2.05,0,2.08,2.08,0,0,1-2,0,2.1,2.1,0,0,0-2.05,0h0a2.1,2.1,0,0,1-2.05,0,2.1,2.1,0,0,0-2.05,0,2.1,2.1,0,0,1-2.05,0,2.1,2.1,0,0,0-2,0h0a2.11,2.11,0,0,1-2,0,2.08,2.08,0,0,0-2,0,2.1,2.1,0,0,1-2,0,2.1,2.1,0,0,0-2,0v.77a2.1,2.1,0,0,1,2.05,0,2.07,2.07,0,0,0,2.05,0,2.08,2.08,0,0,1,2,0,2.08,2.08,0,0,0,2,0h0a2.1,2.1,0,0,1,2,0,2.07,2.07,0,0,0,2.05,0,2.1,2.1,0,0,1,2.05,0,2.07,2.07,0,0,0,2.05,0h0a2.1,2.1,0,0,1,2.05,0,2.05,2.05,0,0,0,2,0,2.11,2.11,0,0,1,2.05,0,2.07,2.07,0,0,0,2.05,0v-.77A2.1,2.1,0,0,1,28.37,36.68Z" style="fill:#fff"/><path d="M36.57,36.68a2.1,2.1,0,0,0-2,0,2.1,2.1,0,0,1-2.05,0,2.1,2.1,0,0,0-2,0v.77a2.1,2.1,0,0,1,2,0,2.07,2.07,0,0,0,2.05,0,2.1,2.1,0,0,1,2,0,2.07,2.07,0,0,0,2,0v-.77A2.1,2.1,0,0,1,36.57,36.68Z" style="fill:#fff"/></svg>