<svg id="Layer_1" data-name="Layer 1" xmlns="http://www.w3.org/2000/svg" viewBox="0 0 44 44"><title>Veredas</title><rect x="0.14" y="0.16" width="43.67" height="43.55" rx="10.38" style="fill:#896bff"/><g id="EUofkf.tif"><path d="M30.25,30.11V24.36l.06,0,1,10c.32-1.33.7-2.56.91-3.81.37-2.24.64-4.5.93-6.75,0-.21.07-.53,0-.62-.73-.57-.51-1.27-.37-2,.3-1.55.61-3.1.91-4.66.18-.93.81-1.51,1.47-1.34s1,.87.82,1.77c-.36,1.77-.69,3.54-1.09,5.3a1.35,1.35,0,0,1-.62.89,1,1,0,0,0-.66.92,19,19,0,0,0-.26,2.85l.57-1.43c-.68,3.28-1.71,6.52-.92,9.94l1-1.49.2.07a13.78,13.78,0,0,0-1.11,8.23h-5l-.33-.73-.36.77c-.58-.17-1.42.44-1.69-.65a8.61,8.61,0,0,0-.69-1.89l.18,2.5H24.2l-.48-11.75h-.14V42.17H21.46l-.1-1.58h-.1l-.15,1.59H18l-.86-6.51v6.5H11.85c-.19-3.46-.57-6.95-.51-10.43A83,83,0,0,1,12.4,21.31v9.31c.39-7.79.69-15.38,2.95-22.72-.25,1.47-.59,2.93-.72,4.41-.36,4.26-.71,8.53-.91,12.8a12.61,12.61,0,0,0,.69,3.24c.09.42.15.84.25,1.38l.75-4.93.2,0v9.91a40.09,40.09,0,0,0,.19-14.22l.76,2.42.14,0c-.06-1.05-.11-2.1-.19-3.15,0-.15-.14-.39-.27-.43-.71-.25-.84-.82-.89-1.46-.12-1.66-.24-3.33-.38-5a1.37,1.37,0,0,1,.6-1.44c.2-.12.25-.49.32-.65a7.88,7.88,0,0,1,.6.64c.26.33.64.66.68,1,.22,1.85.34,3.71.47,5.57a1,1,0,0,1-.19.77c-.57.44-.48,1-.45,1.57.08,1.38.13,2.76.28,4.16L18,21.36l.11,0V34.32h.27l.3-4.83h.22v6.81l.39,0c.11-2.12.29-4.24.31-6.36s0-4.35-.19-6.51-.44-4.26-.75-6.37-.76-4.25-1.1-6.38a51.37,51.37,0,0,1,2.88,13.22V18.76h.14l.34,3.71h0V19.41l.3,0,.55,7.8c.53-4.77,1-9.56,2.76-14.09a78.45,78.45,0,0,0-1.91,17.48l1.85-13.33A45.66,45.66,0,0,1,27,27.83a14.76,14.76,0,0,0,.12-1.48q-.09-5-.24-10a1,1,0,0,0-.39-.69,1.59,1.59,0,0,1-.77-1.39c-.1-2.06-.2-4.11-.31-6.17a1.55,1.55,0,0,1,.71-1.49c.25-.18.3-.66.35-.81a8.1,8.1,0,0,1,1.1,1A2.3,2.3,0,0,1,28,8c.15,2,.22,4.06.33,6.09a1.54,1.54,0,0,1-.67,1.51.73.73,0,0,0-.28.51c0,2.52,0,5.05.1,7.57.7-.79.72-1.09.51-4.36.07.29.15.58.23.87s.15.64.28,1.15l.88-1.6s.08.1.07.11a7.55,7.55,0,0,0-.63,4.26c.17,3.09.05,6.21.22,9.35.27-.87.52-1.75.8-2.61a4.75,4.75,0,0,1,.41-.77,23.48,23.48,0,0,0-.64,7.08c.08,1,.21,2,.32,3,.2-.1.24-.19.24-.29.08-2.79.17-5.59.23-8.39A10.78,10.78,0,0,0,30.25,30.11Zm-5.59,3.3a49.47,49.47,0,0,0,.94-6.68,50.53,50.53,0,0,0-.73-6.68C23.75,24.51,24.5,29,24.66,33.41Zm3.83-9.61-.32,0c-.9,3.24-.54,6.57-.65,9.87l.35,0ZM13.76,35.33a19.84,19.84,0,0,0,0-8.71Zm12.3,2.91.35,0L26,29.62l-.37,0Zm-5.93,3.69.35,0,.35-7.69h-.19Zm-5.64-.34c.72-2.07.8-3.27.39-4.22Z" style="fill:#fff"/><path d="M11.67,42.18h-.81l-.19-2.1h-.11l-.41,2.1H8.9A23.93,23.93,0,0,0,8.28,33c.2.48.42,1,.59,1.44s.34,1.06.47,1.6.2,1.07.32,1.71c.73-2.38.29-5.67-1.2-9.46.22.35.45.69.63,1.05a11.68,11.68,0,0,1,.49,1.15c.16.41.29.82.44,1.23l.27,0L10,19.9a52.39,52.39,0,0,1,.86,11.59,39.5,39.5,0,0,0,.51,8.13C11.5,40.44,11.58,41.27,11.67,42.18Z" style="fill:#fff"/><path d="M34.36,42.16h-.77a16.53,16.53,0,0,1,2.42-8C35.65,35.4,35.22,36.68,35,38S34.56,40.73,34.36,42.16Z" style="fill:#fff"/><path d="M6.87,37.88A7.45,7.45,0,0,1,8.19,42.1c-.39.14-.65.24-.72-.36C7.31,40.42,7.07,39.1,6.87,37.88Z" style="fill:#fff"/><path d="M36.68,39.66l-.89,2.61-.4-.17,1.08-2.56Z" style="fill:#fff"/></g></svg>