<svg id="Layer_1" data-name="Layer 1" xmlns="http://www.w3.org/2000/svg" viewBox="0 0 44 44"><title>Circuito de Malhação</title><g id="_Group_" data-name="&lt;Group&gt;"><rect x="0.14" y="0.16" width="43.67" height="43.55" rx="10.38" ry="10.38" style="fill:#896bff"/></g><path d="M33,10.45H28.88V9.87a.38.38,0,0,0-.39-.39H27.25a.38.38,0,0,0-.38.39v.58H18.15V9.87a.38.38,0,0,0-.38-.39H16.53a.39.39,0,0,0-.39.39v.58H10.6v1.8h0V37.73h1.8V12.25h3.74V15.6c0,.38.7.63.91.63h.34a1.11,1.11,0,0,0,.56-.29h0l1.73-1.07v-2l-1.54.89V12.25h8.72V13.8l-1.53-.89v2L27.07,16h0a1.11,1.11,0,0,0,.56.29H28c.21,0,.9-.25.9-.63V12.25H33V37.73h1.79V10.45Z" style="fill:#fff"/><polygon points="23.27 23.73 21.98 24.37 21.24 26.98 23.89 25.85 23.27 23.73" style="fill:#fff"/><polygon points="22.61 26.44 24.25 26.98 23.91 25.91 22.61 26.44" style="fill:#fff"/><path d="M26.87,22.67a.51.51,0,0,0-.64-.31l-.56.26-.74-2.75,0-7.1c0-.19-.2-.34-.46-.34H20.56c-.25,0-.45.15-.45.34V20l-.55,2.67L19,22.38a.53.53,0,0,0-.68.25L18,23.4a.51.51,0,0,0,.25.67l.95.44-.33,1.58c-.21.78,1.25,1,1.59,1a.87.87,0,0,0,.76-.49l.57-2,.13-.28a.59.59,0,0,0,0-.29l.76-2.71,1.55,5.21c.3.86,1.64.47,1.81.37s.7-.57.51-1l-.35-1.29.86-.39a.51.51,0,0,0,.19-.68Z" style="fill:#fff"/><path d="M21.31,9.92h2.77a2.27,2.27,0,1,0-2.77,0Z" style="fill:#fff"/></svg>