<svg id="Layer_1" data-name="Layer 1" xmlns="http://www.w3.org/2000/svg" viewBox="0 0 44 44"><title>Esportes Aquáticos</title><rect x="0.16" y="0.17" width="43.67" height="43.55" rx="10.38" ry="10.38" style="fill:#896bff"/><path d="M22.15,31.36s3.67-2.53,8.93,0c0,0,3.67,2.54,8.93,0V28c-5.26,2.54-8.93,0-8.93,0a11.13,11.13,0,0,0-3.18-1h9.74a.13.13,0,0,0,.13-.13.12.12,0,0,0-.13-.12H29.81a.63.63,0,0,0,.3-.14l1-.88a.47.47,0,0,0,.09-.67l-3.88-4.29,2.06-3.46h.3a.57.57,0,0,0,.56-.59v-.84l.92-1.54a.76.76,0,0,0-.19-1,.64.64,0,0,0-.92.21l-.66,1.1h-12a.81.81,0,0,0-.71.88v10.2a.81.81,0,0,0,.71.89h3.44a.61.61,0,0,0,.18-.05.32.32,0,0,0,.21-.08l2.39-2.1-1.4,2.35H5.46a.12.12,0,0,0-.12.12.13.13,0,0,0,.12.13H7.09a7.52,7.52,0,0,0-2.8,1v3.38s3.67-2.53,8.93,0a8.43,8.43,0,0,0,5.53,1l-1.13,1.88a8.05,8.05,0,0,1-4.4-1.12c-5.26-2.54-8.93,0-8.93,0v3.38S8,34,13.22,36.54c0,0,3.67,2.54,8.93,0,0,0,3.67-2.54,8.93,0,0,0,3.67,2.54,8.93,0V33.16c-5.26,2.54-8.93,0-8.93,0-5.26-2.54-8.93,0-8.93,0a11.41,11.41,0,0,1-2.84,1L20.58,32A11.59,11.59,0,0,0,22.15,31.36Zm1.16-3.94.26-.44H25A8.32,8.32,0,0,0,23.31,27.42Zm6.37-.69h-6L26,22.86l3.4,3.75A.39.39,0,0,0,29.68,26.73Zm-3.34-7-.3-.32a.4.4,0,0,0-.35-.12.42.42,0,0,0-.29.09l-3.93,3.46V17.3h6.3ZM13.22,28A11.13,11.13,0,0,0,10,27H22l-.86,1.44A8.9,8.9,0,0,1,13.22,28Z" style="fill:#fff"/><path d="M20.64,13.06a2.76,2.76,0,1,0-3.88-.46A2.75,2.75,0,0,0,20.64,13.06Z" style="fill:#fff"/></svg>