<svg id="Layer_1" data-name="Layer 1" xmlns="http://www.w3.org/2000/svg" viewBox="0 0 44 44"><title>Lanchonete</title><rect x="0.14" y="0.16" width="43.67" height="43.55" rx="10.38" ry="10.38" style="fill:#896bff"/><polygon points="26.39 37.64 34.64 37.64 38.9 19.16 22.13 19.16 26.39 37.64" style="fill:#fff"/><polygon points="22 19.16 22.13 19.16 22 18.59 22 19.16" style="fill:#fff"/><polygon points="38.99 18.32 38.99 18.74 39.44 16.8 29.67 16.8 28.41 9.16 22.13 10.19 22.35 11.55 27.28 10.73 28.28 16.8 21.59 16.8 22 18.59 22 18.32 38.99 18.32" style="fill:#fff"/><polygon points="38.99 18.74 38.9 19.16 38.99 19.16 38.99 18.74" style="fill:#fff"/><path d="M18.05,26.75H8.38c-2.06,0-3.72,1.38-3.72,3.08v4.63c0,1.71,1.66,3.09,3.72,3.09h9.67c2.05,0,3.71-1.38,3.71-3.09V29.83C21.76,28.13,20.1,26.75,18.05,26.75Zm3.54,5.13v.53a.67.67,0,0,1-.67.67H5.5a.66.66,0,0,1-.66-.67v-.53a.66.66,0,0,1,.66-.67H20.92A.67.67,0,0,1,21.59,31.88Z" style="fill:#fff"/></svg>