<?xml version="1.0" encoding="utf-8"?>
<!-- Generator: Adobe Illustrator 16.0.0, SVG Export Plug-In . SVG Version: 6.00 Build 0)  -->
<!DOCTYPE svg PUBLIC "-//W3C//DTD SVG 1.1//EN" "http://www.w3.org/Graphics/SVG/1.1/DTD/svg11.dtd">
<svg version="1.1" id="Layer_1" xmlns="http://www.w3.org/2000/svg" xmlns:xlink="http://www.w3.org/1999/xlink" x="0px" y="0px"
	 width="29.2px" height="40px" viewBox="0 0 29.2 40" enable-background="new 0 0 29.2 40" xml:space="preserve">
<g id="preenchimento">
	<g id="Layer_3">
		<circle fill="#57565B" cx="23" cy="34.8" r="2.4"/>
	</g>
	<path id="preesdfs" fill="#00C2F4" d="M18.7,25.8l6,9l-2.2,1.5L13,20.9l-0.2-7.2l-3,1.1l-0.3,7.4H7v-8l6.6-3.4h4.9L18.7,25.8z
		 M12.1,23.1l-2.5,4.3H2.2v2.4h8.7l2.7-4.4 M20,17.2l1.6,1.3H27v-2.3l-4.8-0.3L20,14.1 M17,3c-1.7,0-3,1.3-3,3c0,1.7,1.3,3,3,3
		c1.7,0,3-1.3,3-3C20,4.3,18.6,3,17,3z"/>
</g>
<g id="pi" opacity="0.2">
	<g>
		<g id="sombra_9_">
			<path  fill-opacity="0.2" fill="#001223" d="M23.2,35.8l-9.4-15.3l-0.2-7.2l-3,1.1v0.1l-0.8,0.3l-0.3,7H7.7v-8l5.9-3h4.9l0.1,14.9l6,9L23.2,35.8z
				 M13.6,25.4l-1.3-2l-2,3.5H9.8l-0.2,0.4H2.9v2h8.3L13.6,25.4z M20.7,14.7v2.1l1.6,1.3H27v-1.9l-4.8-0.3L20.7,14.7z M17,3
				c-0.4,0-0.8,0.1-1.1,0.2c-0.7,0.5-1.2,1.4-1.2,2.4c0,1.7,1.3,3,3,3c0.4,0,0.8-0.1,1.1-0.2C19.5,7.9,20,7,20,6C20,4.3,18.6,3,17,3
				z"/>
		</g>
	</g>
	<g opacity="0.2">
		<g id="sombra_8_">
			<path  fill-opacity="0.2" fill="#231F20" d="M23.2,35.8l-9.4-15.3l-0.2-7.2l-3,1.1v0.1l-0.8,0.3l-0.3,7H7.7v-8l5.9-3h4.9l0.1,14.9l6,9L23.2,35.8z
				 M13.6,25.4l-1.3-2l-2,3.5H9.8l-0.2,0.4H2.9v2h8.3L13.6,25.4z M20.7,14.7v2.1l1.6,1.3H27v-1.9l-4.8-0.3L20.7,14.7z M17,3
				c-0.4,0-0.8,0.1-1.1,0.2c-0.7,0.5-1.2,1.4-1.2,2.4c0,1.7,1.3,3,3,3c0.4,0,0.8-0.1,1.1-0.2C19.5,7.9,20,7,20,6C20,4.3,18.6,3,17,3
				z"/>
		</g>
	</g>
</g>
</svg>
