<svg id="Layer_1" data-name="Layer 1" xmlns="http://www.w3.org/2000/svg" viewBox="0 0 44 44"><title>Pista Downhill</title><rect x="0.14" y="0.16" width="43.67" height="43.55" rx="10.38" ry="10.38" style="fill:#896bff"/><path d="M29.13,14.66a2.43,2.43,0,1,0-2.67-2.17A2.43,2.43,0,0,0,29.13,14.66Z" style="fill:#fff"/><path d="M19.85,34.39a.85.85,0,1,0,.72-1A.85.85,0,0,0,19.85,34.39Z" style="fill:#fff"/><path d="M12.48,31.8a.84.84,0,0,0,1,.72.85.85,0,1,0-1-.72Z" style="fill:#fff"/><path d="M14.55,28.29a.51.51,0,0,0,.7,0l5.61-4.63a.63.63,0,0,0,.11-.12l1.47,1.77L19.6,30.37a.5.5,0,0,0,.11.68l1.45.81a.5.5,0,0,0,.63-.27l2.82-5.05h0l.59-1a.88.88,0,0,0-.14-1.18L23,21.94l5.32-4.41,6.1,2.76c.17.08.43-.11.57-.43l.33-.73c.14-.31.12-.63,0-.71L19.69,11.36c-.17-.08-.43.12-.57.43l-.33.73c-.15.32-.12.64.05.71L25,16l-5.58,4.6a.6.6,0,0,0-.12.83l.14.17-.14.09-5.61,4.62a.51.51,0,0,0-.16.69Z" style="fill:#fff"/><path d="M12.65,30.06l9.91,3.66.16,0a.45.45,0,0,0,.43-.3.44.44,0,0,0-.27-.58L13,29.21a.46.46,0,0,0-.59.27A.44.44,0,0,0,12.65,30.06Z" style="fill:#fff"/><path d="M36.05,41.63l-36.66-14a.36.36,0,0,0-.47.21.35.35,0,0,0,.21.47l36.66,14a.3.3,0,0,0,.13,0,.36.36,0,0,0,.13-.7Z" style="fill:#fff"/></svg>