<svg id="Layer_1" data-name="Layer 1" xmlns="http://www.w3.org/2000/svg" viewBox="0 0 44 44"><title>Ponto de Pesca</title><rect x="0.14" y="0.16" width="43.67" height="43.55" rx="10.38" ry="10.38" style="fill:#896bff"/><path d="M19.05,26.53l3.13,3.89-5.5,1.52a29.51,29.51,0,0,0,19.25,8.3h3.93V24.51S29,19.08,19.05,26.53Zm5.31,1.75a1.51,1.51,0,1,1,1.5-1.5A1.5,1.5,0,0,1,24.36,28.28Z" style="fill:#fff"/><path d="M40.05,9a11.17,11.17,0,0,0-9.21-1.19A24.09,24.09,0,0,0,22,13c-.28.24-.55.5-.82.74-1-.77-1.95-1.13-2.22-.83s.2,1.09,1,1.93a82,82,0,0,0-11.18,14,2.82,2.82,0,0,1-2.41.76,1.48,1.48,0,0,1-1.25-.94c-.24-.7-.19-2.19,1.77-5.11L8.8,25.76l1.55-6.51a.33.33,0,0,0,0-.46.34.34,0,0,0-.48,0C5.63,23.46,3.77,27,4.47,28.93a2.13,2.13,0,0,0,1.79,1.4,4.38,4.38,0,0,0,.51,0A3.32,3.32,0,0,0,9.32,29.3v0a81.37,81.37,0,0,1,11.12-14l0,0c1.15,1,2.32,1.5,2.62,1.16s-.34-1.35-1.41-2.3c.25-.22.49-.46.74-.67C29,7.91,34.79,6.59,39.68,9.62A.35.35,0,1,0,40.05,9Z" style="fill:#fff"/></svg>