<svg id="Layer_1" data-name="Layer 1" xmlns="http://www.w3.org/2000/svg" viewBox="0 0 44 44"><title>Vista Panorâmica</title><rect x="0.14" y="0.16" width="43.67" height="43.55" rx="10.38" ry="10.38" style="fill:#896bff"/><path d="M16.78,17.47a5.22,5.22,0,1,0-5.22-5.22A5.22,5.22,0,0,0,16.78,17.47Z" style="fill:#fff"/><rect x="23.25" y="10.01" width="1.06" height="1.15" style="fill:#fff"/><path d="M24.57,11.16l2.3.36V20H12.55a.4.4,0,0,0-.38.41V38.62a.39.39,0,0,0,.38.41H22a.39.39,0,0,0,.38-.41V24h7.85a.44.44,0,0,0,.4-.48V22.2h0V12.1l2.93.46V9l-9,1Z" style="fill:#fff"/><rect x="33.9" y="9" width="0.88" height="3.56" style="fill:#fff"/></svg>