<svg id="Layer_1" data-name="Layer 1" xmlns="http://www.w3.org/2000/svg" viewBox="0 0 44 44"><title>Viveiro</title><rect x="0.14" y="0.16" width="43.67" height="43.55" rx="10.38" style="fill:#896bff"/><g id="BLAuIE.tif"><path d="M19.36,9.92c-1.18-1.63-1.17-3,0-4.06A2.65,2.65,0,0,1,22.93,6C24,7,24,8.43,22.9,9.83a22.39,22.39,0,0,1,2.6,1.28A8.14,8.14,0,0,1,29.3,18c.09,3.81,0,7.62,0,11.43,0,1.91,0,3.83,0,5.74a2.47,2.47,0,0,0,0,.34h1.07v3.17H11.76V35.49h1.12V32.44c0-4.87,0-9.74,0-14.6a8.51,8.51,0,0,1,5.68-7.67ZM19,30.41h4.1V19.52H19ZM14,19.5V30.44h3.9V19.5Zm10.3,0V30.43h3.89V19.51Zm-1.16-.86c0-1.95.09-3.88,0-5.8a2,2,0,0,0-2.62-1.78A2.22,2.22,0,0,0,19,13.26c0,1.59,0,3.17,0,4.75v.64Zm-5.25,0c.21-2.38-.25-4.75.32-7.08A7.31,7.31,0,0,0,14,18.65Zm10.31,0a7.23,7.23,0,0,0-4.21-7c.58,2.31.1,4.69.33,7ZM19.05,35.46h4.09V31.3H19.05Zm-5.07,0h3.91V31.28H14ZM28.21,31.3H24.29v4.16h3.92ZM21.1,6.08a1.78,1.78,0,1,0,1.78,1.79A1.78,1.78,0,0,0,21.1,6.08Z" style="fill:#fff"/></g></svg>