<svg id="Layer_1" data-name="Layer 1" xmlns="http://www.w3.org/2000/svg" viewBox="0 0 38.1 38.1"><defs><style>.cls-1{fill:#231f20;}</style></defs><title>Circuito de Malhação</title><path class="cls-1" d="M30.05,7.5H25.93V6.92a.38.38,0,0,0-.39-.39H24.3a.38.38,0,0,0-.38.39V7.5H15.2V6.92a.38.38,0,0,0-.38-.39H13.58a.39.39,0,0,0-.39.39V7.5H7.65V9.3h0V34.77h1.8V9.3h3.74v3.35c0,.38.69.63.91.63h.34A1.07,1.07,0,0,0,15,13v0l1.72-1.08V10l-1.53.89V9.3h8.72v1.55L22.39,10v2L24.12,13v0a1.07,1.07,0,0,0,.56.3H25c.22,0,.91-.25.91-.63V9.3h4.12V34.77h1.79V7.5Z"/><polygon class="cls-1" points="20.32 20.78 19.03 21.42 18.29 24.03 20.94 22.9 20.32 20.78"/><polygon class="cls-1" points="19.66 23.49 21.3 24.03 20.95 22.95 19.66 23.49"/><path class="cls-1" d="M23.91,19.71a.5.5,0,0,0-.63-.3l-.56.26L22,16.92l0-7.1c0-.19-.21-.34-.46-.34H17.61c-.25,0-.45.15-.45.34V17l-.56,2.67L16,19.43a.52.52,0,0,0-.67.25l-.35.76a.52.52,0,0,0,.25.68l1,.44-.33,1.58c-.21.77,1.25,1,1.59,1a.84.84,0,0,0,.76-.48l.57-2,.13-.28A.59.59,0,0,0,19,21l.76-2.71,1.55,5.2c.29.87,1.64.48,1.8.38s.71-.57.52-1l-.35-1.29.86-.39a.51.51,0,0,0,.19-.68Z"/><path class="cls-1" d="M18.36,7h2.77a2.27,2.27,0,1,0-3.65-1.8A2.3,2.3,0,0,0,18.36,7Z"/></svg>