<svg xmlns="http://www.w3.org/2000/svg" viewBox="0 0 31.11 31.11"><title>distance</title><g id="Layer_2" data-name="Layer 2"><g id="Layer_1-2" data-name="Layer 1"><path d="M21.73.46l-2,2,2.18,2.18-.71.71L19,3.16,16.91,5.28l3.6,3.59-.71.71L16.2,6,14.08,8.11l2.18,2.18-.7.71L13.38,8.82l-2.13,2.12,3.6,3.59-.71.71-3.59-3.6L8.43,13.77,10.61,16l-.71.7L7.72,14.47,5.6,16.59l3.59,3.6-.7.71-3.6-3.6L2.77,19.42,5,21.6l-.71.71L2.06,20.13l-1.6,1.6A1.58,1.58,0,0,0,.46,24l6.71,6.7a1.55,1.55,0,0,0,2.21,0L30.65,9.38a1.55,1.55,0,0,0,0-2.21L24,.46A1.58,1.58,0,0,0,21.73.46Z" fill="#372a3d"/></g></g></svg>