<svg xmlns="http://www.w3.org/2000/svg" viewBox="0 0 88.36 103.33"><title>parques</title><g id="Layer_2" data-name="Layer 2"><g id="Layer_1-2" data-name="Layer 1"><path d="M66.63,103.32c-20.7,0-41.4,0-62.1-.1-1.09,0-2.18-1.46-3.26-2.24,1.09-.77,2.14-2.08,3.29-2.19,3.23-.3,6.51-.1,9.7-.1v-15c-1.86-.2-3.62-.25-5.32-.59C3.63,82,.74,78.71.22,71.3c-1-13.95,1.23-27.45,8.31-39.7C13.07,23.75,20,23.92,25,31.55c4.64,7.09,7.33,17.5,8.19,30.84,1.37-4,2.87-9.15,4.9-14.07,1.39-3.35,3.53-6.61,7.74-6.74,4-.11,6.22,2.88,7.89,6a41.18,41.18,0,0,1,3.19,7.75c2.19,7.47,3.39,15.07,1.87,22.84-1.09,5.53-4,8.21-9.58,9.14-.25,0-.49.13-.84.22v11M15.12,78.76C24,78.76,27,77,27.91,70.33a57.56,57.56,0,0,0-6.05-34.6C20.79,33.65,18.37,31,16.49,31c-1.64-.06-3.95,2.86-5,4.95C6.37,46.07,4.57,57,4.64,68.31,4.69,76.84,6.67,78.76,15.12,78.76ZM54.75,72c-.35-7.94-1.45-15.49-5.33-22.32-.78-1.37-2.34-3.15-3.55-3.16s-2.58,1.94-3.3,3.33a50.8,50.8,0,0,0-5.35,24.64c.05,2.63,1.15,7,2.75,7.5A18.24,18.24,0,0,0,51,81.76C55.23,80.22,54.27,75.45,54.75,72ZM18.84,98.6H43.46v-11c-3.91,0-7.75-.66-9.27-4.58-1.28-3.32-1.59-7-2.12-9.51-1.3,6-5.87,9.62-13.23,9.94Z"/><path d="M55.16,18.56l1.73-4.1a45.23,45.23,0,0,1-4.23-5c-.53-.85-.17-2.25-.22-3.4,1.16,0,2.59-.35,3.43.19a42.64,42.64,0,0,1,5,4.24L65,8.7a45.55,45.55,0,0,1,.1-6.5A3.15,3.15,0,0,1,67.22,0a3.05,3.05,0,0,1,2.32,1.94,47.77,47.77,0,0,1,.11,6.77l4.19,1.74a38.77,38.77,0,0,1,4.89-4.14c.89-.55,2.35-.21,3.55-.27-.09,1.18.2,2.61-.36,3.5a41.36,41.36,0,0,1-4.14,4.87l1.74,4.15a43.41,43.41,0,0,1,6.35.1c.91.13,1.67,1.33,2.49,2-.76.84-1.42,2.27-2.29,2.42a41.05,41.05,0,0,1-6.57.11l-1.81,4.36A43.53,43.53,0,0,1,82,32.41c.54.8.17,2.21.21,3.34-1.14,0-2.56.41-3.37-.12a44.68,44.68,0,0,1-5-4.31L69.73,33a37,37,0,0,1-.11,6.23c-.17,1-1.48,1.77-2.27,2.65-.77-.9-2-1.71-2.22-2.72a35.67,35.67,0,0,1-.1-6.12l-4.09-1.72A40.2,40.2,0,0,1,56,35.45c-.91.56-2.35.23-3.56.31.09-1.18-.21-2.62.35-3.49A39.77,39.77,0,0,1,57,27.5l-1.79-4.26a39.09,39.09,0,0,1-6.4-.11c-.92-.15-1.65-1.48-2.47-2.27.84-.77,1.59-2,2.53-2.19A39.22,39.22,0,0,1,55.16,18.56Zm12.16-5.14a7.38,7.38,0,0,0-7.45,7.4,7.53,7.53,0,0,0,7.41,7.6,7.64,7.64,0,0,0,7.6-7.64A7.57,7.57,0,0,0,67.32,13.42Z"/></g></g></svg>