<svg xmlns="http://www.w3.org/2000/svg" viewBox="0 0 30.21 38.31"><title>resultado</title><g id="Layer_2" data-name="Layer 2"><g id="Layer_1-2" data-name="Layer 1"><path d="M19.78,0a4.48,4.48,0,0,1,.82.1l.27.07a1.51,1.51,0,0,1,1.18,1.16,9.44,9.44,0,0,1,0,2.87c-.31,1-1.5,1.07-2.23,1.1-3.38,0-6.75,0-10.13,0a3.83,3.83,0,0,1-.83-.08l-.28-.07C8,5,7.33,4.64,7.27,4a11.41,11.41,0,0,1,0-2.81C7.55.22,8.77.05,9.54,0Q14.67,0,19.78,0ZM24.65,8.1a1.63,1.63,0,0,1,1,.38c1.44,1.27,2.8,2.63,4.2,3.94A1.59,1.59,0,0,1,29.08,15a1.71,1.71,0,0,1-1.42-.34c-1.42-1.28-2.79-2.63-4.19-3.94A1.54,1.54,0,0,1,24.65,8.1ZM13.06,23.4c0-2.51,0-5,0-7.51a1.32,1.32,0,0,1,1.2-1.27H16a1.33,1.33,0,0,1,1.21,1.21c.07,2.86,0,5.71,0,8.57a1.31,1.31,0,0,1-.91,1.2c-1.38,1.62-2.84,3.18-4.25,4.77a1.24,1.24,0,0,1-1.66.14c-.94-.78-1.93-1.74-1.25-2.64C10.39,26.35,11.73,24.88,13.06,23.4Zm1.46-10.82c-6.32.13-11.78,6.34-10.8,12.75a11.4,11.4,0,0,0,10.94,9.38c7.24,0,13.33-8.44,10.09-15.62a11.34,11.34,0,0,0-9.94-6.51Zm.14,22.71ZM17,6.8c.41.09.47.18.49.57V9.26l.49.1A15.18,15.18,0,0,1,29.18,25.7,15.15,15.15,0,0,1,14.1,38.3,15.12,15.12,0,0,1,0,24.4,15.06,15.06,0,0,1,11.82,9.26v-2c.08-.41.18-.47.57-.49H17Z" fill-rule="evenodd"/></g></g></svg>