<svg xmlns="http://www.w3.org/2000/svg" viewBox="0 0 29.8 36.48"><title>Veredas</title><g id="Layer_2" data-name="Layer 2"><g id="Layer_1-2" data-name="Layer 1"><g id="EUofkf.tif"><path d="M23.38,24.32V18.57l.06,0,1,10c.32-1.33.7-2.56.91-3.81.37-2.24.63-4.5.93-6.75,0-.21.07-.53,0-.62-.73-.57-.52-1.28-.38-2,.31-1.55.61-3.11.91-4.66.19-.93.82-1.51,1.48-1.35s1,.88.81,1.77c-.35,1.77-.69,3.55-1.08,5.31a1.38,1.38,0,0,1-.62.89,1,1,0,0,0-.67.92,21.87,21.87,0,0,0-.26,2.84l.58-1.43c-.68,3.29-1.71,6.53-.92,10l1-1.5.2.07a13.74,13.74,0,0,0-1.11,8.24h-5l-.34-.73-.36.77c-.58-.17-1.42.44-1.68-.65a9.16,9.16,0,0,0-.69-1.89l.18,2.49H17.33l-.48-11.74H16.7V36.37H14.59l-.1-1.57h-.11l-.14,1.59H11.11l-.86-6.51v6.49H5c-.19-3.46-.57-6.94-.51-10.42a83.37,83.37,0,0,1,1-10.43v9.32c.4-7.79.7-15.38,3-22.72C8.23,3.58,7.89,5,7.76,6.52c-.37,4.26-.71,8.53-.92,12.8a13.51,13.51,0,0,0,.69,3.24c.09.42.16.84.25,1.38L8.53,19l.21,0V29a40.33,40.33,0,0,0,.19-14.22l.76,2.42.14,0c-.06-1-.11-2.09-.2-3.14a.58.58,0,0,0-.26-.44c-.71-.24-.84-.81-.89-1.45-.12-1.66-.25-3.33-.38-5a1.35,1.35,0,0,1,.6-1.44c.2-.13.24-.5.32-.65.16.17.4.38.6.63s.64.67.68,1c.21,1.85.34,3.71.47,5.57a1.06,1.06,0,0,1-.19.77c-.58.43-.48,1-.45,1.57.07,1.38.13,2.76.27,4.16l.75-3.18.11,0V28.53h.27l.3-4.83h.22v6.81h.39c.11-2.12.29-4.24.31-6.36s0-4.34-.19-6.5-.44-4.26-.76-6.38-.75-4.24-1.09-6.38a51.45,51.45,0,0,1,2.88,13.23V13h.13l.35,3.71h0V13.62l.29,0L15,21.4c.53-4.77,1-9.56,2.77-14.1a78,78,0,0,0-1.91,17.49l1.85-13.34A46.38,46.38,0,0,1,20.08,22c0-.5.13-1,.12-1.48q-.09-5-.24-10a1,1,0,0,0-.4-.68,1.6,1.6,0,0,1-.76-1.39c-.1-2.06-.21-4.12-.31-6.17a1.54,1.54,0,0,1,.7-1.49c.26-.18.3-.67.36-.81a7.52,7.52,0,0,1,1.1,1.05,2.36,2.36,0,0,1,.48,1.18c.14,2,.21,4.06.33,6.08a1.55,1.55,0,0,1-.67,1.52.7.7,0,0,0-.28.51c0,2.52,0,5,.09,7.57.71-.79.73-1.09.52-4.36.07.29.15.58.22.87l.29,1.15L22.51,14c0,.06.08.1.07.12A7.52,7.52,0,0,0,22,18.33c.17,3.1.05,6.22.22,9.36.26-.88.51-1.75.8-2.62a4.66,4.66,0,0,1,.41-.76,23.45,23.45,0,0,0-.64,7.08c.08,1,.21,2,.32,3,.2-.1.23-.19.24-.29.08-2.79.17-5.59.23-8.39A10.78,10.78,0,0,0,23.38,24.32Zm-5.59,3.3a52.87,52.87,0,0,0,.94-6.68A50.7,50.7,0,0,0,18,14.25C16.87,18.72,17.63,23.17,17.79,27.62ZM21.62,18l-.32,0c-.9,3.25-.54,6.58-.66,9.87l.36,0ZM6.88,29.53a19.69,19.69,0,0,0,0-8.71Zm12.31,2.92.35,0-.44-8.6-.36,0Zm-5.94,3.69.36,0L14,28.47h-.2ZM7.62,35.8c.72-2.08.8-3.27.39-4.22Z"/><path d="M4.8,36.39H4l-.19-2.1H3.68l-.4,2.1H2a23.71,23.71,0,0,0-.61-9.19c.2.48.42.95.59,1.44a14.46,14.46,0,0,1,.46,1.59c.13.53.21,1.08.32,1.72.74-2.39.3-5.67-1.19-9.46.21.35.45.69.63,1.05a11.68,11.68,0,0,1,.49,1.15c.15.4.29.82.44,1.23l.27,0L3.16,14.1A51.87,51.87,0,0,1,4,25.69a39.47,39.47,0,0,0,.52,8.13C4.63,34.65,4.7,35.48,4.8,36.39Z"/><path d="M27.49,36.37h-.78a16.59,16.59,0,0,1,2.43-8c-.36,1.29-.79,2.57-1.06,3.88S27.69,34.94,27.49,36.37Z"/><path d="M0,32.09a7.52,7.52,0,0,1,1.32,4.22c-.39.13-.65.23-.72-.36C.44,34.63.19,33.31,0,32.09Z"/><path d="M29.8,33.87l-.88,2.61-.41-.17,1.09-2.57Z"/></g></g></g></svg>