<svg xmlns="http://www.w3.org/2000/svg" viewBox="0 0 18.67 33.43"><title>viveiro</title><g id="Layer_2" data-name="Layer 2"><g id="Layer_1-2" data-name="Layer 1"><g id="BLAuIE.tif"><path d="M7.6,4.7c-1.18-1.62-1.18-3,0-4a2.64,2.64,0,0,1,3.56.08c1.11,1.05,1.09,2.48,0,3.88A20.41,20.41,0,0,1,13.74,5.9a8.15,8.15,0,0,1,3.8,6.85c.09,3.81,0,7.62,0,11.44,0,1.91,0,3.82,0,5.74a2.35,2.35,0,0,0,0,.33h1.07v3.17H0V30.27H1.12V27.22c0-4.87,0-9.73,0-14.6A8.53,8.53,0,0,1,6.81,5ZM7.28,25.2h4.1V14.3H7.28Zm-5-10.92v11H6.13v-11Zm10.3,0V25.22h3.89V14.29Zm-1.16-.86c0-1.95.09-3.88,0-5.79A2,2,0,0,0,8.72,5.85a2.24,2.24,0,0,0-1.45,2.2c0,1.58,0,3.16,0,4.74v.64Zm-5.25,0c.2-2.38-.25-4.75.31-7.07a7.28,7.28,0,0,0-4.18,7.07Zm10.31,0a7.25,7.25,0,0,0-4.21-7c.58,2.31.1,4.69.32,7.05ZM7.29,30.24h4.08V26.08H7.29Zm-5.07,0H6.13V26.06H2.22Zm14.23-4.15H12.53v4.15h3.92ZM9.33.87a1.77,1.77,0,0,0-1.77,1.8A1.78,1.78,0,1,0,9.33.87Z"/></g></g></g></svg>